G04 Layer_Physical_Order=2*
G04 Layer_Color=16711680*
%FSLAX44Y44*%
%MOMM*%
G71*
G01*
G75*
%ADD10R,0.7000X0.9000*%
%ADD13R,0.9000X0.7000*%
%ADD39R,1.1000X1.4000*%
%ADD46R,1.5000X1.5000*%
%ADD47C,0.1524*%
%ADD48C,0.3000*%
%ADD49C,0.1778*%
%ADD51C,0.6350*%
%ADD53C,0.1520*%
%ADD57R,1.5000X1.5000*%
%ADD58C,1.5000*%
%ADD59C,1.0000*%
%ADD60R,1.0000X1.0000*%
%ADD61C,1.5240*%
%ADD62O,2.0000X1.0000*%
%ADD63O,2.0000X1.0000*%
%ADD64C,0.6000*%
%ADD65C,0.4000*%
%ADD66C,3.0000*%
%ADD67R,1.2000X1.2000*%
%ADD68R,0.5000X0.3500*%
%ADD69R,0.3048X1.0160*%
%ADD70R,0.3556X1.0160*%
G36*
X466373Y64786D02*
X371927D01*
X371376Y66056D01*
X372327Y67478D01*
X372504Y68370D01*
X361712D01*
X361889Y67478D01*
X362840Y66056D01*
X362289Y64786D01*
X356687D01*
X356136Y66056D01*
X357086Y67478D01*
X357264Y68370D01*
X346472D01*
X346649Y67478D01*
X347600Y66056D01*
X347049Y64786D01*
X341447D01*
X340896Y66056D01*
X341847Y67478D01*
X342024Y68370D01*
X331232D01*
X331409Y67478D01*
X332360Y66056D01*
X331809Y64786D01*
X326207D01*
X325656Y66056D01*
X326606Y67478D01*
X326784Y68370D01*
X315992D01*
X316169Y67478D01*
X317120Y66056D01*
X316569Y64786D01*
X310967D01*
X310416Y66056D01*
X311367Y67478D01*
X311544Y68370D01*
X300752D01*
X300929Y67478D01*
X302154Y65646D01*
X303986Y64421D01*
X306068Y64007D01*
X306466Y63401D01*
X306744Y62884D01*
X299479Y55531D01*
X299044Y55597D01*
X298437Y56975D01*
X298666Y57318D01*
X298844Y58210D01*
X288052D01*
X288229Y57318D01*
X289097Y56020D01*
X288443Y54750D01*
X283213D01*
X282559Y56020D01*
X283426Y57318D01*
X283604Y58210D01*
X278208D01*
Y59480D01*
X276938D01*
Y64876D01*
X276046Y64699D01*
X274214Y63474D01*
X273200Y61956D01*
X272903Y61878D01*
X272085D01*
X271788Y61956D01*
X270774Y63474D01*
X268942Y64699D01*
X268050Y64876D01*
Y59480D01*
X266780D01*
Y58210D01*
X261384D01*
X261561Y57318D01*
X262429Y56020D01*
X261775Y54750D01*
X256545D01*
X255891Y56020D01*
X256758Y57318D01*
X256936Y58210D01*
X246144D01*
X246321Y57318D01*
X247189Y56020D01*
X246535Y54750D01*
X209553D01*
X208899Y56020D01*
X209767Y57318D01*
X209944Y58210D01*
X199152D01*
X199329Y57318D01*
X200197Y56020D01*
X199543Y54750D01*
X194313D01*
X193659Y56020D01*
X194527Y57318D01*
X194704Y58210D01*
X183912D01*
X184089Y57318D01*
X184957Y56020D01*
X184303Y54750D01*
X179073D01*
X178419Y56020D01*
X179286Y57318D01*
X179464Y58210D01*
X168672D01*
X168849Y57318D01*
X169717Y56020D01*
X169063Y54750D01*
X163833D01*
X163179Y56020D01*
X164046Y57318D01*
X164224Y58210D01*
X153432D01*
X153609Y57318D01*
X154477Y56020D01*
X153823Y54750D01*
X148593D01*
X147939Y56020D01*
X148806Y57318D01*
X148984Y58210D01*
X138192D01*
X138369Y57318D01*
X139237Y56020D01*
X138583Y54750D01*
X133353D01*
X132699Y56020D01*
X133567Y57318D01*
X133744Y58210D01*
X122952D01*
X123129Y57318D01*
X123997Y56020D01*
X123343Y54750D01*
X118113D01*
X117459Y56020D01*
X118327Y57318D01*
X118504Y58210D01*
X107712D01*
X107889Y57318D01*
X108757Y56020D01*
X108103Y54750D01*
X102873D01*
X102219Y56020D01*
X103087Y57318D01*
X103264Y58210D01*
X92472D01*
X92649Y57318D01*
X93517Y56020D01*
X92863Y54750D01*
X87633D01*
X86979Y56020D01*
X87846Y57318D01*
X88024Y58210D01*
X77232D01*
X77409Y57318D01*
X78277Y56020D01*
X77623Y54750D01*
X75127D01*
X68274Y61603D01*
X68692Y62981D01*
X69549Y63151D01*
X71382Y64376D01*
X72607Y66208D01*
X72784Y67100D01*
X61992D01*
X62169Y66208D01*
X62396Y65870D01*
X61797Y64750D01*
X56913D01*
X56392Y66020D01*
X57366Y67478D01*
X57544Y68370D01*
X46752D01*
X46929Y67478D01*
X47904Y66020D01*
X47383Y64750D01*
X41673D01*
X41152Y66020D01*
X42126Y67478D01*
X42304Y68370D01*
X31512D01*
X31689Y67478D01*
X32664Y66020D01*
X32143Y64750D01*
X26433D01*
X25912Y66020D01*
X26886Y67478D01*
X27064Y68370D01*
X16272D01*
X16449Y67478D01*
X17424Y66020D01*
X16903Y64750D01*
X11193D01*
X10672Y66020D01*
X11646Y67478D01*
X11824Y68370D01*
X6428D01*
Y69640D01*
X5158D01*
Y75036D01*
X4266Y74858D01*
X2636Y73769D01*
X1365Y74147D01*
X1128Y372388D01*
X2025Y373286D01*
X219610D01*
X220378Y372350D01*
Y361740D01*
X220565Y360798D01*
X221098Y360000D01*
X315332Y265766D01*
X316131Y265233D01*
X317072Y265046D01*
X319645D01*
X320030Y263776D01*
X318666Y262864D01*
X317441Y261032D01*
X317264Y260140D01*
X328056D01*
X327878Y261032D01*
X326654Y262864D01*
X325290Y263776D01*
X325675Y265046D01*
X350343D01*
X363126Y252263D01*
Y227040D01*
X251019D01*
X250484Y227842D01*
X248987Y228841D01*
X247222Y229193D01*
X245457Y228841D01*
X243960Y227842D01*
X242960Y226345D01*
X242609Y224580D01*
X242960Y222815D01*
X243960Y221318D01*
X245457Y220319D01*
X247222Y219967D01*
X248987Y220319D01*
X250484Y221318D01*
X251019Y222120D01*
X397587D01*
X401484Y218223D01*
X401140Y217393D01*
X400916Y215690D01*
X401140Y213987D01*
X401797Y212400D01*
X402843Y211037D01*
X404145Y210038D01*
X404245Y209353D01*
Y209327D01*
X404145Y208642D01*
X402843Y207643D01*
X401797Y206280D01*
X401140Y204693D01*
X400916Y202990D01*
X401140Y201287D01*
X401797Y199700D01*
X402843Y198337D01*
X404145Y197338D01*
X404245Y196653D01*
Y196627D01*
X404145Y195942D01*
X402843Y194943D01*
X401797Y193580D01*
X401140Y191993D01*
X400916Y190290D01*
X401140Y188587D01*
X401797Y187000D01*
X402843Y185637D01*
X404145Y184638D01*
X404245Y183953D01*
Y183927D01*
X404145Y183242D01*
X402843Y182243D01*
X401797Y180880D01*
X401140Y179293D01*
X400916Y177590D01*
X401140Y175887D01*
X401797Y174300D01*
X402843Y172937D01*
X404145Y171938D01*
X404245Y171253D01*
Y171227D01*
X404145Y170542D01*
X402843Y169543D01*
X401797Y168180D01*
X401140Y166593D01*
X400916Y164890D01*
X401140Y163187D01*
X401797Y161600D01*
X402843Y160237D01*
X404206Y159191D01*
X405793Y158534D01*
X407496Y158310D01*
X409199Y158534D01*
X410786Y159191D01*
X412149Y160237D01*
X412276Y160403D01*
X413546Y159972D01*
Y159890D01*
X414030Y158724D01*
X415196Y158240D01*
X425196D01*
X426362Y158724D01*
X426846Y159890D01*
Y169890D01*
X426362Y171056D01*
X426227Y171113D01*
X426074Y171370D01*
X425891Y172626D01*
X426782Y173787D01*
X427542Y175622D01*
X427634Y176320D01*
X420196D01*
Y178860D01*
X427634D01*
X427542Y179558D01*
X426782Y181392D01*
X425574Y182968D01*
X425134Y183305D01*
Y184575D01*
X425574Y184912D01*
X426782Y186487D01*
X427542Y188322D01*
X427634Y189020D01*
X420196D01*
Y191560D01*
X427634D01*
X427542Y192258D01*
X426782Y194093D01*
X425574Y195668D01*
X424515Y196480D01*
X424401Y197864D01*
X424478Y198052D01*
X424849Y198337D01*
X425895Y199700D01*
X426552Y201287D01*
X426776Y202990D01*
X426552Y204693D01*
X425895Y206280D01*
X424849Y207643D01*
X424478Y207928D01*
X424401Y208116D01*
X424515Y209500D01*
X425574Y210312D01*
X426782Y211887D01*
X427542Y213722D01*
X427634Y214420D01*
X420196D01*
Y215690D01*
X418926D01*
Y223128D01*
X418228Y223036D01*
X416394Y222276D01*
X414818Y221068D01*
X414006Y220009D01*
X412622Y219895D01*
X412434Y219972D01*
X412149Y220343D01*
X410786Y221389D01*
X409199Y222046D01*
X407496Y222270D01*
X405793Y222046D01*
X404963Y221702D01*
X400346Y226320D01*
X399548Y226853D01*
X398606Y227040D01*
X368046D01*
Y253282D01*
X367859Y254223D01*
X367326Y255022D01*
X353102Y269246D01*
X352304Y269779D01*
X351362Y269966D01*
X322696D01*
X322570Y271236D01*
X323552Y271431D01*
X325384Y272656D01*
X326609Y274488D01*
X326786Y275380D01*
X315994D01*
X316171Y274488D01*
X317396Y272656D01*
X319228Y271431D01*
X320210Y271236D01*
X320084Y269966D01*
X318091D01*
X225298Y362759D01*
Y372350D01*
X226066Y373286D01*
X466373D01*
Y64786D01*
D02*
G37*
G36*
X1000000Y-2D02*
X450000D01*
Y63136D01*
X466373D01*
X467539Y63620D01*
X468023Y64786D01*
Y373286D01*
X467539Y374452D01*
X466373Y374936D01*
X383420D01*
X383034Y376206D01*
X384232Y377006D01*
X385457Y378838D01*
X385634Y379730D01*
X374842D01*
X375019Y378838D01*
X376244Y377006D01*
X377442Y376206D01*
X377056Y374936D01*
X226848D01*
X225759Y376078D01*
X225776Y376760D01*
X226099Y376976D01*
X227099Y378473D01*
X227451Y380238D01*
X227099Y382003D01*
X226099Y383500D01*
X224603Y384500D01*
X222838Y384851D01*
X221073Y384500D01*
X219576Y383500D01*
X218576Y382003D01*
X218225Y380238D01*
X218576Y378473D01*
X219576Y376976D01*
X219900Y376760D01*
X219916Y376078D01*
X218827Y374936D01*
X2025D01*
X2025Y374935D01*
X2025Y374936D01*
X1435Y374691D01*
X1270Y374623D01*
X0Y375253D01*
Y999998D01*
X1000000D01*
Y-2D01*
D02*
G37*
%LPC*%
G36*
X186770Y162666D02*
X185878Y162488D01*
X184046Y161264D01*
X182821Y159432D01*
X182644Y158540D01*
X186770D01*
Y162666D01*
D02*
G37*
G36*
X210900Y159618D02*
X210008Y159440D01*
X208608Y158505D01*
X207725Y158314D01*
X206842Y158505D01*
X205442Y159440D01*
X204550Y159618D01*
Y154222D01*
Y148826D01*
X205442Y149003D01*
X207274Y150228D01*
X208176D01*
X210008Y149003D01*
X210900Y148826D01*
Y154222D01*
Y159618D01*
D02*
G37*
G36*
X115650Y166476D02*
X114758Y166299D01*
X112926Y165074D01*
X111701Y163242D01*
X111524Y162350D01*
X115650D01*
Y166476D01*
D02*
G37*
G36*
X118190D02*
Y162350D01*
X122316D01*
X122139Y163242D01*
X120914Y165074D01*
X119082Y166299D01*
X118190Y166476D01*
D02*
G37*
G36*
X143906Y163620D02*
X139780D01*
Y159494D01*
X140672Y159671D01*
X142504Y160896D01*
X143729Y162728D01*
X143906Y163620D01*
D02*
G37*
G36*
X189310Y162666D02*
Y158540D01*
X193436D01*
X193258Y159432D01*
X192034Y161264D01*
X190202Y162488D01*
X189310Y162666D01*
D02*
G37*
G36*
X137240Y163620D02*
X133114D01*
X133291Y162728D01*
X134516Y160896D01*
X136348Y159671D01*
X137240Y159494D01*
Y163620D01*
D02*
G37*
G36*
X193436Y156000D02*
X182644D01*
X182790Y155265D01*
X180798Y154868D01*
X178966Y153644D01*
X178515Y152969D01*
X177245D01*
X176794Y153644D01*
X174962Y154868D01*
X174070Y155046D01*
Y149650D01*
Y144254D01*
X174962Y144431D01*
X176794Y145656D01*
X177245Y146331D01*
X178515D01*
X178966Y145656D01*
X180798Y144431D01*
X181690Y144254D01*
Y149650D01*
X182960D01*
Y150920D01*
X188356D01*
X188210Y151655D01*
X190202Y152051D01*
X192034Y153276D01*
X193258Y155108D01*
X193436Y156000D01*
D02*
G37*
G36*
X202010Y159618D02*
X201118Y159440D01*
X199286Y158216D01*
X198061Y156384D01*
X197884Y155492D01*
X202010D01*
Y159618D01*
D02*
G37*
G36*
X171530Y155046D02*
X170638Y154868D01*
X168806Y153644D01*
X168355Y152969D01*
X167085D01*
X166634Y153644D01*
X164802Y154868D01*
X163910Y155046D01*
Y149650D01*
Y144254D01*
X164802Y144431D01*
X166634Y145656D01*
X167085Y146331D01*
X168355D01*
X168806Y145656D01*
X170638Y144431D01*
X171530Y144254D01*
Y149650D01*
Y155046D01*
D02*
G37*
G36*
X151210D02*
X150318Y154868D01*
X148486Y153644D01*
X148035Y152969D01*
X146765D01*
X146314Y153644D01*
X144482Y154868D01*
X143590Y155046D01*
Y149650D01*
Y144254D01*
X144482Y144431D01*
X146314Y145656D01*
X146765Y146331D01*
X148035D01*
X148486Y145656D01*
X150318Y144431D01*
X151210Y144254D01*
Y149650D01*
Y155046D01*
D02*
G37*
G36*
X161370D02*
X160478Y154868D01*
X158646Y153644D01*
X158195Y152969D01*
X156925D01*
X156474Y153644D01*
X154642Y154868D01*
X153750Y155046D01*
Y149650D01*
Y144254D01*
X154642Y144431D01*
X156474Y145656D01*
X156925Y146331D01*
X158195D01*
X158646Y145656D01*
X160478Y144431D01*
X161370Y144254D01*
Y149650D01*
Y155046D01*
D02*
G37*
G36*
X373968Y162158D02*
X373076Y161980D01*
X371244Y160756D01*
X370019Y158924D01*
X369842Y158032D01*
X373968D01*
Y162158D01*
D02*
G37*
G36*
X376508D02*
Y158032D01*
X380634D01*
X380457Y158924D01*
X379232Y160756D01*
X377400Y161980D01*
X376508Y162158D01*
D02*
G37*
G36*
X221060Y160126D02*
X220168Y159949D01*
X218336Y158724D01*
X217844Y157988D01*
X216317D01*
X216164Y158216D01*
X214332Y159440D01*
X213440Y159618D01*
Y154222D01*
Y148826D01*
X214332Y149003D01*
X216164Y150228D01*
X216656Y150964D01*
X217915D01*
X218265Y149728D01*
X217111Y148002D01*
X216934Y147110D01*
X227726D01*
X227549Y148002D01*
X226324Y149834D01*
Y150736D01*
X227549Y152568D01*
X227726Y153460D01*
X222330D01*
Y154730D01*
X221060D01*
Y160126D01*
D02*
G37*
G36*
X115650Y159810D02*
X111524D01*
X111701Y158918D01*
X112926Y157086D01*
X114758Y155861D01*
X115650Y155684D01*
Y159810D01*
D02*
G37*
G36*
X223600Y160126D02*
Y156000D01*
X227726D01*
X227549Y156892D01*
X226324Y158724D01*
X224492Y159949D01*
X223600Y160126D01*
D02*
G37*
G36*
X137240Y170286D02*
X136348Y170109D01*
X134516Y168884D01*
X133291Y167052D01*
X133114Y166160D01*
X137240D01*
Y170286D01*
D02*
G37*
G36*
X129620Y184256D02*
Y180130D01*
X133746D01*
X133568Y181022D01*
X132344Y182854D01*
X130512Y184079D01*
X129620Y184256D01*
D02*
G37*
G36*
X342026Y183940D02*
X331234D01*
X331291Y183653D01*
X330096Y182854D01*
X328871Y181022D01*
X328694Y180130D01*
X339486D01*
X339429Y180417D01*
X340624Y181216D01*
X341848Y183048D01*
X342026Y183940D01*
D02*
G37*
G36*
X127080Y184256D02*
X126188Y184079D01*
X124356Y182854D01*
X123131Y181022D01*
X122954Y180130D01*
X127080D01*
Y184256D01*
D02*
G37*
G36*
X308690Y183940D02*
X304564D01*
X304741Y183048D01*
X305966Y181216D01*
X307798Y179991D01*
X308690Y179814D01*
Y183940D01*
D02*
G37*
G36*
X315356D02*
X311230D01*
Y179814D01*
X312122Y179991D01*
X313954Y181216D01*
X315179Y183048D01*
X315356Y183940D01*
D02*
G37*
G36*
X264556Y186480D02*
X260430D01*
Y182354D01*
X261322Y182531D01*
X263154Y183756D01*
X264379Y185588D01*
X264556Y186480D01*
D02*
G37*
G36*
X151526Y191560D02*
X140734D01*
X140911Y190668D01*
X142136Y188836D01*
X142811Y188385D01*
Y187115D01*
X142136Y186664D01*
X140911Y184832D01*
X140734Y183940D01*
X151526D01*
X151348Y184832D01*
X150124Y186664D01*
X149449Y187115D01*
Y188385D01*
X150124Y188836D01*
X151348Y190668D01*
X151526Y191560D01*
D02*
G37*
G36*
X237570Y186480D02*
X233444D01*
X233621Y185588D01*
X234846Y183756D01*
X236678Y182531D01*
X237570Y182354D01*
Y186480D01*
D02*
G37*
G36*
X99140D02*
X95014D01*
X95191Y185588D01*
X96416Y183756D01*
X98248Y182531D01*
X99140Y182354D01*
Y186480D01*
D02*
G37*
G36*
X105806D02*
X101680D01*
Y182354D01*
X102572Y182531D01*
X104404Y183756D01*
X105628Y185588D01*
X105806Y186480D01*
D02*
G37*
G36*
X127080Y177590D02*
X122954D01*
X123131Y176698D01*
X124356Y174866D01*
X126188Y173641D01*
X127080Y173464D01*
Y177590D01*
D02*
G37*
G36*
X133746D02*
X129620D01*
Y173464D01*
X130512Y173641D01*
X132344Y174866D01*
X133568Y176698D01*
X133746Y177590D01*
D02*
G37*
G36*
X156606Y171240D02*
X152480D01*
Y167114D01*
X153372Y167291D01*
X155204Y168516D01*
X156428Y170348D01*
X156606Y171240D01*
D02*
G37*
G36*
X139780Y170286D02*
Y166160D01*
X143906D01*
X143729Y167052D01*
X142504Y168884D01*
X140672Y170109D01*
X139780Y170286D01*
D02*
G37*
G36*
X149940Y171240D02*
X145814D01*
X145991Y170348D01*
X147216Y168516D01*
X149048Y167291D01*
X149940Y167114D01*
Y171240D01*
D02*
G37*
G36*
X373714Y183178D02*
X369588D01*
X369765Y182286D01*
X370990Y180454D01*
X372822Y179229D01*
X373714Y179052D01*
Y183178D01*
D02*
G37*
G36*
X380380D02*
X376254D01*
Y179052D01*
X377146Y179229D01*
X378978Y180454D01*
X380202Y182286D01*
X380380Y183178D01*
D02*
G37*
G36*
X151526Y181400D02*
X140734D01*
X140911Y180508D01*
X142136Y178676D01*
X143968Y177451D01*
X146130Y177022D01*
X146783Y175856D01*
X145991Y174672D01*
X145814Y173780D01*
X156606D01*
X156428Y174672D01*
X155204Y176504D01*
X153372Y177729D01*
X151210Y178158D01*
X150557Y179324D01*
X151348Y180508D01*
X151526Y181400D01*
D02*
G37*
G36*
X332820Y177590D02*
X328694D01*
X328871Y176698D01*
X330096Y174866D01*
X331928Y173641D01*
X332820Y173464D01*
Y177590D01*
D02*
G37*
G36*
X339486D02*
X335360D01*
Y173464D01*
X336252Y173641D01*
X338084Y174866D01*
X339309Y176698D01*
X339486Y177590D01*
D02*
G37*
G36*
X307736Y130600D02*
X303610D01*
Y126474D01*
X304502Y126651D01*
X306334Y127876D01*
X307558Y129708D01*
X307736Y130600D01*
D02*
G37*
G36*
X227726Y135680D02*
X216934D01*
X217111Y134788D01*
X218336Y132956D01*
Y132054D01*
X217111Y130222D01*
X216934Y129330D01*
X227726D01*
X227549Y130222D01*
X226324Y132054D01*
Y132956D01*
X227549Y134788D01*
X227726Y135680D01*
D02*
G37*
G36*
X297576Y139490D02*
X286784D01*
X286961Y138598D01*
X288186Y136766D01*
Y135864D01*
X286961Y134032D01*
X286784Y133140D01*
X292180D01*
Y131870D01*
X293450D01*
Y126474D01*
X294342Y126651D01*
X296174Y127876D01*
X296625Y128551D01*
X297895D01*
X298346Y127876D01*
X300178Y126651D01*
X301070Y126474D01*
Y131870D01*
Y137266D01*
X300178Y137088D01*
X298346Y135864D01*
X297895Y135189D01*
X296625D01*
X296174Y135864D01*
Y136766D01*
X297398Y138598D01*
X297576Y139490D01*
D02*
G37*
G36*
X107076Y130600D02*
X102950D01*
Y126474D01*
X103842Y126651D01*
X105674Y127876D01*
X106898Y129708D01*
X107076Y130600D01*
D02*
G37*
G36*
X290910D02*
X286784D01*
X286961Y129708D01*
X288186Y127876D01*
X290018Y126651D01*
X290910Y126474D01*
Y130600D01*
D02*
G37*
G36*
X100410Y137266D02*
X99518Y137088D01*
X97686Y135864D01*
X96461Y134032D01*
X96284Y133140D01*
X100410D01*
Y137266D01*
D02*
G37*
G36*
X102950D02*
Y133140D01*
X107076D01*
X106898Y134032D01*
X105674Y135864D01*
X103842Y137088D01*
X102950Y137266D01*
D02*
G37*
G36*
X256936Y136950D02*
X252810D01*
Y132824D01*
X253702Y133001D01*
X255534Y134226D01*
X256758Y136058D01*
X256936Y136950D01*
D02*
G37*
G36*
X127396Y138220D02*
X116604D01*
X116781Y137328D01*
X118006Y135496D01*
X118681Y135045D01*
Y133775D01*
X118006Y133324D01*
X116781Y131492D01*
X116604Y130600D01*
X127396D01*
X127219Y131492D01*
X125994Y133324D01*
X125319Y133775D01*
Y135045D01*
X125994Y135496D01*
X127219Y137328D01*
X127396Y138220D01*
D02*
G37*
G36*
X250270Y136950D02*
X246144D01*
X246321Y136058D01*
X247546Y134226D01*
X249378Y133001D01*
X250270Y132824D01*
Y136950D01*
D02*
G37*
G36*
X312500Y124566D02*
X311608Y124389D01*
X309776Y123164D01*
X308551Y121332D01*
X308397Y120555D01*
X307939Y120332D01*
X307020Y120144D01*
X305412Y121219D01*
X304520Y121396D01*
Y116000D01*
Y110604D01*
X305412Y110781D01*
X307244Y112006D01*
X308468Y113838D01*
X308623Y114615D01*
X309081Y114838D01*
X310000Y115026D01*
X311608Y113951D01*
X312500Y113774D01*
Y119170D01*
Y124566D01*
D02*
G37*
G36*
X127396Y128060D02*
X116604D01*
X116781Y127168D01*
X118006Y125336D01*
X118681Y124885D01*
Y123615D01*
X118006Y123164D01*
X116781Y121332D01*
X116604Y120440D01*
X127396D01*
X127219Y121332D01*
X125994Y123164D01*
X125319Y123615D01*
Y124885D01*
X125994Y125336D01*
X127219Y127168D01*
X127396Y128060D01*
D02*
G37*
G36*
X259476Y122980D02*
X255350D01*
Y118854D01*
X256242Y119031D01*
X258074Y120256D01*
X259298Y122088D01*
X259476Y122980D01*
D02*
G37*
G36*
X102950Y122026D02*
Y117900D01*
X107076D01*
X106898Y118792D01*
X105674Y120624D01*
X103842Y121848D01*
X102950Y122026D01*
D02*
G37*
G36*
X252810Y122980D02*
X248684D01*
X248861Y122088D01*
X250086Y120256D01*
X251918Y119031D01*
X252810Y118854D01*
Y122980D01*
D02*
G37*
G36*
X255350Y129646D02*
Y125520D01*
X259476D01*
X259298Y126412D01*
X258074Y128244D01*
X256242Y129468D01*
X255350Y129646D01*
D02*
G37*
G36*
X100410Y130600D02*
X96284D01*
X96461Y129708D01*
X97686Y127876D01*
X99518Y126651D01*
X100410Y126474D01*
Y130600D01*
D02*
G37*
G36*
X252810Y129646D02*
X251918Y129468D01*
X250086Y128244D01*
X248861Y126412D01*
X248684Y125520D01*
X252810D01*
Y129646D01*
D02*
G37*
G36*
X227726Y126790D02*
X216934D01*
X217111Y125898D01*
X218336Y124066D01*
Y123164D01*
X217111Y121332D01*
X216934Y120440D01*
X227726D01*
X227549Y121332D01*
X226324Y123164D01*
Y124066D01*
X227549Y125898D01*
X227726Y126790D01*
D02*
G37*
G36*
X315040Y124566D02*
Y120440D01*
X319166D01*
X318988Y121332D01*
X317764Y123164D01*
X315932Y124389D01*
X315040Y124566D01*
D02*
G37*
G36*
X202010Y152952D02*
X197884D01*
X198061Y152060D01*
X199286Y150228D01*
X201118Y149003D01*
X202010Y148826D01*
Y152952D01*
D02*
G37*
G36*
X122316Y159810D02*
X118190D01*
Y155684D01*
X119081Y155861D01*
X119726Y154793D01*
X118006Y153644D01*
X116781Y151812D01*
X116604Y150920D01*
X120730D01*
Y155046D01*
X119838Y154869D01*
X119194Y155937D01*
X120914Y157086D01*
X122139Y158918D01*
X122316Y159810D01*
D02*
G37*
G36*
X102950Y151236D02*
Y147110D01*
X107076D01*
X106898Y148002D01*
X105674Y149834D01*
X103842Y151059D01*
X102950Y151236D01*
D02*
G37*
G36*
X100410D02*
X99518Y151059D01*
X97686Y149834D01*
X96461Y148002D01*
X96284Y147110D01*
X100410D01*
Y151236D01*
D02*
G37*
G36*
X141050Y155046D02*
X140158Y154868D01*
X138326Y153644D01*
X137875Y152969D01*
X136605D01*
X136154Y153644D01*
X134322Y154868D01*
X133430Y155046D01*
Y149650D01*
Y144254D01*
X134322Y144431D01*
X136154Y145656D01*
X136605Y146331D01*
X137875D01*
X138326Y145656D01*
X140158Y144431D01*
X141050Y144254D01*
Y149650D01*
Y155046D01*
D02*
G37*
G36*
X373968Y155492D02*
X369842D01*
X370019Y154600D01*
X371244Y152768D01*
X373076Y151543D01*
X373968Y151366D01*
Y155492D01*
D02*
G37*
G36*
X380634D02*
X376508D01*
Y151366D01*
X377400Y151543D01*
X379232Y152768D01*
X380457Y154600D01*
X380634Y155492D01*
D02*
G37*
G36*
X252810Y143616D02*
Y139490D01*
X256936D01*
X256758Y140382D01*
X255534Y142214D01*
X253702Y143439D01*
X252810Y143616D01*
D02*
G37*
G36*
X100410Y144570D02*
X96284D01*
X96461Y143678D01*
X97686Y141846D01*
X99518Y140621D01*
X100410Y140444D01*
Y144570D01*
D02*
G37*
G36*
X250270Y143616D02*
X249378Y143439D01*
X247546Y142214D01*
X246321Y140382D01*
X246144Y139490D01*
X250270D01*
Y143616D01*
D02*
G37*
G36*
X303610Y137266D02*
Y133140D01*
X307736D01*
X307558Y134032D01*
X306334Y135864D01*
X304502Y137088D01*
X303610Y137266D01*
D02*
G37*
G36*
X227726Y144570D02*
X216934D01*
X217111Y143678D01*
X218336Y141846D01*
Y140944D01*
X217111Y139112D01*
X216934Y138220D01*
X227726D01*
X227549Y139112D01*
X226324Y140944D01*
Y141846D01*
X227549Y143678D01*
X227726Y144570D01*
D02*
G37*
G36*
X123270Y155046D02*
Y149650D01*
X122000D01*
Y148380D01*
X116604D01*
X116781Y147488D01*
X118006Y145656D01*
X118681Y145205D01*
Y143935D01*
X118006Y143484D01*
X116781Y141652D01*
X116604Y140760D01*
X127396D01*
X127219Y141652D01*
X125994Y143484D01*
X125319Y143935D01*
Y145205D01*
X125994Y145656D01*
X126445Y146331D01*
X127715D01*
X128166Y145656D01*
X129998Y144431D01*
X130890Y144254D01*
Y149650D01*
Y155046D01*
X129998Y154868D01*
X128166Y153644D01*
X127715Y152969D01*
X126445D01*
X125994Y153644D01*
X124162Y154868D01*
X123270Y155046D01*
D02*
G37*
G36*
X188356Y148380D02*
X184230D01*
Y144254D01*
X185122Y144431D01*
X186954Y145656D01*
X188179Y147488D01*
X188356Y148380D01*
D02*
G37*
G36*
X293450Y146156D02*
Y142030D01*
X297576D01*
X297398Y142922D01*
X296174Y144754D01*
X294342Y145978D01*
X293450Y146156D01*
D02*
G37*
G36*
X107076Y144570D02*
X102950D01*
Y140444D01*
X103842Y140621D01*
X105674Y141846D01*
X106898Y143678D01*
X107076Y144570D01*
D02*
G37*
G36*
X290910Y146156D02*
X290018Y145978D01*
X288186Y144754D01*
X286961Y142922D01*
X286784Y142030D01*
X290910D01*
Y146156D01*
D02*
G37*
G36*
X286338Y219033D02*
X284573Y218682D01*
X283076Y217682D01*
X282076Y216185D01*
X281725Y214420D01*
X282076Y212655D01*
X283076Y211158D01*
X283878Y210623D01*
Y180384D01*
X284065Y179443D01*
X284598Y178644D01*
X323061Y140181D01*
X322873Y139236D01*
X323224Y137471D01*
X324224Y135974D01*
X325721Y134974D01*
X327486Y134623D01*
X329251Y134974D01*
X330748Y135974D01*
X331748Y137471D01*
X332099Y139236D01*
X331748Y141001D01*
X330748Y142498D01*
X329251Y143497D01*
X327486Y143849D01*
X326541Y143661D01*
X288798Y181403D01*
Y185208D01*
X290068Y185887D01*
X291288Y185071D01*
X292180Y184894D01*
Y190290D01*
Y195686D01*
X291288Y195508D01*
X290068Y194693D01*
X288798Y195372D01*
Y210623D01*
X289600Y211158D01*
X290599Y212655D01*
X290951Y214420D01*
X290599Y216185D01*
X289600Y217682D01*
X288103Y218682D01*
X286338Y219033D01*
D02*
G37*
G36*
X295990Y246170D02*
X276940D01*
Y239525D01*
X275756Y238734D01*
X274531Y236902D01*
X274102Y234740D01*
X274531Y232578D01*
X275756Y230746D01*
X276940Y229955D01*
Y228390D01*
X295990D01*
Y246170D01*
D02*
G37*
G36*
X328056Y242360D02*
X323930D01*
Y238234D01*
X324822Y238411D01*
X326654Y239636D01*
X327878Y241468D01*
X328056Y242360D01*
D02*
G37*
G36*
X321390D02*
X317264D01*
X317441Y241468D01*
X318666Y239636D01*
X320498Y238411D01*
X321390Y238234D01*
Y242360D01*
D02*
G37*
G36*
X180646Y217730D02*
X176520D01*
Y213604D01*
X177412Y213781D01*
X179244Y215006D01*
X180469Y216838D01*
X180646Y217730D01*
D02*
G37*
G36*
X151210Y217276D02*
Y213150D01*
X155336D01*
X155159Y214042D01*
X153934Y215874D01*
X152102Y217099D01*
X151210Y217276D01*
D02*
G37*
G36*
X173980Y217730D02*
X169854D01*
X170031Y216838D01*
X171256Y215006D01*
X173088Y213781D01*
X173980Y213604D01*
Y217730D01*
D02*
G37*
G36*
Y224396D02*
X173088Y224219D01*
X171256Y222994D01*
X170031Y221162D01*
X169854Y220270D01*
X173980D01*
Y224396D01*
D02*
G37*
G36*
X176520D02*
Y220270D01*
X180646D01*
X180469Y221162D01*
X179244Y222994D01*
X177412Y224219D01*
X176520Y224396D01*
D02*
G37*
G36*
X421466Y223128D02*
Y216960D01*
X427634D01*
X427542Y217658D01*
X426782Y219492D01*
X425574Y221068D01*
X423998Y222276D01*
X422164Y223036D01*
X421466Y223128D01*
D02*
G37*
G36*
X321390Y257600D02*
X317264D01*
X317441Y256708D01*
X318666Y254876D01*
X320498Y253651D01*
X321390Y253474D01*
Y257600D01*
D02*
G37*
G36*
X328056D02*
X323930D01*
Y253474D01*
X324822Y253651D01*
X326654Y254876D01*
X327878Y256708D01*
X328056Y257600D01*
D02*
G37*
G36*
X346790Y257916D02*
X345898Y257738D01*
X344066Y256514D01*
X343051Y254995D01*
X342750Y254916D01*
X341940D01*
X341639Y254995D01*
X340624Y256514D01*
X338792Y257738D01*
X337900Y257916D01*
Y252520D01*
Y247124D01*
X338792Y247301D01*
X340624Y248526D01*
X341639Y250045D01*
X341940Y250124D01*
X342750D01*
X343051Y250045D01*
X344066Y248526D01*
X345898Y247301D01*
X346790Y247124D01*
Y252520D01*
Y257916D01*
D02*
G37*
G36*
X335360D02*
X334468Y257738D01*
X332636Y256514D01*
X331411Y254682D01*
X331234Y253790D01*
X335360D01*
Y257916D01*
D02*
G37*
G36*
X349330D02*
Y253790D01*
X353456D01*
X353279Y254682D01*
X352054Y256514D01*
X350222Y257738D01*
X349330Y257916D01*
D02*
G37*
G36*
X335360Y251250D02*
X331234D01*
X331411Y250358D01*
X332636Y248526D01*
X334468Y247301D01*
X335360Y247124D01*
Y251250D01*
D02*
G37*
G36*
X323930Y249026D02*
Y244900D01*
X328056D01*
X327878Y245792D01*
X326654Y247624D01*
X324822Y248848D01*
X323930Y249026D01*
D02*
G37*
G36*
X321390D02*
X320498Y248848D01*
X318666Y247624D01*
X317441Y245792D01*
X317264Y244900D01*
X321390D01*
Y249026D01*
D02*
G37*
G36*
X353456Y251250D02*
X349330D01*
Y247124D01*
X350222Y247301D01*
X352054Y248526D01*
X353279Y250358D01*
X353456Y251250D01*
D02*
G37*
G36*
X336946Y196640D02*
X326154D01*
X326331Y195748D01*
X327556Y193916D01*
X328751Y193117D01*
X328694Y192830D01*
X339486D01*
X339309Y193722D01*
X338084Y195554D01*
X336889Y196353D01*
X336946Y196640D01*
D02*
G37*
G36*
X389830Y197830D02*
X385704D01*
X385881Y196938D01*
X387106Y195106D01*
X388938Y193881D01*
X389830Y193704D01*
Y197830D01*
D02*
G37*
G36*
X294720Y195686D02*
Y191560D01*
X298846D01*
X298668Y192452D01*
X297444Y194284D01*
X295612Y195508D01*
X294720Y195686D01*
D02*
G37*
G36*
X127080Y194100D02*
X122954D01*
X123131Y193208D01*
X124356Y191376D01*
X126188Y190151D01*
X127080Y189974D01*
Y194100D01*
D02*
G37*
G36*
X133746D02*
X129620D01*
Y189974D01*
X130512Y190151D01*
X132344Y191376D01*
X133568Y193208D01*
X133746Y194100D01*
D02*
G37*
G36*
X396496Y197830D02*
X392370D01*
Y193704D01*
X393262Y193881D01*
X395094Y195106D01*
X396319Y196938D01*
X396496Y197830D01*
D02*
G37*
G36*
X151526Y201720D02*
X140734D01*
X140911Y200828D01*
X142136Y198996D01*
X142811Y198545D01*
Y197275D01*
X142136Y196824D01*
X140911Y194992D01*
X140734Y194100D01*
X151526D01*
X151348Y194992D01*
X150124Y196824D01*
X149449Y197275D01*
Y198545D01*
X150124Y198996D01*
X151348Y200828D01*
X151526Y201720D01*
D02*
G37*
G36*
X308690Y190606D02*
X307798Y190429D01*
X305966Y189204D01*
X304741Y187372D01*
X304564Y186480D01*
X308690D01*
Y190606D01*
D02*
G37*
G36*
X311230D02*
Y186480D01*
X315356D01*
X315179Y187372D01*
X313954Y189204D01*
X312122Y190429D01*
X311230Y190606D01*
D02*
G37*
G36*
X376254Y189844D02*
Y185718D01*
X380380D01*
X380202Y186610D01*
X378978Y188442D01*
X377146Y189667D01*
X376254Y189844D01*
D02*
G37*
G36*
X298846Y189020D02*
X294720D01*
Y184894D01*
X295612Y185071D01*
X297444Y186296D01*
X298668Y188128D01*
X298846Y189020D01*
D02*
G37*
G36*
X373714Y189844D02*
X372822Y189667D01*
X370990Y188442D01*
X369765Y186610D01*
X369588Y185718D01*
X373714D01*
Y189844D01*
D02*
G37*
G36*
X101680Y193146D02*
Y189020D01*
X105806D01*
X105628Y189912D01*
X104404Y191744D01*
X102572Y192969D01*
X101680Y193146D01*
D02*
G37*
G36*
X339486Y190290D02*
X328694D01*
X328871Y189398D01*
X330096Y187566D01*
X331291Y186767D01*
X331234Y186480D01*
X342026D01*
X341848Y187372D01*
X340624Y189204D01*
X339429Y190003D01*
X339486Y190290D01*
D02*
G37*
G36*
X99140Y193146D02*
X98248Y192969D01*
X96416Y191744D01*
X95191Y189912D01*
X95014Y189020D01*
X99140D01*
Y193146D01*
D02*
G37*
G36*
X259668Y211180D02*
Y207054D01*
X263794D01*
X263617Y207946D01*
X262392Y209778D01*
X260560Y211003D01*
X259668Y211180D01*
D02*
G37*
G36*
X257128D02*
X256236Y211003D01*
X254485Y209832D01*
X254115Y209674D01*
X253283D01*
X252913Y209832D01*
X251162Y211003D01*
X250270Y211180D01*
Y205784D01*
X247730D01*
Y211180D01*
X246838Y211003D01*
X245006Y209778D01*
X244470Y208976D01*
X243200D01*
X242834Y209524D01*
X241002Y210749D01*
X240110Y210926D01*
Y205530D01*
X238840D01*
Y204260D01*
X233444D01*
X233621Y203368D01*
X234846Y201536D01*
X234850Y200006D01*
X233875Y198548D01*
X233698Y197656D01*
X239094D01*
Y195116D01*
X233698D01*
X233875Y194224D01*
X234615Y193117D01*
X234846Y191744D01*
X233621Y189912D01*
X233444Y189020D01*
X238840D01*
Y187750D01*
X240110D01*
Y182354D01*
X241002Y182531D01*
X242834Y183756D01*
X243285Y184431D01*
X244555D01*
X245006Y183756D01*
X246838Y182531D01*
X247730Y182354D01*
Y187750D01*
X250270D01*
Y182354D01*
X251162Y182531D01*
X252994Y183756D01*
X253445Y184431D01*
X254715D01*
X255166Y183756D01*
X256998Y182531D01*
X257890Y182354D01*
Y187750D01*
X259160D01*
Y189020D01*
X264556D01*
X264379Y189912D01*
X263443Y191312D01*
X263252Y192195D01*
X263443Y193078D01*
X264379Y194478D01*
X264556Y195370D01*
X259160D01*
Y197910D01*
X264556D01*
X264379Y198802D01*
X263154Y200634D01*
X262964Y200761D01*
X262716Y202275D01*
X263617Y203622D01*
X263794Y204514D01*
X258398D01*
Y205784D01*
X257128D01*
Y211180D01*
D02*
G37*
G36*
X237570Y210926D02*
X236678Y210749D01*
X234846Y209524D01*
X233621Y207692D01*
X233444Y206800D01*
X237570D01*
Y210926D01*
D02*
G37*
G36*
X127080Y210610D02*
X122954D01*
X123131Y209718D01*
X124356Y207886D01*
X126188Y206661D01*
X127080Y206484D01*
Y210610D01*
D02*
G37*
G36*
X133746D02*
X129620D01*
Y206484D01*
X130512Y206661D01*
X132344Y207886D01*
X133568Y209718D01*
X133746Y210610D01*
D02*
G37*
G36*
X129620Y217276D02*
Y213150D01*
X133746D01*
X133568Y214042D01*
X132344Y215874D01*
X130512Y217099D01*
X129620Y217276D01*
D02*
G37*
G36*
X148670D02*
X147778Y217099D01*
X145946Y215874D01*
X144721Y214042D01*
X144544Y213150D01*
X148670D01*
Y217276D01*
D02*
G37*
G36*
X127080D02*
X126188Y217099D01*
X124356Y215874D01*
X123131Y214042D01*
X122954Y213150D01*
X127080D01*
Y217276D01*
D02*
G37*
G36*
X330280Y203306D02*
X329388Y203129D01*
X327556Y201904D01*
X326331Y200072D01*
X326154Y199180D01*
X330280D01*
Y203306D01*
D02*
G37*
G36*
X332820D02*
Y199180D01*
X336946D01*
X336768Y200072D01*
X335544Y201904D01*
X333712Y203129D01*
X332820Y203306D01*
D02*
G37*
G36*
X262970Y281441D02*
X261136Y281076D01*
X259582Y280038D01*
X258544Y278483D01*
X258179Y276650D01*
Y263419D01*
X198892Y205168D01*
X197840Y203622D01*
X197459Y201792D01*
X197808Y199956D01*
X198832Y198392D01*
X200378Y197340D01*
X202208Y196959D01*
X204044Y197308D01*
X205608Y198333D01*
X266328Y257992D01*
X266340Y258010D01*
X266358Y258022D01*
X266865Y258781D01*
X267380Y259538D01*
X267384Y259559D01*
X267396Y259576D01*
X267574Y260472D01*
X267761Y261368D01*
X267757Y261389D01*
X267761Y261410D01*
Y276650D01*
X267396Y278483D01*
X266358Y280038D01*
X264803Y281076D01*
X262970Y281441D01*
D02*
G37*
G36*
X127080Y200766D02*
X126188Y200588D01*
X124356Y199364D01*
X123131Y197532D01*
X122954Y196640D01*
X127080D01*
Y200766D01*
D02*
G37*
G36*
X129620D02*
Y196640D01*
X133746D01*
X133568Y197532D01*
X132344Y199364D01*
X130512Y200588D01*
X129620Y200766D01*
D02*
G37*
G36*
X155336Y210610D02*
X144544D01*
X144721Y209718D01*
X144889Y209468D01*
X144403Y208295D01*
X143968Y208209D01*
X142136Y206984D01*
X140911Y205152D01*
X140734Y204260D01*
X151526D01*
X151348Y205152D01*
X151181Y205402D01*
X151667Y206575D01*
X152102Y206661D01*
X153934Y207886D01*
X155159Y209718D01*
X155336Y210610D01*
D02*
G37*
G36*
X389830Y204496D02*
X388938Y204319D01*
X387106Y203094D01*
X385881Y201262D01*
X385704Y200370D01*
X389830D01*
Y204496D01*
D02*
G37*
G36*
X392370D02*
Y200370D01*
X396496D01*
X396319Y201262D01*
X395094Y203094D01*
X393262Y204319D01*
X392370Y204496D01*
D02*
G37*
G36*
X368378Y75036D02*
Y70910D01*
X372504D01*
X372327Y71802D01*
X371102Y73634D01*
X369269Y74858D01*
X368378Y75036D01*
D02*
G37*
G36*
X221060Y75990D02*
X216934D01*
X217111Y75098D01*
X218336Y73266D01*
X220168Y72041D01*
X221060Y71864D01*
Y75990D01*
D02*
G37*
G36*
X365838Y75036D02*
X364946Y74858D01*
X363114Y73634D01*
X361889Y71802D01*
X361712Y70910D01*
X365838D01*
Y75036D01*
D02*
G37*
G36*
X350598D02*
X349706Y74858D01*
X347874Y73634D01*
X346649Y71802D01*
X346472Y70910D01*
X350598D01*
Y75036D01*
D02*
G37*
G36*
X353138D02*
Y70910D01*
X357264D01*
X357086Y71802D01*
X355862Y73634D01*
X354030Y74858D01*
X353138Y75036D01*
D02*
G37*
G36*
X388700Y78846D02*
Y74720D01*
X392826D01*
X392649Y75612D01*
X391424Y77444D01*
X389592Y78668D01*
X388700Y78846D01*
D02*
G37*
G36*
X410290D02*
X409398Y78668D01*
X407566Y77444D01*
X406341Y75612D01*
X406164Y74720D01*
X410290D01*
Y78846D01*
D02*
G37*
G36*
X386160D02*
X385268Y78668D01*
X383436Y77444D01*
X382211Y75612D01*
X382034Y74720D01*
X386160D01*
Y78846D01*
D02*
G37*
G36*
X227726Y75990D02*
X223600D01*
Y71864D01*
X224492Y72041D01*
X226324Y73266D01*
X227549Y75098D01*
X227726Y75990D01*
D02*
G37*
G36*
X246776Y78530D02*
X235984D01*
X236161Y77638D01*
X237386Y75806D01*
Y74904D01*
X236161Y73072D01*
X235984Y72180D01*
X246776D01*
X246598Y73072D01*
X245374Y74904D01*
Y75806D01*
X246598Y77638D01*
X246776Y78530D01*
D02*
G37*
G36*
X53418Y75036D02*
Y70910D01*
X57544D01*
X57366Y71802D01*
X56142Y73634D01*
X54310Y74858D01*
X53418Y75036D01*
D02*
G37*
G36*
X304878D02*
X303986Y74858D01*
X302154Y73634D01*
X300929Y71802D01*
X300752Y70910D01*
X304878D01*
Y75036D01*
D02*
G37*
G36*
X50878D02*
X49986Y74858D01*
X48154Y73634D01*
X46929Y71802D01*
X46752Y70910D01*
X50878D01*
Y75036D01*
D02*
G37*
G36*
X35638D02*
X34746Y74858D01*
X32914Y73634D01*
X31689Y71802D01*
X31512Y70910D01*
X35638D01*
Y75036D01*
D02*
G37*
G36*
X38178D02*
Y70910D01*
X42304D01*
X42126Y71802D01*
X40902Y73634D01*
X39069Y74858D01*
X38178Y75036D01*
D02*
G37*
G36*
X335358D02*
X334466Y74858D01*
X332634Y73634D01*
X331409Y71802D01*
X331232Y70910D01*
X335358D01*
Y75036D01*
D02*
G37*
G36*
X337898D02*
Y70910D01*
X342024D01*
X341847Y71802D01*
X340622Y73634D01*
X338789Y74858D01*
X337898Y75036D01*
D02*
G37*
G36*
X322658D02*
Y70910D01*
X326784D01*
X326606Y71802D01*
X325382Y73634D01*
X323549Y74858D01*
X322658Y75036D01*
D02*
G37*
G36*
X307418D02*
Y70910D01*
X311544D01*
X311367Y71802D01*
X310142Y73634D01*
X308309Y74858D01*
X307418Y75036D01*
D02*
G37*
G36*
X320118D02*
X319226Y74858D01*
X317394Y73634D01*
X316169Y71802D01*
X315992Y70910D01*
X320118D01*
Y75036D01*
D02*
G37*
G36*
X285830Y84880D02*
X281704D01*
X281881Y83988D01*
X283106Y82156D01*
X284938Y80931D01*
X285830Y80754D01*
Y84880D01*
D02*
G37*
G36*
X292496D02*
X288370D01*
Y80754D01*
X289262Y80931D01*
X291094Y82156D01*
X292318Y83988D01*
X292496Y84880D01*
D02*
G37*
G36*
X275986D02*
X271860D01*
Y80754D01*
X272752Y80931D01*
X274584Y82156D01*
X275809Y83988D01*
X275986Y84880D01*
D02*
G37*
G36*
X259476D02*
X255350D01*
Y80754D01*
X256242Y80931D01*
X258074Y82156D01*
X259298Y83988D01*
X259476Y84880D01*
D02*
G37*
G36*
X269320D02*
X265194D01*
X265371Y83988D01*
X266596Y82156D01*
X268428Y80931D01*
X269320Y80754D01*
Y84880D01*
D02*
G37*
G36*
X180420Y88690D02*
X176294D01*
X176471Y87798D01*
X177696Y85966D01*
X179528Y84741D01*
X180420Y84564D01*
Y88690D01*
D02*
G37*
G36*
X187086D02*
X182960D01*
Y84564D01*
X183852Y84741D01*
X185684Y85966D01*
X186908Y87798D01*
X187086Y88690D01*
D02*
G37*
G36*
X330596Y86150D02*
X326470D01*
Y82024D01*
X327362Y82201D01*
X329194Y83426D01*
X330419Y85258D01*
X330596Y86150D01*
D02*
G37*
G36*
X246776Y87420D02*
X235984D01*
X236161Y86528D01*
X237386Y84696D01*
Y83794D01*
X236161Y81962D01*
X235984Y81070D01*
X246776D01*
X246598Y81962D01*
X245374Y83794D01*
Y84696D01*
X246598Y86528D01*
X246776Y87420D01*
D02*
G37*
G36*
X323930Y86150D02*
X319804D01*
X319981Y85258D01*
X321206Y83426D01*
X323038Y82201D01*
X323930Y82024D01*
Y86150D01*
D02*
G37*
G36*
X227726Y84880D02*
X216934D01*
X217111Y83988D01*
X218336Y82156D01*
Y81254D01*
X217111Y79422D01*
X216934Y78530D01*
X227726D01*
X227549Y79422D01*
X226324Y81254D01*
Y82156D01*
X227549Y83988D01*
X227726Y84880D01*
D02*
G37*
G36*
X344250Y83610D02*
X340124D01*
X340301Y82718D01*
X341526Y80886D01*
X343358Y79661D01*
X344250Y79484D01*
Y83610D01*
D02*
G37*
G36*
X107076Y82340D02*
X102950D01*
Y78214D01*
X103842Y78391D01*
X105674Y79616D01*
X106898Y81448D01*
X107076Y82340D01*
D02*
G37*
G36*
X412830Y78846D02*
Y74720D01*
X416956D01*
X416778Y75612D01*
X415554Y77444D01*
X413722Y78668D01*
X412830Y78846D01*
D02*
G37*
G36*
X100410Y82340D02*
X96284D01*
X96461Y81448D01*
X97686Y79616D01*
X99518Y78391D01*
X100410Y78214D01*
Y82340D01*
D02*
G37*
G36*
X127396Y87420D02*
X116604D01*
X116781Y86528D01*
X118006Y84696D01*
X118681Y84245D01*
Y82975D01*
X118006Y82524D01*
X116781Y80692D01*
X116604Y79800D01*
X127396D01*
X127219Y80692D01*
X125994Y82524D01*
X125319Y82975D01*
Y84245D01*
X125994Y84696D01*
X127219Y86528D01*
X127396Y87420D01*
D02*
G37*
G36*
X252810Y84880D02*
X248684D01*
X248861Y83988D01*
X250086Y82156D01*
X251918Y80931D01*
X252810Y80754D01*
Y84880D01*
D02*
G37*
G36*
X372506Y83610D02*
X368380D01*
Y79484D01*
X369272Y79661D01*
X371104Y80886D01*
X372328Y82718D01*
X372506Y83610D01*
D02*
G37*
G36*
X350916D02*
X346790D01*
Y79484D01*
X347682Y79661D01*
X349514Y80886D01*
X350738Y82718D01*
X350916Y83610D01*
D02*
G37*
G36*
X365840D02*
X361714D01*
X361891Y82718D01*
X363116Y80886D01*
X364948Y79661D01*
X365840Y79484D01*
Y83610D01*
D02*
G37*
G36*
X22938Y75036D02*
Y70910D01*
X27064D01*
X26886Y71802D01*
X25662Y73634D01*
X23830Y74858D01*
X22938Y75036D01*
D02*
G37*
G36*
X172798Y64876D02*
X171906Y64699D01*
X170074Y63474D01*
X168849Y61642D01*
X168672Y60750D01*
X172798D01*
Y64876D01*
D02*
G37*
G36*
X175338D02*
Y60750D01*
X179464D01*
X179286Y61642D01*
X178062Y63474D01*
X176229Y64699D01*
X175338Y64876D01*
D02*
G37*
G36*
X160098D02*
Y60750D01*
X164224D01*
X164046Y61642D01*
X162822Y63474D01*
X160989Y64699D01*
X160098Y64876D01*
D02*
G37*
G36*
X144858D02*
Y60750D01*
X148984D01*
X148806Y61642D01*
X147582Y63474D01*
X145750Y64699D01*
X144858Y64876D01*
D02*
G37*
G36*
X157558D02*
X156666Y64699D01*
X154834Y63474D01*
X153609Y61642D01*
X153432Y60750D01*
X157558D01*
Y64876D01*
D02*
G37*
G36*
X250270D02*
X249378Y64699D01*
X247546Y63474D01*
X246321Y61642D01*
X246144Y60750D01*
X250270D01*
Y64876D01*
D02*
G37*
G36*
X252810D02*
Y60750D01*
X256936D01*
X256758Y61642D01*
X255534Y63474D01*
X253702Y64699D01*
X252810Y64876D01*
D02*
G37*
G36*
X203278D02*
X202386Y64699D01*
X200554Y63474D01*
X199329Y61642D01*
X199152Y60750D01*
X203278D01*
Y64876D01*
D02*
G37*
G36*
X188038D02*
X187146Y64699D01*
X185314Y63474D01*
X184089Y61642D01*
X183912Y60750D01*
X188038D01*
Y64876D01*
D02*
G37*
G36*
X190578D02*
Y60750D01*
X194704D01*
X194527Y61642D01*
X193302Y63474D01*
X191469Y64699D01*
X190578Y64876D01*
D02*
G37*
G36*
X96598D02*
X95706Y64699D01*
X93874Y63474D01*
X92649Y61642D01*
X92472Y60750D01*
X96598D01*
Y64876D01*
D02*
G37*
G36*
X99138D02*
Y60750D01*
X103264D01*
X103087Y61642D01*
X101862Y63474D01*
X100029Y64699D01*
X99138Y64876D01*
D02*
G37*
G36*
X83898D02*
Y60750D01*
X88024D01*
X87846Y61642D01*
X86622Y63474D01*
X84789Y64699D01*
X83898Y64876D01*
D02*
G37*
G36*
X81358D02*
X80466Y64699D01*
X78634Y63474D01*
X77409Y61642D01*
X77232Y60750D01*
X81358D01*
Y64876D01*
D02*
G37*
G36*
X129618D02*
Y60750D01*
X133744D01*
X133567Y61642D01*
X132342Y63474D01*
X130510Y64699D01*
X129618Y64876D01*
D02*
G37*
G36*
X142318D02*
X141426Y64699D01*
X139594Y63474D01*
X138369Y61642D01*
X138192Y60750D01*
X142318D01*
Y64876D01*
D02*
G37*
G36*
X127146Y67730D02*
X123020D01*
Y63395D01*
X123661Y62437D01*
X123129Y61642D01*
X122952Y60750D01*
X127078D01*
Y65085D01*
X126437Y66043D01*
X126969Y66838D01*
X127146Y67730D01*
D02*
G37*
G36*
X111838Y64876D02*
X110946Y64699D01*
X109114Y63474D01*
X107889Y61642D01*
X107712Y60750D01*
X111838D01*
Y64876D01*
D02*
G37*
G36*
X114378D02*
Y60750D01*
X118504D01*
X118327Y61642D01*
X117102Y63474D01*
X115269Y64699D01*
X114378Y64876D01*
D02*
G37*
G36*
X66118Y73766D02*
X65226Y73589D01*
X63394Y72364D01*
X62169Y70532D01*
X61992Y69640D01*
X66118D01*
Y73766D01*
D02*
G37*
G36*
X68658D02*
Y69640D01*
X72784D01*
X72607Y70532D01*
X71382Y72364D01*
X69549Y73589D01*
X68658Y73766D01*
D02*
G37*
G36*
X416956Y72180D02*
X412830D01*
Y68054D01*
X413722Y68231D01*
X415554Y69456D01*
X416778Y71288D01*
X416956Y72180D01*
D02*
G37*
G36*
X392826D02*
X388700D01*
Y68054D01*
X389592Y68231D01*
X391424Y69456D01*
X392649Y71288D01*
X392826Y72180D01*
D02*
G37*
G36*
X410290D02*
X406164D01*
X406341Y71288D01*
X407566Y69456D01*
X409398Y68231D01*
X410290Y68054D01*
Y72180D01*
D02*
G37*
G36*
X7698Y75036D02*
Y70910D01*
X11824D01*
X11646Y71802D01*
X10422Y73634D01*
X8590Y74858D01*
X7698Y75036D01*
D02*
G37*
G36*
X20398D02*
X19506Y74858D01*
X17674Y73634D01*
X16449Y71802D01*
X16272Y70910D01*
X20398D01*
Y75036D01*
D02*
G37*
G36*
X127396Y77260D02*
X116604D01*
X116781Y76368D01*
X117935Y74641D01*
X118084Y74236D01*
Y73214D01*
X117756Y72994D01*
X116531Y71162D01*
X116354Y70270D01*
X127146D01*
X126969Y71162D01*
X125815Y72889D01*
X125666Y73294D01*
Y74317D01*
X125994Y74536D01*
X127219Y76368D01*
X127396Y77260D01*
D02*
G37*
G36*
X210900Y73766D02*
X210008Y73589D01*
X208176Y72364D01*
X206951Y70532D01*
X206774Y69640D01*
X210900D01*
Y73766D01*
D02*
G37*
G36*
X213440D02*
Y69640D01*
X217566D01*
X217388Y70532D01*
X216164Y72364D01*
X214332Y73589D01*
X213440Y73766D01*
D02*
G37*
G36*
X294718Y64876D02*
Y60750D01*
X298844D01*
X298666Y61642D01*
X297442Y63474D01*
X295609Y64699D01*
X294718Y64876D01*
D02*
G37*
G36*
X217566Y67100D02*
X213440D01*
Y62974D01*
X214332Y63151D01*
X216164Y64376D01*
X217388Y66208D01*
X217566Y67100D01*
D02*
G37*
G36*
X292178Y64876D02*
X291286Y64699D01*
X289454Y63474D01*
X288229Y61642D01*
X288052Y60750D01*
X292178D01*
Y64876D01*
D02*
G37*
G36*
X265510D02*
X264618Y64699D01*
X262786Y63474D01*
X261561Y61642D01*
X261384Y60750D01*
X265510D01*
Y64876D01*
D02*
G37*
G36*
X279478D02*
Y60750D01*
X283604D01*
X283426Y61642D01*
X282202Y63474D01*
X280369Y64699D01*
X279478Y64876D01*
D02*
G37*
G36*
X246776Y69640D02*
X242650D01*
Y65514D01*
X243542Y65691D01*
X245374Y66916D01*
X246598Y68748D01*
X246776Y69640D01*
D02*
G37*
G36*
X386160Y72180D02*
X382034D01*
X382211Y71288D01*
X383436Y69456D01*
X385268Y68231D01*
X386160Y68054D01*
Y72180D01*
D02*
G37*
G36*
X240110Y69640D02*
X235984D01*
X236161Y68748D01*
X237386Y66916D01*
X239218Y65691D01*
X240110Y65514D01*
Y69640D01*
D02*
G37*
G36*
X120480Y67730D02*
X116354D01*
X116531Y66838D01*
X117756Y65006D01*
X119588Y63781D01*
X120480Y63604D01*
Y67730D01*
D02*
G37*
G36*
X210900Y67100D02*
X206774D01*
X206951Y66208D01*
X207230Y65791D01*
X207136Y65593D01*
X206390Y64762D01*
X205818Y64876D01*
Y60750D01*
X209944D01*
X209767Y61642D01*
X209488Y62059D01*
X209582Y62257D01*
X210327Y63088D01*
X210900Y62974D01*
Y67100D01*
D02*
G37*
G36*
X348060Y110596D02*
Y106470D01*
X352186D01*
X352009Y107362D01*
X350784Y109194D01*
X348952Y110419D01*
X348060Y110596D01*
D02*
G37*
G36*
X430610D02*
X429718Y110419D01*
X427886Y109194D01*
X426661Y107362D01*
X426484Y106470D01*
X430610D01*
Y110596D01*
D02*
G37*
G36*
X345520D02*
X344628Y110419D01*
X342796Y109194D01*
X341571Y107362D01*
X341394Y106470D01*
X345520D01*
Y110596D01*
D02*
G37*
G36*
X221060Y109010D02*
X216934D01*
X217111Y108118D01*
X218336Y106286D01*
X220168Y105061D01*
X221060Y104884D01*
Y109010D01*
D02*
G37*
G36*
X227726D02*
X223600D01*
Y104884D01*
X224492Y105061D01*
X226324Y106286D01*
X227549Y108118D01*
X227726Y109010D01*
D02*
G37*
G36*
X180420Y112820D02*
X176294D01*
X176471Y111928D01*
X177696Y110096D01*
X179528Y108871D01*
X180420Y108694D01*
Y112820D01*
D02*
G37*
G36*
X187086D02*
X182960D01*
Y108694D01*
X183852Y108871D01*
X185684Y110096D01*
X186908Y111928D01*
X187086Y112820D01*
D02*
G37*
G36*
X242650Y111866D02*
Y107740D01*
X246776D01*
X246598Y108632D01*
X245374Y110464D01*
X243542Y111688D01*
X242650Y111866D01*
D02*
G37*
G36*
X450930Y110596D02*
Y106470D01*
X455056D01*
X454879Y107362D01*
X453654Y109194D01*
X451822Y110419D01*
X450930Y110596D01*
D02*
G37*
G36*
X240110Y111866D02*
X239218Y111688D01*
X237386Y110464D01*
X236161Y108632D01*
X235984Y107740D01*
X240110D01*
Y111866D01*
D02*
G37*
G36*
X368380Y105516D02*
Y101390D01*
X372506D01*
X372328Y102282D01*
X371104Y104114D01*
X369272Y105338D01*
X368380Y105516D01*
D02*
G37*
G36*
X252810Y106470D02*
X248684D01*
X248861Y105578D01*
X250086Y103746D01*
X251918Y102521D01*
X252810Y102344D01*
Y106470D01*
D02*
G37*
G36*
X365840Y105516D02*
X364948Y105338D01*
X363116Y104114D01*
X361891Y102282D01*
X361714Y101390D01*
X365840D01*
Y105516D01*
D02*
G37*
G36*
X100410D02*
X99518Y105338D01*
X97686Y104114D01*
X96461Y102282D01*
X96284Y101390D01*
X100410D01*
Y105516D01*
D02*
G37*
G36*
X102950D02*
Y101390D01*
X107076D01*
X106898Y102282D01*
X105674Y104114D01*
X103842Y105338D01*
X102950Y105516D01*
D02*
G37*
G36*
X139780Y108056D02*
X138888Y107879D01*
X137056Y106654D01*
X135831Y104822D01*
X135654Y103930D01*
X139780D01*
Y108056D01*
D02*
G37*
G36*
X142320D02*
Y103930D01*
X146446D01*
X146269Y104822D01*
X145044Y106654D01*
X143212Y107879D01*
X142320Y108056D01*
D02*
G37*
G36*
X330596Y107740D02*
X326470D01*
Y103614D01*
X327362Y103791D01*
X329194Y105016D01*
X330419Y106848D01*
X330596Y107740D01*
D02*
G37*
G36*
X298846Y106470D02*
X294720D01*
Y102344D01*
X295612Y102521D01*
X297444Y103746D01*
X298668Y105578D01*
X298846Y106470D01*
D02*
G37*
G36*
X323930Y107740D02*
X319804D01*
X319981Y106848D01*
X321206Y105016D01*
X323038Y103791D01*
X323930Y103614D01*
Y107740D01*
D02*
G37*
G36*
X227726Y117900D02*
X216934D01*
X217111Y117008D01*
X218336Y115176D01*
Y114274D01*
X217111Y112442D01*
X216934Y111550D01*
X227726D01*
X227549Y112442D01*
X226324Y114274D01*
Y115176D01*
X227549Y117008D01*
X227726Y117900D01*
D02*
G37*
G36*
X292180Y113136D02*
X291288Y112958D01*
X289456Y111734D01*
X288554D01*
X286722Y112958D01*
X285830Y113136D01*
Y107740D01*
Y102344D01*
X286722Y102521D01*
X288554Y103746D01*
X289456D01*
X291288Y102521D01*
X292180Y102344D01*
Y107740D01*
Y113136D01*
D02*
G37*
G36*
X107076Y115360D02*
X102950D01*
Y111234D01*
X103842Y111411D01*
X105674Y112636D01*
X106898Y114468D01*
X107076Y115360D01*
D02*
G37*
G36*
X283290Y113136D02*
X282398Y112958D01*
X280566Y111734D01*
X280115Y111059D01*
X278845D01*
X278394Y111734D01*
X276562Y112958D01*
X275670Y113136D01*
Y107740D01*
Y102344D01*
X276562Y102521D01*
X278394Y103746D01*
X278845Y104421D01*
X280115D01*
X280566Y103746D01*
X282398Y102521D01*
X283290Y102344D01*
Y107740D01*
Y113136D01*
D02*
G37*
G36*
X100410Y115360D02*
X96284D01*
X96461Y114468D01*
X97686Y112636D01*
X99518Y111411D01*
X100410Y111234D01*
Y115360D01*
D02*
G37*
G36*
X301980Y121396D02*
X301088Y121219D01*
X299256Y119994D01*
X298031Y118162D01*
X297854Y117270D01*
X301980D01*
Y121396D01*
D02*
G37*
G36*
X100410Y122026D02*
X99518Y121848D01*
X97686Y120624D01*
X96461Y118792D01*
X96284Y117900D01*
X100410D01*
Y122026D01*
D02*
G37*
G36*
X182960Y119486D02*
Y115360D01*
X187086D01*
X186908Y116252D01*
X185684Y118084D01*
X183852Y119309D01*
X182960Y119486D01*
D02*
G37*
G36*
X319166Y117900D02*
X315040D01*
Y113774D01*
X315932Y113951D01*
X317764Y115176D01*
X318988Y117008D01*
X319166Y117900D01*
D02*
G37*
G36*
X180420Y119486D02*
X179528Y119309D01*
X177696Y118084D01*
X176471Y116252D01*
X176294Y115360D01*
X180420D01*
Y119486D01*
D02*
G37*
G36*
X448390Y110596D02*
X447498Y110419D01*
X445666Y109194D01*
X444764D01*
X442932Y110419D01*
X442040Y110596D01*
Y105200D01*
Y99804D01*
X442932Y99981D01*
X444764Y101206D01*
X445666D01*
X447498Y99981D01*
X448390Y99804D01*
Y105200D01*
Y110596D01*
D02*
G37*
G36*
X127396Y117900D02*
X116604D01*
X116781Y117008D01*
X118006Y115176D01*
X118681Y114725D01*
Y113455D01*
X118006Y113004D01*
X116781Y111172D01*
X116604Y110280D01*
X127396D01*
X127219Y111172D01*
X125994Y113004D01*
X125319Y113455D01*
Y114725D01*
X125994Y115176D01*
X127219Y117008D01*
X127396Y117900D01*
D02*
G37*
G36*
X439500Y110596D02*
X438608Y110419D01*
X436776Y109194D01*
X435874D01*
X434042Y110419D01*
X433150Y110596D01*
Y105200D01*
Y99804D01*
X434042Y99981D01*
X435874Y101206D01*
X436776D01*
X438608Y99981D01*
X439500Y99804D01*
Y105200D01*
Y110596D01*
D02*
G37*
G36*
X252810Y113136D02*
X251918Y112958D01*
X250086Y111734D01*
X248861Y109902D01*
X248684Y109010D01*
X252810D01*
Y113136D01*
D02*
G37*
G36*
X294720D02*
Y109010D01*
X298846D01*
X298668Y109902D01*
X297444Y111734D01*
X295612Y112958D01*
X294720Y113136D01*
D02*
G37*
G36*
X262970D02*
X262078Y112958D01*
X260246Y111734D01*
X259795Y111059D01*
X258525D01*
X258074Y111734D01*
X256242Y112958D01*
X255350Y113136D01*
Y107740D01*
Y102344D01*
X256242Y102521D01*
X258074Y103746D01*
X258525Y104421D01*
X259795D01*
X260246Y103746D01*
X262078Y102521D01*
X262970Y102344D01*
Y107740D01*
Y113136D01*
D02*
G37*
G36*
X273130D02*
X272238Y112958D01*
X270406Y111734D01*
X269955Y111059D01*
X268685D01*
X268234Y111734D01*
X266402Y112958D01*
X265510Y113136D01*
Y107740D01*
Y102344D01*
X266402Y102521D01*
X268234Y103746D01*
X268685Y104421D01*
X269955D01*
X270406Y103746D01*
X272238Y102521D01*
X273130Y102344D01*
Y107740D01*
Y113136D01*
D02*
G37*
G36*
X301980Y114730D02*
X297854D01*
X298031Y113838D01*
X299256Y112006D01*
X301088Y110781D01*
X301980Y110604D01*
Y114730D01*
D02*
G37*
G36*
X323930Y114406D02*
X323038Y114228D01*
X321206Y113004D01*
X319981Y111172D01*
X319804Y110280D01*
X323930D01*
Y114406D01*
D02*
G37*
G36*
X326470D02*
Y110280D01*
X330596D01*
X330419Y111172D01*
X329194Y113004D01*
X327362Y114228D01*
X326470Y114406D01*
D02*
G37*
G36*
X127396Y107740D02*
X116604D01*
X116781Y106848D01*
X118006Y105016D01*
X118681Y104565D01*
Y103295D01*
X118006Y102844D01*
X116781Y101012D01*
X116604Y100120D01*
X127396D01*
X127219Y101012D01*
X125994Y102844D01*
X125319Y103295D01*
Y104565D01*
X125994Y105016D01*
X127219Y106848D01*
X127396Y107740D01*
D02*
G37*
G36*
X303610Y92500D02*
X299484D01*
X299661Y91608D01*
X300886Y89776D01*
X302718Y88551D01*
X303610Y88374D01*
Y92500D01*
D02*
G37*
G36*
X310276D02*
X306150D01*
Y88374D01*
X307042Y88551D01*
X308874Y89776D01*
X310098Y91608D01*
X310276Y92500D01*
D02*
G37*
G36*
X288370Y91546D02*
Y87420D01*
X292496D01*
X292318Y88312D01*
X291094Y90144D01*
X289262Y91369D01*
X288370Y91546D01*
D02*
G37*
G36*
X271860D02*
Y87420D01*
X275986D01*
X275809Y88312D01*
X274584Y90144D01*
X272752Y91369D01*
X271860Y91546D01*
D02*
G37*
G36*
X285830D02*
X284938Y91369D01*
X283106Y90144D01*
X281881Y88312D01*
X281704Y87420D01*
X285830D01*
Y91546D01*
D02*
G37*
G36*
X326470Y92816D02*
Y88690D01*
X330596D01*
X330419Y89582D01*
X329194Y91414D01*
X327362Y92639D01*
X326470Y92816D01*
D02*
G37*
G36*
X127396Y97580D02*
X116604D01*
X116781Y96688D01*
X118006Y94856D01*
X118681Y94405D01*
Y93135D01*
X118006Y92684D01*
X116781Y90852D01*
X116604Y89960D01*
X127396D01*
X127219Y90852D01*
X125994Y92684D01*
X125319Y93135D01*
Y94405D01*
X125994Y94856D01*
X127219Y96688D01*
X127396Y97580D01*
D02*
G37*
G36*
X323930Y92816D02*
X323038Y92639D01*
X321206Y91414D01*
X319981Y89582D01*
X319804Y88690D01*
X323930D01*
Y92816D01*
D02*
G37*
G36*
X389970Y92500D02*
X385844D01*
X386021Y91608D01*
X387246Y89776D01*
X389078Y88551D01*
X389970Y88374D01*
Y92500D01*
D02*
G37*
G36*
X396636D02*
X392510D01*
Y88374D01*
X393402Y88551D01*
X395234Y89776D01*
X396459Y91608D01*
X396636Y92500D01*
D02*
G37*
G36*
X346790Y90276D02*
Y86150D01*
X350916D01*
X350738Y87042D01*
X349514Y88874D01*
X347682Y90098D01*
X346790Y90276D01*
D02*
G37*
G36*
X365840D02*
X364948Y90098D01*
X363116Y88874D01*
X361891Y87042D01*
X361714Y86150D01*
X365840D01*
Y90276D01*
D02*
G37*
G36*
X344250D02*
X343358Y90098D01*
X341526Y88874D01*
X340301Y87042D01*
X340124Y86150D01*
X344250D01*
Y90276D01*
D02*
G37*
G36*
X100410Y89006D02*
X99518Y88828D01*
X97686Y87604D01*
X96461Y85772D01*
X96284Y84880D01*
X100410D01*
Y89006D01*
D02*
G37*
G36*
X102950D02*
Y84880D01*
X107076D01*
X106898Y85772D01*
X105674Y87604D01*
X103842Y88828D01*
X102950Y89006D01*
D02*
G37*
G36*
X255350Y91546D02*
Y87420D01*
X259476D01*
X259298Y88312D01*
X258074Y90144D01*
X256242Y91369D01*
X255350Y91546D01*
D02*
G37*
G36*
X269320D02*
X268428Y91369D01*
X266596Y90144D01*
X265371Y88312D01*
X265194Y87420D01*
X269320D01*
Y91546D01*
D02*
G37*
G36*
X252810D02*
X251918Y91369D01*
X250086Y90144D01*
X248861Y88312D01*
X248684Y87420D01*
X252810D01*
Y91546D01*
D02*
G37*
G36*
X368380Y90276D02*
Y86150D01*
X372506D01*
X372328Y87042D01*
X371104Y88874D01*
X369272Y90098D01*
X368380Y90276D01*
D02*
G37*
G36*
X227726Y93770D02*
X216934D01*
X217111Y92878D01*
X218336Y91046D01*
Y90144D01*
X217111Y88312D01*
X216934Y87420D01*
X227726D01*
X227549Y88312D01*
X226324Y90144D01*
Y91046D01*
X227549Y92878D01*
X227726Y93770D01*
D02*
G37*
G36*
X139780Y101390D02*
X135654D01*
X135831Y100498D01*
X137056Y98666D01*
X138888Y97441D01*
X139780Y97264D01*
Y101390D01*
D02*
G37*
G36*
X146446D02*
X142320D01*
Y97264D01*
X143212Y97441D01*
X145044Y98666D01*
X146269Y100498D01*
X146446Y101390D01*
D02*
G37*
G36*
X223600Y100436D02*
Y96310D01*
X227726D01*
X227549Y97202D01*
X226324Y99034D01*
X224492Y100259D01*
X223600Y100436D01*
D02*
G37*
G36*
X392510Y99166D02*
Y95040D01*
X396636D01*
X396459Y95932D01*
X395234Y97764D01*
X393402Y98989D01*
X392510Y99166D01*
D02*
G37*
G36*
X221060Y100436D02*
X220168Y100259D01*
X218336Y99034D01*
X217111Y97202D01*
X216934Y96310D01*
X221060D01*
Y100436D01*
D02*
G37*
G36*
X430610Y103930D02*
X426484D01*
X426661Y103038D01*
X427886Y101206D01*
X429718Y99981D01*
X430610Y99804D01*
Y103930D01*
D02*
G37*
G36*
X455056D02*
X450930D01*
Y99804D01*
X451822Y99981D01*
X453654Y101206D01*
X454879Y103038D01*
X455056Y103930D01*
D02*
G37*
G36*
X352186D02*
X348060D01*
Y99804D01*
X348952Y99981D01*
X350784Y101206D01*
X352009Y103038D01*
X352186Y103930D01*
D02*
G37*
G36*
X246776Y105200D02*
X235984D01*
X236161Y104308D01*
X237386Y102476D01*
Y101574D01*
X236161Y99742D01*
X235984Y98850D01*
X246776D01*
X246598Y99742D01*
X245374Y101574D01*
Y102476D01*
X246598Y104308D01*
X246776Y105200D01*
D02*
G37*
G36*
X345520Y103930D02*
X341394D01*
X341571Y103038D01*
X342796Y101206D01*
X344628Y99981D01*
X345520Y99804D01*
Y103930D01*
D02*
G37*
G36*
X100410Y98850D02*
X96284D01*
X96461Y97958D01*
X97686Y96126D01*
X99518Y94901D01*
X100410Y94724D01*
Y98850D01*
D02*
G37*
G36*
X107076D02*
X102950D01*
Y94724D01*
X103842Y94901D01*
X105674Y96126D01*
X106898Y97958D01*
X107076Y98850D01*
D02*
G37*
G36*
X182960Y95356D02*
Y91230D01*
X187086D01*
X186908Y92122D01*
X185684Y93954D01*
X183852Y95178D01*
X182960Y95356D01*
D02*
G37*
G36*
X246776Y96310D02*
X235984D01*
X236161Y95418D01*
X237386Y93586D01*
Y92684D01*
X236161Y90852D01*
X235984Y89960D01*
X246776D01*
X246598Y90852D01*
X245374Y92684D01*
Y93586D01*
X246598Y95418D01*
X246776Y96310D01*
D02*
G37*
G36*
X180420Y95356D02*
X179528Y95178D01*
X177696Y93954D01*
X176471Y92122D01*
X176294Y91230D01*
X180420D01*
Y95356D01*
D02*
G37*
G36*
X306150Y99166D02*
Y95040D01*
X310276D01*
X310098Y95932D01*
X308874Y97764D01*
X307042Y98989D01*
X306150Y99166D01*
D02*
G37*
G36*
X389970D02*
X389078Y98989D01*
X387246Y97764D01*
X386021Y95932D01*
X385844Y95040D01*
X389970D01*
Y99166D01*
D02*
G37*
G36*
X303610D02*
X302718Y98989D01*
X300886Y97764D01*
X299661Y95932D01*
X299484Y95040D01*
X303610D01*
Y99166D01*
D02*
G37*
G36*
X365840Y98850D02*
X361714D01*
X361891Y97958D01*
X363116Y96126D01*
X364948Y94901D01*
X365840Y94724D01*
Y98850D01*
D02*
G37*
G36*
X372506D02*
X368380D01*
Y94724D01*
X369272Y94901D01*
X371104Y96126D01*
X372328Y97958D01*
X372506Y98850D01*
D02*
G37*
G36*
X231220Y313796D02*
Y309670D01*
X235346D01*
X235168Y310562D01*
X233944Y312394D01*
X232112Y313619D01*
X231220Y313796D01*
D02*
G37*
G36*
X298530Y308716D02*
Y304590D01*
X302656D01*
X302479Y305482D01*
X301254Y307314D01*
X299422Y308538D01*
X298530Y308716D01*
D02*
G37*
G36*
X228680Y313796D02*
X227788Y313619D01*
X225956Y312394D01*
X224731Y310562D01*
X224554Y309670D01*
X228680D01*
Y313796D01*
D02*
G37*
G36*
Y321100D02*
X224554D01*
X224731Y320208D01*
X225956Y318376D01*
X227788Y317151D01*
X228680Y316974D01*
Y321100D01*
D02*
G37*
G36*
X235346D02*
X231220D01*
Y316974D01*
X232112Y317151D01*
X233944Y318376D01*
X235168Y320208D01*
X235346Y321100D01*
D02*
G37*
G36*
X243980Y317730D02*
X239854D01*
X240031Y316838D01*
X241256Y315006D01*
X243088Y313781D01*
X243980Y313604D01*
Y317730D01*
D02*
G37*
G36*
X250646D02*
X246520D01*
Y313604D01*
X247412Y313781D01*
X249244Y315006D01*
X250469Y316838D01*
X250646Y317730D01*
D02*
G37*
G36*
X235346Y307130D02*
X231220D01*
Y303004D01*
X231790Y303118D01*
X232539Y302279D01*
X232630Y302088D01*
X232351Y301672D01*
X232174Y300780D01*
X236300D01*
Y304906D01*
X235730Y304792D01*
X234981Y305631D01*
X234890Y305822D01*
X235168Y306238D01*
X235346Y307130D01*
D02*
G37*
G36*
X247730Y304906D02*
Y300780D01*
X251856D01*
X251679Y301672D01*
X250454Y303504D01*
X248622Y304729D01*
X247730Y304906D01*
D02*
G37*
G36*
X302656Y302050D02*
X298530D01*
Y297924D01*
X299422Y298101D01*
X301254Y299326D01*
X302479Y301158D01*
X302656Y302050D01*
D02*
G37*
G36*
X336630Y294746D02*
Y290620D01*
X340756D01*
X340578Y291512D01*
X339354Y293344D01*
X337522Y294569D01*
X336630Y294746D01*
D02*
G37*
G36*
X295990Y302050D02*
X291864D01*
X292041Y301158D01*
X293266Y299326D01*
X295098Y298101D01*
X295990Y297924D01*
Y302050D01*
D02*
G37*
G36*
Y308716D02*
X295098Y308538D01*
X293266Y307314D01*
X292041Y305482D01*
X291864Y304590D01*
X295990D01*
Y308716D01*
D02*
G37*
G36*
X245190Y304906D02*
X244298Y304729D01*
X242466Y303504D01*
X241564D01*
X239732Y304729D01*
X238840Y304906D01*
Y299510D01*
X237570D01*
Y298240D01*
X232174D01*
X232351Y297348D01*
X233576Y295516D01*
X234251Y295065D01*
Y293795D01*
X233576Y293344D01*
X232351Y291512D01*
X232174Y290620D01*
X237570D01*
Y289350D01*
X238840D01*
Y283954D01*
X239732Y284131D01*
X241564Y285356D01*
X241734Y285610D01*
X243485Y285945D01*
X244298Y285401D01*
X245190Y285224D01*
Y290620D01*
X246460D01*
Y291890D01*
X251856D01*
X251679Y292782D01*
X250454Y294614D01*
Y295516D01*
X251679Y297348D01*
X251856Y298240D01*
X246460D01*
Y299510D01*
X245190D01*
Y304906D01*
D02*
G37*
G36*
X228680Y307130D02*
X224554D01*
X224731Y306238D01*
X225956Y304406D01*
X227788Y303181D01*
X228680Y303004D01*
Y307130D01*
D02*
G37*
G36*
X307166Y358438D02*
X303040D01*
X303217Y357546D01*
X304442Y355714D01*
X306274Y354489D01*
X307166Y354312D01*
Y358438D01*
D02*
G37*
G36*
X444642D02*
X440516D01*
Y354312D01*
X441408Y354489D01*
X443240Y355714D01*
X444464Y357546D01*
X444642Y358438D01*
D02*
G37*
G36*
X313832D02*
X309706D01*
Y354312D01*
X310598Y354489D01*
X312430Y355714D01*
X313654Y357546D01*
X313832Y358438D01*
D02*
G37*
G36*
X437976D02*
X433850D01*
X434027Y357546D01*
X435252Y355714D01*
X437084Y354489D01*
X437976Y354312D01*
Y358438D01*
D02*
G37*
G36*
X231220Y327766D02*
Y323640D01*
X235346D01*
X235168Y324532D01*
X233944Y326364D01*
X232112Y327589D01*
X231220Y327766D01*
D02*
G37*
G36*
X307674Y334562D02*
X303548D01*
X303725Y333670D01*
X304950Y331838D01*
X306782Y330613D01*
X307674Y330436D01*
Y334562D01*
D02*
G37*
G36*
X228680Y327766D02*
X227788Y327589D01*
X225956Y326364D01*
X224731Y324532D01*
X224554Y323640D01*
X228680D01*
Y327766D01*
D02*
G37*
G36*
X243980Y324396D02*
X243088Y324218D01*
X241256Y322994D01*
X240031Y321162D01*
X239854Y320270D01*
X243980D01*
Y324396D01*
D02*
G37*
G36*
X246520D02*
Y320270D01*
X250646D01*
X250469Y321162D01*
X249244Y322994D01*
X247412Y324218D01*
X246520Y324396D01*
D02*
G37*
G36*
X307674Y341228D02*
X306782Y341050D01*
X304950Y339826D01*
X303725Y337994D01*
X303548Y337102D01*
X307674D01*
Y341228D01*
D02*
G37*
G36*
X310214D02*
Y337102D01*
X314340D01*
X314163Y337994D01*
X312938Y339826D01*
X311106Y341050D01*
X310214Y341228D01*
D02*
G37*
G36*
X314340Y334562D02*
X310214D01*
Y330436D01*
X311106Y330613D01*
X312938Y331838D01*
X314163Y333670D01*
X314340Y334562D01*
D02*
G37*
G36*
X320120Y282046D02*
X319228Y281868D01*
X317396Y280644D01*
X316171Y278812D01*
X315994Y277920D01*
X320120D01*
Y282046D01*
D02*
G37*
G36*
X322660D02*
Y277920D01*
X326786D01*
X326609Y278812D01*
X325384Y280644D01*
X323552Y281868D01*
X322660Y282046D01*
D02*
G37*
G36*
X437976Y279506D02*
X437084Y279328D01*
X435252Y278104D01*
X434027Y276272D01*
X433850Y275380D01*
X437976D01*
Y279506D01*
D02*
G37*
G36*
X440516D02*
Y275380D01*
X444642D01*
X444464Y276272D01*
X443240Y278104D01*
X441408Y279328D01*
X440516Y279506D01*
D02*
G37*
G36*
X380126Y284270D02*
X376000D01*
Y280144D01*
X376892Y280321D01*
X378724Y281546D01*
X379949Y283378D01*
X380126Y284270D01*
D02*
G37*
G36*
X373460D02*
X369334D01*
X369511Y283378D01*
X370736Y281546D01*
X372568Y280321D01*
X373460Y280144D01*
Y284270D01*
D02*
G37*
G36*
X358220D02*
X354094D01*
X354271Y283378D01*
X355496Y281546D01*
X357328Y280321D01*
X358220Y280144D01*
Y284270D01*
D02*
G37*
G36*
X364886D02*
X360760D01*
Y280144D01*
X361652Y280321D01*
X363484Y281546D01*
X364709Y283378D01*
X364886Y284270D01*
D02*
G37*
G36*
X130128Y283212D02*
X127772Y282902D01*
X125577Y281992D01*
X123692Y280546D01*
X122246Y278661D01*
X121336Y276466D01*
X121026Y274110D01*
X121336Y271754D01*
X122246Y269559D01*
X123692Y267674D01*
X125577Y266228D01*
X127772Y265318D01*
X130128Y265008D01*
X132484Y265318D01*
X134679Y266228D01*
X136564Y267674D01*
X138010Y269559D01*
X138920Y271754D01*
X139230Y274110D01*
X138920Y276466D01*
X138010Y278661D01*
X136564Y280546D01*
X134679Y281992D01*
X132484Y282902D01*
X130128Y283212D01*
D02*
G37*
G36*
X155528D02*
X153172Y282902D01*
X150977Y281992D01*
X149092Y280546D01*
X147646Y278661D01*
X146736Y276466D01*
X146426Y274110D01*
X146736Y271754D01*
X147646Y269559D01*
X149092Y267674D01*
X150977Y266228D01*
X153172Y265318D01*
X155528Y265008D01*
X157884Y265318D01*
X160079Y266228D01*
X161964Y267674D01*
X163410Y269559D01*
X164320Y271754D01*
X164630Y274110D01*
X164320Y276466D01*
X163410Y278661D01*
X161964Y280546D01*
X160079Y281992D01*
X157884Y282902D01*
X155528Y283212D01*
D02*
G37*
G36*
X104728D02*
X102372Y282902D01*
X100177Y281992D01*
X98292Y280546D01*
X96846Y278661D01*
X95936Y276466D01*
X95626Y274110D01*
X95936Y271754D01*
X96846Y269559D01*
X98292Y267674D01*
X100177Y266228D01*
X102372Y265318D01*
X104728Y265008D01*
X107084Y265318D01*
X109279Y266228D01*
X111164Y267674D01*
X112610Y269559D01*
X113520Y271754D01*
X113830Y274110D01*
X113520Y276466D01*
X112610Y278661D01*
X111164Y280546D01*
X109279Y281992D01*
X107084Y282902D01*
X104728Y283212D01*
D02*
G37*
G36*
X188428Y283260D02*
X173428D01*
X172262Y282776D01*
X171778Y281610D01*
Y266610D01*
X172262Y265444D01*
X173428Y264960D01*
X188428D01*
X189594Y265444D01*
X190077Y266610D01*
Y281610D01*
X189594Y282776D01*
X188428Y283260D01*
D02*
G37*
G36*
X79328Y283212D02*
X76972Y282902D01*
X74777Y281992D01*
X72892Y280546D01*
X71446Y278661D01*
X70536Y276466D01*
X70226Y274110D01*
X70536Y271754D01*
X71446Y269559D01*
X72892Y267674D01*
X74777Y266228D01*
X76972Y265318D01*
X79328Y265008D01*
X81684Y265318D01*
X83879Y266228D01*
X85764Y267674D01*
X87210Y269559D01*
X88120Y271754D01*
X88430Y274110D01*
X88120Y276466D01*
X87210Y278661D01*
X85764Y280546D01*
X83879Y281992D01*
X81684Y282902D01*
X79328Y283212D01*
D02*
G37*
G36*
X444642Y272840D02*
X440516D01*
Y268714D01*
X441408Y268891D01*
X443240Y270116D01*
X444464Y271948D01*
X444642Y272840D01*
D02*
G37*
G36*
X437976D02*
X433850D01*
X434027Y271948D01*
X435252Y270116D01*
X437084Y268891D01*
X437976Y268714D01*
Y272840D01*
D02*
G37*
G36*
X278718Y296681D02*
X262716D01*
X260882Y296316D01*
X259328Y295278D01*
X253089Y289038D01*
X252506Y289350D01*
X247730D01*
Y284574D01*
X248042Y283991D01*
X184612Y220562D01*
X183574Y219007D01*
X183209Y217174D01*
Y195500D01*
Y181186D01*
X183574Y179352D01*
X184612Y177798D01*
X185427Y176984D01*
X184941Y175810D01*
X180397D01*
X179862Y176612D01*
X178365Y177612D01*
X176600Y177963D01*
X174835Y177612D01*
X173338Y176612D01*
X172339Y175115D01*
X171987Y173350D01*
X172339Y171585D01*
X173338Y170088D01*
X174835Y169088D01*
X176600Y168737D01*
X178365Y169088D01*
X179862Y170088D01*
X180397Y170890D01*
X186241D01*
X192932Y164198D01*
X193731Y163665D01*
X194672Y163478D01*
X200772D01*
X201714Y163665D01*
X202512Y164198D01*
X216653Y178340D01*
X218373Y177998D01*
X220138Y178349D01*
X221635Y179349D01*
X222635Y180845D01*
X222986Y182610D01*
X222635Y184375D01*
X222358Y184790D01*
X222907Y186253D01*
X224068Y187028D01*
X225068Y188525D01*
X225419Y190290D01*
X225068Y192055D01*
X224068Y193552D01*
X222571Y194552D01*
X220806Y194903D01*
X219041Y194552D01*
X217544Y193552D01*
X217009Y192750D01*
X207331D01*
X206796Y193552D01*
X205299Y194552D01*
X203534Y194903D01*
X201769Y194552D01*
X200272Y193552D01*
X199272Y192055D01*
X198921Y190290D01*
X199272Y188525D01*
X200272Y187028D01*
X201769Y186028D01*
X203534Y185677D01*
X205299Y186028D01*
X206796Y187028D01*
X207331Y187830D01*
X215756D01*
X216141Y186560D01*
X215111Y185872D01*
X214111Y184375D01*
X213760Y182610D01*
X213794Y182440D01*
X203125Y171771D01*
X201906Y172348D01*
X201610Y173835D01*
X200572Y175390D01*
X200545Y175417D01*
X200542Y175422D01*
X200536Y175425D01*
X192791Y183171D01*
Y195500D01*
Y215189D01*
X264701Y287099D01*
X278718D01*
X280551Y287464D01*
X282106Y288502D01*
X283144Y290056D01*
X283509Y291890D01*
X283144Y293723D01*
X282106Y295278D01*
X280551Y296316D01*
X278718Y296681D01*
D02*
G37*
G36*
X373460Y290936D02*
X372568Y290758D01*
X370736Y289534D01*
X369511Y287702D01*
X369334Y286810D01*
X373460D01*
Y290936D01*
D02*
G37*
G36*
X376000D02*
Y286810D01*
X380126D01*
X379949Y287702D01*
X378724Y289534D01*
X376892Y290758D01*
X376000Y290936D01*
D02*
G37*
G36*
X334090Y294746D02*
X333198Y294569D01*
X331366Y293344D01*
X330141Y291512D01*
X329964Y290620D01*
X334090D01*
Y294746D01*
D02*
G37*
G36*
X236300Y288080D02*
X232174D01*
X232351Y287188D01*
X233576Y285356D01*
X235408Y284131D01*
X236300Y283954D01*
Y288080D01*
D02*
G37*
G36*
X358220Y290936D02*
X357328Y290758D01*
X355496Y289534D01*
X354271Y287702D01*
X354094Y286810D01*
X358220D01*
Y290936D01*
D02*
G37*
G36*
X360760D02*
Y286810D01*
X364886D01*
X364709Y287702D01*
X363484Y289534D01*
X361652Y290758D01*
X360760Y290936D01*
D02*
G37*
G36*
X334090Y288080D02*
X329964D01*
X330141Y287188D01*
X331366Y285356D01*
X333198Y284131D01*
X334090Y283954D01*
Y288080D01*
D02*
G37*
G36*
X340756D02*
X336630D01*
Y283954D01*
X337522Y284131D01*
X339354Y285356D01*
X340578Y287188D01*
X340756Y288080D01*
D02*
G37*
G36*
X437976Y365104D02*
X437084Y364926D01*
X435252Y363702D01*
X434027Y361870D01*
X433850Y360978D01*
X437976D01*
Y365104D01*
D02*
G37*
G36*
X440516D02*
Y360978D01*
X444642D01*
X444464Y361870D01*
X443240Y363702D01*
X441408Y364926D01*
X440516Y365104D01*
D02*
G37*
G36*
X307166D02*
X306274Y364926D01*
X304442Y363702D01*
X303217Y361870D01*
X303040Y360978D01*
X307166D01*
Y365104D01*
D02*
G37*
G36*
X309706D02*
Y360978D01*
X313832D01*
X313654Y361870D01*
X312430Y363702D01*
X310598Y364926D01*
X309706Y365104D01*
D02*
G37*
G36*
X695730Y162396D02*
X694838Y162218D01*
X693006Y160994D01*
X691781Y159162D01*
X691604Y158270D01*
X695730D01*
Y162396D01*
D02*
G37*
G36*
X698270D02*
Y158270D01*
X702396D01*
X702219Y159162D01*
X700994Y160994D01*
X699162Y162218D01*
X698270Y162396D01*
D02*
G37*
G36*
X494284Y155997D02*
X492519Y155646D01*
X491022Y154646D01*
X490023Y153149D01*
X489671Y151384D01*
X489859Y150439D01*
X482657Y143236D01*
X481076Y143551D01*
X479311Y143200D01*
X477814Y142200D01*
X476814Y140703D01*
X476463Y138938D01*
X476814Y137173D01*
X477814Y135676D01*
X479311Y134677D01*
X481076Y134325D01*
X482841Y134677D01*
X484338Y135676D01*
X485337Y137173D01*
X485689Y138938D01*
X485627Y139248D01*
X493339Y146959D01*
X494284Y146771D01*
X496049Y147122D01*
X497546Y148122D01*
X498545Y149619D01*
X498897Y151384D01*
X498545Y153149D01*
X497546Y154646D01*
X496049Y155646D01*
X494284Y155997D01*
D02*
G37*
G36*
X702396Y155730D02*
X698270D01*
Y151604D01*
X699162Y151781D01*
X700994Y153006D01*
X702219Y154838D01*
X702396Y155730D01*
D02*
G37*
G36*
X695730D02*
X691604D01*
X691781Y154838D01*
X693006Y153006D01*
X694838Y151781D01*
X695730Y151604D01*
Y155730D01*
D02*
G37*
G36*
X681270Y225396D02*
Y221270D01*
X685396D01*
X685219Y222162D01*
X683994Y223994D01*
X682162Y225219D01*
X681270Y225396D01*
D02*
G37*
G36*
X678730D02*
X677838Y225219D01*
X676006Y223994D01*
X674781Y222162D01*
X674604Y221270D01*
X678730D01*
Y225396D01*
D02*
G37*
G36*
X588730D02*
X587838Y225219D01*
X586006Y223994D01*
X584781Y222162D01*
X584604Y221270D01*
X588730D01*
Y225396D01*
D02*
G37*
G36*
X591270D02*
Y221270D01*
X595396D01*
X595219Y222162D01*
X593994Y223994D01*
X592162Y225219D01*
X591270Y225396D01*
D02*
G37*
G36*
X730758Y248412D02*
X726632D01*
X726809Y247520D01*
X728034Y245688D01*
X729866Y244463D01*
X730758Y244286D01*
Y248412D01*
D02*
G37*
G36*
X926230Y243730D02*
X921410D01*
Y240500D01*
X921608Y239509D01*
X922169Y238669D01*
X923009Y238107D01*
X924000Y237910D01*
X926230D01*
Y243730D01*
D02*
G37*
G36*
X933590D02*
X928770D01*
Y237910D01*
X931000D01*
X931991Y238107D01*
X932831Y238669D01*
X933393Y239509D01*
X933590Y240500D01*
Y243730D01*
D02*
G37*
G36*
X588730Y218730D02*
X584604D01*
X584781Y217838D01*
X586006Y216006D01*
X587838Y214781D01*
X588730Y214604D01*
Y218730D01*
D02*
G37*
G36*
X595396D02*
X591270D01*
Y214604D01*
X592162Y214781D01*
X593994Y216006D01*
X595219Y217838D01*
X595396Y218730D01*
D02*
G37*
G36*
X678730D02*
X674604D01*
X674781Y217838D01*
X676006Y216006D01*
X677838Y214781D01*
X678730Y214604D01*
Y218730D01*
D02*
G37*
G36*
X685396D02*
X681270D01*
Y214604D01*
X682162Y214781D01*
X683994Y216006D01*
X685219Y217838D01*
X685396Y218730D01*
D02*
G37*
G36*
X885348Y267291D02*
X873348D01*
X872182Y266808D01*
X871698Y265642D01*
Y253642D01*
X872182Y252475D01*
X873348Y251992D01*
X885348D01*
X886514Y252475D01*
X886998Y253642D01*
Y265642D01*
X886514Y266808D01*
X885348Y267291D01*
D02*
G37*
G36*
X733298Y255078D02*
Y250952D01*
X737424D01*
X737247Y251844D01*
X736022Y253676D01*
X734190Y254901D01*
X733298Y255078D01*
D02*
G37*
G36*
X865348Y267291D02*
X853348D01*
X852182Y266808D01*
X851699Y265642D01*
Y253642D01*
X852182Y252475D01*
X853348Y251992D01*
X865348D01*
X866514Y252475D01*
X866998Y253642D01*
Y265642D01*
X866514Y266808D01*
X865348Y267291D01*
D02*
G37*
G36*
X840232Y260412D02*
X839340Y260235D01*
X837508Y259010D01*
X836283Y257178D01*
X836106Y256286D01*
X840232D01*
Y260412D01*
D02*
G37*
G36*
X842772D02*
Y256286D01*
X846898D01*
X846721Y257178D01*
X845496Y259010D01*
X843664Y260235D01*
X842772Y260412D01*
D02*
G37*
G36*
X926230Y252090D02*
X924000D01*
X923009Y251893D01*
X922169Y251331D01*
X921608Y250491D01*
X921410Y249500D01*
Y246270D01*
X926230D01*
Y252090D01*
D02*
G37*
G36*
X737424Y248412D02*
X733298D01*
Y244286D01*
X734190Y244463D01*
X736022Y245688D01*
X737247Y247520D01*
X737424Y248412D01*
D02*
G37*
G36*
X846898Y253746D02*
X842772D01*
Y249620D01*
X843664Y249797D01*
X845496Y251022D01*
X846721Y252854D01*
X846898Y253746D01*
D02*
G37*
G36*
X730758Y255078D02*
X729866Y254901D01*
X728034Y253676D01*
X726809Y251844D01*
X726632Y250952D01*
X730758D01*
Y255078D01*
D02*
G37*
G36*
X840232Y253746D02*
X836106D01*
X836283Y252854D01*
X837508Y251022D01*
X839340Y249797D01*
X840232Y249620D01*
Y253746D01*
D02*
G37*
G36*
X916000Y251150D02*
X909000D01*
X907833Y250666D01*
X907350Y249500D01*
Y247331D01*
X886998D01*
Y248642D01*
X886514Y249809D01*
X885348Y250292D01*
X873348D01*
X872182Y249809D01*
X871698Y248642D01*
Y236642D01*
X872182Y235476D01*
X873348Y234993D01*
X885348D01*
X886514Y235476D01*
X886998Y236642D01*
Y242669D01*
X907350D01*
Y240500D01*
X907833Y239333D01*
X909000Y238850D01*
X916000D01*
X917166Y239333D01*
X917650Y240500D01*
Y249500D01*
X917166Y250666D01*
X916000Y251150D01*
D02*
G37*
G36*
X843026Y200722D02*
X842134Y200545D01*
X840302Y199320D01*
X839077Y197488D01*
X838900Y196596D01*
X843026D01*
Y200722D01*
D02*
G37*
G36*
X845566D02*
Y196596D01*
X849692D01*
X849515Y197488D01*
X848290Y199320D01*
X846458Y200545D01*
X845566Y200722D01*
D02*
G37*
G36*
X574548Y205273D02*
X572783Y204921D01*
X571286Y203922D01*
X570664Y202991D01*
X543765D01*
X542874Y202813D01*
X542117Y202308D01*
X506986Y167177D01*
X493088D01*
X492466Y168108D01*
X490969Y169107D01*
X489204Y169459D01*
X487439Y169107D01*
X485942Y168108D01*
X484943Y166611D01*
X484591Y164846D01*
X484943Y163081D01*
X485942Y161584D01*
X487439Y160585D01*
X489204Y160233D01*
X490969Y160585D01*
X492466Y161584D01*
X493088Y162515D01*
X507952D01*
X508843Y162693D01*
X509600Y163198D01*
X544731Y198329D01*
X570664D01*
X571286Y197398D01*
X572783Y196399D01*
X574548Y196047D01*
X576313Y196399D01*
X577810Y197398D01*
X578810Y198895D01*
X579161Y200660D01*
X578810Y202425D01*
X577810Y203922D01*
X576313Y204921D01*
X574548Y205273D01*
D02*
G37*
G36*
X843026Y194056D02*
X838900D01*
X839077Y193164D01*
X840302Y191332D01*
X842134Y190107D01*
X843026Y189930D01*
Y194056D01*
D02*
G37*
G36*
X849692D02*
X845566D01*
Y189930D01*
X846458Y190107D01*
X848290Y191332D01*
X849515Y193164D01*
X849692Y194056D01*
D02*
G37*
G36*
X508730Y215396D02*
X507838Y215219D01*
X506006Y213994D01*
X504781Y212162D01*
X504604Y211270D01*
X508730D01*
Y215396D01*
D02*
G37*
G36*
X511270D02*
Y211270D01*
X515396D01*
X515219Y212162D01*
X513994Y213994D01*
X512162Y215219D01*
X511270Y215396D01*
D02*
G37*
G36*
X508730Y208730D02*
X504604D01*
X504781Y207838D01*
X506006Y206006D01*
X507838Y204781D01*
X508730Y204604D01*
Y208730D01*
D02*
G37*
G36*
X515396D02*
X511270D01*
Y204604D01*
X512162Y204781D01*
X513994Y206006D01*
X515219Y207838D01*
X515396Y208730D01*
D02*
G37*
G36*
X970000Y46604D02*
X966761Y46285D01*
X963646Y45340D01*
X960775Y43806D01*
X958259Y41741D01*
X956194Y39225D01*
X954660Y36354D01*
X953715Y33239D01*
X953396Y30000D01*
X953715Y26761D01*
X954660Y23646D01*
X956194Y20775D01*
X958259Y18259D01*
X960775Y16194D01*
X963646Y14660D01*
X966761Y13715D01*
X970000Y13396D01*
X973239Y13715D01*
X976354Y14660D01*
X979225Y16194D01*
X981741Y18259D01*
X983806Y20775D01*
X985340Y23646D01*
X986285Y26761D01*
X986604Y30000D01*
X986285Y33239D01*
X985340Y36354D01*
X983806Y39225D01*
X981741Y41741D01*
X979225Y43806D01*
X976354Y45340D01*
X973239Y46285D01*
X970000Y46604D01*
D02*
G37*
G36*
X152146Y651764D02*
X148020D01*
X148197Y650872D01*
X149422Y649040D01*
X151254Y647815D01*
X152146Y647638D01*
Y651764D01*
D02*
G37*
G36*
X158812D02*
X154686D01*
Y647638D01*
X155578Y647815D01*
X157410Y649040D01*
X158635Y650872D01*
X158812Y651764D01*
D02*
G37*
G36*
X129032Y651002D02*
X124906D01*
X125083Y650110D01*
X126308Y648278D01*
X128140Y647053D01*
X129032Y646876D01*
Y651002D01*
D02*
G37*
G36*
X135698D02*
X131572D01*
Y646876D01*
X132464Y647053D01*
X134296Y648278D01*
X135521Y650110D01*
X135698Y651002D01*
D02*
G37*
G36*
X67818Y656652D02*
X66926Y656475D01*
X65094Y655250D01*
X63869Y653418D01*
X63692Y652526D01*
X67818D01*
Y656652D01*
D02*
G37*
G36*
X131572Y657668D02*
Y653542D01*
X135698D01*
X135521Y654434D01*
X134296Y656266D01*
X132464Y657491D01*
X131572Y657668D01*
D02*
G37*
G36*
X152146Y658430D02*
X151254Y658253D01*
X149422Y657028D01*
X148197Y655196D01*
X148020Y654304D01*
X152146D01*
Y658430D01*
D02*
G37*
G36*
X70358Y656652D02*
Y652526D01*
X74484D01*
X74307Y653418D01*
X73082Y655250D01*
X71250Y656475D01*
X70358Y656652D01*
D02*
G37*
G36*
X129032Y657668D02*
X128140Y657491D01*
X126308Y656266D01*
X125083Y654434D01*
X124906Y653542D01*
X129032D01*
Y657668D01*
D02*
G37*
G36*
X518668Y650556D02*
Y646430D01*
X522794D01*
X522617Y647322D01*
X521392Y649154D01*
X519560Y650379D01*
X518668Y650556D01*
D02*
G37*
G36*
X516128Y643890D02*
X512002D01*
X512179Y642998D01*
X513404Y641166D01*
X515236Y639941D01*
X516128Y639764D01*
Y643890D01*
D02*
G37*
G36*
X522794D02*
X518668D01*
Y639764D01*
X519560Y639941D01*
X521392Y641166D01*
X522617Y642998D01*
X522794Y643890D01*
D02*
G37*
G36*
X760984Y642620D02*
X756858D01*
X757035Y641728D01*
X758260Y639896D01*
X760092Y638671D01*
X760984Y638494D01*
Y642620D01*
D02*
G37*
G36*
X767650D02*
X763524D01*
Y638494D01*
X764416Y638671D01*
X766248Y639896D01*
X767473Y641728D01*
X767650Y642620D01*
D02*
G37*
G36*
X760984Y649286D02*
X760092Y649109D01*
X758260Y647884D01*
X757035Y646052D01*
X756858Y645160D01*
X760984D01*
Y649286D01*
D02*
G37*
G36*
X74484Y649986D02*
X70358D01*
Y645860D01*
X71250Y646037D01*
X73082Y647262D01*
X74307Y649094D01*
X74484Y649986D01*
D02*
G37*
G36*
X516128Y650556D02*
X515236Y650379D01*
X513404Y649154D01*
X512179Y647322D01*
X512002Y646430D01*
X516128D01*
Y650556D01*
D02*
G37*
G36*
X763524Y649286D02*
Y645160D01*
X767650D01*
X767473Y646052D01*
X766248Y647884D01*
X764416Y649109D01*
X763524Y649286D01*
D02*
G37*
G36*
X67818Y649986D02*
X63692D01*
X63869Y649094D01*
X65094Y647262D01*
X66926Y646037D01*
X67818Y645860D01*
Y649986D01*
D02*
G37*
G36*
X154686Y658430D02*
Y654304D01*
X158812D01*
X158635Y655196D01*
X157410Y657028D01*
X155578Y658253D01*
X154686Y658430D01*
D02*
G37*
G36*
X147320Y697546D02*
Y693420D01*
X151446D01*
X151269Y694312D01*
X150044Y696144D01*
X148212Y697369D01*
X147320Y697546D01*
D02*
G37*
G36*
X466090Y698054D02*
X465198Y697877D01*
X463366Y696652D01*
X462141Y694820D01*
X461964Y693928D01*
X466090D01*
Y698054D01*
D02*
G37*
G36*
X126808Y694436D02*
X122682D01*
Y690310D01*
X123574Y690487D01*
X125406Y691712D01*
X126631Y693544D01*
X126808Y694436D01*
D02*
G37*
G36*
X144780Y697546D02*
X143888Y697369D01*
X142056Y696144D01*
X140831Y694312D01*
X140654Y693420D01*
X144780D01*
Y697546D01*
D02*
G37*
G36*
X468630Y698054D02*
Y693928D01*
X472756D01*
X472579Y694820D01*
X471354Y696652D01*
X469522Y697877D01*
X468630Y698054D01*
D02*
G37*
G36*
X105156Y701294D02*
X101030D01*
X101207Y700402D01*
X102432Y698570D01*
X104264Y697345D01*
X105156Y697168D01*
Y701294D01*
D02*
G37*
G36*
X111822D02*
X107696D01*
Y697168D01*
X108588Y697345D01*
X110420Y698570D01*
X111645Y700402D01*
X111822Y701294D01*
D02*
G37*
G36*
X120142Y701102D02*
X119250Y700925D01*
X117418Y699700D01*
X116193Y697868D01*
X116016Y696976D01*
X120142D01*
Y701102D01*
D02*
G37*
G36*
X122682D02*
Y696976D01*
X126808D01*
X126631Y697868D01*
X125406Y699700D01*
X123574Y700925D01*
X122682Y701102D01*
D02*
G37*
G36*
X120142Y694436D02*
X116016D01*
X116193Y693544D01*
X117418Y691712D01*
X119250Y690487D01*
X120142Y690310D01*
Y694436D01*
D02*
G37*
G36*
X225396Y662730D02*
X221270D01*
Y658604D01*
X222162Y658781D01*
X223994Y660006D01*
X225219Y661838D01*
X225396Y662730D01*
D02*
G37*
G36*
X218730Y669396D02*
X217838Y669219D01*
X216006Y667994D01*
X214781Y666162D01*
X214604Y665270D01*
X218730D01*
Y669396D01*
D02*
G37*
G36*
X919480Y674582D02*
X917124Y674272D01*
X914929Y673363D01*
X913044Y671916D01*
X911598Y670031D01*
X910688Y667836D01*
X910378Y665480D01*
X910688Y663124D01*
X911598Y660929D01*
X913044Y659044D01*
X914929Y657598D01*
X917124Y656689D01*
X919480Y656378D01*
X921836Y656689D01*
X924031Y657598D01*
X925916Y659044D01*
X927363Y660929D01*
X928272Y663124D01*
X928582Y665480D01*
X928272Y667836D01*
X927363Y670031D01*
X925916Y671916D01*
X924031Y673363D01*
X921836Y674272D01*
X919480Y674582D01*
D02*
G37*
G36*
X218730Y662730D02*
X214604D01*
X214781Y661838D01*
X216006Y660006D01*
X217838Y658781D01*
X218730Y658604D01*
Y662730D01*
D02*
G37*
G36*
X221270Y669396D02*
Y665270D01*
X225396D01*
X225219Y666162D01*
X223994Y667994D01*
X222162Y669219D01*
X221270Y669396D01*
D02*
G37*
G36*
X466090Y691388D02*
X461964D01*
X462141Y690496D01*
X463366Y688664D01*
X465198Y687439D01*
X466090Y687262D01*
Y691388D01*
D02*
G37*
G36*
X472756D02*
X468630D01*
Y687262D01*
X469522Y687439D01*
X471354Y688664D01*
X472579Y690496D01*
X472756Y691388D01*
D02*
G37*
G36*
X144780Y690880D02*
X140654D01*
X140831Y689988D01*
X142056Y688156D01*
X143888Y686931D01*
X144780Y686754D01*
Y690880D01*
D02*
G37*
G36*
X151446D02*
X147320D01*
Y686754D01*
X148212Y686931D01*
X150044Y688156D01*
X151269Y689988D01*
X151446Y690880D01*
D02*
G37*
G36*
X757428Y564196D02*
X756536Y564019D01*
X754704Y562794D01*
X753479Y560962D01*
X753302Y560070D01*
X757428D01*
Y564196D01*
D02*
G37*
G36*
X759968D02*
Y560070D01*
X764094D01*
X763917Y560962D01*
X762692Y562794D01*
X760860Y564019D01*
X759968Y564196D01*
D02*
G37*
G36*
X954839Y562610D02*
X946150D01*
Y553921D01*
X947501Y554099D01*
X949943Y555110D01*
X952041Y556720D01*
X953650Y558817D01*
X954662Y561259D01*
X954839Y562610D01*
D02*
G37*
G36*
X919480Y572982D02*
X917124Y572672D01*
X914929Y571763D01*
X913044Y570316D01*
X911598Y568431D01*
X910688Y566236D01*
X910378Y563880D01*
X910688Y561525D01*
X911598Y559329D01*
X913044Y557444D01*
X914929Y555998D01*
X917124Y555089D01*
X919480Y554778D01*
X921836Y555089D01*
X924031Y555998D01*
X925916Y557444D01*
X927363Y559329D01*
X928272Y561525D01*
X928582Y563880D01*
X928272Y566236D01*
X927363Y568431D01*
X925916Y570316D01*
X924031Y571763D01*
X921836Y572672D01*
X919480Y572982D01*
D02*
G37*
G36*
X382016Y564896D02*
X377890D01*
X378067Y564004D01*
X379292Y562172D01*
X381124Y560947D01*
X382016Y560770D01*
Y564896D01*
D02*
G37*
G36*
X82550Y573840D02*
Y565150D01*
X91240D01*
X91062Y566501D01*
X90050Y568943D01*
X88441Y571041D01*
X86343Y572650D01*
X83901Y573662D01*
X82550Y573840D01*
D02*
G37*
G36*
X946150D02*
Y565150D01*
X954839D01*
X954662Y566501D01*
X953650Y568943D01*
X952041Y571041D01*
X949943Y572650D01*
X947501Y573662D01*
X946150Y573840D01*
D02*
G37*
G36*
X388682Y564896D02*
X384556D01*
Y560770D01*
X385448Y560947D01*
X387280Y562172D01*
X388505Y564004D01*
X388682Y564896D01*
D02*
G37*
G36*
X943610Y573840D02*
X942259Y573662D01*
X939817Y572650D01*
X937719Y571041D01*
X936110Y568943D01*
X935098Y566501D01*
X934921Y565150D01*
X943610D01*
Y573840D01*
D02*
G37*
G36*
Y562610D02*
X934921D01*
X935098Y561259D01*
X936110Y558817D01*
X937719Y556720D01*
X939817Y555110D01*
X942259Y554099D01*
X943610Y553921D01*
Y562610D01*
D02*
G37*
G36*
X188276Y521462D02*
X184150D01*
Y517336D01*
X185042Y517513D01*
X186874Y518738D01*
X188099Y520570D01*
X188276Y521462D01*
D02*
G37*
G36*
X458730Y525396D02*
X457838Y525219D01*
X456006Y523994D01*
X454781Y522162D01*
X454604Y521270D01*
X458730D01*
Y525396D01*
D02*
G37*
G36*
X465396Y518730D02*
X461270D01*
Y514604D01*
X462162Y514781D01*
X463994Y516006D01*
X465219Y517838D01*
X465396Y518730D01*
D02*
G37*
G36*
X181610Y521462D02*
X177484D01*
X177661Y520570D01*
X178886Y518738D01*
X180718Y517513D01*
X181610Y517336D01*
Y521462D01*
D02*
G37*
G36*
X461270Y525396D02*
Y521270D01*
X465396D01*
X465219Y522162D01*
X463994Y523994D01*
X462162Y525219D01*
X461270Y525396D01*
D02*
G37*
G36*
X757428Y557530D02*
X753302D01*
X753479Y556638D01*
X754704Y554806D01*
X756536Y553581D01*
X757428Y553404D01*
Y557530D01*
D02*
G37*
G36*
X764094D02*
X759968D01*
Y553404D01*
X760860Y553581D01*
X762692Y554806D01*
X763917Y556638D01*
X764094Y557530D01*
D02*
G37*
G36*
X181610Y528128D02*
X180718Y527951D01*
X178886Y526726D01*
X177661Y524894D01*
X177484Y524002D01*
X181610D01*
Y528128D01*
D02*
G37*
G36*
X184150D02*
Y524002D01*
X188276D01*
X188099Y524894D01*
X186874Y526726D01*
X185042Y527951D01*
X184150Y528128D01*
D02*
G37*
G36*
X382016Y571562D02*
X381124Y571385D01*
X379292Y570160D01*
X378067Y568328D01*
X377890Y567436D01*
X382016D01*
Y571562D01*
D02*
G37*
G36*
X431038Y618044D02*
X430146Y617867D01*
X428314Y616642D01*
X427089Y614810D01*
X426912Y613918D01*
X431038D01*
Y618044D01*
D02*
G37*
G36*
X433578D02*
Y613918D01*
X437704D01*
X437527Y614810D01*
X436302Y616642D01*
X434470Y617867D01*
X433578Y618044D01*
D02*
G37*
G36*
X166730Y616396D02*
X165838Y616219D01*
X164006Y614994D01*
X162781Y613162D01*
X162604Y612270D01*
X166730D01*
Y616396D01*
D02*
G37*
G36*
X169270D02*
Y612270D01*
X173396D01*
X173219Y613162D01*
X171994Y614994D01*
X170162Y616219D01*
X169270Y616396D01*
D02*
G37*
G36*
X383540Y624078D02*
X379414D01*
X379591Y623186D01*
X380816Y621354D01*
X382648Y620129D01*
X383540Y619952D01*
Y624078D01*
D02*
G37*
G36*
X386080Y630744D02*
Y626618D01*
X390206D01*
X390029Y627510D01*
X388804Y629342D01*
X386972Y630567D01*
X386080Y630744D01*
D02*
G37*
G36*
X81280Y649182D02*
X78924Y648872D01*
X76729Y647963D01*
X74844Y646516D01*
X73398Y644631D01*
X72488Y642436D01*
X72178Y640080D01*
X72488Y637724D01*
X73398Y635529D01*
X74844Y633644D01*
X76729Y632198D01*
X78924Y631288D01*
X81280Y630978D01*
X83636Y631288D01*
X85831Y632198D01*
X87716Y633644D01*
X89163Y635529D01*
X90072Y637724D01*
X90382Y640080D01*
X90072Y642436D01*
X89163Y644631D01*
X87716Y646516D01*
X85831Y647963D01*
X83636Y648872D01*
X81280Y649182D01*
D02*
G37*
G36*
X390206Y624078D02*
X386080D01*
Y619952D01*
X386972Y620129D01*
X388804Y621354D01*
X390029Y623186D01*
X390206Y624078D01*
D02*
G37*
G36*
X383540Y630744D02*
X382648Y630567D01*
X380816Y629342D01*
X379591Y627510D01*
X379414Y626618D01*
X383540D01*
Y630744D01*
D02*
G37*
G36*
X437704Y611378D02*
X433578D01*
Y607252D01*
X434470Y607429D01*
X436302Y608654D01*
X437527Y610486D01*
X437704Y611378D01*
D02*
G37*
G36*
X919480Y598382D02*
X917124Y598072D01*
X914929Y597163D01*
X913044Y595716D01*
X911598Y593831D01*
X910688Y591636D01*
X910378Y589280D01*
X910688Y586925D01*
X911598Y584729D01*
X913044Y582844D01*
X914929Y581398D01*
X917124Y580489D01*
X919480Y580178D01*
X921836Y580489D01*
X924031Y581398D01*
X925916Y582844D01*
X927363Y584729D01*
X928272Y586925D01*
X928582Y589280D01*
X928272Y591636D01*
X927363Y593831D01*
X925916Y595716D01*
X924031Y597163D01*
X921836Y598072D01*
X919480Y598382D01*
D02*
G37*
G36*
X944880D02*
X942524Y598072D01*
X940329Y597163D01*
X938444Y595716D01*
X936998Y593831D01*
X936088Y591636D01*
X935778Y589280D01*
X936088Y586925D01*
X936998Y584729D01*
X938444Y582844D01*
X940329Y581398D01*
X942524Y580489D01*
X944880Y580178D01*
X947236Y580489D01*
X949431Y581398D01*
X951316Y582844D01*
X952763Y584729D01*
X953672Y586925D01*
X953982Y589280D01*
X953672Y591636D01*
X952763Y593831D01*
X951316Y595716D01*
X949431Y597163D01*
X947236Y598072D01*
X944880Y598382D01*
D02*
G37*
G36*
X384556Y571562D02*
Y567436D01*
X388682D01*
X388505Y568328D01*
X387280Y570160D01*
X385448Y571385D01*
X384556Y571562D01*
D02*
G37*
G36*
X81280Y598382D02*
X78924Y598072D01*
X76729Y597163D01*
X74844Y595716D01*
X73398Y593831D01*
X72488Y591636D01*
X72178Y589280D01*
X72488Y586925D01*
X73398Y584729D01*
X74844Y582844D01*
X76729Y581398D01*
X78924Y580489D01*
X81280Y580178D01*
X83636Y580489D01*
X85831Y581398D01*
X87716Y582844D01*
X89163Y584729D01*
X90072Y586925D01*
X90382Y589280D01*
X90072Y591636D01*
X89163Y593831D01*
X87716Y595716D01*
X85831Y597163D01*
X83636Y598072D01*
X81280Y598382D01*
D02*
G37*
G36*
Y623782D02*
X78924Y623472D01*
X76729Y622563D01*
X74844Y621116D01*
X73398Y619231D01*
X72488Y617036D01*
X72178Y614680D01*
X72488Y612324D01*
X73398Y610129D01*
X74844Y608244D01*
X76729Y606798D01*
X78924Y605888D01*
X81280Y605578D01*
X83636Y605888D01*
X85831Y606798D01*
X87716Y608244D01*
X89163Y610129D01*
X90072Y612324D01*
X90382Y614680D01*
X90072Y617036D01*
X89163Y619231D01*
X87716Y621116D01*
X85831Y622563D01*
X83636Y623472D01*
X81280Y623782D01*
D02*
G37*
G36*
X173396Y609730D02*
X169270D01*
Y605604D01*
X170162Y605781D01*
X171994Y607006D01*
X173219Y608838D01*
X173396Y609730D01*
D02*
G37*
G36*
X431038Y611378D02*
X426912D01*
X427089Y610486D01*
X428314Y608654D01*
X430146Y607429D01*
X431038Y607252D01*
Y611378D01*
D02*
G37*
G36*
X919480Y623782D02*
X917124Y623472D01*
X914929Y622563D01*
X913044Y621116D01*
X911598Y619231D01*
X910688Y617036D01*
X910378Y614680D01*
X910688Y612324D01*
X911598Y610129D01*
X913044Y608244D01*
X914929Y606798D01*
X917124Y605888D01*
X919480Y605578D01*
X921836Y605888D01*
X924031Y606798D01*
X925916Y608244D01*
X927363Y610129D01*
X928272Y612324D01*
X928582Y614680D01*
X928272Y617036D01*
X927363Y619231D01*
X925916Y621116D01*
X924031Y622563D01*
X921836Y623472D01*
X919480Y623782D01*
D02*
G37*
G36*
X166730Y609730D02*
X162604D01*
X162781Y608838D01*
X164006Y607006D01*
X165838Y605781D01*
X166730Y605604D01*
Y609730D01*
D02*
G37*
G36*
X105156Y707960D02*
X104264Y707783D01*
X102432Y706558D01*
X101207Y704726D01*
X101030Y703834D01*
X105156D01*
Y707960D01*
D02*
G37*
G36*
X917194Y834960D02*
Y830834D01*
X921320D01*
X921143Y831726D01*
X919918Y833558D01*
X918086Y834783D01*
X917194Y834960D01*
D02*
G37*
G36*
X320802Y835214D02*
X319910Y835037D01*
X318078Y833812D01*
X316853Y831980D01*
X316676Y831088D01*
X320802D01*
Y835214D01*
D02*
G37*
G36*
X327468Y828548D02*
X323342D01*
Y824422D01*
X324234Y824599D01*
X326066Y825824D01*
X327291Y827656D01*
X327468Y828548D01*
D02*
G37*
G36*
X914654Y834960D02*
X913762Y834783D01*
X911930Y833558D01*
X910705Y831726D01*
X910528Y830834D01*
X914654D01*
Y834960D01*
D02*
G37*
G36*
X323342Y835214D02*
Y831088D01*
X327468D01*
X327291Y831980D01*
X326066Y833812D01*
X324234Y835037D01*
X323342Y835214D01*
D02*
G37*
G36*
X537730Y844730D02*
X533604D01*
X533781Y843838D01*
X535006Y842006D01*
X536838Y840781D01*
X537730Y840604D01*
Y844730D01*
D02*
G37*
G36*
X544396D02*
X540270D01*
Y840604D01*
X541161Y840781D01*
X542994Y842006D01*
X544218Y843838D01*
X544396Y844730D01*
D02*
G37*
G36*
X418592Y841756D02*
X414466D01*
X414643Y840864D01*
X415868Y839032D01*
X417700Y837807D01*
X418592Y837630D01*
Y841756D01*
D02*
G37*
G36*
X425258D02*
X421132D01*
Y837630D01*
X422024Y837807D01*
X423856Y839032D01*
X425081Y840864D01*
X425258Y841756D01*
D02*
G37*
G36*
X320802Y828548D02*
X316676D01*
X316853Y827656D01*
X318078Y825824D01*
X319910Y824599D01*
X320802Y824422D01*
Y828548D01*
D02*
G37*
G36*
X579270Y805396D02*
Y801270D01*
X583396D01*
X583219Y802162D01*
X581994Y803994D01*
X580162Y805219D01*
X579270Y805396D01*
D02*
G37*
G36*
X710730Y821730D02*
X706604D01*
X706781Y820838D01*
X708006Y819006D01*
X709838Y817781D01*
X710730Y817604D01*
Y821730D01*
D02*
G37*
G36*
X17270Y801396D02*
Y797270D01*
X21396D01*
X21219Y798162D01*
X19994Y799994D01*
X18162Y801219D01*
X17270Y801396D01*
D02*
G37*
G36*
X576730Y805396D02*
X575838Y805219D01*
X574006Y803994D01*
X572781Y802162D01*
X572604Y801270D01*
X576730D01*
Y805396D01*
D02*
G37*
G36*
X717396Y821730D02*
X713270D01*
Y817604D01*
X714162Y817781D01*
X715994Y819006D01*
X717219Y820838D01*
X717396Y821730D01*
D02*
G37*
G36*
X710730Y828396D02*
X709838Y828219D01*
X708006Y826994D01*
X706781Y825162D01*
X706604Y824270D01*
X710730D01*
Y828396D01*
D02*
G37*
G36*
X713270D02*
Y824270D01*
X717396D01*
X717219Y825162D01*
X715994Y826994D01*
X714162Y828219D01*
X713270Y828396D01*
D02*
G37*
G36*
X914654Y828294D02*
X910528D01*
X910705Y827402D01*
X911930Y825570D01*
X913762Y824345D01*
X914654Y824168D01*
Y828294D01*
D02*
G37*
G36*
X921320D02*
X917194D01*
Y824168D01*
X918086Y824345D01*
X919918Y825570D01*
X921143Y827402D01*
X921320Y828294D01*
D02*
G37*
G36*
X418592Y848422D02*
X417700Y848245D01*
X415868Y847020D01*
X414643Y845188D01*
X414466Y844296D01*
X418592D01*
Y848422D01*
D02*
G37*
G36*
X525780Y964142D02*
X523424Y963832D01*
X521229Y962923D01*
X519344Y961476D01*
X517898Y959591D01*
X516988Y957396D01*
X516678Y955040D01*
X516988Y952684D01*
X517898Y950489D01*
X519344Y948604D01*
X521229Y947158D01*
X523424Y946248D01*
X525780Y945938D01*
X528136Y946248D01*
X530331Y947158D01*
X532216Y948604D01*
X533662Y950489D01*
X534572Y952684D01*
X534882Y955040D01*
X534572Y957396D01*
X533662Y959591D01*
X532216Y961476D01*
X530331Y962923D01*
X528136Y963832D01*
X525780Y964142D01*
D02*
G37*
G36*
X551180D02*
X548824Y963832D01*
X546629Y962923D01*
X544744Y961476D01*
X543298Y959591D01*
X542388Y957396D01*
X542078Y955040D01*
X542388Y952684D01*
X543298Y950489D01*
X544744Y948604D01*
X546629Y947158D01*
X548824Y946248D01*
X551180Y945938D01*
X553536Y946248D01*
X555731Y947158D01*
X557616Y948604D01*
X559062Y950489D01*
X559972Y952684D01*
X560282Y955040D01*
X559972Y957396D01*
X559062Y959591D01*
X557616Y961476D01*
X555731Y962923D01*
X553536Y963832D01*
X551180Y964142D01*
D02*
G37*
G36*
X430530Y953770D02*
X421841D01*
X422019Y952419D01*
X423030Y949977D01*
X424640Y947880D01*
X426737Y946270D01*
X429179Y945259D01*
X430530Y945081D01*
Y953770D01*
D02*
G37*
G36*
X441759D02*
X433070D01*
Y945081D01*
X434421Y945259D01*
X436863Y946270D01*
X438961Y947880D01*
X440570Y949977D01*
X441582Y952419D01*
X441759Y953770D01*
D02*
G37*
G36*
X30000Y986604D02*
X26761Y986285D01*
X23646Y985340D01*
X20775Y983806D01*
X18259Y981741D01*
X16194Y979225D01*
X14660Y976354D01*
X13715Y973239D01*
X13396Y970000D01*
X13715Y966761D01*
X14660Y963646D01*
X16194Y960775D01*
X18259Y958259D01*
X20775Y956194D01*
X23646Y954660D01*
X26761Y953715D01*
X30000Y953396D01*
X33239Y953715D01*
X36354Y954660D01*
X39225Y956194D01*
X41741Y958259D01*
X43806Y960775D01*
X45340Y963646D01*
X46285Y966761D01*
X46604Y970000D01*
X46285Y973239D01*
X45340Y976354D01*
X43806Y979225D01*
X41741Y981741D01*
X39225Y983806D01*
X36354Y985340D01*
X33239Y986285D01*
X30000Y986604D01*
D02*
G37*
G36*
X430530Y965000D02*
X429179Y964822D01*
X426737Y963810D01*
X424640Y962201D01*
X423030Y960104D01*
X422019Y957661D01*
X421841Y956310D01*
X430530D01*
Y965000D01*
D02*
G37*
G36*
X433070D02*
Y956310D01*
X441759D01*
X441582Y957661D01*
X440570Y960104D01*
X438961Y962201D01*
X436863Y963810D01*
X434421Y964822D01*
X433070Y965000D01*
D02*
G37*
G36*
X970000Y986604D02*
X966761Y986285D01*
X963646Y985340D01*
X960775Y983806D01*
X958259Y981741D01*
X956194Y979225D01*
X954660Y976354D01*
X953715Y973239D01*
X953396Y970000D01*
X953715Y966761D01*
X954660Y963646D01*
X956194Y960775D01*
X958259Y958259D01*
X960775Y956194D01*
X963646Y954660D01*
X966761Y953715D01*
X970000Y953396D01*
X973239Y953715D01*
X976354Y954660D01*
X979225Y956194D01*
X981741Y958259D01*
X983806Y960775D01*
X985340Y963646D01*
X986285Y966761D01*
X986604Y970000D01*
X986285Y973239D01*
X985340Y976354D01*
X983806Y979225D01*
X981741Y981741D01*
X979225Y983806D01*
X976354Y985340D01*
X973239Y986285D01*
X970000Y986604D01*
D02*
G37*
G36*
X609480Y964190D02*
X594480D01*
X593314Y963707D01*
X592831Y962540D01*
Y957371D01*
X590420D01*
X589528Y957194D01*
X588772Y956688D01*
X586814Y954731D01*
X585641Y955354D01*
X585372Y957396D01*
X584463Y959591D01*
X583016Y961476D01*
X581131Y962923D01*
X578936Y963832D01*
X576580Y964142D01*
X574224Y963832D01*
X572029Y962923D01*
X570144Y961476D01*
X568698Y959591D01*
X567788Y957396D01*
X567478Y955040D01*
X567788Y952684D01*
X568698Y950489D01*
X570144Y948604D01*
X572029Y947158D01*
X574224Y946248D01*
X576580Y945938D01*
X577159Y946015D01*
X577642Y945693D01*
X578303Y944884D01*
Y909005D01*
X465712Y796414D01*
X465207Y795658D01*
X465029Y794766D01*
Y732102D01*
X464099Y731479D01*
X463099Y729983D01*
X462747Y728218D01*
X463099Y726453D01*
X464099Y724956D01*
X465595Y723956D01*
X467360Y723605D01*
X469125Y723956D01*
X470622Y724956D01*
X471622Y726453D01*
X471973Y728218D01*
X471622Y729983D01*
X470622Y731479D01*
X469691Y732102D01*
Y793801D01*
X582282Y906392D01*
X582787Y907148D01*
X582964Y908040D01*
Y944289D01*
X591385Y952709D01*
X592831D01*
Y947540D01*
X593314Y946374D01*
X594480Y945891D01*
X609480D01*
X610647Y946374D01*
X611130Y947540D01*
Y962540D01*
X610647Y963707D01*
X609480Y964190D01*
D02*
G37*
G36*
X56270Y904396D02*
Y900270D01*
X60396D01*
X60219Y901162D01*
X58994Y902994D01*
X57162Y904219D01*
X56270Y904396D01*
D02*
G37*
G36*
X540270Y851396D02*
Y847270D01*
X544396D01*
X544218Y848162D01*
X542994Y849994D01*
X541161Y851219D01*
X540270Y851396D01*
D02*
G37*
G36*
X490100Y964190D02*
X475100D01*
X473934Y963707D01*
X473451Y962540D01*
Y947540D01*
X473934Y946374D01*
X475100Y945891D01*
X487389D01*
X499837Y933443D01*
Y855551D01*
X499658Y855432D01*
X498658Y853935D01*
X498307Y852170D01*
X498658Y850405D01*
X499658Y848908D01*
X501155Y847908D01*
X502920Y847557D01*
X504685Y847908D01*
X506182Y848908D01*
X507182Y850405D01*
X507533Y852170D01*
X507182Y853935D01*
X506182Y855432D01*
X506003Y855551D01*
Y934720D01*
X505769Y935900D01*
X505100Y936900D01*
X505100Y936900D01*
X491750Y950251D01*
Y962540D01*
X491267Y963707D01*
X490100Y964190D01*
D02*
G37*
G36*
X421132Y848422D02*
Y844296D01*
X425258D01*
X425081Y845188D01*
X423856Y847020D01*
X422024Y848245D01*
X421132Y848422D01*
D02*
G37*
G36*
X537730Y851396D02*
X536838Y851219D01*
X535006Y849994D01*
X533781Y848162D01*
X533604Y847270D01*
X537730D01*
Y851396D01*
D02*
G37*
G36*
X350654Y919521D02*
X348889Y919170D01*
X347392Y918170D01*
X346392Y916673D01*
X346041Y914908D01*
X346392Y913143D01*
X347392Y911647D01*
X347571Y911527D01*
Y871431D01*
X325711Y849571D01*
X325500Y849613D01*
X325290Y849571D01*
X316192Y858668D01*
X315192Y859336D01*
X314012Y859571D01*
X314012Y859571D01*
X131064D01*
X129884Y859336D01*
X128884Y858668D01*
X128884Y858668D01*
X53700Y783484D01*
X53032Y782484D01*
X52797Y781304D01*
X52797Y781304D01*
Y750830D01*
X48380D01*
X47214Y750347D01*
X46730Y749180D01*
Y736891D01*
X42270Y732430D01*
X41602Y731430D01*
X41367Y730250D01*
X41367Y730250D01*
Y575310D01*
X41367Y575310D01*
X41602Y574130D01*
X42270Y573130D01*
X47696Y567704D01*
X47088Y566236D01*
X46778Y563880D01*
X47088Y561525D01*
X47998Y559329D01*
X49444Y557444D01*
X51329Y555998D01*
X53524Y555089D01*
X55880Y554778D01*
X58236Y555089D01*
X60431Y555998D01*
X62316Y557444D01*
X63762Y559329D01*
X64110Y560168D01*
X65544Y560373D01*
X74741Y551176D01*
X74741Y551176D01*
X75741Y550508D01*
X76921Y550273D01*
X76921Y550273D01*
X172102D01*
X172102Y550273D01*
X173282Y550508D01*
X174282Y551176D01*
X228644Y605537D01*
X228854Y605495D01*
X230619Y605846D01*
X232116Y606846D01*
X233116Y608343D01*
X233467Y610108D01*
X233116Y611873D01*
X232116Y613370D01*
X230619Y614370D01*
X228854Y614721D01*
X227089Y614370D01*
X225592Y613370D01*
X224592Y611873D01*
X224241Y610108D01*
X224283Y609898D01*
X170825Y556439D01*
X89826D01*
X89200Y557709D01*
X90050Y558817D01*
X91062Y561259D01*
X91240Y562610D01*
X81280D01*
Y563880D01*
X80010D01*
Y573840D01*
X78659Y573662D01*
X76217Y572650D01*
X74120Y571041D01*
X72510Y568943D01*
X71498Y566501D01*
X71316Y565117D01*
X69976Y564662D01*
X68577Y566060D01*
X67577Y566729D01*
X66397Y566964D01*
X66397Y566963D01*
X64370D01*
X63762Y568431D01*
X62316Y570316D01*
X60431Y571763D01*
X58236Y572672D01*
X55880Y572982D01*
X53524Y572672D01*
X52057Y572064D01*
X47533Y576587D01*
Y583248D01*
X48803Y583680D01*
X49444Y582844D01*
X51329Y581398D01*
X53524Y580489D01*
X55880Y580178D01*
X58236Y580489D01*
X60431Y581398D01*
X62316Y582844D01*
X63762Y584729D01*
X64672Y586925D01*
X64982Y589280D01*
X64672Y591636D01*
X63762Y593831D01*
X62316Y595716D01*
X60431Y597163D01*
X58236Y598072D01*
X55880Y598382D01*
X53524Y598072D01*
X51329Y597163D01*
X49444Y595716D01*
X48803Y594881D01*
X47533Y595312D01*
Y608648D01*
X48803Y609080D01*
X49444Y608244D01*
X51329Y606798D01*
X53524Y605888D01*
X55880Y605578D01*
X58236Y605888D01*
X60431Y606798D01*
X62316Y608244D01*
X63762Y610129D01*
X64672Y612324D01*
X64982Y614680D01*
X64672Y617036D01*
X63762Y619231D01*
X62316Y621116D01*
X60431Y622563D01*
X58236Y623472D01*
X55880Y623782D01*
X53524Y623472D01*
X51329Y622563D01*
X49444Y621116D01*
X48803Y620281D01*
X47533Y620712D01*
Y634048D01*
X48803Y634479D01*
X49444Y633644D01*
X51329Y632198D01*
X53524Y631288D01*
X55880Y630978D01*
X58236Y631288D01*
X60431Y632198D01*
X62316Y633644D01*
X63762Y635529D01*
X64672Y637724D01*
X64982Y640080D01*
X64672Y642436D01*
X63762Y644631D01*
X62316Y646516D01*
X60431Y647963D01*
X58236Y648872D01*
X55880Y649182D01*
X53524Y648872D01*
X51329Y647963D01*
X49444Y646516D01*
X48803Y645681D01*
X47533Y646112D01*
Y659448D01*
X48803Y659880D01*
X49444Y659044D01*
X51329Y657598D01*
X53524Y656689D01*
X55880Y656378D01*
X58236Y656689D01*
X60431Y657598D01*
X62316Y659044D01*
X63762Y660929D01*
X64672Y663124D01*
X64675Y663149D01*
X67441D01*
X68333Y663327D01*
X69089Y663832D01*
X71047Y665790D01*
X72220Y665167D01*
X72488Y663124D01*
X73398Y660929D01*
X74844Y659044D01*
X76729Y657598D01*
X78924Y656689D01*
X81280Y656378D01*
X83636Y656689D01*
X85831Y657598D01*
X87716Y659044D01*
X89163Y660929D01*
X90072Y663124D01*
X90382Y665480D01*
X90072Y667836D01*
X89163Y670031D01*
X87908Y671665D01*
X88297Y672935D01*
X228531D01*
X371445Y530022D01*
X372201Y529517D01*
X373093Y529339D01*
X478952D01*
X479438Y528166D01*
X477142Y525869D01*
X476637Y525113D01*
X476459Y524221D01*
Y522111D01*
X476249Y521971D01*
X475471Y520805D01*
X475197Y519430D01*
X475471Y518055D01*
X476249Y516889D01*
X477415Y516110D01*
X478790Y515837D01*
X480165Y516110D01*
X481331Y516889D01*
X482109Y518055D01*
X482252Y518772D01*
X482392Y519432D01*
X483625Y519696D01*
X483870Y519647D01*
X485245Y519921D01*
X486411Y520699D01*
X486551Y520909D01*
X553459D01*
X554351Y521087D01*
X555107Y521592D01*
X602176Y568661D01*
X606478D01*
X607100Y567730D01*
X608031Y567108D01*
Y543060D01*
X608209Y542168D01*
X608714Y541411D01*
X628268Y521857D01*
Y339090D01*
X627095Y338604D01*
X613787Y351913D01*
X613031Y352417D01*
X612140Y352595D01*
X555701D01*
X449115Y459181D01*
Y489062D01*
X449327Y489203D01*
X450106Y490369D01*
X450379Y491744D01*
X450106Y493119D01*
X449327Y494285D01*
X448161Y495064D01*
X446786Y495337D01*
X445411Y495064D01*
X444245Y494285D01*
X443466Y493119D01*
X443193Y491744D01*
X443466Y490369D01*
X444245Y489203D01*
X444457Y489062D01*
Y458271D01*
X444334Y458158D01*
X443273Y457659D01*
X441751Y459181D01*
Y494143D01*
X441961Y494283D01*
X442739Y495449D01*
X443013Y496824D01*
X442739Y498199D01*
X441961Y499365D01*
X440795Y500144D01*
X439420Y500417D01*
X438045Y500144D01*
X436879Y499365D01*
X436101Y498199D01*
X435827Y496824D01*
X436101Y495449D01*
X436879Y494283D01*
X437089Y494143D01*
Y459845D01*
X435819Y459319D01*
X389784Y505354D01*
X388784Y506022D01*
X387604Y506257D01*
X387604Y506257D01*
X236189D01*
X236070Y506436D01*
X234573Y507435D01*
X232808Y507787D01*
X231043Y507435D01*
X229546Y506436D01*
X228547Y504939D01*
X228195Y503174D01*
X228547Y501409D01*
X229546Y499912D01*
X231043Y498913D01*
X232808Y498561D01*
X234573Y498913D01*
X236070Y499912D01*
X236189Y500091D01*
X386327D01*
X569962Y316456D01*
X569962Y316456D01*
X570962Y315787D01*
X572142Y315553D01*
X572142Y315553D01*
X585671D01*
Y315136D01*
X586154Y313969D01*
X587320Y313486D01*
X588737D01*
Y308650D01*
X586500D01*
X586002Y308443D01*
X585330Y308169D01*
X584334Y308827D01*
X584331Y308831D01*
X583491Y309393D01*
X582500Y309590D01*
X578270D01*
Y300000D01*
Y290410D01*
X582500D01*
X583491Y290607D01*
X584331Y291169D01*
X584334Y291174D01*
X585330Y291831D01*
X586002Y291557D01*
X586500Y291350D01*
X597500D01*
X598666Y291834D01*
X599150Y293000D01*
Y296917D01*
X616736D01*
X617500Y296600D01*
Y295400D01*
X616334Y294916D01*
X615850Y293750D01*
Y290250D01*
X616334Y289084D01*
X616917Y288842D01*
Y287158D01*
X616334Y286917D01*
X615850Y285750D01*
Y284211D01*
X615497Y283857D01*
X599150D01*
Y286000D01*
X598666Y287166D01*
X597500Y287649D01*
X586500D01*
X586002Y287443D01*
X585330Y287169D01*
X584334Y287826D01*
X584331Y287831D01*
X583491Y288393D01*
X582500Y288590D01*
X578270D01*
Y279000D01*
Y269410D01*
X582500D01*
X583491Y269607D01*
X584331Y270169D01*
X584334Y270173D01*
X585330Y270831D01*
X586002Y270557D01*
X586500Y270350D01*
X588917D01*
Y261948D01*
X588917Y261948D01*
X589151Y260768D01*
X589820Y259768D01*
X617714Y231874D01*
X618714Y231206D01*
X619894Y230971D01*
X619894Y230971D01*
X819604D01*
Y230554D01*
X820088Y229388D01*
X821254Y228905D01*
X830254D01*
X831420Y229388D01*
X831904Y230554D01*
Y230971D01*
X843153D01*
X881486Y192638D01*
X882486Y191969D01*
X883666Y191735D01*
X883666Y191735D01*
X899044D01*
X899129Y191528D01*
X900175Y190165D01*
X901538Y189119D01*
X903125Y188462D01*
X904828Y188238D01*
X914828D01*
X916531Y188462D01*
X918118Y189119D01*
X919481Y190165D01*
X920527Y191528D01*
X920612Y191735D01*
X928116D01*
X928116Y191735D01*
X929296Y191969D01*
X930296Y192638D01*
X940202Y202544D01*
X940202Y202544D01*
X940871Y203544D01*
X941105Y204724D01*
X941105Y204724D01*
Y248920D01*
X940871Y250100D01*
X940202Y251100D01*
X940202Y251100D01*
X925714Y265589D01*
X926199Y266762D01*
X926218D01*
Y276352D01*
Y285942D01*
X921988D01*
X920997Y285744D01*
X920157Y285183D01*
X920154Y285179D01*
X919158Y284521D01*
X918486Y284795D01*
X917988Y285002D01*
X915583D01*
Y290268D01*
X915988D01*
X917154Y290752D01*
X917637Y291918D01*
Y300918D01*
X917154Y302084D01*
X915988Y302568D01*
X915571D01*
Y304787D01*
X917988D01*
X918486Y304993D01*
X919159Y305267D01*
X920154Y304610D01*
X920157Y304605D01*
X920997Y304044D01*
X921988Y303846D01*
X926218D01*
Y313436D01*
Y323026D01*
X921988D01*
X920997Y322829D01*
X920157Y322267D01*
X920154Y322263D01*
X919159Y321605D01*
X918486Y321880D01*
X917988Y322086D01*
X916083D01*
Y417380D01*
X917611Y418013D01*
X919522Y419478D01*
X920987Y421388D01*
X921909Y423613D01*
X922223Y426000D01*
X921909Y428387D01*
X920987Y430611D01*
X919522Y432521D01*
X917611Y433987D01*
X915387Y434908D01*
X913000Y435223D01*
X910613Y434908D01*
X908389Y433987D01*
X906479Y432521D01*
X905013Y430611D01*
X904091Y428387D01*
X903777Y426000D01*
X904091Y423613D01*
X905013Y421388D01*
X906479Y419478D01*
X908389Y418013D01*
X909917Y417380D01*
Y322086D01*
X906988D01*
X905822Y321603D01*
X905339Y320436D01*
Y306436D01*
X905822Y305270D01*
X906988Y304787D01*
X909405D01*
Y302568D01*
X908988D01*
X907821Y302084D01*
X907338Y300918D01*
Y291918D01*
X907821Y290752D01*
X908988Y290268D01*
X909417D01*
Y285002D01*
X906988D01*
X905822Y284518D01*
X905339Y283352D01*
Y280197D01*
X886998D01*
Y282642D01*
X886514Y283808D01*
X885348Y284292D01*
X873348D01*
X872182Y283808D01*
X871698Y282642D01*
Y270642D01*
X872182Y269476D01*
X873348Y268993D01*
X885348D01*
X886514Y269476D01*
X886998Y270642D01*
Y274031D01*
X905339D01*
Y269352D01*
X905822Y268186D01*
X906988Y267702D01*
X914879D01*
X929319Y253263D01*
X928833Y252090D01*
X928770D01*
Y246270D01*
X934300D01*
X934860Y246569D01*
X934939Y246516D01*
Y206001D01*
X926839Y197901D01*
X920612D01*
X920527Y198108D01*
X919481Y199471D01*
X918179Y200470D01*
X918079Y201155D01*
Y201181D01*
X918179Y201866D01*
X919481Y202865D01*
X920527Y204228D01*
X921184Y205815D01*
X921408Y207518D01*
X921184Y209221D01*
X920527Y210808D01*
X919481Y212171D01*
X918179Y213170D01*
X918079Y213855D01*
Y213881D01*
X918179Y214566D01*
X919481Y215565D01*
X920527Y216928D01*
X921184Y218515D01*
X921408Y220218D01*
X921184Y221921D01*
X920527Y223508D01*
X919481Y224871D01*
X918118Y225917D01*
X916531Y226574D01*
X914828Y226798D01*
X904828D01*
X903125Y226574D01*
X901538Y225917D01*
X900175Y224871D01*
X899129Y223508D01*
X898732Y222549D01*
X870408D01*
X861331Y231625D01*
Y234993D01*
X865348D01*
X866514Y235476D01*
X866998Y236642D01*
Y248642D01*
X866514Y249809D01*
X865348Y250292D01*
X853348D01*
X852182Y249809D01*
X851699Y248642D01*
Y236642D01*
X852182Y235476D01*
X853348Y234993D01*
X856669D01*
Y230660D01*
X856847Y229768D01*
X857352Y229012D01*
X867794Y218570D01*
X868550Y218064D01*
X869442Y217887D01*
X898732D01*
X899129Y216928D01*
X900175Y215565D01*
X901477Y214566D01*
X901577Y213881D01*
Y213855D01*
X901477Y213170D01*
X900175Y212171D01*
X899129Y210808D01*
X898472Y209221D01*
X898248Y207518D01*
X898472Y205815D01*
X899129Y204228D01*
X900175Y202865D01*
X901477Y201866D01*
X901577Y201181D01*
Y201155D01*
X901477Y200470D01*
X900175Y199471D01*
X899129Y198108D01*
X899044Y197901D01*
X884943D01*
X846610Y236234D01*
X845610Y236903D01*
X844430Y237137D01*
X844430Y237137D01*
X831904D01*
Y237554D01*
X831420Y238721D01*
X830254Y239204D01*
X821254D01*
X820088Y238721D01*
X819604Y237554D01*
Y237137D01*
X621171D01*
X595083Y263225D01*
Y270350D01*
X597500D01*
X598666Y270833D01*
X599150Y272000D01*
Y277691D01*
X615850D01*
Y274250D01*
X616334Y273084D01*
X617500Y272601D01*
X622500D01*
X623666Y273084D01*
X624150Y274250D01*
Y275998D01*
X624361Y276080D01*
X625420Y276209D01*
X625776Y275676D01*
X625785Y275670D01*
X641227Y260227D01*
X641983Y259722D01*
X642874Y259545D01*
X798864D01*
X798874Y259543D01*
X800151D01*
X812288Y247406D01*
X813044Y246901D01*
X813936Y246723D01*
X819604D01*
Y245554D01*
X820088Y244387D01*
X821254Y243904D01*
X830254D01*
X831420Y244387D01*
X831904Y245554D01*
Y252554D01*
X831420Y253720D01*
X830254Y254203D01*
X828085D01*
Y255829D01*
X846531Y274275D01*
X851699D01*
Y270642D01*
X852182Y269476D01*
X853348Y268993D01*
X865348D01*
X866514Y269476D01*
X866998Y270642D01*
Y282642D01*
X866514Y283808D01*
X865348Y284292D01*
X853348D01*
X852182Y283808D01*
X851699Y282642D01*
Y278937D01*
X845566D01*
X844674Y278759D01*
X843918Y278254D01*
X824106Y258442D01*
X823601Y257686D01*
X823423Y256794D01*
Y254203D01*
X821254D01*
X820088Y253720D01*
X819604Y252554D01*
Y251385D01*
X814902D01*
X802764Y263522D01*
X802008Y264027D01*
X801116Y264205D01*
X798874D01*
X798864Y264203D01*
X643839D01*
X629755Y278286D01*
Y310170D01*
X630928Y310656D01*
X635232Y306352D01*
X635988Y305847D01*
X636862Y305673D01*
X636894Y305648D01*
X637683Y304437D01*
X637541Y303830D01*
X637169Y303581D01*
X636608Y302741D01*
X636410Y301750D01*
Y301270D01*
X641500D01*
X646590D01*
Y301750D01*
X646393Y302741D01*
X645831Y303581D01*
X645459Y303830D01*
X645317Y304437D01*
X646140Y305669D01*
X833527D01*
X846966Y292230D01*
X847722Y291725D01*
X848614Y291547D01*
X851699D01*
Y287642D01*
X852182Y286475D01*
X853348Y285992D01*
X865348D01*
X866514Y286475D01*
X866998Y287642D01*
Y299642D01*
X866514Y300808D01*
X865348Y301291D01*
X853348D01*
X852182Y300808D01*
X851699Y299642D01*
Y296209D01*
X849579D01*
X838142Y307646D01*
X838628Y308819D01*
X851699D01*
Y304642D01*
X852182Y303476D01*
X853348Y302992D01*
X865348D01*
X866514Y303476D01*
X866998Y304642D01*
Y316642D01*
X866514Y317808D01*
X865348Y318292D01*
X853348D01*
X852182Y317808D01*
X851699Y316642D01*
Y313481D01*
X652475D01*
X648308Y317648D01*
X647552Y318153D01*
X646660Y318331D01*
X645409D01*
X645166Y318916D01*
X644000Y319400D01*
Y320601D01*
X645166Y321084D01*
X645650Y322250D01*
Y325750D01*
X645166Y326917D01*
X644000Y327400D01*
X639000D01*
X637834Y326917D01*
X637351Y325750D01*
Y322250D01*
X637834Y321084D01*
X639000Y320601D01*
Y319400D01*
X637834Y318916D01*
X637674Y318885D01*
X635978Y320580D01*
Y524085D01*
X635801Y524977D01*
X635295Y525733D01*
X620821Y540207D01*
Y569902D01*
X621752Y570524D01*
X622752Y572021D01*
X622937Y572953D01*
X624315Y573372D01*
X638195Y559491D01*
X638007Y558546D01*
X638358Y556781D01*
X639358Y555284D01*
X640855Y554285D01*
X642620Y553933D01*
X644385Y554285D01*
X645882Y555284D01*
X646881Y556781D01*
X647233Y558546D01*
X646881Y560311D01*
X645882Y561808D01*
X644576Y562680D01*
X644471Y563372D01*
X644576Y564064D01*
X645882Y564936D01*
X646881Y566433D01*
X647233Y568198D01*
X646881Y569963D01*
X645882Y571460D01*
X644786Y572191D01*
X644756Y572279D01*
Y573515D01*
X644786Y573603D01*
X645882Y574334D01*
X646881Y575831D01*
X647233Y577596D01*
X646881Y579361D01*
X645882Y580858D01*
X645049Y581414D01*
Y582922D01*
X645882Y583478D01*
X646881Y584975D01*
X647233Y586740D01*
X646881Y588505D01*
X646394Y589235D01*
X647073Y590505D01*
X703384D01*
X720749Y573140D01*
Y497979D01*
X720136Y497724D01*
X719652Y496558D01*
Y486398D01*
X720136Y485232D01*
X721302Y484748D01*
X724858D01*
X726024Y485232D01*
X726508Y486398D01*
Y496558D01*
X726024Y497724D01*
X725411Y497979D01*
Y574105D01*
X725233Y574997D01*
X724728Y575754D01*
X708102Y592380D01*
X708588Y593553D01*
X756971D01*
X795749Y554775D01*
Y497979D01*
X795135Y497725D01*
X794652Y496558D01*
Y486398D01*
X795135Y485232D01*
X796302Y484749D01*
X799858D01*
X801024Y485232D01*
X801507Y486398D01*
Y496558D01*
X801024Y497725D01*
X800411Y497979D01*
Y555740D01*
X800233Y556632D01*
X799728Y557388D01*
X759584Y597532D01*
X758828Y598037D01*
X757936Y598215D01*
X612909D01*
X612423Y599388D01*
X671195Y658161D01*
X672573Y657743D01*
X672648Y657365D01*
X673648Y655868D01*
X675145Y654868D01*
X676910Y654517D01*
X678675Y654868D01*
X680172Y655868D01*
X680794Y656799D01*
X894893D01*
X903474Y648218D01*
X904230Y647713D01*
X905122Y647535D01*
X912463D01*
X912852Y646265D01*
X911598Y644631D01*
X910688Y642436D01*
X910378Y640080D01*
X910688Y637724D01*
X911598Y635529D01*
X913044Y633644D01*
X914929Y632198D01*
X917124Y631288D01*
X919480Y630978D01*
X921836Y631288D01*
X924031Y632198D01*
X925665Y633452D01*
X926935Y633063D01*
Y630294D01*
X927113Y629402D01*
X927618Y628646D01*
X937013Y619251D01*
X936998Y619231D01*
X936088Y617036D01*
X935778Y614680D01*
X936088Y612324D01*
X936998Y610129D01*
X938444Y608244D01*
X940329Y606798D01*
X942524Y605888D01*
X944880Y605578D01*
X947236Y605888D01*
X949431Y606798D01*
X951316Y608244D01*
X952763Y610129D01*
X953672Y612324D01*
X953982Y614680D01*
X953672Y617036D01*
X952763Y619231D01*
X951316Y621116D01*
X949431Y622563D01*
X947236Y623472D01*
X944880Y623782D01*
X942524Y623472D01*
X940329Y622563D01*
X940309Y622547D01*
X931597Y631260D01*
Y644134D01*
X931420Y645026D01*
X930914Y645782D01*
X925182Y651514D01*
X924426Y652020D01*
X923534Y652197D01*
X906087D01*
X897506Y660778D01*
X896750Y661283D01*
X895858Y661461D01*
X680794D01*
X680172Y662392D01*
X678675Y663391D01*
X678297Y663467D01*
X677879Y664845D01*
X691541Y678507D01*
X923586D01*
X924528Y678694D01*
X925326Y679228D01*
X931133Y685034D01*
X931666Y685833D01*
X931853Y686774D01*
Y699774D01*
X940434Y708354D01*
X942524Y707488D01*
X944880Y707178D01*
X947236Y707488D01*
X949431Y708398D01*
X951316Y709844D01*
X952763Y711729D01*
X953672Y713924D01*
X953982Y716280D01*
X953672Y718636D01*
X952763Y720831D01*
X951316Y722716D01*
X949431Y724163D01*
X947236Y725072D01*
X944880Y725382D01*
X942524Y725072D01*
X940329Y724163D01*
X938444Y722716D01*
X936998Y720831D01*
X936088Y718636D01*
X935778Y716280D01*
X936088Y713924D01*
X936954Y711834D01*
X927653Y702533D01*
X927120Y701735D01*
X926933Y700793D01*
Y697902D01*
X925663Y697511D01*
X924031Y698763D01*
X921836Y699672D01*
X919480Y699982D01*
X917124Y699672D01*
X914929Y698763D01*
X914909Y698747D01*
X905126Y708530D01*
X904370Y709035D01*
X903478Y709213D01*
X711947D01*
X711055Y709035D01*
X710299Y708530D01*
X613954Y612185D01*
X512618D01*
X512519Y612349D01*
X513239Y613619D01*
X610362D01*
X611254Y613797D01*
X612010Y614302D01*
X711658Y713949D01*
X910685D01*
X910688Y713924D01*
X911598Y711729D01*
X913044Y709844D01*
X914929Y708398D01*
X917124Y707488D01*
X919480Y707178D01*
X921836Y707488D01*
X924031Y708398D01*
X925916Y709844D01*
X927363Y711729D01*
X928272Y713924D01*
X928582Y716280D01*
X928272Y718636D01*
X927363Y720831D01*
X925916Y722716D01*
X924031Y724163D01*
X921836Y725072D01*
X919480Y725382D01*
X917124Y725072D01*
X914929Y724163D01*
X913044Y722716D01*
X911598Y720831D01*
X910688Y718636D01*
X910685Y718611D01*
X724315D01*
X723829Y719784D01*
X766004Y761959D01*
X792327D01*
X792590Y760689D01*
X791026Y759644D01*
X789801Y757812D01*
X789624Y756920D01*
X800416D01*
X800239Y757812D01*
X799014Y759644D01*
X797450Y760689D01*
X797713Y761959D01*
X953322D01*
X963635Y751646D01*
Y712929D01*
X949453Y698746D01*
X949431Y698763D01*
X947236Y699672D01*
X944880Y699982D01*
X942524Y699672D01*
X940329Y698763D01*
X938444Y697316D01*
X936998Y695431D01*
X936088Y693236D01*
X935778Y690880D01*
X936088Y688524D01*
X936998Y686329D01*
X938444Y684444D01*
X940329Y682998D01*
X942524Y682088D01*
X944880Y681778D01*
X947236Y682088D01*
X949431Y682998D01*
X951316Y684444D01*
X952763Y686329D01*
X953672Y688524D01*
X953982Y690880D01*
X953672Y693236D01*
X952763Y695431D01*
X952746Y695453D01*
X965506Y708213D01*
X966679Y707727D01*
Y681178D01*
X954382Y668880D01*
X953137Y669128D01*
X952763Y670031D01*
X951316Y671916D01*
X949431Y673363D01*
X947236Y674272D01*
X944880Y674582D01*
X942524Y674272D01*
X940329Y673363D01*
X938444Y671916D01*
X936998Y670031D01*
X936088Y667836D01*
X935778Y665480D01*
X936088Y663124D01*
X936998Y660929D01*
X938444Y659044D01*
X940329Y657598D01*
X942524Y656689D01*
X944451Y656435D01*
X945011Y655199D01*
X943232Y653420D01*
X942727Y652663D01*
X942549Y651772D01*
Y648875D01*
X942524Y648872D01*
X940329Y647963D01*
X938444Y646516D01*
X936998Y644631D01*
X936088Y642436D01*
X935778Y640080D01*
X936088Y637724D01*
X936998Y635529D01*
X938444Y633644D01*
X940329Y632198D01*
X942524Y631288D01*
X944880Y630978D01*
X947236Y631288D01*
X949431Y632198D01*
X951316Y633644D01*
X952763Y635529D01*
X953672Y637724D01*
X953982Y640080D01*
X953672Y642436D01*
X952763Y644631D01*
X951316Y646516D01*
X949431Y647963D01*
X947236Y648872D01*
X947211Y648875D01*
Y650806D01*
X950187Y653783D01*
X950582Y654046D01*
X956314Y659779D01*
X956578Y660173D01*
X973706Y677301D01*
X974211Y678057D01*
X974389Y678950D01*
Y755135D01*
X974211Y756027D01*
X973706Y756783D01*
X958459Y772030D01*
X957702Y772535D01*
X956811Y772713D01*
X762515D01*
X761624Y772535D01*
X760867Y772030D01*
X717862Y729025D01*
X636283D01*
X635394Y729914D01*
X635613Y731012D01*
X635261Y732777D01*
X634262Y734274D01*
X632765Y735274D01*
X631000Y735625D01*
X629235Y735274D01*
X627738Y734274D01*
X626739Y732777D01*
X626387Y731012D01*
X626739Y729247D01*
X627738Y727750D01*
X629021Y726893D01*
X629134Y725975D01*
X629071Y725488D01*
X628780Y725294D01*
X626700Y723214D01*
X625602Y723433D01*
X623837Y723082D01*
X622340Y722082D01*
X621340Y720585D01*
X620989Y718820D01*
X621340Y717055D01*
X622340Y715558D01*
X623837Y714558D01*
X624344Y714458D01*
X624762Y713080D01*
X579238Y667555D01*
X554049D01*
X553425Y668488D01*
X551929Y669488D01*
X550164Y669839D01*
X548399Y669488D01*
X546902Y668488D01*
X545902Y666991D01*
X545551Y665226D01*
X545902Y663461D01*
X546902Y661965D01*
X548399Y660965D01*
X550164Y660614D01*
X551929Y660965D01*
X553425Y661965D01*
X554049Y662897D01*
X580202D01*
X581093Y663075D01*
X581849Y663579D01*
X636031Y717761D01*
X707218D01*
X707704Y716588D01*
X631231Y640116D01*
X630061Y640741D01*
X630112Y641000D01*
X629761Y642765D01*
X628761Y644262D01*
X627265Y645262D01*
X625500Y645613D01*
X625289Y645571D01*
X609905Y660955D01*
X610113Y662000D01*
X609762Y663765D01*
X608762Y665262D01*
X607265Y666262D01*
X605500Y666613D01*
X603735Y666262D01*
X602239Y665262D01*
X601239Y663765D01*
X600887Y662000D01*
X601239Y660235D01*
X602239Y658738D01*
X603735Y657738D01*
X604567Y657573D01*
X620929Y641210D01*
X620887Y641000D01*
X621238Y639235D01*
X622238Y637738D01*
X623735Y636739D01*
X625500Y636387D01*
X625759Y636439D01*
X626384Y635268D01*
X609397Y618281D01*
X507539D01*
X506633Y619321D01*
X506771Y620014D01*
X506419Y621779D01*
X505420Y623276D01*
X503923Y624276D01*
X502158Y624627D01*
X500393Y624276D01*
X499205Y623482D01*
X497935Y623949D01*
Y657685D01*
X497748Y658626D01*
X497215Y659425D01*
X482453Y674187D01*
X482641Y675132D01*
X482290Y676897D01*
X481290Y678394D01*
X479793Y679393D01*
X478028Y679745D01*
X476263Y679393D01*
X474766Y678394D01*
X473767Y676897D01*
X473415Y675132D01*
X473767Y673367D01*
X474766Y671870D01*
X476013Y671037D01*
X476010Y669983D01*
X475925Y669685D01*
X474512Y668742D01*
X473512Y667245D01*
X473161Y665480D01*
X473512Y663715D01*
X474512Y662218D01*
X475331Y661671D01*
X475347Y660154D01*
X475274Y660106D01*
X474320Y658677D01*
X474124Y658486D01*
X473043Y658158D01*
X290083Y841118D01*
X289326Y841623D01*
X288435Y841801D01*
X286207D01*
X282826Y845182D01*
X282070Y845687D01*
X281178Y845865D01*
X272541D01*
X271631Y846472D01*
X270256Y846746D01*
X268881Y846472D01*
X267715Y845694D01*
X266936Y844528D01*
X266663Y843153D01*
X266936Y841778D01*
X267715Y840612D01*
X268598Y840023D01*
X268300Y838753D01*
X267095D01*
X266955Y838963D01*
X265789Y839742D01*
X264414Y840015D01*
X263039Y839742D01*
X261873Y838963D01*
X261094Y837797D01*
X260821Y836422D01*
X261094Y835047D01*
X261873Y833881D01*
X263039Y833102D01*
X264414Y832829D01*
X265789Y833102D01*
X266955Y833881D01*
X267095Y834091D01*
X286207D01*
X289489Y830809D01*
X289208Y830033D01*
X288926Y829576D01*
X287677Y829327D01*
X286511Y828549D01*
X285732Y827383D01*
X285459Y826008D01*
X285732Y824633D01*
X286511Y823467D01*
X287355Y822904D01*
X287429Y822630D01*
Y821766D01*
X287355Y821492D01*
X286511Y820929D01*
X285732Y819763D01*
X285459Y818388D01*
X285732Y817013D01*
X286511Y815847D01*
X287677Y815069D01*
X289052Y814795D01*
X289300Y814844D01*
X293428Y810716D01*
X292942Y809543D01*
X290971D01*
X290831Y809753D01*
X289665Y810531D01*
X288290Y810805D01*
X286915Y810531D01*
X285749Y809753D01*
X284970Y808587D01*
X284697Y807212D01*
X284970Y805837D01*
X285749Y804671D01*
X286915Y803893D01*
X288290Y803619D01*
X289665Y803893D01*
X290831Y804671D01*
X290971Y804881D01*
X302485D01*
X470109Y637257D01*
Y598565D01*
X469899Y598425D01*
X469120Y597259D01*
X468847Y595884D01*
X469120Y594509D01*
X469899Y593343D01*
X471065Y592565D01*
X472440Y592291D01*
X472738Y592350D01*
X473927Y591820D01*
X474201Y590445D01*
X474979Y589279D01*
X476145Y588501D01*
X477520Y588227D01*
X478895Y588501D01*
X480061Y589279D01*
X480840Y590445D01*
X481070Y591603D01*
X481113Y591820D01*
X482260Y592562D01*
X482346Y592545D01*
X482696Y592615D01*
X483833Y591820D01*
X484106Y590445D01*
X484885Y589279D01*
X486051Y588501D01*
X487426Y588227D01*
X488801Y588501D01*
X489967Y589279D01*
X490746Y590445D01*
X491019Y591820D01*
X492156Y592615D01*
X492506Y592545D01*
X493881Y592818D01*
X495047Y593597D01*
X495826Y594763D01*
X495979Y595536D01*
X497326Y595985D01*
X502123Y591188D01*
X502879Y590683D01*
X503771Y590505D01*
X548466D01*
X548952Y589332D01*
X529133Y569513D01*
X436192D01*
X435570Y570444D01*
X434073Y571444D01*
X432308Y571795D01*
X430543Y571444D01*
X429047Y570444D01*
X428047Y568947D01*
X427696Y567182D01*
X428047Y565417D01*
X429047Y563921D01*
X430543Y562921D01*
X432308Y562570D01*
X432832Y562674D01*
X433596Y561531D01*
X433460Y561327D01*
X433108Y559562D01*
X433460Y557797D01*
X434459Y556300D01*
X435956Y555300D01*
X437721Y554949D01*
X439486Y555300D01*
X440009Y555650D01*
X440925Y554734D01*
X440238Y553707D01*
X439887Y551942D01*
X440238Y550177D01*
X441238Y548680D01*
X442735Y547681D01*
X444500Y547329D01*
X446202Y547668D01*
X446396Y547523D01*
X447081Y546698D01*
X446842Y546341D01*
X446491Y544576D01*
X446842Y542811D01*
X447807Y541367D01*
X447746Y541062D01*
X447379Y540097D01*
X376583D01*
X233670Y683010D01*
X232914Y683516D01*
X232022Y683693D01*
X107257D01*
X88636Y702314D01*
X87880Y702820D01*
X86988Y702997D01*
X72460D01*
X63747Y711709D01*
X63762Y711729D01*
X64672Y713924D01*
X64982Y716280D01*
X64672Y718636D01*
X63762Y720831D01*
X62316Y722716D01*
X60431Y724163D01*
X58236Y725072D01*
X55880Y725382D01*
X53524Y725072D01*
X51329Y724163D01*
X49444Y722716D01*
X48803Y721881D01*
X47533Y722312D01*
Y728973D01*
X51091Y732531D01*
X63380D01*
X64546Y733014D01*
X65030Y734180D01*
Y749180D01*
X64546Y750347D01*
X63380Y750830D01*
X58963D01*
Y780027D01*
X132341Y853405D01*
X312735D01*
X320929Y845210D01*
X320888Y845000D01*
X321239Y843235D01*
X322239Y841739D01*
X323735Y840739D01*
X325500Y840387D01*
X327265Y840739D01*
X328762Y841739D01*
X329762Y843235D01*
X330113Y845000D01*
X330071Y845210D01*
X352834Y867974D01*
X352834Y867974D01*
X353503Y868974D01*
X353737Y870154D01*
Y911527D01*
X353916Y911647D01*
X354916Y913143D01*
X355267Y914908D01*
X354916Y916673D01*
X353916Y918170D01*
X352419Y919170D01*
X350654Y919521D01*
D02*
G37*
G36*
X60396Y897730D02*
X56270D01*
Y893604D01*
X57162Y893781D01*
X58994Y895006D01*
X60219Y896838D01*
X60396Y897730D01*
D02*
G37*
G36*
X53730Y904396D02*
X52838Y904219D01*
X51006Y902994D01*
X49781Y901162D01*
X49604Y900270D01*
X53730D01*
Y904396D01*
D02*
G37*
G36*
X793120Y896613D02*
X791355Y896262D01*
X789859Y895262D01*
X788859Y893765D01*
X788508Y892000D01*
X788726Y890902D01*
X778155Y880331D01*
X695120D01*
X694228Y880153D01*
X693472Y879648D01*
X531196Y717372D01*
X530098Y717591D01*
X528333Y717240D01*
X526836Y716240D01*
X525836Y714743D01*
X525485Y712978D01*
X525836Y711213D01*
X526836Y709716D01*
X528333Y708717D01*
X530098Y708365D01*
X531863Y708717D01*
X533360Y709716D01*
X534360Y711213D01*
X534711Y712978D01*
X534492Y714076D01*
X696085Y875669D01*
X779120D01*
X780012Y875847D01*
X780768Y876352D01*
X792022Y887606D01*
X793120Y887387D01*
X794885Y887738D01*
X796382Y888738D01*
X797382Y890235D01*
X797733Y892000D01*
X797382Y893765D01*
X796382Y895262D01*
X794885Y896262D01*
X793120Y896613D01*
D02*
G37*
G36*
X53730Y897730D02*
X49604D01*
X49781Y896838D01*
X51006Y895006D01*
X52838Y893781D01*
X53730Y893604D01*
Y897730D01*
D02*
G37*
G36*
X179730Y737730D02*
X175604D01*
X175781Y736838D01*
X177006Y735006D01*
X178838Y733781D01*
X179730Y733604D01*
Y737730D01*
D02*
G37*
G36*
X186396D02*
X182270D01*
Y733604D01*
X183162Y733781D01*
X184994Y735006D01*
X186219Y736838D01*
X186396Y737730D01*
D02*
G37*
G36*
X954839Y740410D02*
X946150D01*
Y731721D01*
X947501Y731899D01*
X949943Y732910D01*
X952041Y734520D01*
X953650Y736617D01*
X954662Y739059D01*
X954839Y740410D01*
D02*
G37*
G36*
X926980Y750830D02*
X911980D01*
X910814Y750347D01*
X910331Y749180D01*
Y734180D01*
X910814Y733014D01*
X911980Y732531D01*
X926980D01*
X928147Y733014D01*
X928630Y734180D01*
Y749180D01*
X928147Y750347D01*
X926980Y750830D01*
D02*
G37*
G36*
X179730Y744396D02*
X178838Y744219D01*
X177006Y742994D01*
X175781Y741162D01*
X175604Y740270D01*
X179730D01*
Y744396D01*
D02*
G37*
G36*
X943610Y751640D02*
X942259Y751462D01*
X939817Y750450D01*
X937719Y748841D01*
X936110Y746743D01*
X935098Y744301D01*
X934921Y742950D01*
X943610D01*
Y751640D01*
D02*
G37*
G36*
X82550D02*
Y742950D01*
X91240D01*
X91062Y744301D01*
X90050Y746743D01*
X88441Y748841D01*
X86343Y750450D01*
X83901Y751462D01*
X82550Y751640D01*
D02*
G37*
G36*
X182270Y744396D02*
Y740270D01*
X186396D01*
X186219Y741162D01*
X184994Y742994D01*
X183162Y744219D01*
X182270Y744396D01*
D02*
G37*
G36*
X80010Y751640D02*
X78659Y751462D01*
X76217Y750450D01*
X74120Y748841D01*
X72510Y746743D01*
X71498Y744301D01*
X71321Y742950D01*
X80010D01*
Y751640D01*
D02*
G37*
G36*
X91240Y740410D02*
X82550D01*
Y731721D01*
X83901Y731899D01*
X86343Y732910D01*
X88441Y734520D01*
X90050Y736617D01*
X91062Y739059D01*
X91240Y740410D01*
D02*
G37*
G36*
X375220Y708660D02*
X371094D01*
Y704534D01*
X371986Y704711D01*
X373818Y705936D01*
X375043Y707768D01*
X375220Y708660D01*
D02*
G37*
G36*
X457200Y964142D02*
X454844Y963832D01*
X452649Y962923D01*
X450764Y961476D01*
X449318Y959591D01*
X448408Y957396D01*
X448098Y955040D01*
X448408Y952684D01*
X449318Y950489D01*
X450764Y948604D01*
X452649Y947158D01*
X454117Y946550D01*
Y720800D01*
X454117Y720800D01*
X454352Y719620D01*
X455020Y718620D01*
X465820Y707820D01*
X465820Y707820D01*
X466820Y707151D01*
X468000Y706917D01*
X468000Y706917D01*
X497000D01*
X497000Y706917D01*
X498180Y707151D01*
X499180Y707820D01*
X529180Y737820D01*
X529180Y737820D01*
X529849Y738820D01*
X530083Y740000D01*
Y750654D01*
X530566Y750976D01*
X531566Y752473D01*
X531917Y754238D01*
X531566Y756003D01*
X530566Y757499D01*
X529069Y758499D01*
X527304Y758850D01*
X525539Y758499D01*
X524043Y757499D01*
X523043Y756003D01*
X522692Y754238D01*
X523043Y752473D01*
X523917Y751164D01*
Y741277D01*
X495723Y713083D01*
X469277D01*
X460283Y722077D01*
Y946550D01*
X461751Y947158D01*
X463636Y948604D01*
X465083Y950489D01*
X465992Y952684D01*
X466302Y955040D01*
X465992Y957396D01*
X465083Y959591D01*
X463636Y961476D01*
X461751Y962923D01*
X459556Y963832D01*
X457200Y964142D01*
D02*
G37*
G36*
X107696Y707960D02*
Y703834D01*
X111822D01*
X111645Y704726D01*
X110420Y706558D01*
X108588Y707783D01*
X107696Y707960D01*
D02*
G37*
G36*
X368554Y708660D02*
X364428D01*
X364605Y707768D01*
X365830Y705936D01*
X367662Y704711D01*
X368554Y704534D01*
Y708660D01*
D02*
G37*
G36*
X81280Y725382D02*
X78924Y725072D01*
X76729Y724163D01*
X74844Y722716D01*
X73398Y720831D01*
X72488Y718636D01*
X72178Y716280D01*
X72488Y713924D01*
X73398Y711729D01*
X74844Y709844D01*
X76729Y708398D01*
X78924Y707488D01*
X81280Y707178D01*
X83636Y707488D01*
X85831Y708398D01*
X87716Y709844D01*
X89163Y711729D01*
X90072Y713924D01*
X90382Y716280D01*
X90072Y718636D01*
X89163Y720831D01*
X87716Y722716D01*
X85831Y724163D01*
X83636Y725072D01*
X81280Y725382D01*
D02*
G37*
G36*
X80010Y740410D02*
X71321D01*
X71498Y739059D01*
X72510Y736617D01*
X74120Y734520D01*
X76217Y732910D01*
X78659Y731899D01*
X80010Y731721D01*
Y740410D01*
D02*
G37*
G36*
X943610D02*
X934921D01*
X935098Y739059D01*
X936110Y736617D01*
X937719Y734520D01*
X939817Y732910D01*
X942259Y731899D01*
X943610Y731721D01*
Y740410D01*
D02*
G37*
G36*
X368554Y715326D02*
X367662Y715149D01*
X365830Y713924D01*
X364605Y712092D01*
X364428Y711200D01*
X368554D01*
Y715326D01*
D02*
G37*
G36*
X371094D02*
Y711200D01*
X375220D01*
X375043Y712092D01*
X373818Y713924D01*
X371986Y715149D01*
X371094Y715326D01*
D02*
G37*
G36*
X946150Y751640D02*
Y742950D01*
X954839D01*
X954662Y744301D01*
X953650Y746743D01*
X952041Y748841D01*
X949943Y750450D01*
X947501Y751462D01*
X946150Y751640D01*
D02*
G37*
G36*
X14730Y794730D02*
X10604D01*
X10781Y793838D01*
X12006Y792006D01*
X13838Y790781D01*
X14730Y790604D01*
Y794730D01*
D02*
G37*
G36*
X21396D02*
X17270D01*
Y790604D01*
X18162Y790781D01*
X19994Y792006D01*
X21219Y793838D01*
X21396Y794730D01*
D02*
G37*
G36*
X125222Y793496D02*
X121096D01*
X121273Y792604D01*
X122498Y790772D01*
X124330Y789547D01*
X125222Y789370D01*
Y793496D01*
D02*
G37*
G36*
X131888D02*
X127762D01*
Y789370D01*
X128654Y789547D01*
X130486Y790772D01*
X131711Y792604D01*
X131888Y793496D01*
D02*
G37*
G36*
X576730Y798730D02*
X572604D01*
X572781Y797838D01*
X574006Y796006D01*
X575838Y794781D01*
X576730Y794604D01*
Y798730D01*
D02*
G37*
G36*
X127762Y800162D02*
Y796036D01*
X131888D01*
X131711Y796928D01*
X130486Y798760D01*
X128654Y799985D01*
X127762Y800162D01*
D02*
G37*
G36*
X14730Y801396D02*
X13838Y801219D01*
X12006Y799994D01*
X10781Y798162D01*
X10604Y797270D01*
X14730D01*
Y801396D01*
D02*
G37*
G36*
X583396Y798730D02*
X579270D01*
Y794604D01*
X580162Y794781D01*
X581994Y796006D01*
X583219Y797838D01*
X583396Y798730D01*
D02*
G37*
G36*
X125222Y800162D02*
X124330Y799985D01*
X122498Y798760D01*
X121273Y796928D01*
X121096Y796036D01*
X125222D01*
Y800162D01*
D02*
G37*
G36*
X403270Y790396D02*
Y786270D01*
X407396D01*
X407219Y787162D01*
X405994Y788994D01*
X404162Y790219D01*
X403270Y790396D01*
D02*
G37*
G36*
X793750Y754380D02*
X789624D01*
X789801Y753488D01*
X791026Y751656D01*
X792858Y750431D01*
X793750Y750254D01*
Y754380D01*
D02*
G37*
G36*
X800416D02*
X796290D01*
Y750254D01*
X797182Y750431D01*
X799014Y751656D01*
X800239Y753488D01*
X800416Y754380D01*
D02*
G37*
G36*
X276730Y747730D02*
X272604D01*
X272781Y746838D01*
X274006Y745006D01*
X275838Y743781D01*
X276730Y743604D01*
Y747730D01*
D02*
G37*
G36*
X283396D02*
X279270D01*
Y743604D01*
X280162Y743781D01*
X281994Y745006D01*
X283219Y746838D01*
X283396Y747730D01*
D02*
G37*
G36*
X276730Y754396D02*
X275838Y754219D01*
X274006Y752994D01*
X272781Y751162D01*
X272604Y750270D01*
X276730D01*
Y754396D01*
D02*
G37*
G36*
X407396Y783730D02*
X403270D01*
Y779604D01*
X404162Y779781D01*
X405994Y781006D01*
X407219Y782838D01*
X407396Y783730D01*
D02*
G37*
G36*
X400730Y790396D02*
X399838Y790219D01*
X398006Y788994D01*
X396782Y787162D01*
X396604Y786270D01*
X400730D01*
Y790396D01*
D02*
G37*
G36*
X279270Y754396D02*
Y750270D01*
X283396D01*
X283219Y751162D01*
X281994Y752994D01*
X280162Y754219D01*
X279270Y754396D01*
D02*
G37*
G36*
X400730Y783730D02*
X396604D01*
X396782Y782838D01*
X398006Y781006D01*
X399838Y779781D01*
X400730Y779604D01*
Y783730D01*
D02*
G37*
G36*
X458730Y518730D02*
X454604D01*
X454781Y517838D01*
X456006Y516006D01*
X457838Y514781D01*
X458730Y514604D01*
Y518730D01*
D02*
G37*
G36*
X878078Y319232D02*
X873348D01*
X872357Y319035D01*
X871517Y318473D01*
X870955Y317633D01*
X870758Y316642D01*
Y311912D01*
X878078D01*
Y319232D01*
D02*
G37*
G36*
X885348D02*
X880618D01*
Y311912D01*
X887938D01*
Y316642D01*
X887741Y317633D01*
X887179Y318473D01*
X886339Y319035D01*
X885348Y319232D01*
D02*
G37*
G36*
X932988Y323026D02*
X928758D01*
Y314706D01*
X935578D01*
Y320436D01*
X935380Y321427D01*
X934819Y322267D01*
X933979Y322829D01*
X932988Y323026D01*
D02*
G37*
G36*
X935578Y312166D02*
X928758D01*
Y303846D01*
X932988D01*
X933979Y304044D01*
X934819Y304605D01*
X935380Y305445D01*
X935578Y306436D01*
Y312166D01*
D02*
G37*
G36*
X575730Y309590D02*
X571500D01*
X570509Y309393D01*
X569669Y308831D01*
X569107Y307991D01*
X568910Y307000D01*
Y301270D01*
X575730D01*
Y309590D01*
D02*
G37*
G36*
X771396Y357730D02*
X767270D01*
Y353604D01*
X768162Y353781D01*
X769994Y355006D01*
X771218Y356838D01*
X771396Y357730D01*
D02*
G37*
G36*
X764730D02*
X760604D01*
X760781Y356838D01*
X762006Y355006D01*
X763838Y353781D01*
X764730Y353604D01*
Y357730D01*
D02*
G37*
G36*
X508730Y345396D02*
X507838Y345219D01*
X506006Y343994D01*
X504781Y342162D01*
X504604Y341270D01*
X508730D01*
Y345396D01*
D02*
G37*
G36*
X511270D02*
Y341270D01*
X515396D01*
X515219Y342162D01*
X513994Y343994D01*
X512162Y345219D01*
X511270Y345396D01*
D02*
G37*
G36*
X764730Y364396D02*
X763838Y364219D01*
X762006Y362994D01*
X760781Y361162D01*
X760604Y360270D01*
X764730D01*
Y364396D01*
D02*
G37*
G36*
X767270D02*
Y360270D01*
X771396D01*
X771218Y361162D01*
X769994Y362994D01*
X768162Y364219D01*
X767270Y364396D01*
D02*
G37*
G36*
X515396Y338730D02*
X511270D01*
Y334604D01*
X512162Y334781D01*
X513994Y336006D01*
X515219Y337838D01*
X515396Y338730D01*
D02*
G37*
G36*
X508730D02*
X504604D01*
X504781Y337838D01*
X506006Y336006D01*
X507838Y334781D01*
X508730Y334604D01*
Y338730D01*
D02*
G37*
G36*
X932988Y285942D02*
X928758D01*
Y277622D01*
X935578D01*
Y283352D01*
X935380Y284343D01*
X934819Y285183D01*
X933979Y285744D01*
X932988Y285942D01*
D02*
G37*
G36*
X575730Y288590D02*
X571500D01*
X570509Y288393D01*
X569669Y287831D01*
X569107Y286991D01*
X568910Y286000D01*
Y280270D01*
X575730D01*
Y288590D01*
D02*
G37*
G36*
Y277730D02*
X568910D01*
Y272000D01*
X569107Y271009D01*
X569669Y270169D01*
X570509Y269607D01*
X571500Y269410D01*
X575730D01*
Y277730D01*
D02*
G37*
G36*
X646590Y298730D02*
X641500D01*
X636410D01*
Y298250D01*
X636608Y297259D01*
X637169Y296419D01*
X637541Y296170D01*
X637810Y295020D01*
X637719Y294640D01*
X637351Y293750D01*
Y290250D01*
X637834Y289084D01*
X639000Y288601D01*
Y287400D01*
X637834Y286917D01*
X637351Y285750D01*
Y282250D01*
X637834Y281084D01*
X639000Y280601D01*
Y279400D01*
X637834Y278917D01*
X637351Y277750D01*
Y274250D01*
X637834Y273084D01*
X639000Y272601D01*
X644000D01*
X645166Y273084D01*
X645650Y274250D01*
Y277750D01*
X645166Y278917D01*
X644000Y279400D01*
Y280601D01*
X645166Y281084D01*
X645650Y282250D01*
Y285750D01*
X645166Y286917D01*
X644000Y287400D01*
Y288601D01*
X645166Y289084D01*
X645650Y290250D01*
Y293750D01*
X645281Y294640D01*
X645191Y295020D01*
X645459Y296170D01*
X645831Y296419D01*
X646393Y297259D01*
X646590Y298250D01*
Y298730D01*
D02*
G37*
G36*
X935578Y275082D02*
X928758D01*
Y266762D01*
X932988D01*
X933979Y266959D01*
X934819Y267521D01*
X935380Y268361D01*
X935578Y269352D01*
Y275082D01*
D02*
G37*
G36*
X688270Y291396D02*
Y287270D01*
X692396D01*
X692219Y288162D01*
X690994Y289994D01*
X689162Y291219D01*
X688270Y291396D01*
D02*
G37*
G36*
X685730D02*
X684838Y291219D01*
X683006Y289994D01*
X681781Y288162D01*
X681604Y287270D01*
X685730D01*
Y291396D01*
D02*
G37*
G36*
X575730Y298730D02*
X568910D01*
Y293000D01*
X569107Y292009D01*
X569669Y291169D01*
X570509Y290607D01*
X571500Y290410D01*
X575730D01*
Y298730D01*
D02*
G37*
G36*
X930988Y302568D02*
X923988D01*
X922822Y302084D01*
X922338Y300918D01*
Y291918D01*
X922822Y290752D01*
X923988Y290268D01*
X930988D01*
X932154Y290752D01*
X932638Y291918D01*
Y300918D01*
X932154Y302084D01*
X930988Y302568D01*
D02*
G37*
G36*
X810730Y293396D02*
X809838Y293219D01*
X808006Y291994D01*
X806781Y290162D01*
X806604Y289270D01*
X810730D01*
Y293396D01*
D02*
G37*
G36*
X813270D02*
Y289270D01*
X817396D01*
X817219Y290162D01*
X815994Y291994D01*
X814162Y293219D01*
X813270Y293396D01*
D02*
G37*
G36*
X817396Y286730D02*
X813270D01*
Y282604D01*
X814162Y282782D01*
X815994Y284006D01*
X817219Y285838D01*
X817396Y286730D01*
D02*
G37*
G36*
X810730D02*
X806604D01*
X806781Y285838D01*
X808006Y284006D01*
X809838Y282782D01*
X810730Y282604D01*
Y286730D01*
D02*
G37*
G36*
X685730Y284730D02*
X681604D01*
X681781Y283838D01*
X683006Y282006D01*
X684838Y280781D01*
X685730Y280604D01*
Y284730D01*
D02*
G37*
G36*
X692396D02*
X688270D01*
Y280604D01*
X689162Y280781D01*
X690994Y282006D01*
X692219Y283838D01*
X692396Y284730D01*
D02*
G37*
G36*
X887938Y309372D02*
X879348D01*
X870758D01*
Y304642D01*
X870955Y303651D01*
X871517Y302811D01*
X872357Y302249D01*
X872477Y300931D01*
X872182Y300808D01*
X871698Y299642D01*
Y287642D01*
X872182Y286475D01*
X873348Y285992D01*
X885348D01*
X886514Y286475D01*
X886998Y287642D01*
Y299642D01*
X886514Y300808D01*
X886219Y300931D01*
X886339Y302249D01*
X887179Y302811D01*
X887741Y303651D01*
X887938Y304642D01*
Y309372D01*
D02*
G37*
G36*
X489966Y485710D02*
X489074Y485533D01*
X487242Y484308D01*
X486017Y482476D01*
X485840Y481584D01*
X489966D01*
Y485710D01*
D02*
G37*
G36*
X492506D02*
Y481584D01*
X496632D01*
X496455Y482476D01*
X495230Y484308D01*
X493398Y485533D01*
X492506Y485710D01*
D02*
G37*
G36*
X378014Y484886D02*
X373888D01*
Y480760D01*
X374780Y480937D01*
X376612Y482162D01*
X377837Y483994D01*
X378014Y484886D01*
D02*
G37*
G36*
X608330Y482916D02*
Y478790D01*
X612456D01*
X612279Y479682D01*
X611054Y481514D01*
X609222Y482739D01*
X608330Y482916D01*
D02*
G37*
G36*
X371348Y484886D02*
X367222D01*
X367399Y483994D01*
X368624Y482162D01*
X370456Y480937D01*
X371348Y480760D01*
Y484886D01*
D02*
G37*
G36*
X812608Y490208D02*
X809510D01*
Y483809D01*
X810018D01*
X811009Y484006D01*
X811849Y484567D01*
X812411Y485407D01*
X812608Y486398D01*
Y490208D01*
D02*
G37*
G36*
X289560Y490474D02*
X285434D01*
X285611Y489582D01*
X286836Y487750D01*
X288668Y486525D01*
X289560Y486348D01*
Y490474D01*
D02*
G37*
G36*
X806970Y490208D02*
X803872D01*
Y486398D01*
X804069Y485407D01*
X804631Y484567D01*
X805471Y484006D01*
X806462Y483809D01*
X806970D01*
Y490208D01*
D02*
G37*
G36*
X731970Y490208D02*
X728872D01*
Y486398D01*
X729070Y485407D01*
X729631Y484567D01*
X730471Y484005D01*
X731462Y483808D01*
X731970D01*
Y490208D01*
D02*
G37*
G36*
X737608D02*
X734510D01*
Y483808D01*
X735018D01*
X736009Y484005D01*
X736849Y484567D01*
X737411Y485407D01*
X737608Y486398D01*
Y490208D01*
D02*
G37*
G36*
X48260Y469200D02*
Y465074D01*
X52386D01*
X52209Y465966D01*
X50984Y467798D01*
X49152Y469023D01*
X48260Y469200D01*
D02*
G37*
G36*
X605790Y476250D02*
X601664D01*
X601841Y475358D01*
X603066Y473526D01*
X604898Y472301D01*
X605790Y472124D01*
Y476250D01*
D02*
G37*
G36*
X45720Y469200D02*
X44828Y469023D01*
X42996Y467798D01*
X41771Y465966D01*
X41594Y465074D01*
X45720D01*
Y469200D01*
D02*
G37*
G36*
Y462534D02*
X41594D01*
X41771Y461642D01*
X42996Y459810D01*
X44828Y458585D01*
X45720Y458408D01*
Y462534D01*
D02*
G37*
G36*
X52386D02*
X48260D01*
Y458408D01*
X49152Y458585D01*
X50984Y459810D01*
X52209Y461642D01*
X52386Y462534D01*
D02*
G37*
G36*
X239014Y486959D02*
X237249Y486608D01*
X235752Y485608D01*
X234753Y484111D01*
X234401Y482346D01*
X234675Y480971D01*
X193509Y439806D01*
X192339Y440431D01*
X192340Y440436D01*
X188214D01*
Y435362D01*
X188391Y435050D01*
X187842Y434445D01*
X187000Y434613D01*
X185235Y434262D01*
X183738Y433262D01*
X182738Y431765D01*
X182387Y430000D01*
X182738Y428235D01*
X183738Y426738D01*
X185235Y425738D01*
X187000Y425387D01*
X188765Y425738D01*
X190262Y426738D01*
X191262Y428235D01*
X191613Y430000D01*
X191394Y431098D01*
X238193Y477897D01*
X239014Y477733D01*
X240779Y478084D01*
X242276Y479084D01*
X243276Y480581D01*
X243627Y482346D01*
X243276Y484111D01*
X242276Y485608D01*
X240779Y486608D01*
X239014Y486959D01*
D02*
G37*
G36*
X605790Y482916D02*
X604898Y482739D01*
X603066Y481514D01*
X601841Y479682D01*
X601664Y478790D01*
X605790D01*
Y482916D01*
D02*
G37*
G36*
X496632Y479044D02*
X492506D01*
Y474918D01*
X493398Y475095D01*
X495230Y476320D01*
X496455Y478152D01*
X496632Y479044D01*
D02*
G37*
G36*
X612456Y476250D02*
X608330D01*
Y472124D01*
X609222Y472301D01*
X611054Y473526D01*
X612279Y475358D01*
X612456Y476250D01*
D02*
G37*
G36*
X489966Y479044D02*
X485840D01*
X486017Y478152D01*
X487242Y476320D01*
X489074Y475095D01*
X489966Y474918D01*
Y479044D01*
D02*
G37*
G36*
X296226Y490474D02*
X292100D01*
Y486348D01*
X292992Y486525D01*
X294824Y487750D01*
X296049Y489582D01*
X296226Y490474D01*
D02*
G37*
G36*
X948244Y507746D02*
X944118D01*
Y503620D01*
X945010Y503797D01*
X946842Y505022D01*
X948067Y506854D01*
X948244Y507746D01*
D02*
G37*
G36*
X515112Y508570D02*
X514220Y508393D01*
X512388Y507168D01*
X511163Y505336D01*
X510986Y504444D01*
X515112D01*
Y508570D01*
D02*
G37*
G36*
X941578Y507746D02*
X937452D01*
X937629Y506854D01*
X938854Y505022D01*
X940686Y503797D01*
X941578Y503620D01*
Y507746D01*
D02*
G37*
G36*
X100330Y506984D02*
X96204D01*
X96381Y506092D01*
X97606Y504260D01*
X99438Y503035D01*
X100330Y502858D01*
Y506984D01*
D02*
G37*
G36*
X106996D02*
X102870D01*
Y502858D01*
X103762Y503035D01*
X105594Y504260D01*
X106819Y506092D01*
X106996Y506984D01*
D02*
G37*
G36*
X941578Y514412D02*
X940686Y514235D01*
X938854Y513010D01*
X937629Y511178D01*
X937452Y510286D01*
X941578D01*
Y514412D01*
D02*
G37*
G36*
X944118D02*
Y510286D01*
X948244D01*
X948067Y511178D01*
X946842Y513010D01*
X945010Y514235D01*
X944118Y514412D01*
D02*
G37*
G36*
X102870Y513650D02*
Y509524D01*
X106996D01*
X106819Y510416D01*
X105594Y512248D01*
X103762Y513473D01*
X102870Y513650D01*
D02*
G37*
G36*
X517652Y508570D02*
Y504444D01*
X521778D01*
X521601Y505336D01*
X520376Y507168D01*
X518544Y508393D01*
X517652Y508570D01*
D02*
G37*
G36*
X100330Y513650D02*
X99438Y513473D01*
X97606Y512248D01*
X96381Y510416D01*
X96204Y509524D01*
X100330D01*
Y513650D01*
D02*
G37*
G36*
X735018Y499148D02*
X734510D01*
Y492748D01*
X737608D01*
Y496558D01*
X737411Y497549D01*
X736849Y498389D01*
X736009Y498951D01*
X735018Y499148D01*
D02*
G37*
G36*
X806970Y499148D02*
X806462D01*
X805471Y498951D01*
X804631Y498390D01*
X804069Y497549D01*
X803872Y496558D01*
Y492748D01*
X806970D01*
Y499148D01*
D02*
G37*
G36*
X731970Y499148D02*
X731462D01*
X730471Y498951D01*
X729631Y498389D01*
X729070Y497549D01*
X728872Y496558D01*
Y492748D01*
X731970D01*
Y499148D01*
D02*
G37*
G36*
X371348Y491552D02*
X370456Y491375D01*
X368624Y490150D01*
X367399Y488318D01*
X367222Y487426D01*
X371348D01*
Y491552D01*
D02*
G37*
G36*
X373888D02*
Y487426D01*
X378014D01*
X377837Y488318D01*
X376612Y490150D01*
X374780Y491375D01*
X373888Y491552D01*
D02*
G37*
G36*
X515112Y501904D02*
X510986D01*
X511163Y501012D01*
X512388Y499180D01*
X514220Y497955D01*
X515112Y497778D01*
Y501904D01*
D02*
G37*
G36*
X521778D02*
X517652D01*
Y497778D01*
X518544Y497955D01*
X520376Y499180D01*
X521601Y501012D01*
X521778Y501904D01*
D02*
G37*
G36*
X292100Y497140D02*
Y493014D01*
X296226D01*
X296049Y493906D01*
X294824Y495738D01*
X292992Y496963D01*
X292100Y497140D01*
D02*
G37*
G36*
X810018Y499148D02*
X809510D01*
Y492748D01*
X812608D01*
Y496558D01*
X812411Y497549D01*
X811849Y498390D01*
X811009Y498951D01*
X810018Y499148D01*
D02*
G37*
G36*
X289560Y497140D02*
X288668Y496963D01*
X286836Y495738D01*
X285611Y493906D01*
X285434Y493014D01*
X289560D01*
Y497140D01*
D02*
G37*
G36*
X652526Y393700D02*
X648400D01*
X648577Y392808D01*
X649802Y390976D01*
X651634Y389751D01*
X652526Y389574D01*
Y393700D01*
D02*
G37*
G36*
X659192D02*
X655066D01*
Y389574D01*
X655958Y389751D01*
X657790Y390976D01*
X659015Y392808D01*
X659192Y393700D01*
D02*
G37*
G36*
X61730Y392396D02*
X60838Y392219D01*
X59006Y390994D01*
X57781Y389162D01*
X57604Y388270D01*
X61730D01*
Y392396D01*
D02*
G37*
G36*
X64270D02*
Y388270D01*
X68396D01*
X68219Y389162D01*
X66994Y390994D01*
X65162Y392219D01*
X64270Y392396D01*
D02*
G37*
G36*
X652526Y400366D02*
X651634Y400189D01*
X649802Y398964D01*
X648577Y397132D01*
X648400Y396240D01*
X652526D01*
Y400366D01*
D02*
G37*
G36*
X375396Y418730D02*
X371270D01*
Y414604D01*
X372162Y414781D01*
X373994Y416006D01*
X375219Y417838D01*
X375396Y418730D01*
D02*
G37*
G36*
X498730D02*
X494604D01*
X494781Y417838D01*
X496006Y416006D01*
X497838Y414781D01*
X498730Y414604D01*
Y418730D01*
D02*
G37*
G36*
X655066Y400366D02*
Y396240D01*
X659192D01*
X659015Y397132D01*
X657790Y398964D01*
X655958Y400189D01*
X655066Y400366D01*
D02*
G37*
G36*
X368730Y418730D02*
X364604D01*
X364781Y417838D01*
X366006Y416006D01*
X367838Y414781D01*
X368730Y414604D01*
Y418730D01*
D02*
G37*
G36*
X61730Y385730D02*
X57604D01*
X57781Y384838D01*
X59006Y383006D01*
X60838Y381781D01*
X61730Y381604D01*
Y385730D01*
D02*
G37*
G36*
X381508Y386396D02*
Y382270D01*
X385634D01*
X385457Y383162D01*
X384232Y384994D01*
X382400Y386219D01*
X381508Y386396D01*
D02*
G37*
G36*
X25000Y416604D02*
X21761Y416285D01*
X18646Y415340D01*
X15775Y413806D01*
X13259Y411741D01*
X11194Y409225D01*
X9660Y406354D01*
X8715Y403239D01*
X8396Y400000D01*
X8715Y396761D01*
X9660Y393646D01*
X11194Y390775D01*
X13259Y388259D01*
X15775Y386194D01*
X18646Y384660D01*
X21761Y383715D01*
X25000Y383396D01*
X28239Y383715D01*
X31354Y384660D01*
X34225Y386194D01*
X36741Y388259D01*
X38806Y390775D01*
X40340Y393646D01*
X41285Y396761D01*
X41604Y400000D01*
X41285Y403239D01*
X40340Y406354D01*
X38806Y409225D01*
X36741Y411741D01*
X34225Y413806D01*
X31354Y415340D01*
X28239Y416285D01*
X25000Y416604D01*
D02*
G37*
G36*
X68396Y385730D02*
X64270D01*
Y381604D01*
X65162Y381781D01*
X66994Y383006D01*
X68219Y384838D01*
X68396Y385730D01*
D02*
G37*
G36*
X378968Y386396D02*
X378076Y386219D01*
X376244Y384994D01*
X375019Y383162D01*
X374842Y382270D01*
X378968D01*
Y386396D01*
D02*
G37*
G36*
X371270Y425396D02*
Y421270D01*
X375396D01*
X375219Y422162D01*
X373994Y423994D01*
X372162Y425219D01*
X371270Y425396D01*
D02*
G37*
G36*
X185674Y440436D02*
X181548D01*
X181725Y439544D01*
X182950Y437712D01*
X184782Y436487D01*
X185674Y436310D01*
Y440436D01*
D02*
G37*
G36*
X368730Y425396D02*
X367838Y425219D01*
X366006Y423994D01*
X364781Y422162D01*
X364604Y421270D01*
X368730D01*
Y425396D01*
D02*
G37*
G36*
X729684Y481952D02*
X726636D01*
X725470Y481468D01*
X724986Y480302D01*
Y470142D01*
X725470Y468976D01*
X725829Y468827D01*
Y441126D01*
X719571Y434867D01*
X719551Y434883D01*
X717356Y435792D01*
X715000Y436102D01*
X712644Y435792D01*
X710449Y434883D01*
X708564Y433436D01*
X707117Y431551D01*
X706208Y429356D01*
X705898Y427000D01*
X706208Y424644D01*
X707117Y422449D01*
X708564Y420564D01*
X710449Y419118D01*
X712644Y418208D01*
X715000Y417898D01*
X717356Y418208D01*
X719551Y419118D01*
X721436Y420564D01*
X722882Y422449D01*
X723792Y424644D01*
X724102Y427000D01*
X723792Y429356D01*
X722882Y431551D01*
X722867Y431571D01*
X729808Y438512D01*
X730313Y439268D01*
X730491Y440160D01*
Y468827D01*
X730851Y468976D01*
X731334Y470142D01*
Y480302D01*
X730851Y481468D01*
X729684Y481952D01*
D02*
G37*
G36*
X501270Y425396D02*
Y421270D01*
X505396D01*
X505219Y422162D01*
X503994Y423994D01*
X502162Y425219D01*
X501270Y425396D01*
D02*
G37*
G36*
X498730D02*
X497838Y425219D01*
X496006Y423994D01*
X494781Y422162D01*
X494604Y421270D01*
X498730D01*
Y425396D01*
D02*
G37*
G36*
X185674Y447102D02*
X184782Y446925D01*
X182950Y445700D01*
X181725Y443868D01*
X181548Y442976D01*
X185674D01*
Y447102D01*
D02*
G37*
G36*
X804684Y481952D02*
X801636D01*
X800470Y481469D01*
X799986Y480302D01*
Y470142D01*
X800470Y468976D01*
X800829Y468827D01*
Y468364D01*
X801006Y467472D01*
X801512Y466716D01*
X839311Y428917D01*
X839091Y428387D01*
X838777Y426000D01*
X839091Y423613D01*
X840013Y421388D01*
X841478Y419478D01*
X843389Y418013D01*
X845613Y417091D01*
X848000Y416777D01*
X850387Y417091D01*
X852611Y418013D01*
X854521Y419478D01*
X855987Y421388D01*
X856908Y423613D01*
X857223Y426000D01*
X856908Y428387D01*
X855987Y430611D01*
X854521Y432521D01*
X852611Y433987D01*
X850387Y434908D01*
X848000Y435223D01*
X845613Y434908D01*
X843389Y433987D01*
X841943Y432878D01*
X805849Y468971D01*
X805850Y468976D01*
X806333Y470142D01*
Y480302D01*
X805850Y481469D01*
X804684Y481952D01*
D02*
G37*
G36*
X505396Y418730D02*
X501270D01*
Y414604D01*
X502162Y414781D01*
X503994Y416006D01*
X505219Y417838D01*
X505396Y418730D01*
D02*
G37*
G36*
X314198Y474767D02*
X312433Y474416D01*
X310936Y473416D01*
X309937Y471919D01*
X309585Y470154D01*
X309937Y468389D01*
X310936Y466892D01*
X312433Y465892D01*
X314198Y465541D01*
X315963Y465892D01*
X317460Y466892D01*
X317579Y467071D01*
X405377D01*
X424435Y448012D01*
X424393Y447802D01*
X424744Y446037D01*
X425744Y444540D01*
X427241Y443540D01*
X429006Y443189D01*
X430771Y443540D01*
X432268Y444540D01*
X433268Y446037D01*
X433619Y447802D01*
X433268Y449567D01*
X432268Y451064D01*
X430771Y452063D01*
X429006Y452415D01*
X428796Y452373D01*
X408834Y472334D01*
X407834Y473003D01*
X406654Y473237D01*
X406654Y473237D01*
X317579D01*
X317460Y473416D01*
X315963Y474416D01*
X314198Y474767D01*
D02*
G37*
G36*
X188214Y447102D02*
Y442976D01*
X192340D01*
X192163Y443868D01*
X190938Y445700D01*
X189106Y446925D01*
X188214Y447102D01*
D02*
G37*
G36*
X747900Y436150D02*
X732900D01*
X731733Y435667D01*
X731250Y434500D01*
Y419500D01*
X731733Y418334D01*
X732900Y417850D01*
X747900D01*
X749066Y418334D01*
X749549Y419500D01*
Y434500D01*
X749066Y435667D01*
X747900Y436150D01*
D02*
G37*
%LPD*%
G36*
X49444Y709844D02*
X51329Y708398D01*
X53524Y707488D01*
X55880Y707178D01*
X58236Y707488D01*
X60431Y708398D01*
X60451Y708413D01*
X69846Y699018D01*
X70602Y698513D01*
X71494Y698335D01*
X74263D01*
X74652Y697065D01*
X73398Y695431D01*
X72488Y693236D01*
X72178Y690880D01*
X72488Y688524D01*
X73398Y686329D01*
X74844Y684444D01*
X76729Y682998D01*
X78924Y682088D01*
X80242Y681915D01*
X80159Y680645D01*
X69412D01*
X63747Y686309D01*
X63762Y686329D01*
X64672Y688524D01*
X64982Y690880D01*
X64672Y693236D01*
X63762Y695431D01*
X62316Y697316D01*
X60431Y698763D01*
X58236Y699672D01*
X55880Y699982D01*
X53524Y699672D01*
X51329Y698763D01*
X49444Y697316D01*
X48803Y696481D01*
X47533Y696912D01*
Y710248D01*
X48803Y710679D01*
X49444Y709844D01*
D02*
G37*
G36*
X911613Y695451D02*
X911598Y695431D01*
X910688Y693236D01*
X910378Y690880D01*
X910688Y688524D01*
X911598Y686329D01*
X912850Y684697D01*
X912458Y683428D01*
X693448D01*
X692962Y684601D01*
X712913Y704551D01*
X746028D01*
X746153Y703281D01*
X745838Y703219D01*
X744006Y701994D01*
X742781Y700162D01*
X742604Y699270D01*
X753396D01*
X753219Y700162D01*
X751994Y701994D01*
X750162Y703219D01*
X749847Y703281D01*
X749972Y704551D01*
X902513D01*
X911613Y695451D01*
D02*
G37*
G36*
X585671Y330136D02*
X586154Y328970D01*
X587320Y328487D01*
X596320D01*
X597486Y328970D01*
X597597Y329237D01*
X599095Y329535D01*
X614278Y314352D01*
X615034Y313847D01*
X615430Y313768D01*
X616144Y312625D01*
X616183Y312437D01*
X616041Y311830D01*
X615669Y311581D01*
X615107Y310741D01*
X614910Y309750D01*
Y309270D01*
X620000D01*
Y306730D01*
X614910D01*
Y306250D01*
X615107Y305259D01*
X615669Y304419D01*
X615767Y304353D01*
X615382Y303083D01*
X599150D01*
Y307000D01*
X598666Y308167D01*
X597500Y308650D01*
X594903D01*
Y313486D01*
X596320D01*
X597486Y313969D01*
X597970Y315136D01*
Y322136D01*
X597486Y323302D01*
X596320Y323786D01*
X587320D01*
X586154Y323302D01*
X585671Y322136D01*
Y321719D01*
X573419D01*
X565103Y330035D01*
X565629Y331305D01*
X585671D01*
Y330136D01*
D02*
G37*
G36*
X521575Y548308D02*
X520303Y547036D01*
X454901D01*
X454366Y547838D01*
X453806Y548212D01*
X454191Y549482D01*
X521089D01*
X521575Y548308D01*
D02*
G37*
G36*
X527605Y563678D02*
X525949Y562022D01*
X441518D01*
X440983Y562824D01*
X439849Y563581D01*
X440234Y564851D01*
X527119D01*
X527605Y563678D01*
D02*
G37*
G36*
X625095Y334017D02*
Y326785D01*
X623825Y326533D01*
X623666Y326917D01*
X622500Y327400D01*
X617500D01*
X616334Y326917D01*
X615850Y325750D01*
Y322250D01*
X616334Y321084D01*
X617500Y320601D01*
Y319400D01*
X616334Y318916D01*
X616310Y318912D01*
X599938Y335284D01*
X599182Y335789D01*
X598290Y335967D01*
X597970D01*
Y337136D01*
X597486Y338303D01*
X596320Y338786D01*
X587320D01*
X586154Y338303D01*
X585671Y337136D01*
Y335967D01*
X564965D01*
X554179Y346753D01*
X554678Y347814D01*
X554791Y347937D01*
X611175D01*
X625095Y334017D01*
D02*
G37*
G36*
X500393Y615752D02*
X502158Y615401D01*
X503256Y615620D01*
X504232Y614644D01*
X504285Y613152D01*
X504230Y613116D01*
X503231Y611619D01*
X502879Y609854D01*
X503231Y608089D01*
X504230Y606592D01*
X505727Y605592D01*
X507492Y605241D01*
X509257Y605592D01*
X510754Y606592D01*
X511376Y607523D01*
X611940D01*
X612426Y606350D01*
X607722Y601646D01*
X507241D01*
X497935Y610952D01*
Y616079D01*
X499205Y616546D01*
X500393Y615752D01*
D02*
G37*
G36*
X598987Y576375D02*
X553565Y530953D01*
X547084D01*
X546598Y532126D01*
X571418Y556946D01*
X572516Y556727D01*
X574281Y557079D01*
X575778Y558078D01*
X576777Y559575D01*
X577129Y561340D01*
X576777Y563105D01*
X575778Y564602D01*
X574281Y565602D01*
X572516Y565953D01*
X570751Y565602D01*
X569254Y564602D01*
X568960Y564161D01*
X567690D01*
X567396Y564602D01*
X565899Y565602D01*
X564134Y565953D01*
X562369Y565602D01*
X560872Y564602D01*
X560622Y564227D01*
X559094D01*
X559014Y564348D01*
X557517Y565348D01*
X555752Y565699D01*
X553987Y565348D01*
X552490Y564348D01*
X551491Y562851D01*
X551139Y561086D01*
X551491Y559321D01*
X552490Y557824D01*
X553421Y557202D01*
Y554424D01*
X539094Y540097D01*
X455200D01*
X454764Y540882D01*
X454646Y541291D01*
X455311Y542116D01*
X521321D01*
X522263Y542303D01*
X523061Y542836D01*
X557774Y577549D01*
X598501D01*
X598987Y576375D01*
D02*
G37*
G36*
X49444Y684444D02*
X51329Y682998D01*
X53524Y682088D01*
X55880Y681778D01*
X58236Y682088D01*
X60431Y682998D01*
X60451Y683013D01*
X66798Y676666D01*
X67554Y676161D01*
X68446Y675983D01*
X72988D01*
X73474Y674810D01*
X66475Y667811D01*
X64675D01*
X64672Y667836D01*
X63762Y670031D01*
X62316Y671916D01*
X60431Y673363D01*
X58236Y674272D01*
X55880Y674582D01*
X53524Y674272D01*
X51329Y673363D01*
X49444Y671916D01*
X48803Y671081D01*
X47533Y671512D01*
Y684848D01*
X48803Y685279D01*
X49444Y684444D01*
D02*
G37*
G36*
X524525Y555928D02*
X522999Y554402D01*
X448297D01*
X447762Y555204D01*
X446822Y555832D01*
X447207Y557102D01*
X524039D01*
X524525Y555928D01*
D02*
G37*
%LPC*%
G36*
X746730Y696730D02*
X742604D01*
X742781Y695838D01*
X744006Y694006D01*
X745838Y692781D01*
X746730Y692604D01*
Y696730D01*
D02*
G37*
G36*
X753396D02*
X749270D01*
Y692604D01*
X750162Y692781D01*
X751994Y694006D01*
X753219Y695838D01*
X753396Y696730D01*
D02*
G37*
G36*
X606270Y317396D02*
Y313270D01*
X610396D01*
X610219Y314162D01*
X608994Y315994D01*
X607162Y317219D01*
X606270Y317396D01*
D02*
G37*
G36*
X610396Y310730D02*
X606270D01*
Y306604D01*
X607162Y306782D01*
X608994Y308006D01*
X610219Y309838D01*
X610396Y310730D01*
D02*
G37*
G36*
X603730D02*
X599604D01*
X599781Y309838D01*
X601006Y308006D01*
X602838Y306782D01*
X603730Y306604D01*
Y310730D01*
D02*
G37*
G36*
Y317396D02*
X602838Y317219D01*
X601006Y315994D01*
X599781Y314162D01*
X599604Y313270D01*
X603730D01*
Y317396D01*
D02*
G37*
%LPD*%
D10*
X927488Y296418D02*
D03*
X912488D02*
D03*
X927500Y245000D02*
D03*
X912500D02*
D03*
D13*
X825754Y234054D02*
D03*
Y249054D02*
D03*
X591820Y318636D02*
D03*
Y333636D02*
D03*
D39*
X577000Y300000D02*
D03*
X592000D02*
D03*
X577000Y279000D02*
D03*
X592000D02*
D03*
X927488Y276352D02*
D03*
X912488D02*
D03*
X927488Y313436D02*
D03*
X912488D02*
D03*
D46*
X919480Y741680D02*
D03*
X55880D02*
D03*
D47*
X903478Y706882D02*
X919480Y690880D01*
X711947Y706882D02*
X903478D01*
X614919Y609854D02*
X711947Y706882D01*
X710692Y716280D02*
X919480D01*
X610362Y615950D02*
X710692Y716280D01*
X506222Y615950D02*
X610362D01*
X502158Y620014D02*
X506222Y615950D01*
X507492Y609854D02*
X614919D01*
X506826D02*
X507492D01*
X106292Y681362D02*
X232022D01*
X86988Y700666D02*
X106292Y681362D01*
X232022D02*
X375618Y537766D01*
X857150Y311150D02*
X859000Y313000D01*
X651510Y311150D02*
X857150D01*
X646660Y316000D02*
X651510Y311150D01*
X641500Y316000D02*
X646660D01*
X542846Y531670D02*
X572516Y561340D01*
X541322Y534718D02*
X564134Y557530D01*
X954666Y661558D02*
X972058Y678950D01*
X954666Y661427D02*
Y661558D01*
X948934Y655694D02*
X954666Y661427D01*
X948803Y655694D02*
X948934D01*
X944880Y651772D02*
X948803Y655694D01*
X944880Y640080D02*
Y651772D01*
X763778Y767334D02*
X955548D01*
X969010Y753872D01*
Y680212D02*
Y753872D01*
X954278Y665480D02*
X969010Y680212D01*
X944880Y665480D02*
X954278D01*
X798080Y491478D02*
Y555740D01*
X432308Y567182D02*
X530098D01*
X555752Y553459D02*
Y561086D01*
X564134Y557530D02*
Y561340D01*
X723080Y491478D02*
Y574105D01*
X71494Y700666D02*
X86988D01*
X67441Y665480D02*
X77227Y675266D01*
X55880Y690880D02*
X68446Y678314D01*
X55880Y716280D02*
X71494Y700666D01*
X55880Y665480D02*
X67441D01*
X845524Y426000D02*
X848000D01*
X803160Y468364D02*
X845524Y426000D01*
X803160Y468364D02*
Y475222D01*
X912500Y245000D02*
X912500Y245000D01*
X728160Y440160D02*
Y475222D01*
X715000Y427000D02*
X728160Y440160D01*
X779120Y878000D02*
X793120Y892000D01*
X859000Y230660D02*
X869442Y220218D01*
X239014Y482346D02*
X239346D01*
X187000Y430000D02*
X239346Y482346D01*
X591820Y333636D02*
X598290D01*
X615926Y316000D01*
X620000D01*
X923534Y649866D02*
X929266Y644134D01*
Y630294D02*
Y644134D01*
Y630294D02*
X944880Y614680D01*
X695120Y878000D02*
X779120D01*
X506572Y610108D02*
X506826Y609854D01*
X676910Y659130D02*
X895858D01*
X630599Y314281D02*
X636880Y308000D01*
X641500D01*
X633647Y319615D02*
X637262Y316000D01*
X641500D01*
X492300Y608618D02*
Y650954D01*
Y608618D02*
X505034Y595884D01*
X489252Y607355D02*
X503771Y592836D01*
X486204Y606093D02*
X492506Y599791D01*
Y596138D02*
Y599791D01*
X483156Y604830D02*
X487426Y600560D01*
Y591820D02*
Y600560D01*
X480108Y603568D02*
X482346Y601330D01*
Y596138D02*
Y601330D01*
X477060Y592280D02*
X477520Y591820D01*
X270256Y843153D02*
Y843534D01*
X489252Y607355D02*
Y646128D01*
X633647Y319615D02*
Y524085D01*
X530098Y567182D02*
X552704Y589788D01*
X618490Y539242D02*
Y573786D01*
Y539242D02*
X633647Y524085D01*
X610362Y543060D02*
X630599Y522822D01*
Y314281D02*
Y522822D01*
X895858Y659130D02*
X905122Y649866D01*
X923534D01*
X439420Y458216D02*
Y496824D01*
Y458216D02*
X564000Y333636D01*
X591820D01*
X478790Y519430D02*
Y524221D01*
X483191Y528622D01*
X554530D01*
X602742Y576834D01*
X757936Y595884D02*
X798080Y555740D01*
X704350Y592836D02*
X723080Y574105D01*
X639318Y589788D02*
X642366Y586740D01*
X505034Y595884D02*
X757936D01*
X503771Y592836D02*
X704350D01*
X552704Y589788D02*
X639318D01*
X610362Y543060D02*
Y570992D01*
X602742Y576834D02*
X615442D01*
X618490Y573786D01*
X601211Y570992D02*
X610362D01*
X483870Y523240D02*
X553459D01*
X601211Y570992D01*
X540060Y537766D02*
X555752Y553459D01*
X375618Y537766D02*
X540060D01*
X68446Y678314D02*
X230759D01*
X374356Y534718D01*
X541322D01*
X77227Y675266D02*
X229497D01*
X373093Y531670D01*
X542846D01*
X590420Y955040D02*
X601980D01*
X580634Y945254D02*
X590420Y955040D01*
X467360Y728218D02*
Y794766D01*
X580634Y908040D01*
Y945254D01*
X879000Y245000D02*
X912500D01*
X641500Y308000D02*
X834492D01*
X627424Y277324D02*
Y312966D01*
X825754Y249054D02*
Y256794D01*
X798874Y261874D02*
X801116D01*
X813936Y249054D01*
X825754D01*
Y256794D02*
X845566Y276606D01*
X856606D01*
X859000Y279000D01*
X834492Y308000D02*
X848614Y293878D01*
X856878D01*
X869442Y220218D02*
X909828D01*
X859000Y230660D02*
Y245000D01*
X530098Y712978D02*
X695120Y878000D01*
X856878Y293878D02*
X859000Y296000D01*
X478536Y656844D02*
X489252Y646128D01*
X287172Y836422D02*
X483156Y640438D01*
X472440Y595884D02*
Y638223D01*
X477774Y665480D02*
X492300Y650954D01*
X289052Y818388D02*
X297180Y810260D01*
X288290Y807212D02*
X303451D01*
X472440Y638223D01*
X297180Y810260D02*
X304713D01*
X289052Y826008D02*
X293276D01*
X264414Y836422D02*
X287172D01*
X281178Y843534D02*
X285242Y839470D01*
X288435D01*
X304713Y810260D02*
X477060Y637913D01*
Y592280D02*
Y637913D01*
X293276Y826008D02*
X480108Y639175D01*
Y603568D02*
Y639175D01*
X483156Y604830D02*
Y640438D01*
X486204Y606093D02*
Y641701D01*
X288435Y839470D02*
X486204Y641701D01*
X270256Y843534D02*
X281178D01*
X625602Y718820D02*
X630428Y723646D01*
X720090D01*
X631000Y731012D02*
X635318Y726694D01*
X718828D01*
X762515Y770382D01*
X720090Y723646D02*
X763778Y767334D01*
X762515Y770382D02*
X956811D01*
X972058Y755135D01*
Y678950D02*
Y755135D01*
X489204Y164846D02*
X507952D01*
X543765Y200660D01*
X574548D01*
D48*
X911170Y277670D02*
X912500Y279000D01*
X879000Y279000D02*
X880886Y277114D01*
X592000Y280774D02*
X616774D01*
X619894Y234054D02*
X825754D01*
X592000Y261948D02*
X619894Y234054D01*
X592000Y261948D02*
Y279000D01*
X314012Y856488D02*
X325500Y845000D01*
X131064Y856488D02*
X314012D01*
X591820Y300180D02*
X592000Y300000D01*
X620000D01*
X591820Y300180D02*
Y318636D01*
X232808Y503174D02*
X387604D01*
X572142Y318636D01*
X591820D01*
X44450Y730250D02*
X55880Y741680D01*
X44450Y575310D02*
Y730250D01*
Y575310D02*
X55880Y563880D01*
X66397D01*
X76921Y553356D01*
X172102D01*
X228854Y610108D01*
X502920Y852170D02*
Y934720D01*
X482600Y955040D02*
X502920Y934720D01*
X913000Y313948D02*
Y426000D01*
X912488Y296418D02*
X912500Y296406D01*
X912488Y296418D02*
Y313436D01*
X912488Y313436D01*
X913000Y313948D01*
X880886Y277114D02*
X910614D01*
X912500Y279000D02*
Y296406D01*
X592000Y279000D02*
Y280774D01*
X616774D02*
X620000Y284000D01*
Y292000D01*
X825754Y234054D02*
X844430D01*
X883666Y194818D01*
X909828D01*
X928116D01*
X938022Y204724D01*
Y248920D01*
X912488Y274454D02*
X938022Y248920D01*
X912488Y274454D02*
Y276352D01*
X457200Y720800D02*
Y955040D01*
Y720800D02*
X468000Y710000D01*
X497000D01*
X325500Y845000D02*
X350654Y870154D01*
Y914908D01*
X605500Y661000D02*
Y662000D01*
Y661000D02*
X625500Y641000D01*
X497000Y710000D02*
X527000Y740000D01*
Y754238D01*
X55880Y741680D02*
Y781304D01*
X131064Y856488D01*
X314198Y470154D02*
X406654D01*
X429006Y447802D01*
D49*
X481076Y138176D02*
X494284Y151384D01*
X641604Y557530D02*
X641858Y557276D01*
X641604Y557530D02*
Y559562D01*
X521321Y544576D02*
X556754Y580009D01*
X451104Y544576D02*
X521321D01*
X556754Y580009D02*
X621157D01*
X481076Y138176D02*
Y138938D01*
X929393Y700793D02*
X944880Y716280D01*
X929393Y686774D02*
Y700793D01*
X923586Y680967D02*
X929393Y686774D01*
X444500Y551942D02*
X524018D01*
X437721Y559562D02*
X526968D01*
X200772Y165938D02*
X217444Y182610D01*
X194672Y165938D02*
X200772D01*
X217444Y182610D02*
X218373D01*
X187260Y173350D02*
X194672Y165938D01*
X176600Y173350D02*
X187260D01*
X247222Y224580D02*
X398606D01*
X407496Y215690D01*
X327486Y139236D02*
X327740Y138982D01*
X203534Y190290D02*
X220806D01*
X365586Y224834D02*
Y253282D01*
X351362Y267506D02*
X365586Y253282D01*
X317072Y267506D02*
X351362D01*
X222838Y361740D02*
X317072Y267506D01*
X222838Y361740D02*
Y380238D01*
X690522Y680967D02*
X923586D01*
X495475Y609933D02*
Y657685D01*
Y609933D02*
X506222Y599186D01*
X526968Y559562D02*
X554019Y586613D01*
X524018Y551942D02*
X555387Y583311D01*
X632587Y586613D02*
X641604Y577596D01*
X627507Y583311D02*
X642620Y568198D01*
X506222Y599186D02*
X608741D01*
X690522Y680967D01*
X554019Y586613D02*
X632587D01*
X555387Y583311D02*
X627507D01*
X286338Y180384D02*
Y214420D01*
Y180384D02*
X327486Y139236D01*
X478028Y675132D02*
X495475Y657685D01*
X621157Y580009D02*
X641604Y559562D01*
D51*
X202250Y201750D02*
X262970Y261410D01*
X188000Y217174D02*
X262716Y291890D01*
X278718D01*
X188000Y181186D02*
X197184Y172002D01*
X188000Y181186D02*
Y195500D01*
Y217174D01*
X262970Y261410D02*
Y276650D01*
D53*
X627424Y312966D02*
Y334982D01*
X642874Y261874D02*
X798874D01*
X446786Y458216D02*
Y491744D01*
Y458216D02*
X554736Y350266D01*
X612140D01*
X627424Y334982D01*
Y277324D02*
X642874Y261874D01*
X550164Y665226D02*
X580202D01*
X635066Y720090D01*
X720842D01*
X765040Y764288D01*
X954286D01*
X944880Y690880D02*
X965964Y711964D01*
Y752610D01*
X954286Y764288D02*
X965964Y752610D01*
D57*
X740400Y427000D02*
D03*
X482600Y955040D02*
D03*
X601980D02*
D03*
X180928Y274110D02*
D03*
D58*
X715000Y427000D02*
D03*
X457200Y955040D02*
D03*
X431800D02*
D03*
X525780D02*
D03*
X551180D02*
D03*
X576580D02*
D03*
X944880Y741680D02*
D03*
X919480Y716280D02*
D03*
X944880D02*
D03*
X919480Y690880D02*
D03*
X944880D02*
D03*
X919480Y665480D02*
D03*
X944880D02*
D03*
X919480Y640080D02*
D03*
X944880D02*
D03*
X919480Y614680D02*
D03*
X944880D02*
D03*
X919480Y589280D02*
D03*
X944880D02*
D03*
X919480Y563880D02*
D03*
X944880D02*
D03*
X81280Y741680D02*
D03*
X55880Y716280D02*
D03*
X81280D02*
D03*
X55880Y690880D02*
D03*
X81280D02*
D03*
X55880Y665480D02*
D03*
X81280D02*
D03*
X55880Y640080D02*
D03*
X81280D02*
D03*
X55880Y614680D02*
D03*
X81280D02*
D03*
X55880Y589280D02*
D03*
X81280D02*
D03*
X55880Y563880D02*
D03*
X81280D02*
D03*
X79328Y274110D02*
D03*
X104728D02*
D03*
X130128D02*
D03*
X155528D02*
D03*
D59*
X420196Y215690D02*
D03*
X407496D02*
D03*
X420196Y190290D02*
D03*
Y202990D02*
D03*
X407496D02*
D03*
Y190290D02*
D03*
Y164890D02*
D03*
Y177590D02*
D03*
X420196D02*
D03*
D60*
Y164890D02*
D03*
D61*
X848000Y426000D02*
D03*
X913000D02*
D03*
D62*
X909828Y220218D02*
D03*
D63*
Y207518D02*
D03*
Y194818D02*
D03*
D64*
X502158Y620014D02*
D03*
X507492Y609854D02*
D03*
X481076Y138938D02*
D03*
X625602Y718820D02*
D03*
X631000Y731012D02*
D03*
X555752Y561086D02*
D03*
X451104Y544576D02*
D03*
X444500Y551942D02*
D03*
X437721Y559562D02*
D03*
X432308Y567182D02*
D03*
X572516Y561340D02*
D03*
X564134D02*
D03*
X467360Y728218D02*
D03*
X162640Y149650D02*
D03*
X151210Y172510D02*
D03*
X138510Y164890D02*
D03*
X146130Y182670D02*
D03*
X202250Y201750D02*
D03*
X262970Y276650D02*
D03*
X188000Y195500D02*
D03*
X279750Y234740D02*
D03*
X175250Y219000D02*
D03*
X274750Y291750D02*
D03*
X245250Y319000D02*
D03*
X212170Y68370D02*
D03*
X218373Y182610D02*
D03*
X176600Y173350D02*
D03*
X391100Y199100D02*
D03*
X308436Y359708D02*
D03*
X439246D02*
D03*
Y274110D02*
D03*
X308944Y335832D02*
D03*
X149940Y211880D02*
D03*
X247222Y224580D02*
D03*
X258398Y205784D02*
D03*
X249000D02*
D03*
X239094Y196386D02*
D03*
X286338Y214420D02*
D03*
X293450Y190290D02*
D03*
X203534D02*
D03*
X237570Y289350D02*
D03*
X246460Y299510D02*
D03*
Y290620D02*
D03*
X237570Y299510D02*
D03*
X222330Y154730D02*
D03*
X212170Y154222D02*
D03*
X220806Y190290D02*
D03*
X249000Y187750D02*
D03*
Y196640D02*
D03*
X238840Y205530D02*
D03*
Y187750D02*
D03*
X259160D02*
D03*
Y196640D02*
D03*
X181690Y89960D02*
D03*
X229950Y322370D02*
D03*
X100410Y187750D02*
D03*
X391240Y93770D02*
D03*
X411560Y73450D02*
D03*
X387430D02*
D03*
X367110Y84880D02*
D03*
Y100120D02*
D03*
X346790Y105200D02*
D03*
X345520Y84880D02*
D03*
X325200Y87420D02*
D03*
Y109010D02*
D03*
X304880Y93770D02*
D03*
X287100Y86150D02*
D03*
X270590D02*
D03*
X254080D02*
D03*
X101680Y83610D02*
D03*
Y100120D02*
D03*
Y116630D02*
D03*
Y131870D02*
D03*
Y145840D02*
D03*
X116920Y161080D02*
D03*
X128350Y178860D02*
D03*
Y195370D02*
D03*
Y211880D02*
D03*
X229950Y308400D02*
D03*
X336630Y185210D02*
D03*
X313770Y119170D02*
D03*
X374730Y285540D02*
D03*
X359490D02*
D03*
X336630Y252520D02*
D03*
X348060D02*
D03*
X335360Y289350D02*
D03*
X321390Y276650D02*
D03*
X122000Y149650D02*
D03*
X121750Y69000D02*
D03*
X122000Y78530D02*
D03*
Y88690D02*
D03*
Y98850D02*
D03*
Y109010D02*
D03*
Y119170D02*
D03*
X132160Y149650D02*
D03*
X122000Y129330D02*
D03*
Y139490D02*
D03*
X146130Y192830D02*
D03*
Y202990D02*
D03*
X303250Y116000D02*
D03*
X293450Y107740D02*
D03*
X284560D02*
D03*
X274400D02*
D03*
X264240D02*
D03*
X254080D02*
D03*
X334090Y178860D02*
D03*
X297260Y303320D02*
D03*
X322660Y258870D02*
D03*
X241380Y70910D02*
D03*
Y97580D02*
D03*
X292180Y140760D02*
D03*
X241380Y88690D02*
D03*
X292180Y131870D02*
D03*
X241380Y79800D02*
D03*
Y106470D02*
D03*
X222330Y110280D02*
D03*
Y95040D02*
D03*
Y119170D02*
D03*
Y77260D02*
D03*
Y86150D02*
D03*
Y128060D02*
D03*
Y145840D02*
D03*
Y136950D02*
D03*
X152480Y149650D02*
D03*
X172800D02*
D03*
X182960D02*
D03*
X251540Y138220D02*
D03*
X188040Y157270D02*
D03*
X449660Y105200D02*
D03*
X431880D02*
D03*
X141050Y102660D02*
D03*
X181690Y114090D02*
D03*
X375238Y156762D02*
D03*
X374984Y184448D02*
D03*
X254080Y124250D02*
D03*
X302340Y131870D02*
D03*
X203280Y154222D02*
D03*
X334090Y191560D02*
D03*
X331550Y197910D02*
D03*
X289640Y234740D02*
D03*
X142320Y149650D02*
D03*
X440770Y105200D02*
D03*
X251540Y59480D02*
D03*
X6428Y69640D02*
D03*
X21668D02*
D03*
X36908D02*
D03*
X52148D02*
D03*
X67388Y68370D02*
D03*
X82628Y59480D02*
D03*
X97868D02*
D03*
X113108D02*
D03*
X128348D02*
D03*
X143588D02*
D03*
X158828D02*
D03*
X174068D02*
D03*
X189308D02*
D03*
X204548D02*
D03*
X367108Y69640D02*
D03*
X351868D02*
D03*
X336628D02*
D03*
X321388D02*
D03*
X306148D02*
D03*
X293448Y59480D02*
D03*
X278208D02*
D03*
X266780D02*
D03*
X197280Y172160D02*
D03*
X322660Y243630D02*
D03*
X309960Y185210D02*
D03*
X187000Y430000D02*
D03*
X793120Y892000D02*
D03*
X239014Y482346D02*
D03*
X232808Y503174D02*
D03*
X222838Y380238D02*
D03*
X676910Y659130D02*
D03*
X530098Y712978D02*
D03*
X478028Y675132D02*
D03*
X642620Y586740D02*
D03*
Y568198D02*
D03*
X618490Y573786D02*
D03*
X642620Y577596D02*
D03*
X494284Y151384D02*
D03*
X489204Y164846D02*
D03*
X610362Y570992D02*
D03*
X327486Y139236D02*
D03*
X228854Y610108D02*
D03*
X350654Y914908D02*
D03*
X502920Y852170D02*
D03*
X879348Y293642D02*
D03*
X370000Y420000D02*
D03*
X383286Y566166D02*
D03*
X460000Y520000D02*
D03*
X500000Y420000D02*
D03*
X510000Y340000D02*
D03*
Y210000D02*
D03*
X590000Y220000D02*
D03*
X680000D02*
D03*
X605000Y312000D02*
D03*
X687000Y286000D02*
D03*
X812000Y288000D02*
D03*
X841502Y255016D02*
D03*
X732028Y249682D02*
D03*
X697000Y157000D02*
D03*
X844296Y195326D02*
D03*
X766000Y359000D02*
D03*
X762254Y643890D02*
D03*
X748000Y698000D02*
D03*
X795020Y755650D02*
D03*
X712000Y823000D02*
D03*
X539000Y846000D02*
D03*
X402000Y785000D02*
D03*
X278000Y749000D02*
D03*
X369824Y709930D02*
D03*
X220000Y664000D02*
D03*
X168000Y611000D02*
D03*
X181000Y739000D02*
D03*
X126492Y794766D02*
D03*
X63000Y387000D02*
D03*
X16000Y796000D02*
D03*
X55000Y899000D02*
D03*
X578000Y800000D02*
D03*
X527304Y754238D02*
D03*
X325500Y845000D02*
D03*
X478536Y656844D02*
D03*
X625500Y641000D02*
D03*
X605500Y662000D02*
D03*
X477774Y665480D02*
D03*
X322072Y829818D02*
D03*
X429006Y447802D02*
D03*
X314198Y470154D02*
D03*
X384810Y625348D02*
D03*
X517398Y645160D02*
D03*
X491236Y480314D02*
D03*
X550164Y665226D02*
D03*
X153416Y653034D02*
D03*
X130302Y652272D02*
D03*
X146050Y692150D02*
D03*
X106426Y702564D02*
D03*
X121412Y695706D02*
D03*
X69088Y651256D02*
D03*
X101600Y508254D02*
D03*
X182880Y522732D02*
D03*
X607060Y477520D02*
D03*
X372618Y486156D02*
D03*
X516382Y503174D02*
D03*
X467360Y692658D02*
D03*
X432308Y612648D02*
D03*
X419862Y843026D02*
D03*
X915924Y829564D02*
D03*
X758698Y558800D02*
D03*
X942848Y509016D02*
D03*
X653796Y394970D02*
D03*
X380238Y381000D02*
D03*
X46990Y463804D02*
D03*
X290830Y491744D02*
D03*
X186944Y441706D02*
D03*
X642620Y558546D02*
D03*
X574548Y200660D02*
D03*
D65*
X472440Y595884D02*
D03*
X477520Y591820D02*
D03*
X482346Y596138D02*
D03*
X487426Y591820D02*
D03*
X492506Y596138D02*
D03*
X289052Y818388D02*
D03*
Y826008D02*
D03*
X264414Y836422D02*
D03*
X270256Y843153D02*
D03*
X439420Y496824D02*
D03*
X483870Y523240D02*
D03*
X478790Y519430D02*
D03*
X446786Y491744D02*
D03*
X288290Y807212D02*
D03*
X927862Y296672D02*
D03*
D66*
X30000Y970000D02*
D03*
X25000Y400000D02*
D03*
X970000Y30000D02*
D03*
Y970000D02*
D03*
D67*
X879348Y276642D02*
D03*
X859348D02*
D03*
X879348Y259642D02*
D03*
X859348D02*
D03*
X879348Y242642D02*
D03*
X859348D02*
D03*
X879348Y293642D02*
D03*
Y310642D02*
D03*
X859348Y293642D02*
D03*
Y310642D02*
D03*
D68*
X641500Y276000D02*
D03*
Y284000D02*
D03*
Y292000D02*
D03*
Y300000D02*
D03*
Y308000D02*
D03*
Y316000D02*
D03*
Y324000D02*
D03*
X620000Y276000D02*
D03*
Y284000D02*
D03*
Y292000D02*
D03*
Y300000D02*
D03*
Y308000D02*
D03*
Y316000D02*
D03*
Y324000D02*
D03*
D69*
X803160Y475222D02*
D03*
X728160Y475222D02*
D03*
D70*
X808240Y491478D02*
D03*
X798080D02*
D03*
X733240Y491478D02*
D03*
X723080D02*
D03*
M02*
