G04 Layer_Color=32896*
%FSLAX44Y44*%
%MOMM*%
G71*
G01*
G75*
%ADD47C,0.1524*%
%ADD54C,0.2540*%
%ADD72C,0.2000*%
%ADD73C,0.1270*%
%ADD75C,0.1000*%
%ADD118C,0.0000*%
D47*
X794804Y480304D02*
G03*
X797573Y483122I-208J2974D01*
G01*
X719804Y480304D02*
G03*
X722573Y483122I-208J2974D01*
G01*
X794778Y480302D02*
Y483350D01*
Y479032D02*
Y480302D01*
X807986Y479032D02*
X811542D01*
Y483350D01*
X794778Y479032D02*
X798334D01*
X719778Y480302D02*
Y483350D01*
Y479032D02*
Y480302D01*
X732986Y479032D02*
X736542D01*
Y483350D01*
X719778Y479032D02*
X723334D01*
D54*
X649599Y348171D02*
Y339840D01*
X647933Y338174D01*
X644601D01*
X642935Y339840D01*
Y348171D01*
X632938D02*
X636270Y346505D01*
X639602Y343172D01*
Y339840D01*
X637936Y338174D01*
X634604D01*
X632938Y339840D01*
Y341506D01*
X634604Y343172D01*
X639602D01*
X895167Y338855D02*
Y330524D01*
X893501Y328858D01*
X890169D01*
X888502Y330524D01*
Y338855D01*
X878506D02*
X885170D01*
Y333856D01*
X881838Y335522D01*
X880172D01*
X878506Y333856D01*
Y330524D01*
X880172Y328858D01*
X883504D01*
X885170Y330524D01*
X598932Y343154D02*
Y353151D01*
X593934D01*
X592267Y351485D01*
Y348152D01*
X593934Y346486D01*
X598932D01*
X595600D02*
X592267Y343154D01*
X588935Y351485D02*
X587269Y353151D01*
X583937D01*
X582271Y351485D01*
Y349818D01*
X583937Y348152D01*
X582271Y346486D01*
Y344820D01*
X583937Y343154D01*
X587269D01*
X588935Y344820D01*
Y346486D01*
X587269Y348152D01*
X588935Y349818D01*
Y351485D01*
X587269Y348152D02*
X583937D01*
X957500Y240000D02*
Y249997D01*
X952502D01*
X950835Y248330D01*
Y244998D01*
X952502Y243332D01*
X957500D01*
X954168D02*
X950835Y240000D01*
X947503Y249997D02*
X940839D01*
Y248330D01*
X947503Y241666D01*
Y240000D01*
X833882Y215138D02*
Y225135D01*
X828884D01*
X827217Y223469D01*
Y220136D01*
X828884Y218470D01*
X833882D01*
X830550D02*
X827217Y215138D01*
X817221Y225135D02*
X820553Y223469D01*
X823885Y220136D01*
Y216804D01*
X822219Y215138D01*
X818887D01*
X817221Y216804D01*
Y218470D01*
X818887Y220136D01*
X823885D01*
X956056Y291338D02*
Y301335D01*
X951058D01*
X949391Y299669D01*
Y296336D01*
X951058Y294670D01*
X956056D01*
X952724D02*
X949391Y291338D01*
X939395Y301335D02*
X946059D01*
Y296336D01*
X942727Y298002D01*
X941061D01*
X939395Y296336D01*
Y293004D01*
X941061Y291338D01*
X944393D01*
X946059Y293004D01*
X734704Y504098D02*
Y514095D01*
X731372Y510762D01*
X728039Y514095D01*
Y504098D01*
X719709Y514095D02*
X723041D01*
X724707Y512429D01*
Y505764D01*
X723041Y504098D01*
X719709D01*
X718043Y505764D01*
Y512429D01*
X719709Y514095D01*
X708046Y512429D02*
X709712Y514095D01*
X713044D01*
X714710Y512429D01*
Y510762D01*
X713044Y509096D01*
X709712D01*
X708046Y507430D01*
Y505764D01*
X709712Y504098D01*
X713044D01*
X714710Y505764D01*
X698049Y504098D02*
X704714D01*
X698049Y510762D01*
Y512429D01*
X699715Y514095D01*
X703047D01*
X704714Y512429D01*
X809888Y504098D02*
Y514095D01*
X806556Y510762D01*
X803223Y514095D01*
Y504098D01*
X794893Y514095D02*
X798225D01*
X799891Y512429D01*
Y505764D01*
X798225Y504098D01*
X794893D01*
X793227Y505764D01*
Y512429D01*
X794893Y514095D01*
X783230Y512429D02*
X784896Y514095D01*
X788228D01*
X789894Y512429D01*
Y510762D01*
X788228Y509096D01*
X784896D01*
X783230Y507430D01*
Y505764D01*
X784896Y504098D01*
X788228D01*
X789894Y505764D01*
X779898Y504098D02*
X776565D01*
X778232D01*
Y514095D01*
X779898Y512429D01*
X559336Y303331D02*
X561002Y304997D01*
X564334D01*
X566000Y303331D01*
Y296666D01*
X564334Y295000D01*
X561002D01*
X559336Y296666D01*
X549339Y295000D02*
X556003D01*
X549339Y301665D01*
Y303331D01*
X551005Y304997D01*
X554337D01*
X556003Y303331D01*
X541008Y295000D02*
Y304997D01*
X546007Y299998D01*
X539342D01*
X559336Y282331D02*
X561002Y283997D01*
X564334D01*
X566000Y282331D01*
Y275666D01*
X564334Y274000D01*
X561002D01*
X559336Y275666D01*
X549339Y274000D02*
X556003D01*
X549339Y280665D01*
Y282331D01*
X551005Y283997D01*
X554337D01*
X556003Y282331D01*
X546007D02*
X544340Y283997D01*
X541008D01*
X539342Y282331D01*
Y280665D01*
X541008Y278998D01*
X542674D01*
X541008D01*
X539342Y277332D01*
Y275666D01*
X541008Y274000D01*
X544340D01*
X546007Y275666D01*
X958324Y278683D02*
X959990Y280349D01*
X963322D01*
X964988Y278683D01*
Y272018D01*
X963322Y270352D01*
X959990D01*
X958324Y272018D01*
X948327Y270352D02*
X954991D01*
X948327Y277017D01*
Y278683D01*
X949993Y280349D01*
X953325D01*
X954991Y278683D01*
X938330Y270352D02*
X944995D01*
X938330Y277017D01*
Y278683D01*
X939996Y280349D01*
X943328D01*
X944995Y278683D01*
X945703Y316687D02*
X944036Y318353D01*
X940704D01*
X939038Y316687D01*
Y310022D01*
X940704Y308356D01*
X944036D01*
X945703Y310022D01*
X955699Y308356D02*
X949035D01*
X955699Y315021D01*
Y316687D01*
X954033Y318353D01*
X950701D01*
X949035Y316687D01*
X959032Y308356D02*
X962364D01*
X960698D01*
Y318353D01*
X959032Y316687D01*
D72*
X917988Y299918D02*
X921988D01*
X917988Y292918D02*
X921988D01*
X918000Y248500D02*
X922000D01*
X918000Y241500D02*
X922000D01*
X829254Y239554D02*
Y243554D01*
X822254Y239554D02*
Y243554D01*
X595320Y324136D02*
Y328136D01*
X588320Y324136D02*
Y328136D01*
D73*
X616750Y328000D02*
X644750D01*
X616750Y272000D02*
X644750D01*
D75*
X897148Y313342D02*
G03*
X897148Y313342I-500J0D01*
G01*
D118*
X652020Y327000D02*
G03*
X652020Y327000I-1270J0D01*
G01*
M02*
