G04 Layer_Color=128*
%FSLAX44Y44*%
%MOMM*%
G71*
G01*
G75*
%ADD10R,0.7000X0.9000*%
%ADD13R,0.9000X0.7000*%
%ADD39R,1.1000X1.4000*%
G36*
X865348Y287642D02*
X853348D01*
Y299642D01*
X865348D01*
Y287642D01*
D02*
G37*
G36*
X644000Y282250D02*
X639000D01*
Y285750D01*
X644000D01*
Y282250D01*
D02*
G37*
G36*
X622500D02*
X617500D01*
Y285750D01*
X622500D01*
Y282250D01*
D02*
G37*
G36*
X885348Y287642D02*
X873348D01*
Y299642D01*
X885348D01*
Y287642D01*
D02*
G37*
G36*
X622500Y298250D02*
X617500D01*
Y301750D01*
X622500D01*
Y298250D01*
D02*
G37*
G36*
X644000Y290250D02*
X639000D01*
Y293750D01*
X644000D01*
Y290250D01*
D02*
G37*
G36*
X622500D02*
X617500D01*
Y293750D01*
X622500D01*
Y290250D01*
D02*
G37*
G36*
X644000Y274250D02*
X639000D01*
Y277750D01*
X644000D01*
Y274250D01*
D02*
G37*
G36*
X865348Y253642D02*
X853348D01*
Y265642D01*
X865348D01*
Y253642D01*
D02*
G37*
G36*
X885348Y236642D02*
X873348D01*
Y248642D01*
X885348D01*
Y236642D01*
D02*
G37*
G36*
X865348D02*
X853348D01*
Y248642D01*
X865348D01*
Y236642D01*
D02*
G37*
G36*
X885348Y253642D02*
X873348D01*
Y265642D01*
X885348D01*
Y253642D01*
D02*
G37*
G36*
X622500Y274250D02*
X617500D01*
Y277750D01*
X622500D01*
Y274250D01*
D02*
G37*
G36*
X885348Y270642D02*
X873348D01*
Y282642D01*
X885348D01*
Y270642D01*
D02*
G37*
G36*
X865348D02*
X853348D01*
Y282642D01*
X865348D01*
Y270642D01*
D02*
G37*
G36*
X804684Y470142D02*
X801636D01*
Y480302D01*
X804684D01*
Y470142D01*
D02*
G37*
G36*
X729684D02*
X726636D01*
Y480302D01*
X729684D01*
Y470142D01*
D02*
G37*
G36*
X644000Y322250D02*
X639000D01*
Y325750D01*
X644000D01*
Y322250D01*
D02*
G37*
G36*
X724858Y486398D02*
X721302D01*
Y496558D01*
X724858D01*
Y486398D01*
D02*
G37*
G36*
X810018D02*
X806462D01*
Y496558D01*
X810018D01*
Y486398D01*
D02*
G37*
G36*
X799858D02*
X796302D01*
Y496558D01*
X799858D01*
Y486398D01*
D02*
G37*
G36*
X735018D02*
X731462D01*
Y496558D01*
X735018D01*
Y486398D01*
D02*
G37*
G36*
X622500Y322250D02*
X617500D01*
Y325750D01*
X622500D01*
Y322250D01*
D02*
G37*
G36*
X885348Y304642D02*
X873348D01*
Y316642D01*
X885348D01*
Y304642D01*
D02*
G37*
G36*
X865348D02*
X853348D01*
Y316642D01*
X865348D01*
Y304642D01*
D02*
G37*
G36*
X644000Y298250D02*
X639000D01*
Y301750D01*
X644000D01*
Y298250D01*
D02*
G37*
G36*
X622500Y306250D02*
X617500D01*
Y309750D01*
X622500D01*
Y306250D01*
D02*
G37*
G36*
X644000Y314250D02*
X639000D01*
Y317750D01*
X644000D01*
Y314250D01*
D02*
G37*
G36*
X622500D02*
X617500D01*
Y317750D01*
X622500D01*
Y314250D01*
D02*
G37*
G36*
X644000Y306250D02*
X639000D01*
Y309750D01*
X644000D01*
Y306250D01*
D02*
G37*
D10*
X927488Y296418D02*
D03*
X912488D02*
D03*
X927500Y245000D02*
D03*
X912500D02*
D03*
D13*
X825754Y234054D02*
D03*
Y249054D02*
D03*
X591820Y318636D02*
D03*
Y333636D02*
D03*
D39*
X577000Y300000D02*
D03*
X592000D02*
D03*
X577000Y279000D02*
D03*
X592000D02*
D03*
X927488Y276352D02*
D03*
X912488D02*
D03*
X927488Y313436D02*
D03*
X912488D02*
D03*
M02*
