G04 Layer_Color=0*
%FSLAX44Y44*%
%MOMM*%
G71*
G01*
G75*
%ADD48C,0.1778*%
%ADD73C,0.1270*%
%ADD75C,0.1000*%
%ADD81C,0.0508*%
D48*
X1908930Y-328026D02*
Y-345802D01*
Y-328026D02*
X1914855D01*
X1917395Y-328872D01*
X1919088Y-330565D01*
X1919934Y-332258D01*
X1920781Y-334798D01*
Y-339030D01*
X1919934Y-341570D01*
X1919088Y-343262D01*
X1917395Y-344955D01*
X1914855Y-345802D01*
X1908930D01*
X-947726Y1099966D02*
X-954498Y1117742D01*
X-961270Y1099966D01*
X-958730Y1105891D02*
X-950266D01*
X-961270Y637174D02*
Y619398D01*
Y637174D02*
X-953652D01*
X-951112Y636328D01*
X-950266Y635481D01*
X-949419Y633788D01*
Y632095D01*
X-950266Y630402D01*
X-951112Y629556D01*
X-953652Y628709D01*
X-961270D02*
X-953652D01*
X-951112Y627863D01*
X-950266Y627016D01*
X-949419Y625323D01*
Y622784D01*
X-950266Y621091D01*
X-951112Y620244D01*
X-953652Y619398D01*
X-961270D01*
X-948573Y147802D02*
X-949419Y149495D01*
X-951112Y151188D01*
X-952805Y152034D01*
X-956191D01*
X-957884Y151188D01*
X-959577Y149495D01*
X-960424Y147802D01*
X-961270Y145262D01*
Y141030D01*
X-960424Y138490D01*
X-959577Y136798D01*
X-957884Y135105D01*
X-956191Y134258D01*
X-952805D01*
X-951112Y135105D01*
X-949419Y136798D01*
X-948573Y138490D01*
X-961270Y-328026D02*
Y-345802D01*
Y-328026D02*
X-955345D01*
X-952805Y-328872D01*
X-951112Y-330565D01*
X-950266Y-332258D01*
X-949419Y-334798D01*
Y-339030D01*
X-950266Y-341570D01*
X-951112Y-343262D01*
X-952805Y-344955D01*
X-955345Y-345802D01*
X-961270D01*
X-617862Y1344480D02*
X-616169Y1345327D01*
X-613630Y1347866D01*
Y1330090D01*
X109424Y1343634D02*
Y1344480D01*
X110271Y1346173D01*
X111117Y1347020D01*
X112810Y1347866D01*
X116196D01*
X117889Y1347020D01*
X118736Y1346173D01*
X119582Y1344480D01*
Y1342787D01*
X118736Y1341094D01*
X117043Y1338555D01*
X108578Y1330090D01*
X120429D01*
X841791Y1347866D02*
X851102D01*
X846023Y1341094D01*
X848563D01*
X850256Y1340248D01*
X851102Y1339401D01*
X851949Y1336862D01*
Y1335169D01*
X851102Y1332630D01*
X849409Y1330936D01*
X846870Y1330090D01*
X844330D01*
X841791Y1330936D01*
X840945Y1331783D01*
X840098Y1333476D01*
X-617862Y-535120D02*
X-616169Y-534273D01*
X-613630Y-531734D01*
Y-549510D01*
X120428D02*
X108578D01*
X120428Y-537660D01*
Y-534698D01*
X117465Y-531736D01*
X111540D01*
X108578Y-534698D01*
X840098D02*
X843060Y-531736D01*
X848985D01*
X851947Y-534698D01*
Y-537660D01*
X848985Y-540623D01*
X846023D01*
X848985D01*
X851947Y-543585D01*
Y-546548D01*
X848985Y-549510D01*
X843060D01*
X840098Y-546548D01*
X1577965Y-549510D02*
Y-531736D01*
X1569078Y-540623D01*
X1580927D01*
X429380Y-472044D02*
Y-489820D01*
Y-472044D02*
X441231Y-489820D01*
Y-472044D02*
Y-489820D01*
X457991Y-474583D02*
X456298Y-472890D01*
X453759Y-472044D01*
X450373D01*
X447833Y-472890D01*
X446140Y-474583D01*
Y-476276D01*
X446987Y-477969D01*
X447833Y-478816D01*
X449526Y-479662D01*
X454605Y-481355D01*
X456298Y-482202D01*
X457145Y-483048D01*
X457991Y-484741D01*
Y-487281D01*
X456298Y-488974D01*
X453759Y-489820D01*
X450373D01*
X447833Y-488974D01*
X446140Y-487281D01*
X461970Y-472044D02*
X466202Y-489820D01*
X470434Y-472044D02*
X466202Y-489820D01*
X470434Y-472044D02*
X474667Y-489820D01*
X478899Y-472044D02*
X474667Y-489820D01*
X497268Y-476276D02*
Y-475430D01*
X498115Y-473737D01*
X498961Y-472890D01*
X500654Y-472044D01*
X504040D01*
X505733Y-472890D01*
X506580Y-473737D01*
X507426Y-475430D01*
Y-477123D01*
X506580Y-478816D01*
X504887Y-481355D01*
X496422Y-489820D01*
X508272D01*
X517330Y-472044D02*
X514790Y-472890D01*
X513097Y-475430D01*
X512251Y-479662D01*
Y-482202D01*
X513097Y-486434D01*
X514790Y-488974D01*
X517330Y-489820D01*
X519023D01*
X521562Y-488974D01*
X523255Y-486434D01*
X524102Y-482202D01*
Y-479662D01*
X523255Y-475430D01*
X521562Y-472890D01*
X519023Y-472044D01*
X517330D01*
X532313D02*
X529773Y-472890D01*
X528927Y-474583D01*
Y-476276D01*
X529773Y-477969D01*
X531466Y-478816D01*
X534852Y-479662D01*
X537392Y-480509D01*
X539085Y-482202D01*
X539931Y-483895D01*
Y-486434D01*
X539085Y-488127D01*
X538238Y-488974D01*
X535699Y-489820D01*
X532313D01*
X529773Y-488974D01*
X528927Y-488127D01*
X528080Y-486434D01*
Y-483895D01*
X528927Y-482202D01*
X530620Y-480509D01*
X533159Y-479662D01*
X536545Y-478816D01*
X538238Y-477969D01*
X539085Y-476276D01*
Y-474583D01*
X538238Y-472890D01*
X535699Y-472044D01*
X532313D01*
X554067Y-474583D02*
X553221Y-472890D01*
X550681Y-472044D01*
X548988D01*
X546449Y-472890D01*
X544756Y-475430D01*
X543909Y-479662D01*
Y-483895D01*
X544756Y-487281D01*
X546449Y-488974D01*
X548988Y-489820D01*
X549835D01*
X552374Y-488974D01*
X554067Y-487281D01*
X554914Y-484741D01*
Y-483895D01*
X554067Y-481355D01*
X552374Y-479662D01*
X549835Y-478816D01*
X548988D01*
X546449Y-479662D01*
X544756Y-481355D01*
X543909Y-483895D01*
X429380Y-446644D02*
Y-464420D01*
Y-446644D02*
X440384D01*
X429380Y-455109D02*
X436152D01*
X442416Y-452569D02*
Y-464420D01*
Y-457648D02*
X443262Y-455109D01*
X444955Y-453416D01*
X446648Y-452569D01*
X449188D01*
X450796Y-457648D02*
X460954D01*
Y-455955D01*
X460107Y-454262D01*
X459261Y-453416D01*
X457568Y-452569D01*
X455028D01*
X453335Y-453416D01*
X451642Y-455109D01*
X450796Y-457648D01*
Y-459341D01*
X451642Y-461880D01*
X453335Y-463573D01*
X455028Y-464420D01*
X457568D01*
X459261Y-463573D01*
X460954Y-461880D01*
X464763Y-452569D02*
Y-464420D01*
Y-455955D02*
X467303Y-453416D01*
X468996Y-452569D01*
X471535D01*
X473228Y-453416D01*
X474074Y-455955D01*
Y-464420D01*
X488888Y-455109D02*
X487195Y-453416D01*
X485502Y-452569D01*
X482962D01*
X481269Y-453416D01*
X479576Y-455109D01*
X478730Y-457648D01*
Y-459341D01*
X479576Y-461880D01*
X481269Y-463573D01*
X482962Y-464420D01*
X485502D01*
X487195Y-463573D01*
X488888Y-461880D01*
X492697Y-446644D02*
Y-464420D01*
Y-455955D02*
X495237Y-453416D01*
X496930Y-452569D01*
X499469D01*
X501162Y-453416D01*
X502008Y-455955D01*
Y-464420D01*
X515975Y-455109D02*
X515129Y-453416D01*
X512589Y-452569D01*
X510050D01*
X507510Y-453416D01*
X506664Y-455109D01*
X507510Y-456802D01*
X509203Y-457648D01*
X513436Y-458495D01*
X515129Y-459341D01*
X515975Y-461034D01*
Y-461880D01*
X515129Y-463573D01*
X512589Y-464420D01*
X510050D01*
X507510Y-463573D01*
X506664Y-461880D01*
X533667Y-446644D02*
Y-464420D01*
Y-446644D02*
X544671D01*
X533667Y-455109D02*
X540439D01*
X550935Y-452569D02*
X549242Y-453416D01*
X547549Y-455109D01*
X546703Y-457648D01*
Y-459341D01*
X547549Y-461880D01*
X549242Y-463573D01*
X550935Y-464420D01*
X553475D01*
X555168Y-463573D01*
X556861Y-461880D01*
X557707Y-459341D01*
Y-457648D01*
X556861Y-455109D01*
X555168Y-453416D01*
X553475Y-452569D01*
X550935D01*
X561601D02*
Y-464420D01*
Y-457648D02*
X562447Y-455109D01*
X564140Y-453416D01*
X565833Y-452569D01*
X568373D01*
X569981Y-457648D02*
X580139D01*
Y-455955D01*
X579292Y-454262D01*
X578446Y-453416D01*
X576753Y-452569D01*
X574214D01*
X572521Y-453416D01*
X570828Y-455109D01*
X569981Y-457648D01*
Y-459341D01*
X570828Y-461880D01*
X572521Y-463573D01*
X574214Y-464420D01*
X576753D01*
X578446Y-463573D01*
X580139Y-461880D01*
X593260Y-455109D02*
X592413Y-453416D01*
X589874Y-452569D01*
X587334D01*
X584795Y-453416D01*
X583948Y-455109D01*
X584795Y-456802D01*
X586488Y-457648D01*
X590720Y-458495D01*
X592413Y-459341D01*
X593260Y-461034D01*
Y-461880D01*
X592413Y-463573D01*
X589874Y-464420D01*
X587334D01*
X584795Y-463573D01*
X583948Y-461880D01*
X599524Y-446644D02*
Y-461034D01*
X600370Y-463573D01*
X602063Y-464420D01*
X603756D01*
X596984Y-452569D02*
X602909D01*
X429380Y-424630D02*
X431073Y-423783D01*
X433612Y-421244D01*
Y-439020D01*
X443262Y-425476D02*
Y-424630D01*
X444109Y-422937D01*
X444955Y-422090D01*
X446648Y-421244D01*
X450034D01*
X451727Y-422090D01*
X452574Y-422937D01*
X453420Y-424630D01*
Y-426323D01*
X452574Y-428016D01*
X450881Y-430555D01*
X442416Y-439020D01*
X454267D01*
X468403Y-427169D02*
Y-439020D01*
Y-429709D02*
X466710Y-428016D01*
X465017Y-427169D01*
X462478D01*
X460785Y-428016D01*
X459092Y-429709D01*
X458245Y-432248D01*
Y-433941D01*
X459092Y-436480D01*
X460785Y-438173D01*
X462478Y-439020D01*
X465017D01*
X466710Y-438173D01*
X468403Y-436480D01*
X487110Y-421244D02*
Y-439020D01*
Y-421244D02*
X494729D01*
X497268Y-422090D01*
X498115Y-422937D01*
X498961Y-424630D01*
Y-426323D01*
X498115Y-428016D01*
X497268Y-428862D01*
X494729Y-429709D01*
X487110D01*
X493036D02*
X498961Y-439020D01*
X507172Y-427169D02*
X505479Y-428016D01*
X503786Y-429709D01*
X502940Y-432248D01*
Y-433941D01*
X503786Y-436480D01*
X505479Y-438173D01*
X507172Y-439020D01*
X509711D01*
X511404Y-438173D01*
X513097Y-436480D01*
X513944Y-433941D01*
Y-432248D01*
X513097Y-429709D01*
X511404Y-428016D01*
X509711Y-427169D01*
X507172D01*
X527995Y-421244D02*
Y-439020D01*
Y-429709D02*
X526303Y-428016D01*
X524610Y-427169D01*
X522070D01*
X520377Y-428016D01*
X518684Y-429709D01*
X517838Y-432248D01*
Y-433941D01*
X518684Y-436480D01*
X520377Y-438173D01*
X522070Y-439020D01*
X524610D01*
X526303Y-438173D01*
X527995Y-436480D01*
X532736Y-421244D02*
Y-439020D01*
Y-429709D02*
X534429Y-428016D01*
X536122Y-427169D01*
X538661D01*
X540354Y-428016D01*
X542047Y-429709D01*
X542894Y-432248D01*
Y-433941D01*
X542047Y-436480D01*
X540354Y-438173D01*
X538661Y-439020D01*
X536122D01*
X534429Y-438173D01*
X532736Y-436480D01*
X550935Y-427169D02*
X549242Y-428016D01*
X547549Y-429709D01*
X546703Y-432248D01*
Y-433941D01*
X547549Y-436480D01*
X549242Y-438173D01*
X550935Y-439020D01*
X553475D01*
X555168Y-438173D01*
X556861Y-436480D01*
X557707Y-433941D01*
Y-432248D01*
X556861Y-429709D01*
X555168Y-428016D01*
X553475Y-427169D01*
X550935D01*
X561601D02*
Y-439020D01*
Y-432248D02*
X562448Y-429709D01*
X564141Y-428016D01*
X565833Y-427169D01*
X568373D01*
X574214D02*
X572521Y-428016D01*
X570828Y-429709D01*
X569981Y-432248D01*
Y-433941D01*
X570828Y-436480D01*
X572521Y-438173D01*
X574214Y-439020D01*
X576753D01*
X578446Y-438173D01*
X580139Y-436480D01*
X580985Y-433941D01*
Y-432248D01*
X580139Y-429709D01*
X578446Y-428016D01*
X576753Y-427169D01*
X574214D01*
X584879D02*
Y-435634D01*
X585726Y-438173D01*
X587419Y-439020D01*
X589958D01*
X591651Y-438173D01*
X594191Y-435634D01*
Y-427169D02*
Y-439020D01*
X609004Y-427169D02*
Y-440713D01*
X608158Y-443252D01*
X607311Y-444099D01*
X605618Y-444945D01*
X603079D01*
X601386Y-444099D01*
X609004Y-429709D02*
X607311Y-428016D01*
X605618Y-427169D01*
X603079D01*
X601386Y-428016D01*
X599693Y-429709D01*
X598846Y-432248D01*
Y-433941D01*
X599693Y-436480D01*
X601386Y-438173D01*
X603079Y-439020D01*
X605618D01*
X607311Y-438173D01*
X609004Y-436480D01*
X613745Y-421244D02*
Y-439020D01*
Y-430555D02*
X616284Y-428016D01*
X617977Y-427169D01*
X620516D01*
X622209Y-428016D01*
X623056Y-430555D01*
Y-439020D01*
X641678Y-421244D02*
Y-439020D01*
Y-421244D02*
X649297D01*
X651836Y-422090D01*
X652683Y-422937D01*
X653529Y-424630D01*
Y-426323D01*
X652683Y-428016D01*
X651836Y-428862D01*
X649297Y-429709D01*
X641678D01*
X647604D02*
X653529Y-439020D01*
X667666Y-421244D02*
Y-439020D01*
Y-429709D02*
X665973Y-428016D01*
X664280Y-427169D01*
X661740D01*
X660047Y-428016D01*
X658354Y-429709D01*
X657508Y-432248D01*
Y-433941D01*
X658354Y-436480D01*
X660047Y-438173D01*
X661740Y-439020D01*
X664280D01*
X665973Y-438173D01*
X667666Y-436480D01*
X442924Y-413620D02*
X436152Y-395844D01*
X429380Y-413620D01*
X431920Y-407695D02*
X440384D01*
X447071Y-395844D02*
Y-413620D01*
X453335Y-395844D02*
Y-410234D01*
X454182Y-412774D01*
X455875Y-413620D01*
X457568D01*
X450796Y-401769D02*
X456721D01*
X461800Y-395844D02*
X462647Y-396690D01*
X463493Y-395844D01*
X462647Y-394997D01*
X461800Y-395844D01*
X462647Y-401769D02*
Y-413620D01*
X466625Y-401769D02*
Y-410234D01*
X467472Y-412774D01*
X469165Y-413620D01*
X471704D01*
X473397Y-412774D01*
X475937Y-410234D01*
Y-401769D02*
Y-413620D01*
X480592Y-401769D02*
Y-413620D01*
Y-405155D02*
X483132Y-402616D01*
X484825Y-401769D01*
X487364D01*
X489057Y-402616D01*
X489904Y-405155D01*
Y-413620D01*
Y-405155D02*
X492443Y-402616D01*
X494136Y-401769D01*
X496676D01*
X498368Y-402616D01*
X499215Y-405155D01*
Y-413620D01*
X518769Y-395844D02*
Y-413620D01*
X528927D01*
X532566Y-395844D02*
X533413Y-396690D01*
X534259Y-395844D01*
X533413Y-394997D01*
X532566Y-395844D01*
X533413Y-401769D02*
Y-413620D01*
X537392Y-401769D02*
Y-413620D01*
Y-405155D02*
X539931Y-402616D01*
X541624Y-401769D01*
X544163D01*
X545856Y-402616D01*
X546703Y-405155D01*
Y-413620D01*
Y-405155D02*
X549242Y-402616D01*
X550935Y-401769D01*
X553475D01*
X555168Y-402616D01*
X556014Y-405155D01*
Y-413620D01*
X563294Y-395844D02*
X564141Y-396690D01*
X564987Y-395844D01*
X564141Y-394997D01*
X563294Y-395844D01*
X564141Y-401769D02*
Y-413620D01*
X570658Y-395844D02*
Y-410234D01*
X571505Y-412774D01*
X573198Y-413620D01*
X574891D01*
X568119Y-401769D02*
X574044D01*
X577430Y-406848D02*
X587588D01*
Y-405155D01*
X586742Y-403462D01*
X585895Y-402616D01*
X584202Y-401769D01*
X581663D01*
X579970Y-402616D01*
X578277Y-404309D01*
X577430Y-406848D01*
Y-408541D01*
X578277Y-411081D01*
X579970Y-412774D01*
X581663Y-413620D01*
X584202D01*
X585895Y-412774D01*
X587588Y-411081D01*
X601555Y-395844D02*
Y-413620D01*
Y-404309D02*
X599862Y-402616D01*
X598169Y-401769D01*
X595630D01*
X593937Y-402616D01*
X592244Y-404309D01*
X591397Y-406848D01*
Y-408541D01*
X592244Y-411081D01*
X593937Y-412774D01*
X595630Y-413620D01*
X598169D01*
X599862Y-412774D01*
X601555Y-411081D01*
X772280Y-404310D02*
X773973Y-403463D01*
X776512Y-400924D01*
Y-418700D01*
X790395Y-400924D02*
X787855Y-401770D01*
X786162Y-404310D01*
X785316Y-408542D01*
Y-411082D01*
X786162Y-415314D01*
X787855Y-417854D01*
X790395Y-418700D01*
X792088D01*
X794627Y-417854D01*
X796320Y-415314D01*
X797167Y-411082D01*
Y-408542D01*
X796320Y-404310D01*
X794627Y-401770D01*
X792088Y-400924D01*
X790395D01*
X801145Y-421240D02*
X812996Y-400924D01*
X819260D02*
X816721Y-401770D01*
X815027Y-404310D01*
X814181Y-408542D01*
Y-411082D01*
X815027Y-415314D01*
X816721Y-417854D01*
X819260Y-418700D01*
X820953D01*
X823492Y-417854D01*
X825185Y-415314D01*
X826032Y-411082D01*
Y-408542D01*
X825185Y-404310D01*
X823492Y-401770D01*
X820953Y-400924D01*
X819260D01*
X840168D02*
X831703D01*
X830857Y-408542D01*
X831703Y-407696D01*
X834243Y-406849D01*
X836782D01*
X839322Y-407696D01*
X841015Y-409389D01*
X841861Y-411928D01*
Y-413621D01*
X841015Y-416161D01*
X839322Y-417854D01*
X836782Y-418700D01*
X834243D01*
X831703Y-417854D01*
X830857Y-417007D01*
X830010Y-415314D01*
X845840Y-421240D02*
X857690Y-400924D01*
X859722Y-405156D02*
Y-404310D01*
X860568Y-402617D01*
X861415Y-401770D01*
X863108Y-400924D01*
X866494D01*
X868187Y-401770D01*
X869033Y-402617D01*
X869880Y-404310D01*
Y-406003D01*
X869033Y-407696D01*
X867340Y-410235D01*
X858875Y-418700D01*
X870726D01*
X879784Y-400924D02*
X877244Y-401770D01*
X875551Y-404310D01*
X874705Y-408542D01*
Y-411082D01*
X875551Y-415314D01*
X877244Y-417854D01*
X879784Y-418700D01*
X881477D01*
X884016Y-417854D01*
X885709Y-415314D01*
X886555Y-411082D01*
Y-408542D01*
X885709Y-404310D01*
X884016Y-401770D01*
X881477Y-400924D01*
X879784D01*
X890534Y-404310D02*
X892227Y-403463D01*
X894766Y-400924D01*
Y-418700D01*
X915421Y-400924D02*
X906956Y-418700D01*
X903570Y-400924D02*
X915421D01*
X772280Y-483049D02*
Y-494900D01*
Y-486435D02*
X774819Y-483896D01*
X776512Y-483049D01*
X779052D01*
X780745Y-483896D01*
X781591Y-486435D01*
Y-494900D01*
Y-486435D02*
X784131Y-483896D01*
X785824Y-483049D01*
X788363D01*
X790056Y-483896D01*
X790903Y-486435D01*
Y-494900D01*
X806647Y-483049D02*
Y-494900D01*
Y-485589D02*
X804954Y-483896D01*
X803261Y-483049D01*
X800722D01*
X799029Y-483896D01*
X797336Y-485589D01*
X796489Y-488128D01*
Y-489821D01*
X797336Y-492360D01*
X799029Y-494053D01*
X800722Y-494900D01*
X803261D01*
X804954Y-494053D01*
X806647Y-492360D01*
X821545Y-483049D02*
Y-496593D01*
X820699Y-499132D01*
X819853Y-499979D01*
X818159Y-500825D01*
X815620D01*
X813927Y-499979D01*
X821545Y-485589D02*
X819853Y-483896D01*
X818159Y-483049D01*
X815620D01*
X813927Y-483896D01*
X812234Y-485589D01*
X811388Y-488128D01*
Y-489821D01*
X812234Y-492360D01*
X813927Y-494053D01*
X815620Y-494900D01*
X818159D01*
X819853Y-494053D01*
X821545Y-492360D01*
X827979Y-477124D02*
X828825Y-477970D01*
X829672Y-477124D01*
X828825Y-476277D01*
X827979Y-477124D01*
X828825Y-483049D02*
Y-494900D01*
X842962Y-485589D02*
X841268Y-483896D01*
X839576Y-483049D01*
X837036D01*
X835343Y-483896D01*
X833650Y-485589D01*
X832804Y-488128D01*
Y-489821D01*
X833650Y-492360D01*
X835343Y-494053D01*
X837036Y-494900D01*
X839576D01*
X841268Y-494053D01*
X842962Y-492360D01*
X859468Y-481356D02*
X858622Y-479663D01*
X856928Y-477970D01*
X855236Y-477124D01*
X851850D01*
X850157Y-477970D01*
X848464Y-479663D01*
X847617Y-481356D01*
X846771Y-483896D01*
Y-488128D01*
X847617Y-490668D01*
X848464Y-492360D01*
X850157Y-494053D01*
X851850Y-494900D01*
X855236D01*
X856928Y-494053D01*
X858622Y-492360D01*
X859468Y-490668D01*
Y-488128D01*
X855236D02*
X859468D01*
X863531Y-477124D02*
Y-494900D01*
X871488Y-483049D02*
X869795Y-483896D01*
X868102Y-485589D01*
X867256Y-488128D01*
Y-489821D01*
X868102Y-492360D01*
X869795Y-494053D01*
X871488Y-494900D01*
X874027D01*
X875721Y-494053D01*
X877413Y-492360D01*
X878260Y-489821D01*
Y-488128D01*
X877413Y-485589D01*
X875721Y-483896D01*
X874027Y-483049D01*
X871488D01*
X882154D02*
X887233Y-494900D01*
X892312Y-483049D02*
X887233Y-494900D01*
X895190Y-488128D02*
X905348D01*
Y-486435D01*
X904501Y-484742D01*
X903654Y-483896D01*
X901962Y-483049D01*
X899422D01*
X897729Y-483896D01*
X896036Y-485589D01*
X895190Y-488128D01*
Y-489821D01*
X896036Y-492360D01*
X897729Y-494053D01*
X899422Y-494900D01*
X901962D01*
X903654Y-494053D01*
X905348Y-492360D01*
X910003Y-493207D02*
X909157Y-494053D01*
X910003Y-494900D01*
X910850Y-494053D01*
X910003Y-493207D01*
X914743Y-486435D02*
X922362D01*
X924901Y-485589D01*
X925748Y-484742D01*
X926594Y-483049D01*
Y-480510D01*
X925748Y-478817D01*
X924901Y-477970D01*
X922362Y-477124D01*
X914743D01*
Y-494900D01*
X940731Y-485589D02*
X939038Y-483896D01*
X937345Y-483049D01*
X934805D01*
X933112Y-483896D01*
X931419Y-485589D01*
X930573Y-488128D01*
Y-489821D01*
X931419Y-492360D01*
X933112Y-494053D01*
X934805Y-494900D01*
X937345D01*
X939038Y-494053D01*
X940731Y-492360D01*
X944540Y-477124D02*
Y-494900D01*
Y-485589D02*
X946233Y-483896D01*
X947926Y-483049D01*
X950465D01*
X952158Y-483896D01*
X953851Y-485589D01*
X954698Y-488128D01*
Y-489821D01*
X953851Y-492360D01*
X952158Y-494053D01*
X950465Y-494900D01*
X947926D01*
X946233Y-494053D01*
X944540Y-492360D01*
X958507Y-477124D02*
Y-494900D01*
Y-477124D02*
X964432D01*
X966972Y-477970D01*
X968665Y-479663D01*
X969511Y-481356D01*
X970358Y-483896D01*
Y-488128D01*
X969511Y-490668D01*
X968665Y-492360D01*
X966972Y-494053D01*
X964432Y-494900D01*
X958507D01*
X978568Y-483049D02*
X976876Y-483896D01*
X975182Y-485589D01*
X974336Y-488128D01*
Y-489821D01*
X975182Y-492360D01*
X976876Y-494053D01*
X978568Y-494900D01*
X981108D01*
X982801Y-494053D01*
X984494Y-492360D01*
X985340Y-489821D01*
Y-488128D01*
X984494Y-485589D01*
X982801Y-483896D01*
X981108Y-483049D01*
X978568D01*
X999392Y-485589D02*
X997699Y-483896D01*
X996006Y-483049D01*
X993467D01*
X991774Y-483896D01*
X990081Y-485589D01*
X989234Y-488128D01*
Y-489821D01*
X990081Y-492360D01*
X991774Y-494053D01*
X993467Y-494900D01*
X996006D01*
X997699Y-494053D01*
X999392Y-492360D01*
X1922474Y1099966D02*
X1915702Y1117742D01*
X1908930Y1099966D01*
X1911470Y1105891D02*
X1919934D01*
X1577543Y1347866D02*
X1569078Y1336015D01*
X1581775D01*
X1577543Y1347866D02*
Y1330090D01*
D73*
X-980320Y-566020D02*
X1940680D01*
X-980320Y1364380D02*
X1940680D01*
X-929520Y-515220D02*
Y1313580D01*
Y-515220D02*
X1889880D01*
X-929520Y1313580D02*
X1889880D01*
X-250070D02*
Y1364380D01*
X480180Y1313580D02*
Y1364380D01*
X1889880Y-83420D02*
X1940680D01*
X-980320Y-566020D02*
Y1364380D01*
Y881780D02*
X-929520D01*
X-980320Y399180D02*
X-929520D01*
X-980320Y-83420D02*
X-929520D01*
X-250070Y-566020D02*
Y-515220D01*
X480180Y-566020D02*
Y-515220D01*
X391280D02*
X746880D01*
X391280D02*
Y-210420D01*
X746880D01*
Y-286620D02*
X1127880D01*
X746880Y-515220D02*
X1889880D01*
X746880Y-439020D02*
X1889880D01*
X746880Y-362820D02*
X1889880D01*
X746880Y-210420D02*
X1127880D01*
Y-362820D02*
Y-210420D01*
X1889880D01*
Y-515220D02*
Y-210420D01*
X746880Y-515220D02*
Y-210420D01*
X1661280Y-515220D02*
Y-362820D01*
X1127880Y-515220D02*
Y-362820D01*
X1210430Y-566020D02*
Y-515220D01*
Y1313580D02*
Y1364380D01*
X759580Y-376792D02*
Y-388220D01*
Y-376792D02*
X763389D01*
X765022Y-377337D01*
X766110Y-378425D01*
X766654Y-379513D01*
X767198Y-381146D01*
Y-383867D01*
X766654Y-385499D01*
X766110Y-386587D01*
X765022Y-387676D01*
X763389Y-388220D01*
X759580D01*
X778463D02*
X774109Y-376792D01*
X769756Y-388220D01*
X771388Y-384411D02*
X776830D01*
X784938Y-376792D02*
Y-388220D01*
X781129Y-376792D02*
X788747D01*
X797182D02*
X790108D01*
Y-388220D01*
X797182D01*
X790108Y-382234D02*
X794461D01*
X799631Y-380602D02*
X799087Y-381146D01*
X799631Y-381690D01*
X800175Y-381146D01*
X799631Y-380602D01*
Y-387132D02*
X799087Y-387676D01*
X799631Y-388220D01*
X800175Y-387676D01*
X799631Y-387132D01*
X1673980Y-376792D02*
Y-388220D01*
Y-376792D02*
X1678878D01*
X1680510Y-377337D01*
X1681054Y-377881D01*
X1681598Y-378969D01*
Y-380057D01*
X1681054Y-381146D01*
X1680510Y-381690D01*
X1678878Y-382234D01*
X1673980D01*
X1677789D02*
X1681598Y-388220D01*
X1691230Y-376792D02*
X1684156D01*
Y-388220D01*
X1691230D01*
X1684156Y-382234D02*
X1688509D01*
X1693135Y-376792D02*
X1697488Y-388220D01*
X1701841Y-376792D02*
X1697488Y-388220D01*
X1703855Y-380602D02*
X1703311Y-381146D01*
X1703855Y-381690D01*
X1704399Y-381146D01*
X1703855Y-380602D01*
Y-387132D02*
X1703311Y-387676D01*
X1703855Y-388220D01*
X1704399Y-387676D01*
X1703855Y-387132D01*
X1140580Y-452992D02*
Y-464420D01*
Y-452992D02*
X1144389D01*
X1146022Y-453537D01*
X1147110Y-454625D01*
X1147654Y-455713D01*
X1148198Y-457346D01*
Y-460067D01*
X1147654Y-461699D01*
X1147110Y-462788D01*
X1146022Y-463876D01*
X1144389Y-464420D01*
X1140580D01*
X1150756Y-452992D02*
X1153477Y-464420D01*
X1156198Y-452992D02*
X1153477Y-464420D01*
X1156198Y-452992D02*
X1158919Y-464420D01*
X1161639Y-452992D02*
X1158919Y-464420D01*
X1172087Y-455713D02*
X1171543Y-454625D01*
X1170455Y-453537D01*
X1169367Y-452992D01*
X1167190D01*
X1166102Y-453537D01*
X1165013Y-454625D01*
X1164469Y-455713D01*
X1163925Y-457346D01*
Y-460067D01*
X1164469Y-461699D01*
X1165013Y-462788D01*
X1166102Y-463876D01*
X1167190Y-464420D01*
X1169367D01*
X1170455Y-463876D01*
X1171543Y-462788D01*
X1172087Y-461699D01*
Y-460067D01*
X1169367D02*
X1172087D01*
X1183678Y-452992D02*
Y-464420D01*
Y-452992D02*
X1191297Y-464420D01*
Y-452992D02*
Y-464420D01*
X1197718Y-452992D02*
X1196629Y-453537D01*
X1195541Y-454625D01*
X1194997Y-455713D01*
X1194453Y-457346D01*
Y-460067D01*
X1194997Y-461699D01*
X1195541Y-462788D01*
X1196629Y-463876D01*
X1197718Y-464420D01*
X1199894D01*
X1200983Y-463876D01*
X1202071Y-462788D01*
X1202615Y-461699D01*
X1203159Y-460067D01*
Y-457346D01*
X1202615Y-455713D01*
X1202071Y-454625D01*
X1200983Y-453537D01*
X1199894Y-452992D01*
X1197718D01*
X1206370Y-456802D02*
X1205826Y-457346D01*
X1206370Y-457890D01*
X1206914Y-457346D01*
X1206370Y-456802D01*
Y-463332D02*
X1205826Y-463876D01*
X1206370Y-464420D01*
X1206914Y-463876D01*
X1206370Y-463332D01*
X766654Y-224392D02*
X759580D01*
Y-235820D01*
X766654D01*
X759580Y-229834D02*
X763933D01*
X768559Y-224392D02*
Y-235820D01*
Y-224392D02*
X776177Y-235820D01*
Y-224392D02*
Y-235820D01*
X787496Y-227113D02*
X786952Y-226025D01*
X785863Y-224937D01*
X784775Y-224392D01*
X782598D01*
X781510Y-224937D01*
X780422Y-226025D01*
X779877Y-227113D01*
X779333Y-228746D01*
Y-231467D01*
X779877Y-233099D01*
X780422Y-234188D01*
X781510Y-235276D01*
X782598Y-235820D01*
X784775D01*
X785863Y-235276D01*
X786952Y-234188D01*
X787496Y-233099D01*
Y-231467D01*
X784775D02*
X787496D01*
X790108Y-224392D02*
Y-235820D01*
X792502Y-224392D02*
Y-235820D01*
Y-224392D02*
X800121Y-235820D01*
Y-224392D02*
Y-235820D01*
X810351Y-224392D02*
X803277D01*
Y-235820D01*
X810351D01*
X803277Y-229834D02*
X807630D01*
X819330Y-224392D02*
X812256D01*
Y-235820D01*
X819330D01*
X812256Y-229834D02*
X816609D01*
X821234Y-224392D02*
Y-235820D01*
Y-224392D02*
X826132D01*
X827764Y-224937D01*
X828309Y-225481D01*
X828853Y-226569D01*
Y-227658D01*
X828309Y-228746D01*
X827764Y-229290D01*
X826132Y-229834D01*
X821234D01*
X825044D02*
X828853Y-235820D01*
X831954Y-228202D02*
X831410Y-228746D01*
X831954Y-229290D01*
X832499Y-228746D01*
X831954Y-228202D01*
Y-234732D02*
X831410Y-235276D01*
X831954Y-235820D01*
X832499Y-235276D01*
X831954Y-234732D01*
X1140580Y-382778D02*
X1145478D01*
X1147110Y-382234D01*
X1147654Y-381690D01*
X1148198Y-380602D01*
Y-378969D01*
X1147654Y-377881D01*
X1147110Y-377337D01*
X1145478Y-376792D01*
X1140580D01*
Y-388220D01*
X1159463D02*
X1155109Y-376792D01*
X1150756Y-388220D01*
X1152388Y-384411D02*
X1157830D01*
X1162129Y-376792D02*
Y-388220D01*
Y-376792D02*
X1167027D01*
X1168659Y-377337D01*
X1169203Y-377881D01*
X1169747Y-378969D01*
Y-380057D01*
X1169203Y-381146D01*
X1168659Y-381690D01*
X1167027Y-382234D01*
X1162129D01*
X1165938D02*
X1169747Y-388220D01*
X1176114Y-376792D02*
Y-388220D01*
X1172305Y-376792D02*
X1179923D01*
X1190263D02*
Y-388220D01*
Y-376792D02*
X1197881Y-388220D01*
Y-376792D02*
Y-388220D01*
X1204302Y-376792D02*
X1203214Y-377337D01*
X1202125Y-378425D01*
X1201581Y-379513D01*
X1201037Y-381146D01*
Y-383867D01*
X1201581Y-385499D01*
X1202125Y-386587D01*
X1203214Y-387676D01*
X1204302Y-388220D01*
X1206479D01*
X1207567Y-387676D01*
X1208655Y-386587D01*
X1209200Y-385499D01*
X1209744Y-383867D01*
Y-381146D01*
X1209200Y-379513D01*
X1208655Y-378425D01*
X1207567Y-377337D01*
X1206479Y-376792D01*
X1204302D01*
X1212954Y-387132D02*
X1212410Y-387676D01*
X1212954Y-388220D01*
X1213499Y-387676D01*
X1212954Y-387132D01*
X1216546Y-380602D02*
X1216002Y-381146D01*
X1216546Y-381690D01*
X1217090Y-381146D01*
X1216546Y-380602D01*
Y-387132D02*
X1216002Y-387676D01*
X1216546Y-388220D01*
X1217090Y-387676D01*
X1216546Y-387132D01*
X1144389Y-224392D02*
Y-235820D01*
X1140580Y-224392D02*
X1148198D01*
X1149559D02*
Y-235820D01*
X1155762Y-224392D02*
Y-235820D01*
X1151953Y-224392D02*
X1159572D01*
X1160932D02*
Y-235820D01*
X1167462D01*
X1175788Y-224392D02*
X1168714D01*
Y-235820D01*
X1175788D01*
X1168714Y-229834D02*
X1173067D01*
X1178236Y-228202D02*
X1177692Y-228746D01*
X1178236Y-229290D01*
X1178781Y-228746D01*
X1178236Y-228202D01*
Y-234732D02*
X1177692Y-235276D01*
X1178236Y-235820D01*
X1178781Y-235276D01*
X1178236Y-234732D01*
X759580Y-305308D02*
X764477D01*
X766110Y-304764D01*
X766654Y-304220D01*
X767198Y-303132D01*
Y-301499D01*
X766654Y-300411D01*
X766110Y-299867D01*
X764477Y-299322D01*
X759580D01*
Y-310750D01*
X777918Y-302043D02*
X777374Y-300955D01*
X776286Y-299867D01*
X775198Y-299322D01*
X773021D01*
X771933Y-299867D01*
X770844Y-300955D01*
X770300Y-302043D01*
X769756Y-303676D01*
Y-306397D01*
X770300Y-308029D01*
X770844Y-309118D01*
X771933Y-310206D01*
X773021Y-310750D01*
X775198D01*
X776286Y-310206D01*
X777374Y-309118D01*
X777918Y-308029D01*
X781129Y-299322D02*
Y-310750D01*
Y-299322D02*
X786027D01*
X787659Y-299867D01*
X788203Y-300411D01*
X788747Y-301499D01*
Y-302588D01*
X788203Y-303676D01*
X787659Y-304220D01*
X786027Y-304764D01*
X781129D02*
X786027D01*
X787659Y-305308D01*
X788203Y-305853D01*
X788747Y-306941D01*
Y-308573D01*
X788203Y-309662D01*
X787659Y-310206D01*
X786027Y-310750D01*
X781129D01*
X800284Y-299322D02*
Y-310750D01*
Y-299322D02*
X804093D01*
X805725Y-299867D01*
X806814Y-300955D01*
X807358Y-302043D01*
X807902Y-303676D01*
Y-306397D01*
X807358Y-308029D01*
X806814Y-309118D01*
X805725Y-310206D01*
X804093Y-310750D01*
X800284D01*
X817534Y-299322D02*
X810460D01*
Y-310750D01*
X817534D01*
X810460Y-304764D02*
X814813D01*
X827057Y-300955D02*
X825969Y-299867D01*
X824336Y-299322D01*
X822159D01*
X820527Y-299867D01*
X819439Y-300955D01*
Y-302043D01*
X819983Y-303132D01*
X820527Y-303676D01*
X821615Y-304220D01*
X824880Y-305308D01*
X825969Y-305853D01*
X826513Y-306397D01*
X827057Y-307485D01*
Y-309118D01*
X825969Y-310206D01*
X824336Y-310750D01*
X822159D01*
X820527Y-310206D01*
X819439Y-309118D01*
X829614Y-299322D02*
Y-310750D01*
X840171Y-302043D02*
X839627Y-300955D01*
X838539Y-299867D01*
X837451Y-299322D01*
X835274D01*
X834186Y-299867D01*
X833097Y-300955D01*
X832553Y-302043D01*
X832009Y-303676D01*
Y-306397D01*
X832553Y-308029D01*
X833097Y-309118D01*
X834186Y-310206D01*
X835274Y-310750D01*
X837451D01*
X838539Y-310206D01*
X839627Y-309118D01*
X840171Y-308029D01*
Y-306397D01*
X837451D02*
X840171D01*
X842783Y-299322D02*
Y-310750D01*
Y-299322D02*
X850402Y-310750D01*
Y-299322D02*
Y-310750D01*
X860632Y-299322D02*
X853558D01*
Y-310750D01*
X860632D01*
X853558Y-304764D02*
X857911D01*
X862537Y-299322D02*
Y-310750D01*
Y-299322D02*
X867434D01*
X869067Y-299867D01*
X869611Y-300411D01*
X870155Y-301499D01*
Y-302588D01*
X869611Y-303676D01*
X869067Y-304220D01*
X867434Y-304764D01*
X862537D01*
X866346D02*
X870155Y-310750D01*
X873257Y-303132D02*
X872713Y-303676D01*
X873257Y-304220D01*
X873801Y-303676D01*
X873257Y-303132D01*
Y-309662D02*
X872713Y-310206D01*
X873257Y-310750D01*
X873801Y-310206D01*
X873257Y-309662D01*
X759580Y-452992D02*
Y-464420D01*
Y-452992D02*
X766654D01*
X759580Y-458434D02*
X763933D01*
X767960Y-452992D02*
Y-464420D01*
X770355Y-452992D02*
Y-464420D01*
X776885D01*
X785210Y-452992D02*
X778136D01*
Y-464420D01*
X785210D01*
X778136Y-458434D02*
X782489D01*
X796094Y-452992D02*
Y-464420D01*
Y-452992D02*
X803712Y-464420D01*
Y-452992D02*
Y-464420D01*
X815575D02*
X811222Y-452992D01*
X806868Y-464420D01*
X808501Y-460611D02*
X813942D01*
X818241Y-452992D02*
Y-464420D01*
Y-452992D02*
X822595Y-464420D01*
X826948Y-452992D02*
X822595Y-464420D01*
X826948Y-452992D02*
Y-464420D01*
X837287Y-452992D02*
X830213D01*
Y-464420D01*
X837287D01*
X830213Y-458434D02*
X834566D01*
X839736Y-456802D02*
X839192Y-457346D01*
X839736Y-457890D01*
X840280Y-457346D01*
X839736Y-456802D01*
Y-463332D02*
X839192Y-463876D01*
X839736Y-464420D01*
X840280Y-463876D01*
X839736Y-463332D01*
X1681598Y-454625D02*
X1680510Y-453537D01*
X1678878Y-452992D01*
X1676701D01*
X1675068Y-453537D01*
X1673980Y-454625D01*
Y-455713D01*
X1674524Y-456802D01*
X1675068Y-457346D01*
X1676157Y-457890D01*
X1679422Y-458978D01*
X1680510Y-459523D01*
X1681054Y-460067D01*
X1681598Y-461155D01*
Y-462788D01*
X1680510Y-463876D01*
X1678878Y-464420D01*
X1676701D01*
X1675068Y-463876D01*
X1673980Y-462788D01*
X1692319Y-455713D02*
X1691774Y-454625D01*
X1690686Y-453537D01*
X1689598Y-452992D01*
X1687421D01*
X1686333Y-453537D01*
X1685244Y-454625D01*
X1684700Y-455713D01*
X1684156Y-457346D01*
Y-460067D01*
X1684700Y-461699D01*
X1685244Y-462788D01*
X1686333Y-463876D01*
X1687421Y-464420D01*
X1689598D01*
X1690686Y-463876D01*
X1691774Y-462788D01*
X1692319Y-461699D01*
X1704236Y-464420D02*
X1699882Y-452992D01*
X1695529Y-464420D01*
X1697162Y-460611D02*
X1702603D01*
X1706902Y-452992D02*
Y-464420D01*
X1713432D01*
X1721758Y-452992D02*
X1714684D01*
Y-464420D01*
X1721758D01*
X1714684Y-458434D02*
X1719037D01*
X1724207Y-456802D02*
X1723663Y-457346D01*
X1724207Y-457890D01*
X1724751Y-457346D01*
X1724207Y-456802D01*
Y-463332D02*
X1723663Y-463876D01*
X1724207Y-464420D01*
X1724751Y-463876D01*
X1724207Y-463332D01*
D75*
X0Y0D02*
Y999998D01*
Y0D02*
X999998D01*
Y999998D01*
X0D02*
X999998D01*
D81*
X420490Y-360280D02*
X707510D01*
X420490Y-359772D02*
X708526D01*
X420490Y-359264D02*
X709542D01*
X420490Y-358756D02*
X710558D01*
X420490Y-358248D02*
X711066D01*
X420490Y-357740D02*
X712082D01*
X420490Y-357232D02*
X712590D01*
X420490Y-356724D02*
X713098D01*
X420490Y-356216D02*
X713606D01*
X420490Y-355708D02*
X714114D01*
X420490Y-355200D02*
X714622D01*
X420490Y-354692D02*
X715130D01*
X420490Y-354184D02*
X715638D01*
X420490Y-353676D02*
X716146D01*
X420490Y-353168D02*
X716654D01*
X420490Y-352660D02*
X717162D01*
X420490Y-352152D02*
X717162D01*
X420490Y-351644D02*
X717670D01*
X420490Y-351136D02*
X718178D01*
X420490Y-350628D02*
X718178D01*
X420490Y-350120D02*
X718686D01*
X420490Y-349612D02*
X718686D01*
X420490Y-349104D02*
X719194D01*
X420490Y-348596D02*
X719194D01*
X420490Y-348088D02*
X719194D01*
X420490Y-347580D02*
X719702D01*
X420490Y-347072D02*
X719702D01*
X420490Y-346564D02*
X719702D01*
X420490Y-346056D02*
X720210D01*
X420490Y-345548D02*
X720210D01*
X420490Y-345040D02*
X720210D01*
X420490Y-344532D02*
X720210D01*
X420490Y-344024D02*
X720210D01*
X420490Y-343516D02*
X720210D01*
X420490Y-343008D02*
X720210D01*
X420490Y-342500D02*
X720210D01*
X420490Y-341992D02*
X720210D01*
X420490Y-341484D02*
X720210D01*
X420490Y-340976D02*
X720210D01*
X420490Y-340468D02*
X720210D01*
X420490Y-339960D02*
X720210D01*
X420490Y-339452D02*
X720210D01*
X625214Y-338944D02*
X720210D01*
X494150D02*
X621150D01*
X420490D02*
X489578D01*
X625722Y-338436D02*
X720210D01*
X494658D02*
X620642D01*
X420490D02*
X489070D01*
X626230Y-337928D02*
X720210D01*
X495166D02*
X620642D01*
X420490D02*
X489070D01*
X626738Y-337420D02*
X720210D01*
X621658D02*
X624198D01*
X495166D02*
X620642D01*
X490086D02*
X492626D01*
X420490D02*
X489070D01*
X626738Y-336912D02*
X720210D01*
X495674D02*
X624706D01*
X420490D02*
X493134D01*
X626738Y-336404D02*
X720210D01*
X495674D02*
X624706D01*
X420490D02*
X493642D01*
X684650Y-335896D02*
X720210D01*
X679062D02*
X682618D01*
X670934D02*
X674998D01*
X665346D02*
X668902D01*
X659250D02*
X661282D01*
X656710D02*
X657218D01*
X650106D02*
X653662D01*
X636390D02*
X644010D01*
X631818D02*
X634866D01*
X627246D02*
X629786D01*
X623690D02*
X625214D01*
X617594D02*
X621658D01*
X612006D02*
X615562D01*
X604894D02*
X607942D01*
X593718D02*
X600830D01*
X580002D02*
X588638D01*
X574414D02*
X575938D01*
X566286D02*
X570858D01*
X561714D02*
X564254D01*
X556634D02*
X559682D01*
X550538D02*
X554602D01*
X540886D02*
X546982D01*
X537330D02*
X539362D01*
X530726D02*
X534282D01*
X522598D02*
X527170D01*
X513962D02*
X518534D01*
X509390D02*
X511930D01*
X495674D02*
X503294D01*
X492626D02*
X493642D01*
X486022D02*
X490086D01*
X481450D02*
X483990D01*
X476370D02*
X479418D01*
X472814D02*
X474338D01*
X467734D02*
X470274D01*
X463162D02*
X465702D01*
X460622D02*
X461638D01*
X454018D02*
X457574D01*
X449446D02*
X451986D01*
X444874D02*
X447414D01*
X420490D02*
X442842D01*
X684650Y-335388D02*
X720210D01*
X679570D02*
X682618D01*
X670934D02*
X674490D01*
X665854D02*
X668902D01*
X659250D02*
X661282D01*
X650106D02*
X652646D01*
X636390D02*
X644010D01*
X631818D02*
X634866D01*
X627246D02*
X629786D01*
X624706D02*
X625214D01*
X617594D02*
X620642D01*
X612514D02*
X615562D01*
X605402D02*
X607942D01*
X594734D02*
X600322D01*
X580510D02*
X588638D01*
X574414D02*
X575938D01*
X566286D02*
X569842D01*
X561714D02*
X564254D01*
X556634D02*
X559682D01*
X551554D02*
X554602D01*
X540886D02*
X545966D01*
X537330D02*
X539362D01*
X530726D02*
X533774D01*
X522598D02*
X526154D01*
X513962D02*
X517518D01*
X509390D02*
X511930D01*
X495674D02*
X503294D01*
X486022D02*
X489578D01*
X481450D02*
X483990D01*
X476370D02*
X479418D01*
X472306D02*
X474338D01*
X467734D02*
X469766D01*
X463162D02*
X465702D01*
X454018D02*
X457066D01*
X449446D02*
X451986D01*
X444874D02*
X446906D01*
X420490D02*
X442842D01*
X684650Y-334880D02*
X720210D01*
X679570D02*
X682618D01*
X670934D02*
X673982D01*
X666362D02*
X668902D01*
X659250D02*
X661282D01*
X650106D02*
X652646D01*
X636390D02*
X644010D01*
X631818D02*
X634866D01*
X627246D02*
X629786D01*
X617594D02*
X620134D01*
X613022D02*
X615562D01*
X605402D02*
X607942D01*
X595750D02*
X599814D01*
X581018D02*
X588638D01*
X574414D02*
X575938D01*
X566286D02*
X569334D01*
X561714D02*
X564254D01*
X556634D02*
X559682D01*
X551554D02*
X554602D01*
X540886D02*
X545458D01*
X537330D02*
X539362D01*
X530726D02*
X533266D01*
X522598D02*
X525646D01*
X513962D02*
X517010D01*
X509390D02*
X511930D01*
X495674D02*
X503294D01*
X486022D02*
X489070D01*
X481450D02*
X483990D01*
X476370D02*
X479418D01*
X471798D02*
X474338D01*
X467734D02*
X469258D01*
X463162D02*
X465702D01*
X454018D02*
X456558D01*
X449954D02*
X451986D01*
X444874D02*
X446906D01*
X420490D02*
X442842D01*
X684650Y-334372D02*
X720210D01*
X679570D02*
X682618D01*
X676014D02*
X679062D01*
X670934D02*
X673474D01*
X666362D02*
X668902D01*
X659250D02*
X664330D01*
X654678D02*
X656710D01*
X646550D02*
X652646D01*
X636390D02*
X644010D01*
X631818D02*
X634866D01*
X627246D02*
X629786D01*
X622674D02*
X624198D01*
X617594D02*
X620134D01*
X613022D02*
X615562D01*
X605402D02*
X610990D01*
X601846D02*
X604894D01*
X596258D02*
X599306D01*
X590670D02*
X592194D01*
X581018D02*
X588638D01*
X571874D02*
X578986D01*
X566286D02*
X568826D01*
X561714D02*
X564254D01*
X556634D02*
X559682D01*
X552062D02*
X554602D01*
X547490D02*
X549522D01*
X540886D02*
X544950D01*
X535806D02*
X539362D01*
X528186D02*
X533266D01*
X522598D02*
X525646D01*
X519042D02*
X522090D01*
X513962D02*
X516502D01*
X505326D02*
X511930D01*
X495674D02*
X503294D01*
X491610D02*
X492626D01*
X486022D02*
X488562D01*
X481450D02*
X483990D01*
X476370D02*
X479418D01*
X471290D02*
X474338D01*
X467734D02*
X469258D01*
X463162D02*
X465702D01*
X458590D02*
X460622D01*
X454018D02*
X456558D01*
X449954D02*
X451986D01*
X444874D02*
X446906D01*
X420490D02*
X442842D01*
X684650Y-333864D02*
X720210D01*
X675506D02*
X682618D01*
X670934D02*
X673474D01*
X666870D02*
X668902D01*
X659250D02*
X664330D01*
X654170D02*
X657218D01*
X646550D02*
X652646D01*
X636390D02*
X644010D01*
X631818D02*
X634866D01*
X627246D02*
X629786D01*
X622166D02*
X624706D01*
X617594D02*
X619626D01*
X613022D02*
X615562D01*
X601338D02*
X610990D01*
X596258D02*
X599306D01*
X590670D02*
X593210D01*
X581018D02*
X588638D01*
X571366D02*
X578986D01*
X566286D02*
X568826D01*
X561714D02*
X564254D01*
X556634D02*
X559682D01*
X552570D02*
X554602D01*
X546982D02*
X550030D01*
X540886D02*
X544950D01*
X535298D02*
X539362D01*
X527678D02*
X533266D01*
X518534D02*
X525138D01*
X513962D02*
X516502D01*
X505326D02*
X511930D01*
X495674D02*
X503294D01*
X491102D02*
X493134D01*
X486022D02*
X488562D01*
X481450D02*
X483990D01*
X476370D02*
X479418D01*
X471290D02*
X474338D01*
X467734D02*
X468750D01*
X463162D02*
X465702D01*
X458590D02*
X461130D01*
X454018D02*
X456558D01*
X449954D02*
X451986D01*
X444874D02*
X446398D01*
X420490D02*
X442842D01*
X684650Y-333356D02*
X720210D01*
X674998D02*
X682618D01*
X670934D02*
X672966D01*
X666362D02*
X668902D01*
X659250D02*
X664330D01*
X654678D02*
X657218D01*
X646550D02*
X652646D01*
X636390D02*
X644010D01*
X631818D02*
X634866D01*
X627246D02*
X629786D01*
X622166D02*
X624706D01*
X617594D02*
X619626D01*
X613022D02*
X615562D01*
X600830D02*
X610990D01*
X596766D02*
X598798D01*
X590670D02*
X594226D01*
X581018D02*
X588638D01*
X570858D02*
X578986D01*
X566286D02*
X568826D01*
X561714D02*
X564254D01*
X556634D02*
X559682D01*
X552570D02*
X554602D01*
X546982D02*
X550538D01*
X540886D02*
X544950D01*
X535298D02*
X539362D01*
X527170D02*
X533266D01*
X518026D02*
X525138D01*
X513962D02*
X516502D01*
X505326D02*
X511930D01*
X495674D02*
X503294D01*
X490594D02*
X493642D01*
X486022D02*
X488562D01*
X481450D02*
X483990D01*
X476370D02*
X479418D01*
X470782D02*
X474338D01*
X467734D02*
X468242D01*
X463162D02*
X465702D01*
X458590D02*
X461130D01*
X454018D02*
X456558D01*
X450462D02*
X451986D01*
X444874D02*
X446398D01*
X420490D02*
X442842D01*
X684650Y-332848D02*
X720210D01*
X680078D02*
X682618D01*
X670934D02*
X672966D01*
X666362D02*
X668902D01*
X659250D02*
X663314D01*
X655186D02*
X657218D01*
X646550D02*
X652646D01*
X636390D02*
X644010D01*
X631818D02*
X634866D01*
X627246D02*
X629786D01*
X621658D02*
X625214D01*
X617594D02*
X619626D01*
X613022D02*
X615562D01*
X605910D02*
X609466D01*
X596766D02*
X598798D01*
X590670D02*
X594226D01*
X581018D02*
X588638D01*
X570858D02*
X577462D01*
X566286D02*
X568826D01*
X561714D02*
X564254D01*
X556634D02*
X559682D01*
X552570D02*
X554602D01*
X546982D02*
X550538D01*
X540886D02*
X544950D01*
X535298D02*
X539362D01*
X527170D02*
X533266D01*
X523106D02*
X525138D01*
X513962D02*
X516502D01*
X505326D02*
X511930D01*
X495674D02*
X503294D01*
X490594D02*
X493642D01*
X486022D02*
X488562D01*
X481450D02*
X483990D01*
X476370D02*
X479418D01*
X470274D02*
X474338D01*
X463162D02*
X465702D01*
X459098D02*
X461130D01*
X454018D02*
X456558D01*
X450462D02*
X451986D01*
X447922D02*
X448430D01*
X444874D02*
X446398D01*
X420490D02*
X442842D01*
X684650Y-332340D02*
X720210D01*
X680078D02*
X682618D01*
X670934D02*
X672966D01*
X666362D02*
X668902D01*
X659250D02*
X661790D01*
X646550D02*
X653154D01*
X636390D02*
X644010D01*
X631818D02*
X634866D01*
X627246D02*
X629786D01*
X621658D02*
X625214D01*
X617594D02*
X619626D01*
X612514D02*
X615562D01*
X605910D02*
X608450D01*
X596766D02*
X598798D01*
X590670D02*
X594734D01*
X581018D02*
X588638D01*
X570858D02*
X576446D01*
X566286D02*
X568826D01*
X561714D02*
X564254D01*
X556634D02*
X559682D01*
X552570D02*
X554602D01*
X546982D02*
X550538D01*
X541394D02*
X544950D01*
X535298D02*
X539362D01*
X527170D02*
X533266D01*
X523106D02*
X525138D01*
X513962D02*
X516502D01*
X505326D02*
X511930D01*
X495674D02*
X503294D01*
X490594D02*
X493642D01*
X486022D02*
X488562D01*
X481450D02*
X483990D01*
X476370D02*
X479418D01*
X469766D02*
X474338D01*
X463162D02*
X465702D01*
X454018D02*
X457066D01*
X450462D02*
X451986D01*
X447922D02*
X448938D01*
X444874D02*
X445890D01*
X420490D02*
X442842D01*
X684650Y-331832D02*
X720210D01*
X680078D02*
X682618D01*
X670934D02*
X672966D01*
X665346D02*
X668902D01*
X659250D02*
X661282D01*
X646550D02*
X653662D01*
X636390D02*
X644010D01*
X631818D02*
X634866D01*
X627246D02*
X629786D01*
X621658D02*
X625214D01*
X617594D02*
X619626D01*
X612006D02*
X615562D01*
X605910D02*
X607942D01*
X597274D02*
X598798D01*
X590670D02*
X594734D01*
X580002D02*
X588638D01*
X570858D02*
X575938D01*
X566286D02*
X568826D01*
X561714D02*
X564254D01*
X556634D02*
X559682D01*
X552570D02*
X554602D01*
X546982D02*
X550538D01*
X541394D02*
X544950D01*
X535298D02*
X539362D01*
X527170D02*
X533266D01*
X523106D02*
X525138D01*
X513962D02*
X516502D01*
X505326D02*
X511930D01*
X495674D02*
X503294D01*
X490594D02*
X493642D01*
X486022D02*
X488562D01*
X481450D02*
X483990D01*
X476370D02*
X479418D01*
X469766D02*
X474338D01*
X463162D02*
X465702D01*
X454018D02*
X457574D01*
X450970D02*
X451986D01*
X447922D02*
X448938D01*
X444874D02*
X445890D01*
X420490D02*
X442842D01*
X684650Y-331324D02*
X720210D01*
X680078D02*
X682618D01*
X674998D02*
X678046D01*
X670934D02*
X672966D01*
X663822D02*
X668902D01*
X659250D02*
X661282D01*
X650106D02*
X657218D01*
X636390D02*
X644010D01*
X631818D02*
X634358D01*
X627246D02*
X629786D01*
X621658D02*
X624706D01*
X617594D02*
X619626D01*
X610482D02*
X615562D01*
X605910D02*
X607942D01*
X600830D02*
X603878D01*
X597274D02*
X598798D01*
X590670D02*
X594734D01*
X578478D02*
X588638D01*
X570858D02*
X575938D01*
X566286D02*
X568826D01*
X561714D02*
X564254D01*
X557142D02*
X559682D01*
X552570D02*
X554602D01*
X546982D02*
X550538D01*
X541394D02*
X544950D01*
X535298D02*
X539362D01*
X527170D02*
X533266D01*
X523106D02*
X525138D01*
X518026D02*
X521582D01*
X513962D02*
X516502D01*
X508882D02*
X511930D01*
X495674D02*
X503294D01*
X490594D02*
X493642D01*
X486022D02*
X488562D01*
X481450D02*
X483990D01*
X476370D02*
X479418D01*
X470274D02*
X474338D01*
X463162D02*
X465702D01*
X454018D02*
X461130D01*
X450970D02*
X451986D01*
X447922D02*
X448938D01*
X444874D02*
X445890D01*
X420490D02*
X442842D01*
X685158Y-330816D02*
X720210D01*
X680078D02*
X682618D01*
X674998D02*
X678046D01*
X670934D02*
X673474D01*
X663314D02*
X668902D01*
X659250D02*
X661282D01*
X650106D02*
X657218D01*
X636390D02*
X644010D01*
X632326D02*
X634358D01*
X627246D02*
X629786D01*
X622166D02*
X624706D01*
X617594D02*
X619626D01*
X609974D02*
X615562D01*
X605910D02*
X607942D01*
X600830D02*
X603878D01*
X597274D02*
X599306D01*
X590670D02*
X594734D01*
X577970D02*
X588638D01*
X571366D02*
X575938D01*
X566286D02*
X568826D01*
X561714D02*
X564254D01*
X557142D02*
X559682D01*
X552570D02*
X554602D01*
X546982D02*
X550030D01*
X541394D02*
X544950D01*
X535298D02*
X539362D01*
X527678D02*
X533266D01*
X523106D02*
X525138D01*
X518534D02*
X521074D01*
X513962D02*
X516502D01*
X508882D02*
X511930D01*
X495674D02*
X503294D01*
X490594D02*
X493642D01*
X486022D02*
X488562D01*
X481450D02*
X483990D01*
X476370D02*
X479418D01*
X470782D02*
X474338D01*
X467734D02*
X468242D01*
X463162D02*
X465702D01*
X454018D02*
X461130D01*
X450970D02*
X451986D01*
X447414D02*
X449446D01*
X444874D02*
X445890D01*
X420490D02*
X442842D01*
X686682Y-330308D02*
X720210D01*
X679570D02*
X682618D01*
X675506D02*
X678046D01*
X670934D02*
X673474D01*
X663314D02*
X668902D01*
X658742D02*
X661282D01*
X654170D02*
X656710D01*
X650106D02*
X653154D01*
X636390D02*
X644010D01*
X632326D02*
X634358D01*
X627246D02*
X629786D01*
X622674D02*
X624198D01*
X617594D02*
X620134D01*
X609974D02*
X615562D01*
X605402D02*
X607942D01*
X601338D02*
X603878D01*
X597274D02*
X599306D01*
X590670D02*
X594734D01*
X577970D02*
X588638D01*
X571366D02*
X575938D01*
X566286D02*
X568826D01*
X561714D02*
X564254D01*
X557650D02*
X559174D01*
X552062D02*
X554602D01*
X547490D02*
X549522D01*
X543426D02*
X544950D01*
X535298D02*
X539362D01*
X528186D02*
X533266D01*
X523106D02*
X525646D01*
X518534D02*
X521074D01*
X513962D02*
X516502D01*
X508882D02*
X511930D01*
X495674D02*
X503294D01*
X491102D02*
X493134D01*
X486022D02*
X488562D01*
X481958D02*
X483990D01*
X476370D02*
X479418D01*
X470782D02*
X474338D01*
X467734D02*
X468750D01*
X463162D02*
X465702D01*
X458082D02*
X461130D01*
X454018D02*
X457066D01*
X451478D02*
X451986D01*
X447414D02*
X449446D01*
X444874D02*
X445382D01*
X420490D02*
X442842D01*
X686682Y-329800D02*
X720210D01*
X679570D02*
X682618D01*
X670934D02*
X673982D01*
X666362D02*
X668902D01*
X658742D02*
X661282D01*
X646550D02*
X653154D01*
X636390D02*
X644010D01*
X627246D02*
X629786D01*
X617594D02*
X620134D01*
X612514D02*
X615562D01*
X605402D02*
X607942D01*
X596766D02*
X599814D01*
X590670D02*
X594734D01*
X581018D02*
X588638D01*
X573906D02*
X575938D01*
X566286D02*
X569334D01*
X561206D02*
X564254D01*
X551554D02*
X554602D01*
X543426D02*
X545458D01*
X536822D02*
X539362D01*
X530726D02*
X531742D01*
X522598D02*
X525646D01*
X513962D02*
X517010D01*
X505326D02*
X511930D01*
X495674D02*
X503294D01*
X486022D02*
X489070D01*
X476370D02*
X479418D01*
X471290D02*
X474338D01*
X467734D02*
X469258D01*
X462654D02*
X465702D01*
X454018D02*
X457066D01*
X451478D02*
X451986D01*
X447414D02*
X449446D01*
X444874D02*
X445382D01*
X420490D02*
X442842D01*
X686682Y-329292D02*
X720210D01*
X684142D02*
X684650D01*
X679062D02*
X682618D01*
X670934D02*
X674490D01*
X666362D02*
X668902D01*
X658234D02*
X661790D01*
X646550D02*
X653154D01*
X635882D02*
X644010D01*
X627246D02*
X629786D01*
X617594D02*
X620642D01*
X613022D02*
X615562D01*
X604894D02*
X608450D01*
X596766D02*
X599814D01*
X590670D02*
X594226D01*
X581018D02*
X588638D01*
X573906D02*
X576446D01*
X566286D02*
X569842D01*
X561206D02*
X564254D01*
X551554D02*
X554602D01*
X543426D02*
X545966D01*
X540886D02*
X541394D01*
X536822D02*
X539362D01*
X530726D02*
X531742D01*
X522090D02*
X526154D01*
X513962D02*
X517518D01*
X505326D02*
X511930D01*
X495674D02*
X503294D01*
X485514D02*
X489578D01*
X476370D02*
X479418D01*
X471798D02*
X474338D01*
X467734D02*
X469258D01*
X462654D02*
X465702D01*
X454018D02*
X457066D01*
X451478D02*
X451986D01*
X446906D02*
X449446D01*
X420490D02*
X442842D01*
X699382Y-328784D02*
X720210D01*
X697350D02*
X698874D01*
X695318D02*
X696334D01*
X692270D02*
X694302D01*
X686682D02*
X691762D01*
X684142D02*
X685158D01*
X678554D02*
X682618D01*
X670934D02*
X674998D01*
X666362D02*
X668902D01*
X657726D02*
X662298D01*
X646550D02*
X653662D01*
X635374D02*
X644010D01*
X631818D02*
X632326D01*
X627246D02*
X629786D01*
X624198D02*
X625214D01*
X617594D02*
X621150D01*
X613022D02*
X615562D01*
X604386D02*
X608958D01*
X596766D02*
X600830D01*
X590670D02*
X594226D01*
X581018D02*
X588638D01*
X574414D02*
X576954D01*
X566286D02*
X570350D01*
X560698D02*
X564254D01*
X556634D02*
X557650D01*
X550538D02*
X554602D01*
X543426D02*
X546982D01*
X540886D02*
X541902D01*
X536822D02*
X539362D01*
X530726D02*
X531742D01*
X521582D02*
X527170D01*
X513962D02*
X518026D01*
X505326D02*
X511930D01*
X495674D02*
X503294D01*
X493134D02*
X493642D01*
X485006D02*
X490086D01*
X480942D02*
X481958D01*
X476370D02*
X479418D01*
X472306D02*
X474338D01*
X467734D02*
X469766D01*
X462146D02*
X465702D01*
X454018D02*
X457574D01*
X446906D02*
X449954D01*
X420490D02*
X442842D01*
X699382Y-328276D02*
X720210D01*
X697858D02*
X698874D01*
X695318D02*
X696334D01*
X692270D02*
X694302D01*
X646550D02*
X691762D01*
X596258D02*
X644010D01*
X590670D02*
X593718D01*
X535298D02*
X588638D01*
X513962D02*
X533266D01*
X505326D02*
X511930D01*
X467734D02*
X503294D01*
X454018D02*
X465702D01*
X446906D02*
X449954D01*
X420490D02*
X442842D01*
X699382Y-327768D02*
X720210D01*
X697858D02*
X698874D01*
X695318D02*
X695826D01*
X692270D02*
X694302D01*
X646550D02*
X691762D01*
X596258D02*
X644010D01*
X590670D02*
X592702D01*
X535298D02*
X588638D01*
X513962D02*
X533266D01*
X505326D02*
X511930D01*
X467734D02*
X503294D01*
X454018D02*
X465702D01*
X446398D02*
X449954D01*
X420490D02*
X442842D01*
X699382Y-327260D02*
X720210D01*
X698366D02*
X698874D01*
X696842D02*
X697350D01*
X695318D02*
X695826D01*
X692270D02*
X694302D01*
X650106D02*
X691762D01*
X595750D02*
X644010D01*
X535298D02*
X588638D01*
X513962D02*
X533266D01*
X509390D02*
X511930D01*
X467734D02*
X503294D01*
X454018D02*
X465702D01*
X446398D02*
X450462D01*
X420490D02*
X442842D01*
X699382Y-326752D02*
X720210D01*
X698366D02*
X698874D01*
X696334D02*
X697350D01*
X692270D02*
X694302D01*
X670934D02*
X691762D01*
X650106D02*
X668902D01*
X617594D02*
X644010D01*
X595242D02*
X615562D01*
X566286D02*
X588638D01*
X535298D02*
X564254D01*
X513962D02*
X534282D01*
X509390D02*
X511930D01*
X476370D02*
X503294D01*
X467734D02*
X474338D01*
X454018D02*
X465702D01*
X446398D02*
X450462D01*
X420490D02*
X442842D01*
X699382Y-326244D02*
X720210D01*
X696334D02*
X697858D01*
X692270D02*
X694302D01*
X670934D02*
X691762D01*
X650106D02*
X668902D01*
X617594D02*
X644010D01*
X593718D02*
X615562D01*
X566286D02*
X588638D01*
X513962D02*
X564254D01*
X509390D02*
X511930D01*
X476370D02*
X503294D01*
X467734D02*
X474338D01*
X454018D02*
X465702D01*
X445890D02*
X450462D01*
X420490D02*
X442842D01*
X699382Y-325736D02*
X720210D01*
X695826D02*
X697858D01*
X692270D02*
X694302D01*
X670934D02*
X691762D01*
X617594D02*
X668902D01*
X566286D02*
X615562D01*
X513962D02*
X564254D01*
X476370D02*
X511930D01*
X467734D02*
X474338D01*
X420490D02*
X465702D01*
X699382Y-325228D02*
X720210D01*
X695826D02*
X698366D01*
X693794D02*
X694302D01*
X513962D02*
X690238D01*
X467734D02*
X511930D01*
X420490D02*
X465702D01*
X420490Y-324720D02*
X720210D01*
X420490Y-324212D02*
X720210D01*
X420490Y-323704D02*
X720210D01*
X420490Y-323196D02*
X720210D01*
X420490Y-322688D02*
X720210D01*
X420490Y-322180D02*
X720210D01*
X420490Y-321672D02*
X720210D01*
X420490Y-321164D02*
X720210D01*
X420490Y-320656D02*
X720210D01*
X420490Y-320148D02*
X720210D01*
X420490Y-319640D02*
X720210D01*
X420490Y-319132D02*
X720210D01*
X420490Y-318624D02*
X720210D01*
X420490Y-318116D02*
X720210D01*
X420490Y-317608D02*
X720210D01*
X420490Y-317100D02*
X720210D01*
X420490Y-316592D02*
X720210D01*
X420490Y-316084D02*
X720210D01*
X420490Y-315576D02*
X720210D01*
X420490Y-315068D02*
X720210D01*
X420490Y-314560D02*
X720210D01*
X588130Y-314052D02*
X720210D01*
X420490D02*
X582542D01*
X590670Y-313544D02*
X720210D01*
X539870D02*
X580002D01*
X420490D02*
X533774D01*
X699382Y-313036D02*
X720210D01*
X697350D02*
X698874D01*
X695318D02*
X696334D01*
X692270D02*
X694302D01*
X678554D02*
X691254D01*
X660774D02*
X669410D01*
X636390D02*
X645026D01*
X613022D02*
X620642D01*
X592194D02*
X597274D01*
X565778D02*
X578986D01*
X544442D02*
X550538D01*
X514978D02*
X529202D01*
X496182D02*
X499738D01*
X461638D02*
X478402D01*
X420490D02*
X443350D01*
X699382Y-312528D02*
X720210D01*
X697858D02*
X698874D01*
X695318D02*
X696334D01*
X692270D02*
X694302D01*
X680586D02*
X691254D01*
X660774D02*
X669918D01*
X636390D02*
X645026D01*
X613022D02*
X620642D01*
X593210D02*
X597782D01*
X566286D02*
X577970D01*
X544950D02*
X550538D01*
X515486D02*
X527678D01*
X496182D02*
X499738D01*
X461638D02*
X478402D01*
X420490D02*
X443858D01*
X699382Y-312020D02*
X720210D01*
X697858D02*
X698874D01*
X695318D02*
X696334D01*
X692270D02*
X694302D01*
X681602D02*
X691254D01*
X660774D02*
X669918D01*
X636390D02*
X645534D01*
X613022D02*
X620642D01*
X594226D02*
X597782D01*
X566286D02*
X576954D01*
X544950D02*
X550538D01*
X515486D02*
X526662D01*
X496182D02*
X499738D01*
X462146D02*
X478402D01*
X420490D02*
X443858D01*
X699382Y-311512D02*
X720210D01*
X697858D02*
X698874D01*
X696842D02*
X697350D01*
X695318D02*
X695826D01*
X692270D02*
X694302D01*
X682618D02*
X691254D01*
X660774D02*
X669918D01*
X636390D02*
X645534D01*
X613530D02*
X621150D01*
X594734D02*
X597782D01*
X566286D02*
X576446D01*
X544950D02*
X550538D01*
X515486D02*
X525646D01*
X496182D02*
X500246D01*
X462146D02*
X478402D01*
X420490D02*
X444366D01*
X699382Y-311004D02*
X720210D01*
X698366D02*
X698874D01*
X696334D02*
X697350D01*
X695318D02*
X695826D01*
X692270D02*
X694302D01*
X683126D02*
X691254D01*
X661282D02*
X669918D01*
X636898D02*
X645534D01*
X613530D02*
X621150D01*
X595750D02*
X597782D01*
X566286D02*
X575938D01*
X544950D02*
X551046D01*
X515486D02*
X525138D01*
X496182D02*
X500246D01*
X462146D02*
X478402D01*
X420490D02*
X444366D01*
X699382Y-310496D02*
X720210D01*
X698366D02*
X698874D01*
X696334D02*
X697858D01*
X692270D02*
X694302D01*
X684142D02*
X691254D01*
X661282D02*
X670426D01*
X636898D02*
X645534D01*
X613530D02*
X621150D01*
X596258D02*
X598290D01*
X566794D02*
X575938D01*
X545458D02*
X551046D01*
X515994D02*
X525138D01*
X496182D02*
X500246D01*
X462654D02*
X478402D01*
X420490D02*
X444874D01*
X699382Y-309988D02*
X720210D01*
X696334D02*
X697858D01*
X692270D02*
X694302D01*
X684650D02*
X691254D01*
X661282D02*
X670426D01*
X636898D02*
X646042D01*
X613530D02*
X621150D01*
X596766D02*
X598290D01*
X566794D02*
X575430D01*
X545458D02*
X551046D01*
X515994D02*
X524630D01*
X496182D02*
X500246D01*
X462654D02*
X478402D01*
X420490D02*
X444874D01*
X699382Y-309480D02*
X720210D01*
X695826D02*
X697858D01*
X692270D02*
X694302D01*
X685158D02*
X691254D01*
X661282D02*
X670426D01*
X636898D02*
X646042D01*
X614038D02*
X621658D01*
X597274D02*
X598290D01*
X566794D02*
X575430D01*
X545458D02*
X551046D01*
X515994D02*
X524630D01*
X496182D02*
X500754D01*
X463162D02*
X478402D01*
X420490D02*
X445382D01*
X699382Y-308972D02*
X720210D01*
X695826D02*
X698366D01*
X693794D02*
X694302D01*
X685158D02*
X690238D01*
X661790D02*
X670426D01*
X637406D02*
X646042D01*
X614038D02*
X621658D01*
X597782D02*
X598290D01*
X566794D02*
X575430D01*
X545458D02*
X551554D01*
X515994D02*
X524630D01*
X496182D02*
X500754D01*
X463162D02*
X478402D01*
X420490D02*
X445890D01*
X685666Y-308464D02*
X720210D01*
X661790D02*
X670934D01*
X637406D02*
X646042D01*
X614038D02*
X621658D01*
X567302D02*
X574922D01*
X545966D02*
X551554D01*
X516502D02*
X524630D01*
X496182D02*
X500754D01*
X463670D02*
X478402D01*
X420490D02*
X445890D01*
X686174Y-307956D02*
X720210D01*
X661790D02*
X670934D01*
X637406D02*
X646550D01*
X614038D02*
X621658D01*
X567302D02*
X574922D01*
X545966D02*
X551554D01*
X516502D02*
X524630D01*
X496182D02*
X500754D01*
X463670D02*
X478910D01*
X420490D02*
X446398D01*
X686174Y-307448D02*
X720210D01*
X661790D02*
X670934D01*
X637406D02*
X646550D01*
X614546D02*
X622166D01*
X567302D02*
X574922D01*
X545966D02*
X551554D01*
X516502D02*
X524630D01*
X496182D02*
X501262D01*
X463670D02*
X478910D01*
X420490D02*
X446398D01*
X686682Y-306940D02*
X720210D01*
X662298D02*
X670934D01*
X637914D02*
X646550D01*
X614546D02*
X622166D01*
X567302D02*
X574922D01*
X545966D02*
X552062D01*
X516502D02*
X524630D01*
X496182D02*
X501262D01*
X464178D02*
X478910D01*
X420490D02*
X446906D01*
X686682Y-306432D02*
X720210D01*
X662298D02*
X671442D01*
X637914D02*
X646550D01*
X614546D02*
X622166D01*
X567810D02*
X574922D01*
X546474D02*
X552062D01*
X517010D02*
X524630D01*
X496182D02*
X501262D01*
X464178D02*
X478910D01*
X420490D02*
X446906D01*
X687190Y-305924D02*
X720210D01*
X662298D02*
X671442D01*
X637914D02*
X647058D01*
X614546D02*
X622166D01*
X567810D02*
X574922D01*
X546474D02*
X552062D01*
X517010D02*
X524630D01*
X496182D02*
X501262D01*
X464686D02*
X478910D01*
X420490D02*
X447414D01*
X687190Y-305416D02*
X720210D01*
X662298D02*
X671442D01*
X637914D02*
X647058D01*
X615054D02*
X622674D01*
X567810D02*
X574922D01*
X546474D02*
X552062D01*
X517010D02*
X524630D01*
X496182D02*
X501770D01*
X464686D02*
X478910D01*
X420490D02*
X447414D01*
X687190Y-304908D02*
X720210D01*
X662806D02*
X671442D01*
X638422D02*
X647058D01*
X615054D02*
X622674D01*
X567810D02*
X574922D01*
X546474D02*
X552570D01*
X517010D02*
X524630D01*
X496182D02*
X501770D01*
X465194D02*
X478910D01*
X420490D02*
X447922D01*
X687190Y-304400D02*
X720210D01*
X662806D02*
X671950D01*
X638422D02*
X647058D01*
X615054D02*
X622674D01*
X568318D02*
X574922D01*
X546982D02*
X552570D01*
X517518D02*
X524630D01*
X496182D02*
X501770D01*
X465194D02*
X478910D01*
X420490D02*
X447922D01*
X687698Y-303892D02*
X720210D01*
X662806D02*
X671950D01*
X638422D02*
X647566D01*
X615054D02*
X622674D01*
X568318D02*
X575430D01*
X546982D02*
X552570D01*
X517518D02*
X524630D01*
X496182D02*
X501770D01*
X465702D02*
X478910D01*
X420490D02*
X448430D01*
X687698Y-303384D02*
X720210D01*
X662806D02*
X671950D01*
X638422D02*
X647566D01*
X615562D02*
X623182D01*
X592702D02*
X597782D01*
X568318D02*
X575430D01*
X541902D02*
X552570D01*
X517518D02*
X525138D01*
X496182D02*
X502278D01*
X420490D02*
X448430D01*
X687698Y-302876D02*
X720210D01*
X663314D02*
X671950D01*
X638930D02*
X647566D01*
X615562D02*
X623182D01*
X592194D02*
X598798D01*
X568318D02*
X575430D01*
X541394D02*
X553078D01*
X517518D02*
X525138D01*
X496182D02*
X502278D01*
X420490D02*
X448938D01*
X687698Y-302368D02*
X720210D01*
X663314D02*
X672458D01*
X638930D02*
X647566D01*
X615562D02*
X623182D01*
X592194D02*
X599306D01*
X568826D02*
X575430D01*
X541394D02*
X553078D01*
X518026D02*
X525138D01*
X496182D02*
X502278D01*
X420490D02*
X449446D01*
X688206Y-301860D02*
X720210D01*
X663314D02*
X672458D01*
X638930D02*
X648074D01*
X615562D02*
X623182D01*
X591686D02*
X599814D01*
X568826D02*
X575938D01*
X540886D02*
X553078D01*
X518026D02*
X525138D01*
X496182D02*
X502278D01*
X420490D02*
X449446D01*
X688206Y-301352D02*
X720210D01*
X663314D02*
X672458D01*
X638930D02*
X648074D01*
X616070D02*
X623690D01*
X591686D02*
X599814D01*
X568826D02*
X575938D01*
X541394D02*
X553078D01*
X518026D02*
X525646D01*
X495674D02*
X502786D01*
X420490D02*
X449954D01*
X688206Y-300844D02*
X720210D01*
X663822D02*
X672458D01*
X639438D02*
X648074D01*
X616070D02*
X623690D01*
X591686D02*
X600322D01*
X568826D02*
X575938D01*
X541394D02*
X553586D01*
X518026D02*
X525646D01*
X495674D02*
X502786D01*
X420490D02*
X449954D01*
X688206Y-300336D02*
X720210D01*
X663822D02*
X672966D01*
X639438D02*
X648074D01*
X616070D02*
X623690D01*
X591686D02*
X600322D01*
X569334D02*
X575938D01*
X541394D02*
X553586D01*
X518534D02*
X525646D01*
X495674D02*
X502786D01*
X420490D02*
X450462D01*
X688714Y-299828D02*
X720210D01*
X663822D02*
X672966D01*
X639438D02*
X648582D01*
X616070D02*
X623690D01*
X591686D02*
X600830D01*
X569334D02*
X576446D01*
X541394D02*
X553586D01*
X518534D02*
X525646D01*
X495674D02*
X502786D01*
X420490D02*
X450462D01*
X688714Y-299320D02*
X720210D01*
X663822D02*
X672966D01*
X639438D02*
X648582D01*
X616578D02*
X624198D01*
X592194D02*
X600830D01*
X569334D02*
X576446D01*
X541394D02*
X553586D01*
X518534D02*
X526154D01*
X495674D02*
X503294D01*
X420490D02*
X450970D01*
X688714Y-298812D02*
X720210D01*
X664330D02*
X672966D01*
X639946D02*
X648582D01*
X616578D02*
X624198D01*
X592194D02*
X600830D01*
X569334D02*
X576446D01*
X541902D02*
X554094D01*
X518534D02*
X526154D01*
X495674D02*
X503294D01*
X420490D02*
X450970D01*
X688714Y-298304D02*
X720210D01*
X664330D02*
X673474D01*
X639946D02*
X648582D01*
X616578D02*
X624198D01*
X592194D02*
X600830D01*
X569842D02*
X576446D01*
X541902D02*
X554094D01*
X519042D02*
X526154D01*
X495674D02*
X503294D01*
X420490D02*
X451478D01*
X689222Y-297796D02*
X720210D01*
X664330D02*
X673474D01*
X639946D02*
X649090D01*
X616578D02*
X624198D01*
X592194D02*
X601338D01*
X569842D02*
X576954D01*
X541902D02*
X554094D01*
X519042D02*
X526154D01*
X495674D02*
X503294D01*
X420490D02*
X451478D01*
X689222Y-297288D02*
X720210D01*
X664330D02*
X673474D01*
X639946D02*
X649090D01*
X617086D02*
X624706D01*
X592702D02*
X601338D01*
X569842D02*
X576954D01*
X541902D02*
X554094D01*
X519042D02*
X526662D01*
X495674D02*
X503802D01*
X420490D02*
X451986D01*
X689222Y-296780D02*
X720210D01*
X664838D02*
X673474D01*
X640454D02*
X649090D01*
X617086D02*
X624706D01*
X592702D02*
X601338D01*
X569842D02*
X576954D01*
X542410D02*
X554602D01*
X519042D02*
X526662D01*
X495674D02*
X503802D01*
X420490D02*
X451986D01*
X689222Y-296272D02*
X720210D01*
X664838D02*
X673982D01*
X640454D02*
X649090D01*
X617086D02*
X624706D01*
X592702D02*
X601338D01*
X570350D02*
X576954D01*
X542410D02*
X554602D01*
X519550D02*
X526662D01*
X495674D02*
X503802D01*
X420490D02*
X452494D01*
X689730Y-295764D02*
X720210D01*
X664838D02*
X673982D01*
X640454D02*
X649598D01*
X617086D02*
X624706D01*
X592702D02*
X601846D01*
X570350D02*
X577462D01*
X542410D02*
X554602D01*
X519550D02*
X526662D01*
X495674D02*
X503802D01*
X420490D02*
X452494D01*
X689730Y-295256D02*
X720210D01*
X664838D02*
X673982D01*
X640454D02*
X649598D01*
X617594D02*
X625214D01*
X593210D02*
X601846D01*
X570350D02*
X577462D01*
X542410D02*
X554602D01*
X519550D02*
X527170D01*
X495674D02*
X504310D01*
X420490D02*
X453002D01*
X689730Y-294748D02*
X720210D01*
X665346D02*
X673982D01*
X640962D02*
X649598D01*
X617594D02*
X625214D01*
X593210D02*
X601846D01*
X570350D02*
X577462D01*
X542918D02*
X555110D01*
X519550D02*
X527170D01*
X495674D02*
X504310D01*
X420490D02*
X453510D01*
X689730Y-294240D02*
X720210D01*
X665346D02*
X674490D01*
X640962D02*
X649598D01*
X617594D02*
X625214D01*
X593210D02*
X601846D01*
X570858D02*
X577462D01*
X542918D02*
X555110D01*
X520058D02*
X527170D01*
X495674D02*
X504310D01*
X420490D02*
X453510D01*
X690238Y-293732D02*
X720210D01*
X665346D02*
X674490D01*
X640962D02*
X650106D01*
X617594D02*
X625214D01*
X593210D02*
X602354D01*
X570858D02*
X577970D01*
X542918D02*
X555110D01*
X520058D02*
X527170D01*
X495674D02*
X504310D01*
X420490D02*
X454018D01*
X690238Y-293224D02*
X720210D01*
X665346D02*
X674490D01*
X640962D02*
X650106D01*
X618102D02*
X625722D01*
X593718D02*
X602354D01*
X570858D02*
X577970D01*
X542918D02*
X555110D01*
X520058D02*
X527678D01*
X495674D02*
X504818D01*
X420490D02*
X454018D01*
X690238Y-292716D02*
X720210D01*
X665854D02*
X674490D01*
X641470D02*
X650106D01*
X618102D02*
X625722D01*
X593718D02*
X602354D01*
X570858D02*
X577970D01*
X543426D02*
X555618D01*
X520058D02*
X527678D01*
X495674D02*
X504818D01*
X470274D02*
X479418D01*
X420490D02*
X454526D01*
X690238Y-292208D02*
X720210D01*
X665854D02*
X674998D01*
X641470D02*
X650106D01*
X618102D02*
X625722D01*
X593718D02*
X602354D01*
X571366D02*
X577970D01*
X543426D02*
X555618D01*
X520566D02*
X527678D01*
X495674D02*
X504818D01*
X470782D02*
X479418D01*
X420490D02*
X454526D01*
X690746Y-291700D02*
X720210D01*
X665854D02*
X674998D01*
X641470D02*
X650614D01*
X618102D02*
X625722D01*
X593718D02*
X602862D01*
X571366D02*
X578478D01*
X543426D02*
X555618D01*
X520566D02*
X527678D01*
X495674D02*
X504818D01*
X470782D02*
X479418D01*
X420490D02*
X455034D01*
X690746Y-291192D02*
X720210D01*
X665854D02*
X674998D01*
X641470D02*
X650614D01*
X618610D02*
X626230D01*
X594226D02*
X602862D01*
X571366D02*
X578478D01*
X543426D02*
X555618D01*
X520566D02*
X528186D01*
X495674D02*
X505326D01*
X471290D02*
X479418D01*
X420490D02*
X455034D01*
X690746Y-290684D02*
X720210D01*
X666362D02*
X674998D01*
X641978D02*
X650614D01*
X618610D02*
X626230D01*
X594226D02*
X602862D01*
X571366D02*
X578478D01*
X543934D02*
X556126D01*
X520566D02*
X528186D01*
X495674D02*
X505326D01*
X471290D02*
X479418D01*
X420490D02*
X455542D01*
X690746Y-290176D02*
X720210D01*
X666362D02*
X675506D01*
X641978D02*
X650614D01*
X618610D02*
X626230D01*
X594226D02*
X602862D01*
X571874D02*
X578478D01*
X543934D02*
X556126D01*
X521074D02*
X528186D01*
X495674D02*
X505326D01*
X471798D02*
X479418D01*
X420490D02*
X455542D01*
X691254Y-289668D02*
X720210D01*
X666362D02*
X675506D01*
X641978D02*
X651122D01*
X618610D02*
X626230D01*
X594226D02*
X603370D01*
X571874D02*
X578986D01*
X543934D02*
X556126D01*
X521074D02*
X528186D01*
X495674D02*
X505326D01*
X471798D02*
X479418D01*
X420490D02*
X456050D01*
X691254Y-289160D02*
X720210D01*
X666362D02*
X675506D01*
X641978D02*
X651122D01*
X619118D02*
X626738D01*
X594734D02*
X603370D01*
X571874D02*
X578986D01*
X543934D02*
X556126D01*
X521074D02*
X528694D01*
X495674D02*
X505834D01*
X471798D02*
X479926D01*
X420490D02*
X456050D01*
X691254Y-288652D02*
X720210D01*
X666870D02*
X675506D01*
X642486D02*
X651122D01*
X619118D02*
X626738D01*
X594734D02*
X603370D01*
X571874D02*
X578986D01*
X544442D02*
X556634D01*
X521074D02*
X528694D01*
X495674D02*
X505834D01*
X472306D02*
X479926D01*
X420490D02*
X456558D01*
X691254Y-288144D02*
X720210D01*
X666870D02*
X676014D01*
X642486D02*
X651122D01*
X619118D02*
X626738D01*
X594734D02*
X603370D01*
X572382D02*
X578986D01*
X544442D02*
X556634D01*
X521582D02*
X528694D01*
X495166D02*
X505834D01*
X472306D02*
X479926D01*
X420490D02*
X457066D01*
X691762Y-287636D02*
X720210D01*
X666870D02*
X676014D01*
X642486D02*
X651630D01*
X619118D02*
X626738D01*
X594734D02*
X603878D01*
X572382D02*
X579494D01*
X544442D02*
X556634D01*
X521582D02*
X528694D01*
X495166D02*
X505834D01*
X472814D02*
X479926D01*
X420490D02*
X457066D01*
X691762Y-287128D02*
X720210D01*
X666870D02*
X676014D01*
X642486D02*
X651630D01*
X619626D02*
X627246D01*
X595242D02*
X603878D01*
X572382D02*
X579494D01*
X544442D02*
X556634D01*
X521582D02*
X529202D01*
X495166D02*
X506342D01*
X472814D02*
X479926D01*
X420490D02*
X457574D01*
X691762Y-286620D02*
X720210D01*
X667378D02*
X676014D01*
X642994D02*
X651630D01*
X619626D02*
X627246D01*
X595242D02*
X603878D01*
X572382D02*
X579494D01*
X544950D02*
X557142D01*
X521582D02*
X529202D01*
X495166D02*
X506342D01*
X473322D02*
X479926D01*
X420490D02*
X457574D01*
X691762Y-286112D02*
X720210D01*
X667378D02*
X676522D01*
X642994D02*
X651630D01*
X619626D02*
X627246D01*
X595242D02*
X603878D01*
X572890D02*
X579494D01*
X544950D02*
X557142D01*
X522090D02*
X529202D01*
X495166D02*
X506342D01*
X473322D02*
X479926D01*
X420490D02*
X458082D01*
X692270Y-285604D02*
X720210D01*
X667378D02*
X676522D01*
X642994D02*
X652138D01*
X619626D02*
X627246D01*
X595242D02*
X604386D01*
X572890D02*
X580002D01*
X544950D02*
X557142D01*
X522090D02*
X529710D01*
X495166D02*
X506342D01*
X473830D02*
X479926D01*
X420490D02*
X458082D01*
X692270Y-285096D02*
X720210D01*
X667886D02*
X676522D01*
X642994D02*
X652138D01*
X620134D02*
X627754D01*
X595750D02*
X604386D01*
X572890D02*
X580002D01*
X544950D02*
X557142D01*
X522090D02*
X529710D01*
X495166D02*
X506850D01*
X473830D02*
X479926D01*
X420490D02*
X458590D01*
X692270Y-284588D02*
X720210D01*
X667886D02*
X676522D01*
X643502D02*
X652138D01*
X620134D02*
X627754D01*
X595750D02*
X604386D01*
X572890D02*
X580002D01*
X545458D02*
X557650D01*
X522090D02*
X529710D01*
X495166D02*
X506850D01*
X474338D02*
X479926D01*
X420490D02*
X458590D01*
X692270Y-284080D02*
X720210D01*
X667886D02*
X676522D01*
X643502D02*
X652138D01*
X620134D02*
X627754D01*
X595750D02*
X604386D01*
X573398D02*
X580002D01*
X545458D02*
X557650D01*
X522598D02*
X529710D01*
X495166D02*
X506850D01*
X474338D02*
X479926D01*
X420490D02*
X459098D01*
X692778Y-283572D02*
X720210D01*
X668394D02*
X677030D01*
X644010D02*
X652138D01*
X620134D02*
X627754D01*
X595750D02*
X604894D01*
X573398D02*
X580510D01*
X545458D02*
X557650D01*
X522598D02*
X530218D01*
X495166D02*
X506850D01*
X474846D02*
X479926D01*
X420490D02*
X459098D01*
X692778Y-283064D02*
X720210D01*
X668394D02*
X676522D01*
X644010D02*
X652138D01*
X620642D02*
X628262D01*
X596258D02*
X604894D01*
X573398D02*
X580510D01*
X545458D02*
X557650D01*
X522598D02*
X530218D01*
X495166D02*
X507358D01*
X474846D02*
X479926D01*
X420490D02*
X459606D01*
X692778Y-282556D02*
X720210D01*
X668902D02*
X676522D01*
X644518D02*
X652138D01*
X620642D02*
X628262D01*
X596258D02*
X604894D01*
X573398D02*
X580510D01*
X545966D02*
X558158D01*
X522598D02*
X530218D01*
X495166D02*
X507358D01*
X474846D02*
X479926D01*
X420490D02*
X459606D01*
X692778Y-282048D02*
X720210D01*
X669410D02*
X676522D01*
X645026D02*
X652138D01*
X620642D02*
X628262D01*
X596258D02*
X604894D01*
X573906D02*
X580510D01*
X545966D02*
X558158D01*
X523106D02*
X530218D01*
X495166D02*
X507358D01*
X475354D02*
X479926D01*
X420490D02*
X460114D01*
X693286Y-281540D02*
X720210D01*
X669918D02*
X676014D01*
X645534D02*
X651630D01*
X620642D02*
X628262D01*
X596258D02*
X605402D01*
X573906D02*
X581018D01*
X545966D02*
X558158D01*
X523106D02*
X530726D01*
X495166D02*
X507358D01*
X475354D02*
X479926D01*
X420490D02*
X460114D01*
X693286Y-281032D02*
X720210D01*
X670934D02*
X675506D01*
X646550D02*
X651122D01*
X621150D02*
X628770D01*
X596766D02*
X605402D01*
X573906D02*
X581018D01*
X545966D02*
X558158D01*
X523106D02*
X530726D01*
X495166D02*
X507866D01*
X475862D02*
X479926D01*
X420490D02*
X460622D01*
X693286Y-280524D02*
X720210D01*
X621150D02*
X628770D01*
X596766D02*
X605402D01*
X573906D02*
X581018D01*
X552570D02*
X558666D01*
X523106D02*
X530726D01*
X495166D02*
X507866D01*
X475862D02*
X479926D01*
X420490D02*
X461130D01*
X693286Y-280016D02*
X720210D01*
X621150D02*
X628770D01*
X596766D02*
X605402D01*
X574414D02*
X581018D01*
X553078D02*
X558666D01*
X523614D02*
X530726D01*
X495166D02*
X507866D01*
X476370D02*
X480434D01*
X420490D02*
X461130D01*
X693286Y-279508D02*
X720210D01*
X621150D02*
X628770D01*
X596766D02*
X605910D01*
X574414D02*
X581526D01*
X553078D02*
X558666D01*
X523614D02*
X531234D01*
X495166D02*
X507866D01*
X476370D02*
X480434D01*
X420490D02*
X461638D01*
X693794Y-279000D02*
X720210D01*
X621658D02*
X629278D01*
X597274D02*
X605910D01*
X574414D02*
X581526D01*
X553078D02*
X558666D01*
X523614D02*
X531234D01*
X495166D02*
X508374D01*
X476878D02*
X480434D01*
X420490D02*
X461638D01*
X693794Y-278492D02*
X720210D01*
X621658D02*
X629278D01*
X597274D02*
X605910D01*
X574414D02*
X581526D01*
X553078D02*
X559174D01*
X523614D02*
X531234D01*
X495166D02*
X508374D01*
X476878D02*
X480434D01*
X420490D02*
X462146D01*
X693794Y-277984D02*
X720210D01*
X621658D02*
X629278D01*
X597274D02*
X605910D01*
X574922D02*
X581526D01*
X553586D02*
X559174D01*
X524122D02*
X531234D01*
X495166D02*
X508374D01*
X477386D02*
X480434D01*
X420490D02*
X462146D01*
X693794Y-277476D02*
X720210D01*
X621658D02*
X629278D01*
X597274D02*
X606418D01*
X574922D02*
X582034D01*
X553586D02*
X559174D01*
X524122D02*
X531742D01*
X495166D02*
X508374D01*
X477386D02*
X480434D01*
X420490D02*
X462654D01*
X693794Y-276968D02*
X720210D01*
X622166D02*
X629786D01*
X597782D02*
X606418D01*
X574922D02*
X582034D01*
X553586D02*
X559174D01*
X524122D02*
X531742D01*
X495166D02*
X508882D01*
X477386D02*
X480434D01*
X420490D02*
X462654D01*
X693794Y-276460D02*
X720210D01*
X622166D02*
X629786D01*
X597782D02*
X606418D01*
X574922D02*
X582034D01*
X553586D02*
X559682D01*
X524122D02*
X531742D01*
X495166D02*
X508882D01*
X477894D02*
X480434D01*
X420490D02*
X463162D01*
X693286Y-275952D02*
X720210D01*
X669410D02*
X669918D01*
X645534D02*
X646042D01*
X622166D02*
X629786D01*
X597782D02*
X606418D01*
X575430D02*
X582034D01*
X554094D02*
X559682D01*
X524630D02*
X531742D01*
X495166D02*
X508882D01*
X477894D02*
X480434D01*
X420490D02*
X463162D01*
X693286Y-275444D02*
X720210D01*
X668902D02*
X670426D01*
X645534D02*
X646550D01*
X622166D02*
X629786D01*
X597782D02*
X606926D01*
X575430D02*
X582542D01*
X554094D02*
X559682D01*
X524630D02*
X532250D01*
X495166D02*
X508882D01*
X478402D02*
X480434D01*
X420490D02*
X463670D01*
X693286Y-274936D02*
X720210D01*
X668902D02*
X670934D01*
X646042D02*
X647058D01*
X622674D02*
X630294D01*
X598290D02*
X606926D01*
X575430D02*
X582542D01*
X554094D02*
X559682D01*
X524630D02*
X532250D01*
X495166D02*
X509390D01*
X478402D02*
X480434D01*
X420490D02*
X463670D01*
X693286Y-274428D02*
X720210D01*
X668902D02*
X671442D01*
X646042D02*
X647566D01*
X622674D02*
X630294D01*
X598290D02*
X606926D01*
X575430D02*
X582542D01*
X554094D02*
X560190D01*
X524630D02*
X532250D01*
X494658D02*
X509390D01*
X478910D02*
X480434D01*
X420490D02*
X464178D01*
X692778Y-273920D02*
X720210D01*
X668394D02*
X671950D01*
X646042D02*
X648074D01*
X622674D02*
X630294D01*
X598290D02*
X606926D01*
X575938D02*
X582542D01*
X554602D02*
X560190D01*
X525138D02*
X532250D01*
X494658D02*
X509390D01*
X478910D02*
X480434D01*
X420490D02*
X464686D01*
X692778Y-273412D02*
X720210D01*
X667886D02*
X672458D01*
X646042D02*
X648582D01*
X622674D02*
X630294D01*
X598290D02*
X607434D01*
X575938D02*
X583050D01*
X554602D02*
X560190D01*
X525138D02*
X532758D01*
X494658D02*
X509390D01*
X479418D02*
X480434D01*
X420490D02*
X464686D01*
X692270Y-272904D02*
X720210D01*
X667886D02*
X673474D01*
X646550D02*
X649598D01*
X623182D02*
X630802D01*
X598798D02*
X607434D01*
X575938D02*
X583050D01*
X554602D02*
X560190D01*
X525138D02*
X532758D01*
X494658D02*
X509898D01*
X479418D02*
X480434D01*
X420490D02*
X465194D01*
X691762Y-272396D02*
X720210D01*
X667378D02*
X674490D01*
X646550D02*
X650106D01*
X623182D02*
X630802D01*
X598798D02*
X607434D01*
X575938D02*
X583050D01*
X554602D02*
X560698D01*
X525646D02*
X532758D01*
X494658D02*
X509898D01*
X479926D02*
X480434D01*
X420490D02*
X465194D01*
X690746Y-271888D02*
X720210D01*
X666362D02*
X675506D01*
X646550D02*
X651122D01*
X623182D02*
X630802D01*
X598798D02*
X607434D01*
X576446D02*
X583050D01*
X555110D02*
X560698D01*
X525646D02*
X532758D01*
X494658D02*
X509898D01*
X479926D02*
X480434D01*
X420490D02*
X465702D01*
X689730Y-271380D02*
X720210D01*
X665854D02*
X676522D01*
X555110D02*
X652138D01*
X525646D02*
X533266D01*
X494658D02*
X509898D01*
X420490D02*
X465702D01*
X688714Y-270872D02*
X720210D01*
X664330D02*
X678046D01*
X548506D02*
X653662D01*
X525646D02*
X533266D01*
X494658D02*
X510406D01*
X420490D02*
X466210D01*
X686174Y-270364D02*
X720210D01*
X662298D02*
X681094D01*
X549014D02*
X656710D01*
X526154D02*
X533266D01*
X494658D02*
X510406D01*
X420490D02*
X466210D01*
X549014Y-269856D02*
X720210D01*
X526154D02*
X533266D01*
X494658D02*
X510406D01*
X420490D02*
X466718D01*
X549014Y-269348D02*
X720210D01*
X526154D02*
X533774D01*
X494658D02*
X510406D01*
X420490D02*
X466718D01*
X549014Y-268840D02*
X720210D01*
X526154D02*
X533774D01*
X494658D02*
X510914D01*
X420490D02*
X467226D01*
X549522Y-268332D02*
X720210D01*
X526662D02*
X533774D01*
X494658D02*
X510914D01*
X420490D02*
X467226D01*
X549522Y-267824D02*
X720210D01*
X526662D02*
X533774D01*
X494658D02*
X510914D01*
X420490D02*
X467734D01*
X549522Y-267316D02*
X720210D01*
X526662D02*
X534282D01*
X494658D02*
X510914D01*
X420490D02*
X468242D01*
X549522Y-266808D02*
X720210D01*
X526662D02*
X534282D01*
X494658D02*
X510914D01*
X420490D02*
X468242D01*
X550030Y-266300D02*
X720210D01*
X527170D02*
X534282D01*
X494658D02*
X511422D01*
X420490D02*
X468750D01*
X550030Y-265792D02*
X720210D01*
X527170D02*
X534282D01*
X494658D02*
X511422D01*
X420490D02*
X469258D01*
X550030Y-265284D02*
X720210D01*
X527170D02*
X534790D01*
X494658D02*
X511422D01*
X420490D02*
X469766D01*
X550538Y-264776D02*
X720210D01*
X527170D02*
X534790D01*
X494658D02*
X511422D01*
X420490D02*
X470274D01*
X550538Y-264268D02*
X720210D01*
X527678D02*
X534790D01*
X494658D02*
X511930D01*
X420490D02*
X470782D01*
X550538Y-263760D02*
X720210D01*
X527678D02*
X534790D01*
X494658D02*
X511930D01*
X420490D02*
X471290D01*
X550538Y-263252D02*
X720210D01*
X527678D02*
X535298D01*
X494658D02*
X511930D01*
X420490D02*
X471798D01*
X551046Y-262744D02*
X720210D01*
X527678D02*
X535298D01*
X494658D02*
X511930D01*
X420490D02*
X472306D01*
X551046Y-262236D02*
X720210D01*
X528186D02*
X535298D01*
X494658D02*
X512438D01*
X420490D02*
X472814D01*
X551046Y-261728D02*
X720210D01*
X528186D02*
X535298D01*
X494658D02*
X512438D01*
X420490D02*
X473830D01*
X551046Y-261220D02*
X720210D01*
X528186D02*
X535806D01*
X494150D02*
X512438D01*
X420490D02*
X474338D01*
X551554Y-260712D02*
X720210D01*
X528186D02*
X535806D01*
X494150D02*
X512438D01*
X420490D02*
X475354D01*
X551554Y-260204D02*
X720210D01*
X528694D02*
X535806D01*
X494150D02*
X512946D01*
X420490D02*
X476370D01*
X551554Y-259696D02*
X720210D01*
X528694D02*
X535806D01*
X494150D02*
X512946D01*
X420490D02*
X477386D01*
X551554Y-259188D02*
X720210D01*
X528694D02*
X536314D01*
X494150D02*
X512946D01*
X420490D02*
X478910D01*
X552062Y-258680D02*
X720210D01*
X528694D02*
X536314D01*
X494150D02*
X512946D01*
X420490D02*
X480434D01*
X529202Y-258172D02*
X720210D01*
X494150D02*
X513454D01*
X420490D02*
X483482D01*
X420490Y-257664D02*
X720210D01*
X420998Y-257156D02*
X720210D01*
X420998Y-256648D02*
X720210D01*
X420998Y-256140D02*
X720210D01*
X420998Y-255632D02*
X720210D01*
X421506Y-255124D02*
X720210D01*
X421506Y-254616D02*
X720210D01*
X421506Y-254108D02*
X720210D01*
X422014Y-253600D02*
X720210D01*
X422014Y-253092D02*
X720210D01*
X422522Y-252584D02*
X720210D01*
X422522Y-252076D02*
X720210D01*
X423030Y-251568D02*
X720210D01*
X423030Y-251060D02*
X720210D01*
X423030Y-250552D02*
X720210D01*
X423538Y-250044D02*
X720210D01*
X424046Y-249536D02*
X720210D01*
X424046Y-249028D02*
X720210D01*
X424554Y-248520D02*
X720210D01*
X424554Y-248012D02*
X720210D01*
X425062Y-247504D02*
X720210D01*
X425570Y-246996D02*
X720210D01*
X426078Y-246488D02*
X720210D01*
X426078Y-245980D02*
X720210D01*
X426586Y-245472D02*
X720210D01*
X427094Y-244964D02*
X720210D01*
X427602Y-244456D02*
X720210D01*
X428110Y-243948D02*
X720210D01*
X428110Y-243440D02*
X720210D01*
X428618Y-242932D02*
X720210D01*
X429126Y-242424D02*
X720210D01*
X429634Y-241916D02*
X720210D01*
X430142Y-241408D02*
X720210D01*
X430650Y-240900D02*
X720210D01*
X431666Y-240392D02*
X720210D01*
X432174Y-239884D02*
X720210D01*
X432682Y-239376D02*
X720210D01*
X433190Y-238868D02*
X720210D01*
X434206Y-238360D02*
X720210D01*
X434714Y-237852D02*
X720210D01*
X435730Y-237344D02*
X720210D01*
X436746Y-236836D02*
X720210D01*
X437762Y-236328D02*
X720210D01*
X438778Y-235820D02*
X720210D01*
X439794Y-235312D02*
X720210D01*
X441318Y-234804D02*
X720210D01*
X442842Y-234296D02*
X720210D01*
X444366Y-233788D02*
X720210D01*
X447414Y-233280D02*
X720210D01*
M02*
