G04 Layer_Color=8388736*
%FSLAX44Y44*%
%MOMM*%
G71*
G01*
G75*
%ADD80R,0.9032X1.1032*%
%ADD81R,1.9032X1.3032*%
%ADD82R,1.3032X1.9032*%
%ADD83R,1.1032X0.9032*%
%ADD84R,0.8032X0.5032*%
%ADD85R,0.5032X0.8032*%
%ADD86R,1.7532X1.5032*%
%ADD87R,0.9032X1.6032*%
%ADD88R,0.8032X0.7032*%
%ADD89R,0.8032X0.7532*%
%ADD90R,1.1532X1.2032*%
%ADD91R,1.3532X1.6532*%
%ADD92R,1.0032X0.8032*%
%ADD93R,0.8032X0.7032*%
%ADD94R,0.7032X0.8032*%
%ADD95R,1.8034X1.4732*%
%ADD96R,0.5842X0.8128*%
%ADD97R,1.4732X1.8034*%
%ADD98R,0.8032X1.0032*%
%ADD99R,1.2032X1.1532*%
%ADD100R,1.3532X1.6032*%
%ADD101R,2.9016X2.9016*%
%ADD102O,0.7016X0.3016*%
%ADD103O,0.3016X0.7016*%
%ADD104R,1.3032X1.6032*%
%ADD105R,1.6032X1.3032*%
%ADD106R,1.1032X1.0032*%
%ADD107R,1.7032X1.7032*%
%ADD108R,1.7032X1.7032*%
%ADD109C,1.7032*%
%ADD110C,1.1600*%
%ADD111R,1.1600X1.1600*%
%ADD112C,1.7272*%
%ADD113O,2.2032X1.2032*%
%ADD114O,2.2032X1.2032*%
%ADD115C,0.8032*%
%ADD116C,0.6032*%
%ADD117C,3.2032*%
G36*
X484743Y572024D02*
X479949D01*
Y588756D01*
X484743D01*
Y572024D01*
D02*
G37*
G36*
X479917D02*
X475123D01*
Y588756D01*
X479917D01*
Y572024D01*
D02*
G37*
G36*
X474837D02*
X470043D01*
Y588756D01*
X474837D01*
Y572024D01*
D02*
G37*
G36*
X489823D02*
X485029D01*
Y588756D01*
X489823D01*
Y572024D01*
D02*
G37*
G36*
X504809D02*
X500015D01*
Y588756D01*
X504809D01*
Y572024D01*
D02*
G37*
G36*
X499729D02*
X494935D01*
Y588756D01*
X499729D01*
Y572024D01*
D02*
G37*
G36*
X494903D02*
X490109D01*
Y588756D01*
X494903D01*
Y572024D01*
D02*
G37*
G36*
X449691D02*
X444897D01*
Y588756D01*
X449691D01*
Y572024D01*
D02*
G37*
G36*
X444865D02*
X440071D01*
Y588756D01*
X444865D01*
Y572024D01*
D02*
G37*
G36*
X439785D02*
X434991D01*
Y588756D01*
X439785D01*
Y572024D01*
D02*
G37*
G36*
X454771D02*
X449977D01*
Y588756D01*
X454771D01*
Y572024D01*
D02*
G37*
G36*
X469757D02*
X464963D01*
Y588756D01*
X469757D01*
Y572024D01*
D02*
G37*
G36*
X464677D02*
X459883D01*
Y588756D01*
X464677D01*
Y572024D01*
D02*
G37*
G36*
X459851D02*
X455057D01*
Y588756D01*
X459851D01*
Y572024D01*
D02*
G37*
G36*
X410956Y612791D02*
X394224D01*
Y617585D01*
X410956D01*
Y612791D01*
D02*
G37*
G36*
X545576Y607711D02*
X528844D01*
Y612505D01*
X545576D01*
Y607711D01*
D02*
G37*
G36*
X410956D02*
X394224D01*
Y612505D01*
X410956D01*
Y607711D01*
D02*
G37*
G36*
X545576Y612791D02*
X528844D01*
Y617585D01*
X545576D01*
Y612791D01*
D02*
G37*
G36*
X410956Y622697D02*
X394224D01*
Y627491D01*
X410956D01*
Y622697D01*
D02*
G37*
G36*
X545576Y617871D02*
X528844D01*
Y622665D01*
X545576D01*
Y617871D01*
D02*
G37*
G36*
X410956D02*
X394224D01*
Y622665D01*
X410956D01*
Y617871D01*
D02*
G37*
G36*
X519795Y572024D02*
X515001D01*
Y588756D01*
X519795D01*
Y572024D01*
D02*
G37*
G36*
X514715D02*
X509921D01*
Y588756D01*
X514715D01*
Y572024D01*
D02*
G37*
G36*
X509889D02*
X505095D01*
Y588756D01*
X509889D01*
Y572024D01*
D02*
G37*
G36*
X410956Y597805D02*
X394224D01*
Y602599D01*
X410956D01*
Y597805D01*
D02*
G37*
G36*
X545576Y602885D02*
X528844D01*
Y607679D01*
X545576D01*
Y602885D01*
D02*
G37*
G36*
X410956D02*
X394224D01*
Y607679D01*
X410956D01*
Y602885D01*
D02*
G37*
G36*
X545576Y597805D02*
X528844D01*
Y602599D01*
X545576D01*
Y597805D01*
D02*
G37*
G36*
X236618Y472382D02*
X228998D01*
Y475430D01*
X236618D01*
Y472382D01*
D02*
G37*
G36*
X261002Y467556D02*
X253382D01*
Y470604D01*
X261002D01*
Y467556D01*
D02*
G37*
G36*
X236618D02*
X228998D01*
Y470604D01*
X236618D01*
Y467556D01*
D02*
G37*
G36*
X261002Y472382D02*
X253382D01*
Y475430D01*
X261002D01*
Y472382D01*
D02*
G37*
G36*
X491096Y487080D02*
X486596D01*
Y495830D01*
X491096D01*
Y487080D01*
D02*
G37*
G36*
X486096D02*
X481596D01*
Y495830D01*
X486096D01*
Y487080D01*
D02*
G37*
G36*
X481096D02*
X476596D01*
Y495830D01*
X481096D01*
Y487080D01*
D02*
G37*
G36*
X251477Y453459D02*
X238523D01*
Y474541D01*
X251477D01*
Y453459D01*
D02*
G37*
G36*
X261002Y452570D02*
X253382D01*
Y455618D01*
X261002D01*
Y452570D01*
D02*
G37*
G36*
X236618D02*
X228998D01*
Y455618D01*
X236618D01*
Y452570D01*
D02*
G37*
G36*
Y457396D02*
X228998D01*
Y460444D01*
X236618D01*
Y457396D01*
D02*
G37*
G36*
X261002Y462476D02*
X253382D01*
Y465524D01*
X261002D01*
Y462476D01*
D02*
G37*
G36*
X236618D02*
X228998D01*
Y465524D01*
X236618D01*
Y462476D01*
D02*
G37*
G36*
X261002Y457396D02*
X253382D01*
Y460444D01*
X261002D01*
Y457396D01*
D02*
G37*
G36*
X486096Y507330D02*
X481596D01*
Y516080D01*
X486096D01*
Y507330D01*
D02*
G37*
G36*
X481096D02*
X476596D01*
Y516080D01*
X481096D01*
Y507330D01*
D02*
G37*
G36*
X500846Y506830D02*
X492096D01*
Y511330D01*
X500846D01*
Y506830D01*
D02*
G37*
G36*
X491096Y507330D02*
X486596D01*
Y516080D01*
X491096D01*
Y507330D01*
D02*
G37*
G36*
X434705Y572024D02*
X429911D01*
Y588756D01*
X434705D01*
Y572024D01*
D02*
G37*
G36*
X429879D02*
X425085D01*
Y588756D01*
X429879D01*
Y572024D01*
D02*
G37*
G36*
X424799D02*
X420005D01*
Y588756D01*
X424799D01*
Y572024D01*
D02*
G37*
G36*
X475596Y496830D02*
X466846D01*
Y501330D01*
X475596D01*
Y496830D01*
D02*
G37*
G36*
X500846Y491830D02*
X492096D01*
Y496330D01*
X500846D01*
Y491830D01*
D02*
G37*
G36*
X475596D02*
X466846D01*
Y496330D01*
X475596D01*
Y491830D01*
D02*
G37*
G36*
X500846Y496830D02*
X492096D01*
Y501330D01*
X500846D01*
Y496830D01*
D02*
G37*
G36*
X475596Y506830D02*
X466846D01*
Y511330D01*
X475596D01*
Y506830D01*
D02*
G37*
G36*
X500846Y501830D02*
X492096D01*
Y506330D01*
X500846D01*
Y501830D01*
D02*
G37*
G36*
X475596D02*
X466846D01*
Y506330D01*
X475596D01*
Y501830D01*
D02*
G37*
G36*
X545576Y622697D02*
X528844D01*
Y627491D01*
X545576D01*
Y622697D01*
D02*
G37*
G36*
X469757Y706644D02*
X464963D01*
Y723376D01*
X469757D01*
Y706644D01*
D02*
G37*
G36*
X464677D02*
X459883D01*
Y723376D01*
X464677D01*
Y706644D01*
D02*
G37*
G36*
X459851D02*
X455057D01*
Y723376D01*
X459851D01*
Y706644D01*
D02*
G37*
G36*
X474837D02*
X470043D01*
Y723376D01*
X474837D01*
Y706644D01*
D02*
G37*
G36*
X489823D02*
X485029D01*
Y723376D01*
X489823D01*
Y706644D01*
D02*
G37*
G36*
X484743D02*
X479949D01*
Y723376D01*
X484743D01*
Y706644D01*
D02*
G37*
G36*
X479917D02*
X475123D01*
Y723376D01*
X479917D01*
Y706644D01*
D02*
G37*
G36*
X434705D02*
X429911D01*
Y723376D01*
X434705D01*
Y706644D01*
D02*
G37*
G36*
X429879D02*
X425085D01*
Y723376D01*
X429879D01*
Y706644D01*
D02*
G37*
G36*
X424799D02*
X420005D01*
Y723376D01*
X424799D01*
Y706644D01*
D02*
G37*
G36*
X439785D02*
X434991D01*
Y723376D01*
X439785D01*
Y706644D01*
D02*
G37*
G36*
X454771D02*
X449977D01*
Y723376D01*
X454771D01*
Y706644D01*
D02*
G37*
G36*
X449691D02*
X444897D01*
Y723376D01*
X449691D01*
Y706644D01*
D02*
G37*
G36*
X444865D02*
X440071D01*
Y723376D01*
X444865D01*
Y706644D01*
D02*
G37*
G36*
X563000Y836750D02*
X553000D01*
Y842250D01*
X563000D01*
Y836750D01*
D02*
G37*
G36*
X544000D02*
X534000D01*
Y842250D01*
X544000D01*
Y836750D01*
D02*
G37*
G36*
X563000Y830250D02*
X553000D01*
Y835750D01*
X563000D01*
Y830250D01*
D02*
G37*
G36*
X544000Y843250D02*
X534000D01*
Y848750D01*
X544000D01*
Y843250D01*
D02*
G37*
G36*
X563000Y849750D02*
X553000D01*
Y855250D01*
X563000D01*
Y849750D01*
D02*
G37*
G36*
X544000D02*
X534000D01*
Y855250D01*
X544000D01*
Y849750D01*
D02*
G37*
G36*
X563000Y843250D02*
X553000D01*
Y848750D01*
X563000D01*
Y843250D01*
D02*
G37*
G36*
X504809Y706644D02*
X500015D01*
Y723376D01*
X504809D01*
Y706644D01*
D02*
G37*
G36*
X499729D02*
X494935D01*
Y723376D01*
X499729D01*
Y706644D01*
D02*
G37*
G36*
X494903D02*
X490109D01*
Y723376D01*
X494903D01*
Y706644D01*
D02*
G37*
G36*
X509889D02*
X505095D01*
Y723376D01*
X509889D01*
Y706644D01*
D02*
G37*
G36*
X544000Y830250D02*
X534000D01*
Y835750D01*
X544000D01*
Y830250D01*
D02*
G37*
G36*
X519795Y706644D02*
X515001D01*
Y723376D01*
X519795D01*
Y706644D01*
D02*
G37*
G36*
X514715D02*
X509921D01*
Y723376D01*
X514715D01*
Y706644D01*
D02*
G37*
G36*
X545576Y647843D02*
X528844D01*
Y652637D01*
X545576D01*
Y647843D01*
D02*
G37*
G36*
X410956D02*
X394224D01*
Y652637D01*
X410956D01*
Y647843D01*
D02*
G37*
G36*
X545576Y642763D02*
X528844D01*
Y647557D01*
X545576D01*
Y642763D01*
D02*
G37*
G36*
X410956Y652923D02*
X394224D01*
Y657717D01*
X410956D01*
Y652923D01*
D02*
G37*
G36*
X545576Y657749D02*
X528844D01*
Y662543D01*
X545576D01*
Y657749D01*
D02*
G37*
G36*
X410956D02*
X394224D01*
Y662543D01*
X410956D01*
Y657749D01*
D02*
G37*
G36*
X545576Y652923D02*
X528844D01*
Y657717D01*
X545576D01*
Y652923D01*
D02*
G37*
G36*
X410956Y632857D02*
X394224D01*
Y637651D01*
X410956D01*
Y632857D01*
D02*
G37*
G36*
X545576Y627777D02*
X528844D01*
Y632571D01*
X545576D01*
Y627777D01*
D02*
G37*
G36*
X410956D02*
X394224D01*
Y632571D01*
X410956D01*
Y627777D01*
D02*
G37*
G36*
X545576Y632857D02*
X528844D01*
Y637651D01*
X545576D01*
Y632857D01*
D02*
G37*
G36*
X410956Y642763D02*
X394224D01*
Y647557D01*
X410956D01*
Y642763D01*
D02*
G37*
G36*
X545576Y637683D02*
X528844D01*
Y642477D01*
X545576D01*
Y637683D01*
D02*
G37*
G36*
X410956D02*
X394224D01*
Y642477D01*
X410956D01*
Y637683D01*
D02*
G37*
G36*
X545576Y682895D02*
X528844D01*
Y687689D01*
X545576D01*
Y682895D01*
D02*
G37*
G36*
X410956D02*
X394224D01*
Y687689D01*
X410956D01*
Y682895D01*
D02*
G37*
G36*
X545576Y677815D02*
X528844D01*
Y682609D01*
X545576D01*
Y677815D01*
D02*
G37*
G36*
X410956Y687721D02*
X394224D01*
Y692515D01*
X410956D01*
Y687721D01*
D02*
G37*
G36*
X545576Y692801D02*
X528844D01*
Y697595D01*
X545576D01*
Y692801D01*
D02*
G37*
G36*
X410956D02*
X394224D01*
Y697595D01*
X410956D01*
Y692801D01*
D02*
G37*
G36*
X545576Y687721D02*
X528844D01*
Y692515D01*
X545576D01*
Y687721D01*
D02*
G37*
G36*
X410956Y667909D02*
X394224D01*
Y672703D01*
X410956D01*
Y667909D01*
D02*
G37*
G36*
X545576Y662829D02*
X528844D01*
Y667623D01*
X545576D01*
Y662829D01*
D02*
G37*
G36*
X410956D02*
X394224D01*
Y667623D01*
X410956D01*
Y662829D01*
D02*
G37*
G36*
X545576Y667909D02*
X528844D01*
Y672703D01*
X545576D01*
Y667909D01*
D02*
G37*
G36*
X410956Y677815D02*
X394224D01*
Y682609D01*
X410956D01*
Y677815D01*
D02*
G37*
G36*
X545576Y672735D02*
X528844D01*
Y677529D01*
X545576D01*
Y672735D01*
D02*
G37*
G36*
X410956D02*
X394224D01*
Y677529D01*
X410956D01*
Y672735D01*
D02*
G37*
D80*
X808108Y203200D02*
D03*
X793108D02*
D03*
X586352Y200406D02*
D03*
X601352D02*
D03*
X335654Y914908D02*
D03*
X350654D02*
D03*
X610500Y625000D02*
D03*
X625500D02*
D03*
X610500Y641000D02*
D03*
X625500D02*
D03*
X211500Y430000D02*
D03*
X196500D02*
D03*
X177000Y430000D02*
D03*
X162000D02*
D03*
D81*
X290000Y915500D02*
D03*
Y942500D02*
D03*
X746000Y915000D02*
D03*
Y942000D02*
D03*
X477000Y774500D02*
D03*
Y747500D02*
D03*
X504000Y774500D02*
D03*
Y747500D02*
D03*
X270000Y616500D02*
D03*
Y589500D02*
D03*
X288544Y477050D02*
D03*
Y450050D02*
D03*
D82*
X233000Y520000D02*
D03*
X260000D02*
D03*
X292000D02*
D03*
X319000D02*
D03*
X193500Y474000D02*
D03*
X166500D02*
D03*
X328000Y600000D02*
D03*
X355000D02*
D03*
X355500Y645000D02*
D03*
X328500D02*
D03*
X605500Y662000D02*
D03*
X632500D02*
D03*
D83*
X692000Y914500D02*
D03*
Y899500D02*
D03*
D84*
X300500Y832000D02*
D03*
Y827000D02*
D03*
Y822000D02*
D03*
Y817000D02*
D03*
Y812000D02*
D03*
Y807000D02*
D03*
Y802000D02*
D03*
X277500D02*
D03*
Y807000D02*
D03*
Y812000D02*
D03*
Y817000D02*
D03*
Y822000D02*
D03*
Y827000D02*
D03*
Y832000D02*
D03*
D85*
X294000Y798000D02*
D03*
X289000D02*
D03*
X284000D02*
D03*
Y836000D02*
D03*
X289000D02*
D03*
X294000D02*
D03*
D86*
X235580Y915340D02*
D03*
X155580D02*
D03*
X235580Y960340D02*
D03*
X155580D02*
D03*
X873120Y915340D02*
D03*
X793120D02*
D03*
X873120Y960340D02*
D03*
X793120D02*
D03*
D87*
X265630Y133140D02*
D03*
X280630D02*
D03*
D88*
X385064Y164636D02*
D03*
X375064D02*
D03*
X385064Y177336D02*
D03*
X375064D02*
D03*
X385064Y215436D02*
D03*
X375064D02*
D03*
D89*
X232490Y149320D02*
D03*
Y139820D02*
D03*
X242650Y158210D02*
D03*
Y148710D02*
D03*
D90*
X263000Y352000D02*
D03*
Y368000D02*
D03*
D91*
X294830Y275380D02*
D03*
X276830D02*
D03*
D92*
X314690Y202990D02*
D03*
X302690D02*
D03*
X254430Y117900D02*
D03*
X266430D02*
D03*
X279830D02*
D03*
X291830D02*
D03*
X220140Y58718D02*
D03*
X232140D02*
D03*
X162990Y209340D02*
D03*
X174990D02*
D03*
Y158540D02*
D03*
X162990D02*
D03*
D93*
X242570Y130600D02*
D03*
X232570D02*
D03*
X222410Y161080D02*
D03*
X232410D02*
D03*
D94*
X232490Y121630D02*
D03*
Y111630D02*
D03*
X203280Y162430D02*
D03*
Y172430D02*
D03*
X212170Y162430D02*
D03*
Y172430D02*
D03*
X194390Y195450D02*
D03*
Y205450D02*
D03*
D95*
X302340Y256838D02*
D03*
Y236518D02*
D03*
D96*
X263960Y234740D02*
D03*
X274120D02*
D03*
D97*
X283290Y255060D02*
D03*
X262970D02*
D03*
D98*
X209750Y201750D02*
D03*
Y213750D02*
D03*
X300816Y175654D02*
D03*
Y187654D02*
D03*
D99*
X261000Y333500D02*
D03*
X245000D02*
D03*
D100*
X160990Y194940D02*
D03*
X176990D02*
D03*
Y172940D02*
D03*
X160990D02*
D03*
D101*
X249000Y196640D02*
D03*
D102*
X230000Y182640D02*
D03*
Y186640D02*
D03*
Y190640D02*
D03*
Y194640D02*
D03*
Y198640D02*
D03*
Y202640D02*
D03*
Y206640D02*
D03*
Y210640D02*
D03*
X268000D02*
D03*
Y206640D02*
D03*
Y202640D02*
D03*
Y198640D02*
D03*
Y194640D02*
D03*
Y190640D02*
D03*
Y186640D02*
D03*
Y182640D02*
D03*
D103*
X235000Y215640D02*
D03*
X239000D02*
D03*
X243000D02*
D03*
X247000D02*
D03*
X251000D02*
D03*
X255000D02*
D03*
X259000D02*
D03*
X263000D02*
D03*
Y177640D02*
D03*
X259000D02*
D03*
X255000D02*
D03*
X251000D02*
D03*
X247000D02*
D03*
X243000D02*
D03*
X239000D02*
D03*
X235000D02*
D03*
D104*
X488000Y852000D02*
D03*
X503000D02*
D03*
X595510Y845820D02*
D03*
X580510D02*
D03*
X231500Y817000D02*
D03*
X246500D02*
D03*
X340500Y845000D02*
D03*
X325500D02*
D03*
D105*
X478846Y453580D02*
D03*
Y468580D02*
D03*
X503174Y453630D02*
D03*
Y468630D02*
D03*
D106*
X229000Y610000D02*
D03*
Y596000D02*
D03*
X527304Y754238D02*
D03*
Y768238D02*
D03*
D107*
X634492Y203988D02*
D03*
Y238988D02*
D03*
X757174Y203200D02*
D03*
Y238200D02*
D03*
X919480Y741680D02*
D03*
X55880D02*
D03*
D108*
X740400Y427000D02*
D03*
X482600Y955040D02*
D03*
X601980D02*
D03*
X180928Y274110D02*
D03*
D109*
X715000Y427000D02*
D03*
X457200Y955040D02*
D03*
X431800D02*
D03*
X525780D02*
D03*
X551180D02*
D03*
X576580D02*
D03*
X944880Y741680D02*
D03*
X919480Y716280D02*
D03*
X944880D02*
D03*
X919480Y690880D02*
D03*
X944880D02*
D03*
X919480Y665480D02*
D03*
X944880D02*
D03*
X919480Y640080D02*
D03*
X944880D02*
D03*
X919480Y614680D02*
D03*
X944880D02*
D03*
X919480Y589280D02*
D03*
X944880D02*
D03*
X919480Y563880D02*
D03*
X944880D02*
D03*
X81280Y741680D02*
D03*
X55880Y716280D02*
D03*
X81280D02*
D03*
X55880Y690880D02*
D03*
X81280D02*
D03*
X55880Y665480D02*
D03*
X81280D02*
D03*
X55880Y640080D02*
D03*
X81280D02*
D03*
X55880Y614680D02*
D03*
X81280D02*
D03*
X55880Y589280D02*
D03*
X81280D02*
D03*
X55880Y563880D02*
D03*
X81280D02*
D03*
X79328Y274110D02*
D03*
X104728D02*
D03*
X130128D02*
D03*
X155528D02*
D03*
D110*
X420196Y215690D02*
D03*
X407496D02*
D03*
X420196Y190290D02*
D03*
Y202990D02*
D03*
X407496D02*
D03*
Y190290D02*
D03*
Y164890D02*
D03*
Y177590D02*
D03*
X420196D02*
D03*
D111*
Y164890D02*
D03*
D112*
X848000Y426000D02*
D03*
X913000D02*
D03*
D113*
X909828Y220218D02*
D03*
D114*
Y207518D02*
D03*
Y194818D02*
D03*
D115*
X502158Y620014D02*
D03*
X507492Y609854D02*
D03*
X481076Y138938D02*
D03*
X625602Y718820D02*
D03*
X631000Y731012D02*
D03*
X555752Y561086D02*
D03*
X451104Y544576D02*
D03*
X444500Y551942D02*
D03*
X437721Y559562D02*
D03*
X432308Y567182D02*
D03*
X572516Y561340D02*
D03*
X564134D02*
D03*
X467360Y728218D02*
D03*
X187000Y430000D02*
D03*
X793120Y892000D02*
D03*
X239014Y482346D02*
D03*
X232808Y503174D02*
D03*
X222838Y380238D02*
D03*
X676910Y659130D02*
D03*
X530098Y712978D02*
D03*
X478028Y675132D02*
D03*
X642620Y586740D02*
D03*
Y568198D02*
D03*
X618490Y573786D02*
D03*
X642620Y577596D02*
D03*
X494284Y151384D02*
D03*
X489204Y164846D02*
D03*
X610362Y570992D02*
D03*
X228854Y610108D02*
D03*
X350654Y914908D02*
D03*
X502920Y852170D02*
D03*
X879348Y293642D02*
D03*
X370000Y420000D02*
D03*
X383286Y566166D02*
D03*
X460000Y520000D02*
D03*
X500000Y420000D02*
D03*
X510000Y340000D02*
D03*
Y210000D02*
D03*
X590000Y220000D02*
D03*
X680000D02*
D03*
X605000Y312000D02*
D03*
X687000Y286000D02*
D03*
X812000Y288000D02*
D03*
X841502Y255016D02*
D03*
X732028Y249682D02*
D03*
X697000Y157000D02*
D03*
X844296Y195326D02*
D03*
X766000Y359000D02*
D03*
X762254Y643890D02*
D03*
X748000Y698000D02*
D03*
X795020Y755650D02*
D03*
X712000Y823000D02*
D03*
X539000Y846000D02*
D03*
X402000Y785000D02*
D03*
X278000Y749000D02*
D03*
X369824Y709930D02*
D03*
X220000Y664000D02*
D03*
X168000Y611000D02*
D03*
X181000Y739000D02*
D03*
X126492Y794766D02*
D03*
X63000Y387000D02*
D03*
X16000Y796000D02*
D03*
X55000Y899000D02*
D03*
X578000Y800000D02*
D03*
X527304Y754238D02*
D03*
X325500Y845000D02*
D03*
X478536Y656844D02*
D03*
X625500Y641000D02*
D03*
X605500Y662000D02*
D03*
X477774Y665480D02*
D03*
X322072Y829818D02*
D03*
X429006Y447802D02*
D03*
X314198Y470154D02*
D03*
X384810Y625348D02*
D03*
X517398Y645160D02*
D03*
X491236Y480314D02*
D03*
X550164Y665226D02*
D03*
X153416Y653034D02*
D03*
X130302Y652272D02*
D03*
X146050Y692150D02*
D03*
X106426Y702564D02*
D03*
X121412Y695706D02*
D03*
X69088Y651256D02*
D03*
X101600Y508254D02*
D03*
X182880Y522732D02*
D03*
X607060Y477520D02*
D03*
X372618Y486156D02*
D03*
X516382Y503174D02*
D03*
X467360Y692658D02*
D03*
X432308Y612648D02*
D03*
X419862Y843026D02*
D03*
X915924Y829564D02*
D03*
X758698Y558800D02*
D03*
X942848Y509016D02*
D03*
X653796Y394970D02*
D03*
X380238Y381000D02*
D03*
X46990Y463804D02*
D03*
X290830Y491744D02*
D03*
X186944Y441706D02*
D03*
X642620Y558546D02*
D03*
X574548Y200660D02*
D03*
D116*
X472440Y595884D02*
D03*
X477520Y591820D02*
D03*
X482346Y596138D02*
D03*
X487426Y591820D02*
D03*
X492506Y596138D02*
D03*
X289052Y818388D02*
D03*
Y826008D02*
D03*
X264414Y836422D02*
D03*
X270256Y843153D02*
D03*
X439420Y496824D02*
D03*
X483870Y523240D02*
D03*
X478790Y519430D02*
D03*
X446786Y491744D02*
D03*
X288290Y807212D02*
D03*
X927862Y296672D02*
D03*
D117*
X30000Y970000D02*
D03*
X25000Y400000D02*
D03*
X970000Y30000D02*
D03*
Y970000D02*
D03*
M02*
