G04 Layer_Color=16711935*
%FSLAX44Y44*%
%MOMM*%
G71*
G01*
G75*
%ADD80R,0.9032X1.1032*%
%ADD83R,1.1032X0.9032*%
%ADD104R,1.3032X1.6032*%
%ADD107R,1.7032X1.7032*%
%ADD108R,1.7032X1.7032*%
%ADD109C,1.7032*%
%ADD110C,1.1600*%
%ADD111R,1.1600X1.1600*%
%ADD112C,1.7272*%
%ADD113O,2.2032X1.2032*%
%ADD114O,2.2032X1.2032*%
%ADD115C,0.8032*%
%ADD116C,0.6032*%
%ADD117C,3.2032*%
G36*
X866348Y286642D02*
X852348D01*
Y300642D01*
X866348D01*
Y286642D01*
D02*
G37*
G36*
X645000Y281250D02*
X638000D01*
Y286750D01*
X645000D01*
Y281250D01*
D02*
G37*
G36*
X623500D02*
X616500D01*
Y286750D01*
X623500D01*
Y281250D01*
D02*
G37*
G36*
X886348Y286642D02*
X872348D01*
Y300642D01*
X886348D01*
Y286642D01*
D02*
G37*
G36*
X623500Y297250D02*
X616500D01*
Y302750D01*
X623500D01*
Y297250D01*
D02*
G37*
G36*
X645000Y289250D02*
X638000D01*
Y294750D01*
X645000D01*
Y289250D01*
D02*
G37*
G36*
X623500D02*
X616500D01*
Y294750D01*
X623500D01*
Y289250D01*
D02*
G37*
G36*
X645000Y273250D02*
X638000D01*
Y278750D01*
X645000D01*
Y273250D01*
D02*
G37*
G36*
X866348Y252642D02*
X852348D01*
Y266642D01*
X866348D01*
Y252642D01*
D02*
G37*
G36*
X886348Y235642D02*
X872348D01*
Y249642D01*
X886348D01*
Y235642D01*
D02*
G37*
G36*
X866348D02*
X852348D01*
Y249642D01*
X866348D01*
Y235642D01*
D02*
G37*
G36*
X886348Y252642D02*
X872348D01*
Y266642D01*
X886348D01*
Y252642D01*
D02*
G37*
G36*
X623500Y273250D02*
X616500D01*
Y278750D01*
X623500D01*
Y273250D01*
D02*
G37*
G36*
X886348Y269642D02*
X872348D01*
Y283642D01*
X886348D01*
Y269642D01*
D02*
G37*
G36*
X866348D02*
X852348D01*
Y283642D01*
X866348D01*
Y269642D01*
D02*
G37*
G36*
X804684Y470142D02*
X801636D01*
Y480302D01*
X804684D01*
Y470142D01*
D02*
G37*
G36*
X729684D02*
X726636D01*
Y480302D01*
X729684D01*
Y470142D01*
D02*
G37*
G36*
X645000Y321250D02*
X638000D01*
Y326750D01*
X645000D01*
Y321250D01*
D02*
G37*
G36*
X724858Y486398D02*
X721302D01*
Y496558D01*
X724858D01*
Y486398D01*
D02*
G37*
G36*
X810018D02*
X806462D01*
Y496558D01*
X810018D01*
Y486398D01*
D02*
G37*
G36*
X799858D02*
X796302D01*
Y496558D01*
X799858D01*
Y486398D01*
D02*
G37*
G36*
X735018D02*
X731462D01*
Y496558D01*
X735018D01*
Y486398D01*
D02*
G37*
G36*
X623500Y321250D02*
X616500D01*
Y326750D01*
X623500D01*
Y321250D01*
D02*
G37*
G36*
X886348Y303642D02*
X872348D01*
Y317642D01*
X886348D01*
Y303642D01*
D02*
G37*
G36*
X866348D02*
X852348D01*
Y317642D01*
X866348D01*
Y303642D01*
D02*
G37*
G36*
X645000Y297250D02*
X638000D01*
Y302750D01*
X645000D01*
Y297250D01*
D02*
G37*
G36*
X623500Y305250D02*
X616500D01*
Y310750D01*
X623500D01*
Y305250D01*
D02*
G37*
G36*
X645000Y313250D02*
X638000D01*
Y318750D01*
X645000D01*
Y313250D01*
D02*
G37*
G36*
X623500D02*
X616500D01*
Y318750D01*
X623500D01*
Y313250D01*
D02*
G37*
G36*
X645000Y305250D02*
X638000D01*
Y310750D01*
X645000D01*
Y305250D01*
D02*
G37*
D80*
X927488Y296418D02*
D03*
X912488D02*
D03*
X927500Y245000D02*
D03*
X912500D02*
D03*
D83*
X825754Y234054D02*
D03*
Y249054D02*
D03*
X591820Y318636D02*
D03*
Y333636D02*
D03*
D104*
X577000Y300000D02*
D03*
X592000D02*
D03*
X577000Y279000D02*
D03*
X592000D02*
D03*
X927488Y276352D02*
D03*
X912488D02*
D03*
X927488Y313436D02*
D03*
X912488D02*
D03*
D107*
X919480Y741680D02*
D03*
X55880D02*
D03*
D108*
X740400Y427000D02*
D03*
X482600Y955040D02*
D03*
X601980D02*
D03*
X180928Y274110D02*
D03*
D109*
X715000Y427000D02*
D03*
X457200Y955040D02*
D03*
X431800D02*
D03*
X525780D02*
D03*
X551180D02*
D03*
X576580D02*
D03*
X944880Y741680D02*
D03*
X919480Y716280D02*
D03*
X944880D02*
D03*
X919480Y690880D02*
D03*
X944880D02*
D03*
X919480Y665480D02*
D03*
X944880D02*
D03*
X919480Y640080D02*
D03*
X944880D02*
D03*
X919480Y614680D02*
D03*
X944880D02*
D03*
X919480Y589280D02*
D03*
X944880D02*
D03*
X919480Y563880D02*
D03*
X944880D02*
D03*
X81280Y741680D02*
D03*
X55880Y716280D02*
D03*
X81280D02*
D03*
X55880Y690880D02*
D03*
X81280D02*
D03*
X55880Y665480D02*
D03*
X81280D02*
D03*
X55880Y640080D02*
D03*
X81280D02*
D03*
X55880Y614680D02*
D03*
X81280D02*
D03*
X55880Y589280D02*
D03*
X81280D02*
D03*
X55880Y563880D02*
D03*
X81280D02*
D03*
X79328Y274110D02*
D03*
X104728D02*
D03*
X130128D02*
D03*
X155528D02*
D03*
D110*
X420196Y215690D02*
D03*
X407496D02*
D03*
X420196Y190290D02*
D03*
Y202990D02*
D03*
X407496D02*
D03*
Y190290D02*
D03*
Y164890D02*
D03*
Y177590D02*
D03*
X420196D02*
D03*
D111*
Y164890D02*
D03*
D112*
X848000Y426000D02*
D03*
X913000D02*
D03*
D113*
X909828Y220218D02*
D03*
D114*
Y207518D02*
D03*
Y194818D02*
D03*
D115*
X502158Y620014D02*
D03*
X507492Y609854D02*
D03*
X481076Y138938D02*
D03*
X625602Y718820D02*
D03*
X631000Y731012D02*
D03*
X555752Y561086D02*
D03*
X451104Y544576D02*
D03*
X444500Y551942D02*
D03*
X437721Y559562D02*
D03*
X432308Y567182D02*
D03*
X572516Y561340D02*
D03*
X564134D02*
D03*
X467360Y728218D02*
D03*
X187000Y430000D02*
D03*
X793120Y892000D02*
D03*
X239014Y482346D02*
D03*
X232808Y503174D02*
D03*
X222838Y380238D02*
D03*
X676910Y659130D02*
D03*
X530098Y712978D02*
D03*
X478028Y675132D02*
D03*
X642620Y586740D02*
D03*
Y568198D02*
D03*
X618490Y573786D02*
D03*
X642620Y577596D02*
D03*
X494284Y151384D02*
D03*
X489204Y164846D02*
D03*
X610362Y570992D02*
D03*
X228854Y610108D02*
D03*
X350654Y914908D02*
D03*
X502920Y852170D02*
D03*
X879348Y293642D02*
D03*
X370000Y420000D02*
D03*
X383286Y566166D02*
D03*
X460000Y520000D02*
D03*
X500000Y420000D02*
D03*
X510000Y340000D02*
D03*
Y210000D02*
D03*
X590000Y220000D02*
D03*
X680000D02*
D03*
X605000Y312000D02*
D03*
X687000Y286000D02*
D03*
X812000Y288000D02*
D03*
X841502Y255016D02*
D03*
X732028Y249682D02*
D03*
X697000Y157000D02*
D03*
X844296Y195326D02*
D03*
X766000Y359000D02*
D03*
X762254Y643890D02*
D03*
X748000Y698000D02*
D03*
X795020Y755650D02*
D03*
X712000Y823000D02*
D03*
X539000Y846000D02*
D03*
X402000Y785000D02*
D03*
X278000Y749000D02*
D03*
X369824Y709930D02*
D03*
X220000Y664000D02*
D03*
X168000Y611000D02*
D03*
X181000Y739000D02*
D03*
X126492Y794766D02*
D03*
X63000Y387000D02*
D03*
X16000Y796000D02*
D03*
X55000Y899000D02*
D03*
X578000Y800000D02*
D03*
X527304Y754238D02*
D03*
X325500Y845000D02*
D03*
X478536Y656844D02*
D03*
X625500Y641000D02*
D03*
X605500Y662000D02*
D03*
X477774Y665480D02*
D03*
X322072Y829818D02*
D03*
X429006Y447802D02*
D03*
X314198Y470154D02*
D03*
X384810Y625348D02*
D03*
X517398Y645160D02*
D03*
X491236Y480314D02*
D03*
X550164Y665226D02*
D03*
X153416Y653034D02*
D03*
X130302Y652272D02*
D03*
X146050Y692150D02*
D03*
X106426Y702564D02*
D03*
X121412Y695706D02*
D03*
X69088Y651256D02*
D03*
X101600Y508254D02*
D03*
X182880Y522732D02*
D03*
X607060Y477520D02*
D03*
X372618Y486156D02*
D03*
X516382Y503174D02*
D03*
X467360Y692658D02*
D03*
X432308Y612648D02*
D03*
X419862Y843026D02*
D03*
X915924Y829564D02*
D03*
X758698Y558800D02*
D03*
X942848Y509016D02*
D03*
X653796Y394970D02*
D03*
X380238Y381000D02*
D03*
X46990Y463804D02*
D03*
X290830Y491744D02*
D03*
X186944Y441706D02*
D03*
X642620Y558546D02*
D03*
X574548Y200660D02*
D03*
D116*
X472440Y595884D02*
D03*
X477520Y591820D02*
D03*
X482346Y596138D02*
D03*
X487426Y591820D02*
D03*
X492506Y596138D02*
D03*
X289052Y818388D02*
D03*
Y826008D02*
D03*
X264414Y836422D02*
D03*
X270256Y843153D02*
D03*
X439420Y496824D02*
D03*
X483870Y523240D02*
D03*
X478790Y519430D02*
D03*
X446786Y491744D02*
D03*
X288290Y807212D02*
D03*
X927862Y296672D02*
D03*
D117*
X30000Y970000D02*
D03*
X25000Y400000D02*
D03*
X970000Y30000D02*
D03*
Y970000D02*
D03*
M02*
