M48
;Layer_Color=9474304
;FILE_FORMAT=2:5
INCH,LZ
;TYPE=PLATED
T1F00S00C0.01181
T2F00S00C0.02756
T3F00S00C0.03000
T4F00S00C0.03150
T5F00S00C0.03543
T6F00S00C0.11811
%
T01
X027441Y0061811
X01946Y00596
X01926Y00649
X01894Y00547
X0177031Y0041417
X0173531
X0170031
X0154031Y0036917
X0152531Y0028917
X0162031
X0144531Y0027417
X0138531
X0132531
X0126531
X0120531
X0115531Y0023417
X0109531
X0105031
X0099031
X0095031Y0027917
Y0031417
Y0034917
Y0038417
Y0041917
X0100031Y0042417
X0104031
X0108031
X0112031
X0115531
X011939Y0045669
X0123531Y0046917
X0128031Y0042917
Y0034417
X0136031Y0033417
X0144531
Y0039417
X0136531Y0041417
X0120031Y0036917
X0113031Y0033917
X0106531
X0100031
X0087531
Y0037417
Y0043417
Y0046917
Y0050417
Y0053917
Y0057417
Y0060917
X0083531Y0060717
X0080031
X0074031Y0061917
X0072031Y0058917
X0068031
X0064031
X0069528Y0068248
X0077669Y0067779
X0071531Y0044917
Y0035417
X0074531Y0023417
X0068531
X0080531
X0083531Y0026917
X0087531Y0030417
X0100031Y0048917
X0099031Y0054417
X0115031Y0055417
Y0051917
X0119031
X0128931Y0054817
X0147731Y0061717
X0060031Y0058917
X0056031
X0052031
X0048031
Y0054917
Y0050917
Y0046917
Y0042917
Y0038917
Y0034917
Y0030917
X0047933Y0027165
X0050531Y0023417
X0044531
X0038531
X0032531
X0026531Y0026917
X0020531Y0027417
X0014531
X0008531
X0002531
X0040031Y0032917
Y0039417
Y0045917
Y0051917
Y0057417
X0046031Y0063417
X0054531Y0064917
X0059531Y0067917
X0055531Y0040417
X0056531Y0023417
X0062531
X0057531Y0071917
Y0075917
Y0079917
X0059031Y0083417
X0050531
Y0076917
Y0070417
X0039531Y0073917
X0024803Y0152362
X00185Y01826
X004Y02001
X0072Y02058
X0091657Y01981
X00941Y01899
X01145Y01936
X01237Y01851
X01467Y01914
X0145669Y0165354
X01497Y015
X0172931Y0141617
Y0107917
X0147531Y0112417
X0141531
X0132031Y0113917
X0126531Y0108917
X0127031Y0101917
Y0095917
X0132531Y0099417
X0137031
X0130531Y0077917
X0131531Y0075417
X0132531Y0072917
X0131531Y0070417
X0122031Y0072917
X0115531Y0074917
X0112731Y0084417
X0114031Y0092417
X0110138
X0097331Y0088417
X0098031Y0081017
Y0077417
Y0073917
X0094031
X0094131Y0077317
X0094031Y0080917
X0101731Y0081017
X0102031Y0077417
Y0073917
X0086931Y0074917
X0085974Y0071894
X0080131Y0074917
X0079626Y0079429
X0074016Y0076968
X0068996Y0086221
X0093531Y0113917
X0097031Y0114417
Y0117917
X0093531
X0090531Y0121417
Y0126917
X0096555Y0125591
X0108169Y0114862
X0103531Y0108917
X0117031Y0119417
X0121631Y0132217
X0121431Y0141617
X0087731Y01497
X0073622Y0169291
X00736Y01739
X01689Y01763
X0173Y01956
X01759Y01936
X0181102Y0204724
X01885Y02045
X01905Y0206
X01934Y01891
X02033Y01981
X02188Y02209
X0172331Y02203
X01702Y02233
X0175Y02173
X01776Y02144
X01509Y02229
X019685Y0165354
X0200787Y0133858
Y0082677
X0153976Y0078386
X0147631Y0072617
X02262Y0079
X0232283Y0086614
X0267717
X0270472Y0112598
X02882Y00983
X03313Y01004
X03324Y00769
X0319685Y0113386
X03462Y0115607
X03653Y01168
X0301575Y0141339
X02574Y01555
X0239Y0188
X02403Y02248
X02435Y02259
X0253Y02237
Y02199
X02254Y0221
X02221
X02987Y022
X03712Y02004
X0238189Y0122835
X0253Y02274
Y0231
X024626Y0252362
X0238386Y026063
X02665Y02595
X03001Y02535
X0294488Y0274803
X0313Y02975
X0312252Y0351181
X0280315Y0324016
X0227559Y0314961
X0248425Y02878
X02463Y0283
X03606Y03266
X0212205Y0333071
X0198Y03355
X01653Y03319
X0158268Y0309055
X01456Y02795
X01515Y02462
X01702Y02412
X0186Y02346
X0188Y0233
X01899Y02347
X01919Y0233
X01939Y02347
X01998Y02401
X01977Y02441
X02037Y0254
X01884Y02586
X01881Y0262
X01882Y02658
X0184Y02727
X0184Y02867
X02087Y02807
X02076Y0296944
X02166Y02619
X0086614Y0261417
X00901Y02402
X0066142Y0240551
X007126Y0290945
X0109449Y0294882
X01135Y03178
X01138Y03222
Y03252
X01041Y03293
X01064Y033195
X012815Y0332677
X01268Y03267
X0138053Y03602
X0021654Y0353937
X0006299Y0313386
X00498Y03129
X00478Y02739
X00419Y02766
X00575Y02725
X00604Y02571
X00513Y02568
X00272Y02564
T02
X0160431Y0064917
X0165431
Y0069917
Y0074917
Y0079917
Y0084917
X0160431
Y0079917
Y0074917
Y0069917
T03
X0333858Y0167717
X0359449
T04
X03582Y00767
Y00817
Y00867
T05
X0031231Y0107917
X0041231
X0051231
X0061231
X0032Y0222
X0022
X0071231Y0107917
X0281496Y016811
X0291496
X0362Y0222
X0372
Y0232
Y0242
Y0252
Y0262
Y0272
Y0282
Y0292
X0362
Y0282
Y0272
Y0262
Y0252
Y0242
Y0232
X0237Y0376
X0227
X0217
X0207
X019
X018
X017
X0032Y0292
X0022
Y0282
X0032
Y0272
X0022
Y0262
X0032
Y0252
X0022
Y0242
X0032
Y0232
X0022
T06
X038189Y0011811
X0009843Y015748
X038189Y038189
X0011811
M30
